M48
; DRILL file {KiCad (5.1.5-0)} date Wednesday, January 01, 2020 at 12:13:43 AM
; FORMAT={-:-/ absolute / inch / decimal}
; #@! TF.CreationDate,2020-01-01T00:13:43-08:00
; #@! TF.GenerationSoftware,Kicad,Pcbnew,(5.1.5-0)
; #@! TF.FileFunction,Plated,1,2,PTH
FMAT,2
INCH
T1C0.0130
T2C0.0270
T3C0.0295
T4C0.0394
%
G90
G05
T1
X-21.715Y21.22
X-21.685Y21.255
X-21.62Y21.51
X-21.495Y21.39
X-21.4675Y21.9425
X-21.36Y21.83
X-21.2786Y21.8518
X-21.1586Y21.5814
X-21.126Y21.5607
X-21.105Y21.93
X-21.1025Y22.0201
X-21.09Y21.505
X-21.0874Y21.5872
X-21.0699Y22.0251
X-21.02Y21.37
X-20.9359Y22.3532
T2
X-21.93Y22.105
X-21.895Y22.195
T3
X-21.225Y22.85
X-21.225Y22.8
X-21.225Y22.75
X-21.225Y22.7
X-21.225Y22.65
X-21.225Y22.6
X-21.225Y22.55
X-21.225Y22.5
X-21.225Y22.45
X-21.225Y22.4
X-21.225Y22.25
X-21.225Y22.2
X-21.225Y22.15
X-21.225Y22.1
X-21.225Y22.0
X-21.225Y21.95
X-21.225Y21.9
X-21.225Y21.85
X-21.225Y21.8
X-21.225Y21.75
X-21.225Y21.7
X-21.225Y21.5
X-21.225Y21.4
X-21.225Y21.35
X-21.225Y21.3
X-21.175Y22.85
X-21.175Y22.75
X-21.175Y22.65
X-21.175Y22.55
X-21.175Y22.5
X-21.175Y22.45
X-21.175Y22.3
X-21.175Y22.25
X-21.175Y22.2
X-21.175Y22.15
X-21.175Y22.1
X-21.175Y22.0
X-21.175Y21.95
X-21.175Y21.9
X-21.175Y21.85
X-21.175Y21.8
X-21.175Y21.75
X-21.175Y21.7
X-21.175Y21.45
X-21.175Y21.4
X-21.175Y21.35
X-21.175Y21.3
T4
X-21.9Y22.95
X-21.9Y22.85
X-21.9Y22.75
X-21.9Y22.65
X-21.9Y22.55
X-21.8Y22.95
X-21.8Y22.85
X-21.8Y22.75
X-21.8Y22.65
X-21.8Y22.55
X-21.925Y22.3
X-21.925Y22.425
X-21.825Y22.425
X-21.725Y22.425
X-21.625Y22.425
X-21.525Y22.425
X-21.425Y22.425
X-21.825Y22.175
X-21.725Y22.175
X-21.625Y22.175
X-20.875Y23.025
X-20.875Y22.925
X-20.875Y22.825
X-20.875Y22.725
X-20.875Y22.625
X-20.875Y22.525
X-20.875Y22.425
X-20.875Y22.325
X-20.875Y22.225
X-20.875Y22.125
X-20.875Y22.025
X-20.875Y21.925
X-20.875Y21.825
X-20.875Y21.725
X-20.875Y21.625
X-20.875Y21.525
X-20.875Y21.425
X-20.875Y21.325
X-20.875Y21.225
X-20.875Y21.125
X-20.775Y23.025
X-20.775Y22.925
X-20.775Y22.825
X-20.775Y22.725
X-20.775Y22.625
X-20.775Y22.525
X-20.775Y22.425
X-20.775Y22.325
X-20.775Y22.225
X-20.775Y22.125
X-20.775Y22.025
X-20.775Y21.925
X-20.775Y21.825
X-20.775Y21.725
X-20.775Y21.625
X-20.775Y21.525
X-20.775Y21.425
X-20.775Y21.325
X-20.775Y21.225
X-20.775Y21.125
X-21.475Y22.175
X-21.375Y22.175
X-21.325Y22.75
X-21.325Y22.65
X-21.325Y22.55
X-21.325Y22.45
X-21.325Y22.35
X-21.325Y21.45
X-21.325Y21.35
X-21.925Y21.725
X-21.925Y21.625
X-21.925Y21.525
X-21.825Y22.025
X-21.725Y22.025
X-21.625Y22.025
X-21.525Y22.025
X-21.425Y22.025
X-21.325Y22.025
X-21.925Y21.35
X-21.925Y21.25
X-21.925Y21.15
T0
M30
