G04 #@! TF.GenerationSoftware,KiCad,Pcbnew,(5.1.5-0)*
G04 #@! TF.CreationDate,2019-12-08T13:08:37-08:00*
G04 #@! TF.ProjectId,cisco_hwic_dev_board,63697363-6f5f-4687-9769-635f6465765f,rev?*
G04 #@! TF.SameCoordinates,Original*
G04 #@! TF.FileFunction,Copper,L2,Bot*
G04 #@! TF.FilePolarity,Positive*
%FSLAX46Y46*%
G04 Gerber Fmt 4.6, Leading zero omitted, Abs format (unit mm)*
G04 Created by KiCad (PCBNEW (5.1.5-0)) date 2019-12-08 13:08:37*
%MOMM*%
%LPD*%
G04 APERTURE LIST*
%ADD10O,1.700000X1.700000*%
%ADD11R,1.700000X1.700000*%
%ADD12O,1.000000X1.000000*%
%ADD13C,1.371600*%
%ADD14C,0.685800*%
%ADD15C,0.304800*%
%ADD16C,0.152400*%
G04 APERTURE END LIST*
D10*
X-554228000Y584708000D03*
X-554228000Y582168000D03*
D11*
X-554228000Y579628000D03*
D10*
X-549148000Y555752000D03*
X-551688000Y555752000D03*
D11*
X-554228000Y555752000D03*
D10*
X-554482000Y540512000D03*
X-551942000Y540512000D03*
X-554482000Y543052000D03*
X-551942000Y543052000D03*
X-554482000Y545592000D03*
X-551942000Y545592000D03*
X-554482000Y548132000D03*
X-551942000Y548132000D03*
X-554482000Y550672000D03*
D11*
X-551942000Y550672000D03*
D10*
X-541782000Y536448000D03*
X-544322000Y536448000D03*
X-546862000Y536448000D03*
X-549402000Y536448000D03*
X-551942000Y536448000D03*
D11*
X-554482000Y536448000D03*
D10*
X-538988000Y584708000D03*
X-541528000Y584708000D03*
X-544068000Y584708000D03*
X-546608000Y584708000D03*
X-549148000Y584708000D03*
D11*
X-551688000Y584708000D03*
D10*
X-554228000Y572008000D03*
X-554228000Y574548000D03*
D11*
X-554228000Y577088000D03*
D10*
X-554482000Y559308000D03*
D11*
X-554482000Y561848000D03*
X-554482000Y566166000D03*
D10*
X-532892000Y536448000D03*
X-535432000Y536448000D03*
X-532892000Y538988000D03*
X-535432000Y538988000D03*
X-532892000Y541528000D03*
X-535432000Y541528000D03*
X-532892000Y544068000D03*
X-535432000Y544068000D03*
X-532892000Y546608000D03*
X-535432000Y546608000D03*
X-532892000Y549148000D03*
X-535432000Y549148000D03*
X-532892000Y551688000D03*
X-535432000Y551688000D03*
X-532892000Y554228000D03*
X-535432000Y554228000D03*
X-532892000Y556768000D03*
X-535432000Y556768000D03*
X-532892000Y559308000D03*
X-535432000Y559308000D03*
X-532892000Y561848000D03*
X-535432000Y561848000D03*
X-532892000Y564388000D03*
X-535432000Y564388000D03*
X-532892000Y566928000D03*
X-535432000Y566928000D03*
X-532892000Y569468000D03*
X-535432000Y569468000D03*
X-532892000Y572008000D03*
X-535432000Y572008000D03*
X-532892000Y574548000D03*
X-535432000Y574548000D03*
X-532892000Y577088000D03*
X-535432000Y577088000D03*
X-532892000Y579628000D03*
X-535432000Y579628000D03*
X-532892000Y582168000D03*
X-535432000Y582168000D03*
X-532892000Y584708000D03*
D11*
X-535432000Y584708000D03*
D10*
X-543052000Y541020000D03*
X-543052000Y543560000D03*
X-543052000Y546100000D03*
X-543052000Y548640000D03*
X-543052000Y551180000D03*
X-543052000Y574040000D03*
D11*
X-543052000Y576580000D03*
D12*
X-539496000Y539750000D03*
X-540766000Y539750000D03*
X-540766000Y541020000D03*
X-539496000Y542290000D03*
X-540766000Y542290000D03*
X-540766000Y543560000D03*
X-539496000Y544830000D03*
X-540766000Y544830000D03*
X-540766000Y546100000D03*
X-539496000Y547370000D03*
X-540766000Y547370000D03*
X-539496000Y548640000D03*
X-540766000Y548640000D03*
X-539496000Y549910000D03*
X-540766000Y549910000D03*
X-540766000Y551180000D03*
X-539496000Y553720000D03*
X-539496000Y554990000D03*
X-540766000Y554990000D03*
X-539496000Y556260000D03*
X-540766000Y556260000D03*
X-539496000Y557530000D03*
X-540766000Y557530000D03*
X-539496000Y558800000D03*
X-540766000Y558800000D03*
X-539496000Y561340000D03*
X-540766000Y561340000D03*
X-539496000Y562610000D03*
X-540766000Y562610000D03*
X-539496000Y563880000D03*
X-540766000Y563880000D03*
X-539496000Y565150000D03*
X-540766000Y565150000D03*
X-539496000Y566420000D03*
X-540766000Y566420000D03*
X-539496000Y567690000D03*
X-540766000Y567690000D03*
X-539496000Y568960000D03*
X-540766000Y568960000D03*
X-540766000Y574040000D03*
X-539496000Y575310000D03*
X-539496000Y576580000D03*
X-540766000Y576580000D03*
X-539496000Y577850000D03*
X-540766000Y577850000D03*
X-539496000Y579120000D03*
X-540766000Y579120000D03*
D13*
X-548132000Y581660000D03*
X-542137590Y552958000D03*
X-546354000Y569214000D03*
X-548745997Y559940831D03*
X-551434000Y579374000D03*
D14*
X-537718000Y560451000D03*
X-537210000Y549529000D03*
X-539877000Y572262000D03*
X-538588208Y573640209D03*
X-537800194Y574526941D03*
X-546608000Y574040000D03*
X-548386000Y549656000D03*
X-547116000Y575310000D03*
X-549484849Y577070851D03*
X-544830000Y568198000D03*
X-542988490Y553976857D03*
X-545592000Y551434000D03*
X-537337000Y563499000D03*
X-546608000Y542798000D03*
D15*
X-542202001Y542710001D02*
X-543052000Y543560000D01*
X-541570801Y540554801D02*
X-541570801Y542078801D01*
X-540766000Y539750000D02*
X-541570801Y540554801D01*
X-542036000Y543560000D02*
X-540766000Y544830000D01*
X-543052000Y543560000D02*
X-542036000Y543560000D01*
X-540766000Y579120000D02*
X-539496000Y579120000D01*
X-539496000Y579120000D02*
X-539496000Y577850000D01*
X-539496000Y577850000D02*
X-540766000Y576580000D01*
X-540766000Y576580000D02*
X-539496000Y575310000D01*
X-538996001Y577350001D02*
X-539496000Y577850000D01*
X-538386388Y574802452D02*
X-538386388Y576740388D01*
X-539148840Y574040000D02*
X-538386388Y574802452D01*
X-538386388Y576740388D02*
X-538996001Y577350001D01*
X-540766000Y574040000D02*
X-539148840Y574040000D01*
X-540766000Y568960000D02*
X-539496000Y568960000D01*
X-540766000Y542290000D02*
X-541655000Y542290000D01*
X-541655000Y542290000D02*
X-542202001Y542710001D01*
X-541570801Y542078801D02*
X-541655000Y542290000D01*
X-532042001Y567777999D02*
X-532892000Y566928000D01*
X-531737199Y570853199D02*
X-531737199Y568082801D01*
X-531737199Y568082801D02*
X-532042001Y567777999D01*
X-532892000Y572008000D02*
X-531737199Y570853199D01*
X-532892000Y538988000D02*
X-535432000Y538988000D01*
X-540266001Y539250001D02*
X-540766000Y539750000D01*
X-539961199Y538945199D02*
X-540266001Y539250001D01*
X-536676882Y538945199D02*
X-539961199Y538945199D01*
X-536634081Y538988000D02*
X-536676882Y538945199D01*
X-535432000Y538988000D02*
X-536634081Y538988000D01*
X-531127561Y565163561D02*
X-532042001Y566078001D01*
X-531127561Y540752440D02*
X-531127561Y565163561D01*
X-532042001Y566078001D02*
X-532892000Y566928000D01*
X-532892000Y538988000D02*
X-531127561Y540752440D01*
X-542202001Y547790001D02*
X-543052000Y548640000D01*
X-541570801Y545634801D02*
X-541570801Y547158801D01*
X-541570801Y547158801D02*
X-542202001Y547790001D01*
X-540766000Y544830000D02*
X-541570801Y545634801D01*
X-541782000Y535245919D02*
X-541849919Y535178000D01*
X-541782000Y536448000D02*
X-541782000Y535245919D01*
X-555460642Y535178000D02*
X-555752000Y535469358D01*
X-541849919Y535178000D02*
X-555460642Y535178000D01*
X-555752000Y535469358D02*
X-555752000Y538226000D01*
X-546354000Y569214000D02*
X-543094853Y569214000D01*
X-531737199Y537833199D02*
X-532042001Y538138001D01*
X-531737199Y535893695D02*
X-531737199Y537833199D01*
X-532042001Y538138001D02*
X-532892000Y538988000D01*
X-532452894Y535178000D02*
X-531737199Y535893695D01*
X-541849919Y535178000D02*
X-532452894Y535178000D01*
X-555684081Y540512000D02*
X-555752000Y540512000D01*
X-554482000Y540512000D02*
X-555684081Y540512000D01*
X-555752000Y538226000D02*
X-555752000Y540512000D01*
X-555752000Y573024000D02*
X-554228000Y574548000D01*
X-554482000Y550672000D02*
X-555684081Y550672000D01*
X-555684081Y550672000D02*
X-555752000Y550672000D01*
X-555752000Y550672000D02*
X-555752000Y573024000D01*
X-555752000Y540512000D02*
X-555752000Y550672000D01*
X-552958000Y579512800D02*
X-552958000Y575818000D01*
X-554228000Y579628000D02*
X-553073200Y579628000D01*
X-553073200Y579628000D02*
X-552958000Y579512800D01*
X-552958000Y575818000D02*
X-554228000Y574548000D01*
X-548132000Y581660000D02*
X-548132000Y580644000D01*
X-548132000Y580644000D02*
X-552958000Y575818000D01*
X-543052000Y566420000D02*
X-543102799Y566585453D01*
X-542874178Y554821145D02*
X-542874178Y566242178D01*
X-542137590Y554084557D02*
X-542874178Y554821145D01*
X-542874178Y566242178D02*
X-543052000Y566420000D01*
X-543102799Y566585453D02*
X-543102799Y571703201D01*
X-542137590Y552958000D02*
X-542137590Y554084557D01*
X-543102799Y571703201D02*
X-540766000Y574040000D01*
X-549378828Y559308000D02*
X-548745997Y559940831D01*
X-554482000Y559308000D02*
X-549378828Y559308000D01*
X-544206801Y544945199D02*
X-543901999Y545250001D01*
X-543901999Y545250001D02*
X-543052000Y546100000D01*
X-536825395Y538487988D02*
X-543313988Y538487988D01*
X-534046801Y537602801D02*
X-535940208Y537602801D01*
X-535940208Y537602801D02*
X-536825395Y538487988D01*
X-543313988Y538487988D02*
X-544206801Y539380801D01*
X-544206801Y539380801D02*
X-544206801Y544945199D01*
X-532892000Y536448000D02*
X-534046801Y537602801D01*
X-551434000Y579374000D02*
X-554228000Y582168000D01*
X-535432000Y536448000D02*
X-537006791Y538022791D01*
X-537006791Y538022791D02*
X-543610791Y538022791D01*
X-543610791Y538022791D02*
X-544664012Y539076012D01*
X-543901999Y550330001D02*
X-543052000Y551180000D01*
X-544664012Y539076012D02*
X-544664012Y549567988D01*
X-544664012Y549567988D02*
X-543901999Y550330001D01*
X-544664012Y549567988D02*
X-544664012Y565238012D01*
X-544664012Y565238012D02*
X-547370000Y567944000D01*
X-547370000Y567944000D02*
X-547370000Y569976000D01*
X-544206801Y573139199D02*
X-544206801Y581775199D01*
X-547370000Y569976000D02*
X-544206801Y573139199D01*
X-544206801Y581775199D02*
X-542798000Y583184000D01*
X-553073199Y585862801D02*
X-553378001Y585557999D01*
X-543513695Y585862801D02*
X-553073199Y585862801D01*
X-553378001Y585557999D02*
X-554228000Y584708000D01*
X-542798000Y585147106D02*
X-543513695Y585862801D01*
X-542798000Y583184000D02*
X-542798000Y585147106D01*
D16*
X-538996001Y555489999D02*
X-539496000Y554990000D01*
X-534397135Y555489999D02*
X-538996001Y555489999D01*
X-533741999Y555918001D02*
X-533969133Y555918001D01*
X-533969133Y555918001D02*
X-534397135Y555489999D01*
X-532892000Y556768000D02*
X-533741999Y555918001D01*
X-539146271Y552991399D02*
X-538988271Y553149399D01*
X-534859601Y553149399D02*
X-534275412Y553733588D01*
X-532374271Y557846601D02*
X-534353399Y557846601D01*
X-532452258Y555611412D02*
X-531813399Y556250271D01*
X-540766000Y554990000D02*
X-540766000Y553911670D01*
X-531813399Y556250271D02*
X-531813399Y557285729D01*
X-539845729Y552991399D02*
X-539146271Y552991399D01*
X-534275412Y554871985D02*
X-533535985Y555611412D01*
X-534582001Y557617999D02*
X-535432000Y556768000D01*
X-531813399Y557285729D02*
X-532374271Y557846601D01*
X-533535985Y555611412D02*
X-532452258Y555611412D01*
X-538988271Y553149399D02*
X-534859601Y553149399D01*
X-540766000Y553911670D02*
X-539845729Y552991399D01*
X-534353399Y557846601D02*
X-534582001Y557617999D01*
X-534275412Y553733588D02*
X-534275412Y554871985D01*
X-538996001Y556759999D02*
X-539496000Y556260000D01*
X-537526601Y558229399D02*
X-538996001Y556759999D01*
X-533970601Y558229399D02*
X-537526601Y558229399D01*
X-532892000Y559308000D02*
X-533970601Y558229399D01*
X-533970601Y553580465D02*
X-533970601Y554745729D01*
X-532374271Y560386601D02*
X-534353399Y560386601D01*
X-538862015Y552844588D02*
X-534706478Y552844588D01*
X-532326002Y555306601D02*
X-531508588Y556124015D01*
X-539020015Y552686588D02*
X-538862015Y552844588D01*
X-533409729Y555306601D02*
X-532326002Y555306601D01*
X-533970601Y554745729D02*
X-533409729Y555306601D01*
X-534582001Y560157999D02*
X-535432000Y559308000D01*
X-534353399Y560386601D02*
X-534582001Y560157999D01*
X-531508588Y556124015D02*
X-531508588Y559520918D01*
X-539971985Y552686588D02*
X-539020015Y552686588D01*
X-541494601Y554209204D02*
X-539971985Y552686588D01*
X-541494601Y555531399D02*
X-541494601Y554209204D01*
X-540766000Y556260000D02*
X-541494601Y555531399D01*
X-534706478Y552844588D02*
X-533970601Y553580465D01*
X-531508588Y559520918D02*
X-532374271Y560386601D01*
X-538788894Y557530000D02*
X-535932293Y560386601D01*
X-535932293Y560386601D02*
X-534784465Y560386601D01*
X-539496000Y557530000D02*
X-538788894Y557530000D01*
X-533741999Y560998001D02*
X-532892000Y561848000D01*
X-534173065Y560998001D02*
X-533741999Y560998001D01*
X-534784465Y560386601D02*
X-534173065Y560998001D01*
X-534170001Y542789999D02*
X-533741999Y543218001D01*
X-533741999Y543218001D02*
X-532892000Y544068000D01*
X-538996001Y542789999D02*
X-534170001Y542789999D01*
X-539496000Y542290000D02*
X-538996001Y542789999D01*
X-538335588Y559833412D02*
X-537718000Y560451000D01*
X-541494601Y559149729D02*
X-540810918Y559833412D01*
X-540766000Y557530000D02*
X-541494601Y558258601D01*
X-541494601Y558258601D02*
X-541494601Y559149729D01*
X-540810918Y559833412D02*
X-538335588Y559833412D01*
X-535940000Y543560000D02*
X-535432000Y544068000D01*
X-540766000Y543560000D02*
X-535940000Y543560000D01*
X-533741999Y563538001D02*
X-532892000Y564388000D01*
X-538092109Y558800000D02*
X-536841687Y560050422D01*
X-539496000Y558800000D02*
X-538092109Y558800000D01*
X-533970601Y563309399D02*
X-533741999Y563538001D01*
X-535566931Y563309399D02*
X-533970601Y563309399D01*
X-536841687Y562034643D02*
X-535566931Y563309399D01*
X-536841687Y560050422D02*
X-536841687Y562034643D01*
X-534170001Y545329999D02*
X-533741999Y545758001D01*
X-538996001Y545329999D02*
X-534170001Y545329999D01*
X-533741999Y545758001D02*
X-532892000Y546608000D01*
X-539496000Y544830000D02*
X-538996001Y545329999D01*
X-540766000Y558800000D02*
X-540037399Y559528601D01*
X-537794575Y559528601D02*
X-537146498Y560176678D01*
X-537146498Y560176678D02*
X-537146498Y562180105D01*
X-536281999Y563044604D02*
X-536281999Y563538001D01*
X-540037399Y559528601D02*
X-537794575Y559528601D01*
X-537146498Y562180105D02*
X-536281999Y563044604D01*
X-536281999Y563538001D02*
X-535432000Y564388000D01*
X-535940000Y546100000D02*
X-535432000Y546608000D01*
X-540766000Y546100000D02*
X-535940000Y546100000D01*
X-537337000Y549529000D02*
X-537210000Y549529000D01*
X-539496000Y547370000D02*
X-537337000Y549529000D01*
X-542226476Y564070476D02*
X-542226476Y566387306D01*
X-542713843Y569910090D02*
X-540361933Y572262000D01*
X-540766000Y562610000D02*
X-542226476Y564070476D01*
X-542226476Y566387306D02*
X-542713843Y566874673D01*
X-542713843Y566874673D02*
X-542713843Y569910090D01*
X-540361933Y572262000D02*
X-539877000Y572262000D01*
X-537938601Y546641399D02*
X-536281999Y548298001D01*
X-536281999Y548298001D02*
X-535432000Y549148000D01*
X-540037399Y546641399D02*
X-537938601Y546641399D01*
X-540766000Y547370000D02*
X-540037399Y546641399D01*
X-537006811Y569798189D02*
X-536067000Y570738000D01*
X-535051000Y570738000D02*
X-533970601Y571818399D01*
X-533970601Y571818399D02*
X-533970601Y573469399D01*
X-538462588Y566614479D02*
X-537006811Y568070256D01*
X-533970601Y573469399D02*
X-533741999Y573698001D01*
X-538467313Y565550578D02*
X-538462589Y565555302D01*
X-538462589Y565555302D02*
X-538462588Y566614479D01*
X-539496000Y563880000D02*
X-538467313Y564908687D01*
X-537006811Y568070256D02*
X-537006811Y569798189D01*
X-536067000Y570738000D02*
X-535051000Y570738000D01*
X-533741999Y573698001D02*
X-532892000Y574548000D01*
X-538467313Y564908687D02*
X-538467313Y565550578D01*
X-533741999Y550838001D02*
X-532892000Y551688000D01*
X-534353399Y550226601D02*
X-533741999Y550838001D01*
X-537909399Y550226601D02*
X-534353399Y550226601D01*
X-539496000Y548640000D02*
X-537909399Y550226601D01*
X-539292866Y572935551D02*
X-538931107Y573297310D01*
X-540407032Y571690498D02*
X-539475678Y571690498D01*
X-541921665Y565035665D02*
X-541921665Y566513562D01*
X-542409031Y569688499D02*
X-540407032Y571690498D01*
X-539292866Y571873310D02*
X-539292866Y572935551D01*
X-538931107Y573297310D02*
X-538588208Y573640209D01*
X-540766000Y563880000D02*
X-541921665Y565035665D01*
X-539475678Y571690498D02*
X-539292866Y571873310D01*
X-542409031Y567000928D02*
X-542409031Y569688499D01*
X-541921665Y566513562D02*
X-542409031Y567000928D01*
X-541494601Y549368601D02*
X-541494601Y551529729D01*
X-540766000Y548640000D02*
X-541494601Y549368601D01*
X-537015081Y552069000D02*
X-541020000Y552069000D01*
X-536634081Y551688000D02*
X-537015081Y552069000D01*
X-535432000Y551688000D02*
X-536634081Y551688000D01*
X-541494601Y551529729D02*
X-541020000Y552069000D01*
X-532892000Y576326000D02*
X-532892000Y577088000D01*
X-534048588Y573904014D02*
X-534048588Y575169412D01*
X-534788014Y573164588D02*
X-534048588Y573904014D01*
X-538767399Y566769729D02*
X-537464000Y568073128D01*
X-536053412Y573164588D02*
X-534788014Y573164588D01*
X-537464000Y568073128D02*
X-537464000Y571754000D01*
X-538767399Y565878601D02*
X-538767399Y566769729D01*
X-537464000Y571754000D02*
X-536053412Y573164588D01*
X-534048588Y575169412D02*
X-532892000Y576326000D01*
X-539496000Y565150000D02*
X-538767399Y565878601D01*
X-533741999Y540678001D02*
X-532892000Y541528000D01*
X-534170001Y540249999D02*
X-533741999Y540678001D01*
X-538996001Y540249999D02*
X-534170001Y540249999D01*
X-539496000Y539750000D02*
X-538996001Y540249999D01*
X-537800194Y573619981D02*
X-537800194Y574042008D01*
X-538988055Y571747054D02*
X-538988055Y572432120D01*
X-542104220Y569562244D02*
X-540280777Y571385687D01*
X-541616854Y566000854D02*
X-541616854Y566847715D01*
X-541616854Y566847715D02*
X-542104220Y567335081D01*
X-540766000Y565150000D02*
X-541616854Y566000854D01*
X-540280777Y571385687D02*
X-539349422Y571385687D01*
X-542104220Y567335081D02*
X-542104220Y569562244D01*
X-539349422Y571385687D02*
X-538988055Y571747054D01*
X-538988055Y572432120D02*
X-537800194Y573619981D01*
X-537800194Y574042008D02*
X-537800194Y574526941D01*
X-535940000Y541020000D02*
X-535432000Y541528000D01*
X-540766000Y541020000D02*
X-535940000Y541020000D01*
X-537768811Y568199384D02*
X-537768811Y571880256D01*
X-533741999Y578778001D02*
X-532892000Y579628000D01*
X-534914270Y573469399D02*
X-534353399Y574030270D01*
X-539496000Y566472195D02*
X-537768811Y568199384D01*
X-536179668Y573469399D02*
X-534914270Y573469399D01*
X-534353399Y575295668D02*
X-533970601Y575678465D01*
X-534353399Y574030270D02*
X-534353399Y575295668D01*
X-533970601Y575678465D02*
X-533970601Y578549399D01*
X-537768811Y571880256D02*
X-536179668Y573469399D01*
X-539496000Y566420000D02*
X-539496000Y566472195D01*
X-533970601Y578549399D02*
X-533741999Y578778001D01*
X-539146271Y550638601D02*
X-539117069Y550609399D01*
X-533970601Y551553069D02*
X-533970601Y553149399D01*
X-540766000Y549910000D02*
X-540037399Y550638601D01*
X-534914271Y550609399D02*
X-533970601Y551553069D01*
X-540037399Y550638601D02*
X-539146271Y550638601D01*
X-539117069Y550609399D02*
X-534914271Y550609399D01*
X-533741999Y553378001D02*
X-532892000Y554228000D01*
X-533970601Y553149399D02*
X-533741999Y553378001D01*
X-534162000Y580898000D02*
X-534162000Y582803000D01*
X-535432000Y579628000D02*
X-534162000Y580898000D01*
X-534797000Y583438000D02*
X-536194000Y583438000D01*
X-541265999Y566919999D02*
X-540766000Y566420000D01*
X-541265999Y566927927D02*
X-541265999Y566919999D01*
X-539223166Y571080876D02*
X-540154521Y571080876D01*
X-538683244Y571620798D02*
X-539223166Y571080876D01*
X-536194000Y583438000D02*
X-537228692Y582403308D01*
X-534162000Y582803000D02*
X-534797000Y583438000D01*
X-538683244Y572305865D02*
X-538683244Y571620798D01*
X-537228692Y573760417D02*
X-538683244Y572305865D01*
X-541799410Y569435987D02*
X-541799410Y567461338D01*
X-540154521Y571080876D02*
X-541799410Y569435987D01*
X-541799410Y567461338D02*
X-541265999Y566927927D01*
X-537228692Y582403308D02*
X-537228692Y573760417D01*
X-535940000Y553720000D02*
X-535432000Y554228000D01*
X-539496000Y553720000D02*
X-535940000Y553720000D01*
X-533741999Y580886935D02*
X-533741999Y581318001D01*
X-536510601Y573616374D02*
X-536510601Y575374399D01*
X-539496000Y567690000D02*
X-538073622Y569112378D01*
X-538073622Y572053353D02*
X-536510601Y573616374D01*
X-533741999Y581318001D02*
X-532892000Y582168000D01*
X-534275412Y580353522D02*
X-533741999Y580886935D01*
X-538073622Y569112378D02*
X-538073622Y572053353D01*
X-536510601Y575374399D02*
X-536067000Y575818000D01*
X-534275412Y576212588D02*
X-534670000Y575818000D01*
X-534275412Y576212588D02*
X-534275412Y580353522D01*
X-536067000Y575818000D02*
X-534670000Y575818000D01*
X-536765498Y567190832D02*
X-535722165Y568234165D01*
X-534125835Y568234165D02*
X-533741999Y568618001D01*
X-536765498Y562992172D02*
X-536765498Y567190832D01*
X-539845729Y560611399D02*
X-539146271Y560611399D01*
X-535722165Y568234165D02*
X-534125835Y568234165D01*
X-539146271Y560611399D02*
X-536765498Y562992172D01*
X-533741999Y568618001D02*
X-532892000Y569468000D01*
X-540266001Y560840001D02*
X-540074331Y560840001D01*
X-540074331Y560840001D02*
X-539845729Y560611399D01*
X-540766000Y561340000D02*
X-540266001Y560840001D01*
X-541494601Y569309729D02*
X-540028265Y570776065D01*
X-541494601Y568418601D02*
X-541494601Y569309729D01*
X-538378433Y572179609D02*
X-536815412Y573742630D01*
X-536815412Y573742630D02*
X-536815412Y580784588D01*
X-540028265Y570776065D02*
X-539096910Y570776065D01*
X-536815412Y580784588D02*
X-536281999Y581318001D01*
X-539096910Y570776065D02*
X-538378433Y571494542D01*
X-536281999Y581318001D02*
X-535432000Y582168000D01*
X-540766000Y567690000D02*
X-541494601Y568418601D01*
X-538378433Y571494542D02*
X-538378433Y572179609D01*
X-546265101Y574382899D02*
X-546265101Y581825101D01*
X-546265101Y581825101D02*
X-548298001Y583858001D01*
X-546608000Y574040000D02*
X-546265101Y574382899D01*
X-548298001Y583858001D02*
X-549148000Y584708000D01*
X-551942000Y538480000D02*
X-551942000Y540512000D01*
X-550759999Y537297999D02*
X-551942000Y538480000D01*
X-550251999Y537297999D02*
X-550759999Y537297999D01*
X-549402000Y536448000D02*
X-550251999Y537297999D01*
X-551942000Y540512000D02*
X-548386000Y544068000D01*
X-548386000Y544068000D02*
X-548386000Y549656000D01*
X-538157778Y565429046D02*
X-538157778Y566234222D01*
X-536281999Y568110001D02*
X-536281999Y568618001D01*
X-538157778Y566234222D02*
X-536281999Y568110001D01*
X-539496000Y562610000D02*
X-538162502Y563943498D01*
X-536281999Y568618001D02*
X-535432000Y569468000D01*
X-538162502Y565424322D02*
X-538157778Y565429046D01*
X-538162502Y563943498D02*
X-538162502Y565424322D01*
X-547116000Y575310000D02*
X-547723998Y575310000D01*
X-547723998Y575310000D02*
X-549484849Y577070851D01*
X-539146271Y574581399D02*
X-538767399Y574960271D01*
X-538767399Y574960271D02*
X-538767399Y575851399D01*
X-539845729Y574581399D02*
X-539146271Y574581399D01*
X-534162000Y585978000D02*
X-536321000Y585978000D01*
X-541799412Y576535082D02*
X-539845729Y574581399D01*
X-532892000Y584708000D02*
X-534162000Y585978000D01*
X-538767399Y575851399D02*
X-539496000Y576580000D01*
X-536321000Y585978000D02*
X-536575000Y585724000D01*
X-536891063Y585405063D02*
X-536891063Y584772937D01*
X-536575000Y585724000D02*
X-536891063Y585405063D01*
X-536891063Y584772937D02*
X-541782000Y579882000D01*
X-541782000Y579882000D02*
X-541799412Y579899412D01*
X-541799412Y579899412D02*
X-541799412Y576535082D01*
X-540766000Y577850000D02*
X-541494601Y578578601D01*
X-536434400Y584708000D02*
X-535432000Y584708000D01*
X-541494601Y579647799D02*
X-536434400Y584708000D01*
X-541494601Y578578601D02*
X-541494601Y579647799D01*
X-552791999Y550076001D02*
X-551942000Y550926000D01*
X-547370000Y545084000D02*
X-547370000Y549656000D01*
X-548386000Y550672000D02*
X-551942000Y550672000D01*
X-547370000Y549656000D02*
X-548386000Y550672000D01*
X-547370000Y536956000D02*
X-546862000Y536448000D01*
X-547370000Y545084000D02*
X-547370000Y536956000D01*
X-547370000Y549656000D02*
X-547309347Y549656000D01*
X-547370000Y549656000D02*
X-545592000Y551434000D01*
X-544830000Y567713067D02*
X-544830000Y568198000D01*
X-542988490Y553976857D02*
X-543331389Y554319756D01*
X-543331389Y554319756D02*
X-543331389Y566160559D01*
X-543331389Y566160559D02*
X-544830000Y567659170D01*
X-544830000Y567659170D02*
X-544830000Y567713067D01*
X-539496000Y561340000D02*
X-537852967Y562983033D01*
X-537852967Y562983033D02*
X-537337000Y563499000D01*
X-553403399Y553924999D02*
X-553403399Y544130601D01*
X-554228000Y554749600D02*
X-553403399Y553924999D01*
X-553403399Y544130601D02*
X-554482000Y543052000D01*
X-554228000Y555752000D02*
X-554228000Y554749600D01*
X-553378001Y571158001D02*
X-554228000Y572008000D01*
X-553378001Y563954399D02*
X-553378001Y571158001D01*
X-554482000Y562850400D02*
X-553378001Y563954399D01*
X-554482000Y561848000D02*
X-554482000Y562850400D01*
X-546608000Y539936081D02*
X-546608000Y542798000D01*
X-544322000Y537650081D02*
X-546608000Y539936081D01*
X-544322000Y536448000D02*
X-544322000Y537650081D01*
X-553098588Y537604588D02*
X-551942000Y536448000D01*
X-553098588Y551801412D02*
X-553098588Y537604588D01*
X-549148000Y555752000D02*
X-549148000Y554549919D01*
X-550028730Y553669189D02*
X-551230811Y553669189D01*
X-551230811Y553669189D02*
X-553098588Y551801412D01*
X-549148000Y554549919D02*
X-550028730Y553669189D01*
X-547831595Y559502055D02*
X-550731651Y556601999D01*
X-544917999Y583858001D02*
X-544917999Y573698001D01*
X-547831595Y560379745D02*
X-547831595Y559502055D01*
X-547878000Y570738000D02*
X-547878000Y560426150D01*
X-550838001Y556601999D02*
X-551688000Y555752000D01*
X-550731651Y556601999D02*
X-550838001Y556601999D01*
X-544068000Y584708000D02*
X-544917999Y583858001D01*
X-544917999Y573698001D02*
X-547878000Y570738000D01*
X-547878000Y560426150D02*
X-547831595Y560379745D01*
M02*
