M48
; DRILL file {KiCad (5.1.5-0)} date Sunday, December 08, 2019 at 01:09:32 PM
; FORMAT={-:-/ absolute / inch / decimal}
; #@! TF.CreationDate,2019-12-08T13:09:32-08:00
; #@! TF.GenerationSoftware,Kicad,Pcbnew,(5.1.5-0)
; #@! TF.FileFunction,Plated,1,2,PTH
FMAT,2
INCH
T1C0.0130
T2C0.0256
T3C0.0270
T4C0.0394
%
G90
G05
T1
X-21.6333Y22.7193
X-21.59Y21.64
X-21.54Y22.65
X-21.52Y22.6
X-21.52Y21.37
X-21.48Y21.71
X-21.45Y22.37
X-21.3775Y21.8101
X-21.255Y22.53
X-21.2043Y22.5843
X-21.1732Y22.6192
X-21.17Y22.065
X-21.155Y22.185
X-21.15Y21.635
T2
X-21.29Y22.8
X-21.29Y22.75
X-21.29Y22.7
X-21.29Y22.6
X-21.29Y22.4
X-21.29Y22.35
X-21.29Y22.3
X-21.29Y22.25
X-21.29Y22.2
X-21.29Y22.15
X-21.29Y22.1
X-21.29Y22.0
X-21.29Y21.95
X-21.29Y21.9
X-21.29Y21.85
X-21.29Y21.7
X-21.29Y21.65
X-21.29Y21.6
X-21.29Y21.55
X-21.29Y21.5
X-21.29Y21.45
X-21.29Y21.4
X-21.29Y21.35
X-21.29Y21.3
X-21.29Y21.25
X-21.24Y22.8
X-21.24Y22.75
X-21.24Y22.7
X-21.24Y22.65
X-21.24Y22.4
X-21.24Y22.35
X-21.24Y22.3
X-21.24Y22.25
X-21.24Y22.2
X-21.24Y22.15
X-21.24Y22.1
X-21.24Y22.0
X-21.24Y21.95
X-21.24Y21.9
X-21.24Y21.85
X-21.24Y21.8
X-21.24Y21.65
X-21.24Y21.6
X-21.24Y21.55
X-21.24Y21.45
X-21.24Y21.35
X-21.24Y21.25
T3
X-21.71Y22.81
X-21.6042Y22.0449
X-21.58Y22.9
X-21.51Y22.41
X-21.344Y21.77
T4
X-21.38Y22.7
X-21.38Y22.6
X-21.38Y21.7
X-21.38Y21.6
X-21.38Y21.5
X-21.38Y21.4
X-21.38Y21.3
X-21.83Y22.29
X-21.82Y22.72
X-21.82Y22.62
X-21.82Y22.52
X-21.72Y23.02
X-21.62Y23.02
X-21.52Y23.02
X-21.42Y23.02
X-21.32Y23.02
X-21.22Y23.02
X-21.83Y22.12
X-21.83Y22.02
X-21.83Y21.68
X-21.83Y21.58
X-21.83Y21.48
X-21.83Y21.38
X-21.83Y21.28
X-21.73Y21.68
X-21.73Y21.58
X-21.73Y21.48
X-21.73Y21.38
X-21.73Y21.28
X-21.08Y23.02
X-21.08Y22.92
X-21.08Y22.82
X-21.08Y22.72
X-21.08Y22.62
X-21.08Y22.52
X-21.08Y22.42
X-21.08Y22.32
X-21.08Y22.22
X-21.08Y22.12
X-21.08Y22.02
X-21.08Y21.92
X-21.08Y21.82
X-21.08Y21.72
X-21.08Y21.62
X-21.08Y21.52
X-21.08Y21.42
X-21.08Y21.32
X-21.08Y21.22
X-21.08Y21.12
X-20.98Y23.02
X-20.98Y22.92
X-20.98Y22.82
X-20.98Y22.72
X-20.98Y22.62
X-20.98Y22.52
X-20.98Y22.42
X-20.98Y22.32
X-20.98Y22.22
X-20.98Y22.12
X-20.98Y22.02
X-20.98Y21.92
X-20.98Y21.82
X-20.98Y21.72
X-20.98Y21.62
X-20.98Y21.52
X-20.98Y21.42
X-20.98Y21.32
X-20.98Y21.22
X-20.98Y21.12
X-21.82Y23.02
X-21.82Y22.92
X-21.82Y22.82
X-21.83Y21.12
X-21.73Y21.12
X-21.63Y21.12
X-21.53Y21.12
X-21.43Y21.12
X-21.33Y21.12
X-21.82Y21.88
X-21.72Y21.88
X-21.62Y21.88
T0
M30
