G04 #@! TF.GenerationSoftware,KiCad,Pcbnew,(5.1.5-0)*
G04 #@! TF.CreationDate,2020-01-01T00:13:39-08:00*
G04 #@! TF.ProjectId,cisco_hwic_dev_board,63697363-6f5f-4687-9769-635f6465765f,rev?*
G04 #@! TF.SameCoordinates,Original*
G04 #@! TF.FileFunction,Legend,Bot*
G04 #@! TF.FilePolarity,Positive*
%FSLAX46Y46*%
G04 Gerber Fmt 4.6, Leading zero omitted, Abs format (unit mm)*
G04 Created by KiCad (PCBNEW (5.1.5-0)) date 2020-01-01 00:13:39*
%MOMM*%
%LPD*%
G04 APERTURE LIST*
%ADD10C,0.120000*%
%ADD11C,0.150000*%
G04 APERTURE END LIST*
D10*
X-526288000Y581025000D02*
X-534162000Y581025000D01*
X-526288000Y578485000D02*
X-534162000Y578485000D01*
X-526288000Y568325000D02*
X-534162000Y568325000D01*
X-526288000Y565785000D02*
X-534162000Y565785000D01*
X-528955000Y555625000D02*
X-534162000Y555625000D01*
X-528955000Y553085000D02*
X-534162000Y553085000D01*
X-528955000Y555625000D02*
X-528955000Y553085000D01*
X-526288000Y555625000D02*
X-528955000Y555625000D01*
X-528955000Y550545000D02*
X-534162000Y550545000D01*
X-528955000Y548005000D02*
X-534162000Y547878000D01*
X-528955000Y550545000D02*
X-528955000Y548005000D01*
X-526288000Y550545000D02*
X-528955000Y550545000D01*
X-526288000Y537845000D02*
X-534162000Y537845000D01*
D11*
X-531481357Y585382619D02*
X-532100404Y585382619D01*
X-531767071Y585001666D01*
X-531909928Y585001666D01*
X-532005166Y584954047D01*
X-532052785Y584906428D01*
X-532100404Y584811190D01*
X-532100404Y584573095D01*
X-532052785Y584477857D01*
X-532005166Y584430238D01*
X-531909928Y584382619D01*
X-531624214Y584382619D01*
X-531528976Y584430238D01*
X-531481357Y584477857D01*
X-532386119Y585382619D02*
X-532719452Y584382619D01*
X-533052785Y585382619D01*
X-533290880Y585382619D02*
X-533909928Y585382619D01*
X-533576595Y585001666D01*
X-533719452Y585001666D01*
X-533814690Y584954047D01*
X-533862309Y584906428D01*
X-533909928Y584811190D01*
X-533909928Y584573095D01*
X-533862309Y584477857D01*
X-533814690Y584430238D01*
X-533719452Y584382619D01*
X-533433738Y584382619D01*
X-533338500Y584430238D01*
X-533290880Y584477857D01*
X-531449595Y576762619D02*
X-531449595Y577762619D01*
X-531830547Y577762619D01*
X-531925785Y577715000D01*
X-531973404Y577667380D01*
X-532021023Y577572142D01*
X-532021023Y577429285D01*
X-531973404Y577334047D01*
X-531925785Y577286428D01*
X-531830547Y577238809D01*
X-531449595Y577238809D01*
X-532973404Y577715000D02*
X-532878166Y577762619D01*
X-532735309Y577762619D01*
X-532592452Y577715000D01*
X-532497214Y577619761D01*
X-532449595Y577524523D01*
X-532401976Y577334047D01*
X-532401976Y577191190D01*
X-532449595Y577000714D01*
X-532497214Y576905476D01*
X-532592452Y576810238D01*
X-532735309Y576762619D01*
X-532830547Y576762619D01*
X-532973404Y576810238D01*
X-533021023Y576857857D01*
X-533021023Y577191190D01*
X-532830547Y577191190D01*
X-533354357Y577762619D02*
X-534021023Y577762619D01*
X-533592452Y576762619D01*
X-531449595Y574222619D02*
X-531449595Y575222619D01*
X-531830547Y575222619D01*
X-531925785Y575175000D01*
X-531973404Y575127380D01*
X-532021023Y575032142D01*
X-532021023Y574889285D01*
X-531973404Y574794047D01*
X-531925785Y574746428D01*
X-531830547Y574698809D01*
X-531449595Y574698809D01*
X-532973404Y575175000D02*
X-532878166Y575222619D01*
X-532735309Y575222619D01*
X-532592452Y575175000D01*
X-532497214Y575079761D01*
X-532449595Y574984523D01*
X-532401976Y574794047D01*
X-532401976Y574651190D01*
X-532449595Y574460714D01*
X-532497214Y574365476D01*
X-532592452Y574270238D01*
X-532735309Y574222619D01*
X-532830547Y574222619D01*
X-532973404Y574270238D01*
X-533021023Y574317857D01*
X-533021023Y574651190D01*
X-532830547Y574651190D01*
X-533925785Y575222619D02*
X-533449595Y575222619D01*
X-533401976Y574746428D01*
X-533449595Y574794047D01*
X-533544833Y574841666D01*
X-533782928Y574841666D01*
X-533878166Y574794047D01*
X-533925785Y574746428D01*
X-533973404Y574651190D01*
X-533973404Y574413095D01*
X-533925785Y574317857D01*
X-533878166Y574270238D01*
X-533782928Y574222619D01*
X-533544833Y574222619D01*
X-533449595Y574270238D01*
X-533401976Y574317857D01*
X-531449595Y571682619D02*
X-531449595Y572682619D01*
X-531830547Y572682619D01*
X-531925785Y572635000D01*
X-531973404Y572587380D01*
X-532021023Y572492142D01*
X-532021023Y572349285D01*
X-531973404Y572254047D01*
X-531925785Y572206428D01*
X-531830547Y572158809D01*
X-531449595Y572158809D01*
X-532973404Y572635000D02*
X-532878166Y572682619D01*
X-532735309Y572682619D01*
X-532592452Y572635000D01*
X-532497214Y572539761D01*
X-532449595Y572444523D01*
X-532401976Y572254047D01*
X-532401976Y572111190D01*
X-532449595Y571920714D01*
X-532497214Y571825476D01*
X-532592452Y571730238D01*
X-532735309Y571682619D01*
X-532830547Y571682619D01*
X-532973404Y571730238D01*
X-533021023Y571777857D01*
X-533021023Y572111190D01*
X-532830547Y572111190D01*
X-533354357Y572682619D02*
X-533973404Y572682619D01*
X-533640071Y572301666D01*
X-533782928Y572301666D01*
X-533878166Y572254047D01*
X-533925785Y572206428D01*
X-533973404Y572111190D01*
X-533973404Y571873095D01*
X-533925785Y571777857D01*
X-533878166Y571730238D01*
X-533782928Y571682619D01*
X-533497214Y571682619D01*
X-533401976Y571730238D01*
X-533354357Y571777857D01*
X-531449595Y566602619D02*
X-531449595Y567602619D01*
X-531830547Y567602619D01*
X-531925785Y567555000D01*
X-531973404Y567507380D01*
X-532021023Y567412142D01*
X-532021023Y567269285D01*
X-531973404Y567174047D01*
X-531925785Y567126428D01*
X-531830547Y567078809D01*
X-531449595Y567078809D01*
X-532449595Y567126428D02*
X-532782928Y567126428D01*
X-532925785Y566602619D02*
X-532449595Y566602619D01*
X-532449595Y567602619D01*
X-532925785Y567602619D01*
X-533878166Y566602619D02*
X-533306738Y566602619D01*
X-533592452Y566602619D02*
X-533592452Y567602619D01*
X-533497214Y567459761D01*
X-533401976Y567364523D01*
X-533306738Y567316904D01*
X-531449595Y564062619D02*
X-531449595Y565062619D01*
X-531830547Y565062619D01*
X-531925785Y565015000D01*
X-531973404Y564967380D01*
X-532021023Y564872142D01*
X-532021023Y564729285D01*
X-531973404Y564634047D01*
X-531925785Y564586428D01*
X-531830547Y564538809D01*
X-531449595Y564538809D01*
X-532449595Y564062619D02*
X-532449595Y565062619D01*
X-532687690Y565062619D01*
X-532830547Y565015000D01*
X-532925785Y564919761D01*
X-532973404Y564824523D01*
X-533021023Y564634047D01*
X-533021023Y564491190D01*
X-532973404Y564300714D01*
X-532925785Y564205476D01*
X-532830547Y564110238D01*
X-532687690Y564062619D01*
X-532449595Y564062619D01*
X-533354357Y565062619D02*
X-534021023Y565062619D01*
X-533592452Y564062619D01*
X-531449595Y561522619D02*
X-531449595Y562522619D01*
X-531830547Y562522619D01*
X-531925785Y562475000D01*
X-531973404Y562427380D01*
X-532021023Y562332142D01*
X-532021023Y562189285D01*
X-531973404Y562094047D01*
X-531925785Y562046428D01*
X-531830547Y561998809D01*
X-531449595Y561998809D01*
X-532449595Y561522619D02*
X-532449595Y562522619D01*
X-532687690Y562522619D01*
X-532830547Y562475000D01*
X-532925785Y562379761D01*
X-532973404Y562284523D01*
X-533021023Y562094047D01*
X-533021023Y561951190D01*
X-532973404Y561760714D01*
X-532925785Y561665476D01*
X-532830547Y561570238D01*
X-532687690Y561522619D01*
X-532449595Y561522619D01*
X-533925785Y562522619D02*
X-533449595Y562522619D01*
X-533401976Y562046428D01*
X-533449595Y562094047D01*
X-533544833Y562141666D01*
X-533782928Y562141666D01*
X-533878166Y562094047D01*
X-533925785Y562046428D01*
X-533973404Y561951190D01*
X-533973404Y561713095D01*
X-533925785Y561617857D01*
X-533878166Y561570238D01*
X-533782928Y561522619D01*
X-533544833Y561522619D01*
X-533449595Y561570238D01*
X-533401976Y561617857D01*
X-531449595Y558982619D02*
X-531449595Y559982619D01*
X-531830547Y559982619D01*
X-531925785Y559935000D01*
X-531973404Y559887380D01*
X-532021023Y559792142D01*
X-532021023Y559649285D01*
X-531973404Y559554047D01*
X-531925785Y559506428D01*
X-531830547Y559458809D01*
X-531449595Y559458809D01*
X-532449595Y558982619D02*
X-532449595Y559982619D01*
X-532687690Y559982619D01*
X-532830547Y559935000D01*
X-532925785Y559839761D01*
X-532973404Y559744523D01*
X-533021023Y559554047D01*
X-533021023Y559411190D01*
X-532973404Y559220714D01*
X-532925785Y559125476D01*
X-532830547Y559030238D01*
X-532687690Y558982619D01*
X-532449595Y558982619D01*
X-533354357Y559982619D02*
X-533973404Y559982619D01*
X-533640071Y559601666D01*
X-533782928Y559601666D01*
X-533878166Y559554047D01*
X-533925785Y559506428D01*
X-533973404Y559411190D01*
X-533973404Y559173095D01*
X-533925785Y559077857D01*
X-533878166Y559030238D01*
X-533782928Y558982619D01*
X-533497214Y558982619D01*
X-533401976Y559030238D01*
X-533354357Y559077857D01*
X-531973404Y554855000D02*
X-531878166Y554902619D01*
X-531735309Y554902619D01*
X-531592452Y554855000D01*
X-531497214Y554759761D01*
X-531449595Y554664523D01*
X-531401976Y554474047D01*
X-531401976Y554331190D01*
X-531449595Y554140714D01*
X-531497214Y554045476D01*
X-531592452Y553950238D01*
X-531735309Y553902619D01*
X-531830547Y553902619D01*
X-531973404Y553950238D01*
X-532021023Y553997857D01*
X-532021023Y554331190D01*
X-531830547Y554331190D01*
X-532449595Y553902619D02*
X-532449595Y554902619D01*
X-533021023Y553902619D01*
X-533021023Y554902619D01*
X-533497214Y553902619D02*
X-533497214Y554902619D01*
X-533735309Y554902619D01*
X-533878166Y554855000D01*
X-533973404Y554759761D01*
X-534021023Y554664523D01*
X-534068642Y554474047D01*
X-534068642Y554331190D01*
X-534021023Y554140714D01*
X-533973404Y554045476D01*
X-533878166Y553950238D01*
X-533735309Y553902619D01*
X-533497214Y553902619D01*
X-531401976Y549108333D02*
X-531878166Y549108333D01*
X-531306738Y548822619D02*
X-531640071Y549822619D01*
X-531973404Y548822619D01*
X-532163880Y549822619D02*
X-532735309Y549822619D01*
X-532449595Y548822619D02*
X-532449595Y549822619D01*
X-532830547Y548727380D02*
X-533592452Y548727380D01*
X-533830547Y548822619D02*
X-533830547Y549822619D01*
X-534211500Y549822619D01*
X-534306738Y549775000D01*
X-534354357Y549727380D01*
X-534401976Y549632142D01*
X-534401976Y549489285D01*
X-534354357Y549394047D01*
X-534306738Y549346428D01*
X-534211500Y549298809D01*
X-533830547Y549298809D01*
X-535163880Y549346428D02*
X-535306738Y549298809D01*
X-535354357Y549251190D01*
X-535401976Y549155952D01*
X-535401976Y549013095D01*
X-535354357Y548917857D01*
X-535306738Y548870238D01*
X-535211500Y548822619D01*
X-534830547Y548822619D01*
X-534830547Y549822619D01*
X-535163880Y549822619D01*
X-535259119Y549775000D01*
X-535306738Y549727380D01*
X-535354357Y549632142D01*
X-535354357Y549536904D01*
X-535306738Y549441666D01*
X-535259119Y549394047D01*
X-535163880Y549346428D01*
X-534830547Y549346428D01*
X-536306738Y549822619D02*
X-535830547Y549822619D01*
X-535782928Y549346428D01*
X-535830547Y549394047D01*
X-535925785Y549441666D01*
X-536163880Y549441666D01*
X-536259119Y549394047D01*
X-536306738Y549346428D01*
X-536354357Y549251190D01*
X-536354357Y549013095D01*
X-536306738Y548917857D01*
X-536259119Y548870238D01*
X-536163880Y548822619D01*
X-535925785Y548822619D01*
X-535830547Y548870238D01*
X-535782928Y548917857D01*
X-531449595Y543615619D02*
X-531449595Y544615619D01*
X-531830547Y544615619D01*
X-531925785Y544568000D01*
X-531973404Y544520380D01*
X-532021023Y544425142D01*
X-532021023Y544282285D01*
X-531973404Y544187047D01*
X-531925785Y544139428D01*
X-531830547Y544091809D01*
X-531449595Y544091809D01*
X-532782928Y544139428D02*
X-532925785Y544091809D01*
X-532973404Y544044190D01*
X-533021023Y543948952D01*
X-533021023Y543806095D01*
X-532973404Y543710857D01*
X-532925785Y543663238D01*
X-532830547Y543615619D01*
X-532449595Y543615619D01*
X-532449595Y544615619D01*
X-532782928Y544615619D01*
X-532878166Y544568000D01*
X-532925785Y544520380D01*
X-532973404Y544425142D01*
X-532973404Y544329904D01*
X-532925785Y544234666D01*
X-532878166Y544187047D01*
X-532782928Y544139428D01*
X-532449595Y544139428D01*
X-533925785Y544615619D02*
X-533449595Y544615619D01*
X-533401976Y544139428D01*
X-533449595Y544187047D01*
X-533544833Y544234666D01*
X-533782928Y544234666D01*
X-533878166Y544187047D01*
X-533925785Y544139428D01*
X-533973404Y544044190D01*
X-533973404Y543806095D01*
X-533925785Y543710857D01*
X-533878166Y543663238D01*
X-533782928Y543615619D01*
X-533544833Y543615619D01*
X-533449595Y543663238D01*
X-533401976Y543710857D01*
X-531449595Y541202619D02*
X-531449595Y542202619D01*
X-531830547Y542202619D01*
X-531925785Y542155000D01*
X-531973404Y542107380D01*
X-532021023Y542012142D01*
X-532021023Y541869285D01*
X-531973404Y541774047D01*
X-531925785Y541726428D01*
X-531830547Y541678809D01*
X-531449595Y541678809D01*
X-532782928Y541726428D02*
X-532925785Y541678809D01*
X-532973404Y541631190D01*
X-533021023Y541535952D01*
X-533021023Y541393095D01*
X-532973404Y541297857D01*
X-532925785Y541250238D01*
X-532830547Y541202619D01*
X-532449595Y541202619D01*
X-532449595Y542202619D01*
X-532782928Y542202619D01*
X-532878166Y542155000D01*
X-532925785Y542107380D01*
X-532973404Y542012142D01*
X-532973404Y541916904D01*
X-532925785Y541821666D01*
X-532878166Y541774047D01*
X-532782928Y541726428D01*
X-532449595Y541726428D01*
X-533354357Y542202619D02*
X-533973404Y542202619D01*
X-533640071Y541821666D01*
X-533782928Y541821666D01*
X-533878166Y541774047D01*
X-533925785Y541726428D01*
X-533973404Y541631190D01*
X-533973404Y541393095D01*
X-533925785Y541297857D01*
X-533878166Y541250238D01*
X-533782928Y541202619D01*
X-533497214Y541202619D01*
X-533401976Y541250238D01*
X-533354357Y541297857D01*
X-531973404Y582795000D02*
X-531878166Y582842619D01*
X-531735309Y582842619D01*
X-531592452Y582795000D01*
X-531497214Y582699761D01*
X-531449595Y582604523D01*
X-531401976Y582414047D01*
X-531401976Y582271190D01*
X-531449595Y582080714D01*
X-531497214Y581985476D01*
X-531592452Y581890238D01*
X-531735309Y581842619D01*
X-531830547Y581842619D01*
X-531973404Y581890238D01*
X-532021023Y581937857D01*
X-532021023Y582271190D01*
X-531830547Y582271190D01*
X-532449595Y581842619D02*
X-532449595Y582842619D01*
X-533021023Y581842619D01*
X-533021023Y582842619D01*
X-533497214Y581842619D02*
X-533497214Y582842619D01*
X-533735309Y582842619D01*
X-533878166Y582795000D01*
X-533973404Y582699761D01*
X-534021023Y582604523D01*
X-534068642Y582414047D01*
X-534068642Y582271190D01*
X-534021023Y582080714D01*
X-533973404Y581985476D01*
X-533878166Y581890238D01*
X-533735309Y581842619D01*
X-533497214Y581842619D01*
X-531449595Y579302619D02*
X-531449595Y580302619D01*
X-531830547Y580302619D01*
X-531925785Y580255000D01*
X-531973404Y580207380D01*
X-532021023Y580112142D01*
X-532021023Y579969285D01*
X-531973404Y579874047D01*
X-531925785Y579826428D01*
X-531830547Y579778809D01*
X-531449595Y579778809D01*
X-532449595Y579302619D02*
X-532449595Y580302619D01*
X-532449595Y579826428D02*
X-533021023Y579826428D01*
X-533021023Y579302619D02*
X-533021023Y580302619D01*
X-534021023Y579302619D02*
X-533449595Y579302619D01*
X-533735309Y579302619D02*
X-533735309Y580302619D01*
X-533640071Y580159761D01*
X-533544833Y580064523D01*
X-533449595Y580016904D01*
X-531449595Y569142619D02*
X-531449595Y570142619D01*
X-531830547Y570142619D01*
X-531925785Y570095000D01*
X-531973404Y570047380D01*
X-532021023Y569952142D01*
X-532021023Y569809285D01*
X-531973404Y569714047D01*
X-531925785Y569666428D01*
X-531830547Y569618809D01*
X-531449595Y569618809D01*
X-532973404Y570095000D02*
X-532878166Y570142619D01*
X-532735309Y570142619D01*
X-532592452Y570095000D01*
X-532497214Y569999761D01*
X-532449595Y569904523D01*
X-532401976Y569714047D01*
X-532401976Y569571190D01*
X-532449595Y569380714D01*
X-532497214Y569285476D01*
X-532592452Y569190238D01*
X-532735309Y569142619D01*
X-532830547Y569142619D01*
X-532973404Y569190238D01*
X-533021023Y569237857D01*
X-533021023Y569571190D01*
X-532830547Y569571190D01*
X-533973404Y569142619D02*
X-533401976Y569142619D01*
X-533687690Y569142619D02*
X-533687690Y570142619D01*
X-533592452Y569999761D01*
X-533497214Y569904523D01*
X-533401976Y569856904D01*
X-531449595Y556442619D02*
X-531449595Y557442619D01*
X-531830547Y557442619D01*
X-531925785Y557395000D01*
X-531973404Y557347380D01*
X-532021023Y557252142D01*
X-532021023Y557109285D01*
X-531973404Y557014047D01*
X-531925785Y556966428D01*
X-531830547Y556918809D01*
X-531449595Y556918809D01*
X-532449595Y556442619D02*
X-532449595Y557442619D01*
X-532687690Y557442619D01*
X-532830547Y557395000D01*
X-532925785Y557299761D01*
X-532973404Y557204523D01*
X-533021023Y557014047D01*
X-533021023Y556871190D01*
X-532973404Y556680714D01*
X-532925785Y556585476D01*
X-532830547Y556490238D01*
X-532687690Y556442619D01*
X-532449595Y556442619D01*
X-533973404Y556442619D02*
X-533401976Y556442619D01*
X-533687690Y556442619D02*
X-533687690Y557442619D01*
X-533592452Y557299761D01*
X-533497214Y557204523D01*
X-533401976Y557156904D01*
X-531449595Y551362619D02*
X-531449595Y552362619D01*
X-531830547Y552362619D01*
X-531925785Y552315000D01*
X-531973404Y552267380D01*
X-532021023Y552172142D01*
X-532021023Y552029285D01*
X-531973404Y551934047D01*
X-531925785Y551886428D01*
X-531830547Y551838809D01*
X-531449595Y551838809D01*
X-533021023Y551457857D02*
X-532973404Y551410238D01*
X-532830547Y551362619D01*
X-532735309Y551362619D01*
X-532592452Y551410238D01*
X-532497214Y551505476D01*
X-532449595Y551600714D01*
X-532401976Y551791190D01*
X-532401976Y551934047D01*
X-532449595Y552124523D01*
X-532497214Y552219761D01*
X-532592452Y552315000D01*
X-532735309Y552362619D01*
X-532830547Y552362619D01*
X-532973404Y552315000D01*
X-533021023Y552267380D01*
X-533973404Y551362619D02*
X-533401976Y551362619D01*
X-533687690Y551362619D02*
X-533687690Y552362619D01*
X-533592452Y552219761D01*
X-533497214Y552124523D01*
X-533401976Y552076904D01*
X-531449595Y546282619D02*
X-531449595Y547282619D01*
X-531830547Y547282619D01*
X-531925785Y547235000D01*
X-531973404Y547187380D01*
X-532021023Y547092142D01*
X-532021023Y546949285D01*
X-531973404Y546854047D01*
X-531925785Y546806428D01*
X-531830547Y546758809D01*
X-531449595Y546758809D01*
X-532782928Y546806428D02*
X-532925785Y546758809D01*
X-532973404Y546711190D01*
X-533021023Y546615952D01*
X-533021023Y546473095D01*
X-532973404Y546377857D01*
X-532925785Y546330238D01*
X-532830547Y546282619D01*
X-532449595Y546282619D01*
X-532449595Y547282619D01*
X-532782928Y547282619D01*
X-532878166Y547235000D01*
X-532925785Y547187380D01*
X-532973404Y547092142D01*
X-532973404Y546996904D01*
X-532925785Y546901666D01*
X-532878166Y546854047D01*
X-532782928Y546806428D01*
X-532449595Y546806428D01*
X-533354357Y547282619D02*
X-534021023Y547282619D01*
X-533592452Y546282619D01*
X-531449595Y538662619D02*
X-531449595Y539662619D01*
X-531830547Y539662619D01*
X-531925785Y539615000D01*
X-531973404Y539567380D01*
X-532021023Y539472142D01*
X-532021023Y539329285D01*
X-531973404Y539234047D01*
X-531925785Y539186428D01*
X-531830547Y539138809D01*
X-531449595Y539138809D01*
X-532782928Y539186428D02*
X-532925785Y539138809D01*
X-532973404Y539091190D01*
X-533021023Y538995952D01*
X-533021023Y538853095D01*
X-532973404Y538757857D01*
X-532925785Y538710238D01*
X-532830547Y538662619D01*
X-532449595Y538662619D01*
X-532449595Y539662619D01*
X-532782928Y539662619D01*
X-532878166Y539615000D01*
X-532925785Y539567380D01*
X-532973404Y539472142D01*
X-532973404Y539376904D01*
X-532925785Y539281666D01*
X-532878166Y539234047D01*
X-532782928Y539186428D01*
X-532449595Y539186428D01*
X-533973404Y538662619D02*
X-533401976Y538662619D01*
X-533687690Y538662619D02*
X-533687690Y539662619D01*
X-533592452Y539519761D01*
X-533497214Y539424523D01*
X-533401976Y539376904D01*
X-531449595Y536122619D02*
X-531449595Y537122619D01*
X-531830547Y537122619D01*
X-531925785Y537075000D01*
X-531973404Y537027380D01*
X-532021023Y536932142D01*
X-532021023Y536789285D01*
X-531973404Y536694047D01*
X-531925785Y536646428D01*
X-531830547Y536598809D01*
X-531449595Y536598809D01*
X-532401976Y536408333D02*
X-532878166Y536408333D01*
X-532306738Y536122619D02*
X-532640071Y537122619D01*
X-532973404Y536122619D01*
X-533830547Y536122619D02*
X-533259119Y536122619D01*
X-533544833Y536122619D02*
X-533544833Y537122619D01*
X-533449595Y536979761D01*
X-533354357Y536884523D01*
X-533259119Y536836904D01*
X-553408809Y565092952D02*
X-553446904Y565207238D01*
X-553446904Y565397714D01*
X-553408809Y565473904D01*
X-553370714Y565512000D01*
X-553294523Y565550095D01*
X-553218333Y565550095D01*
X-553142142Y565512000D01*
X-553104047Y565473904D01*
X-553065952Y565397714D01*
X-553027857Y565245333D01*
X-552989761Y565169142D01*
X-552951666Y565131047D01*
X-552875476Y565092952D01*
X-552799285Y565092952D01*
X-552723095Y565131047D01*
X-552685000Y565169142D01*
X-552646904Y565245333D01*
X-552646904Y565435809D01*
X-552685000Y565550095D01*
X-553446904Y565892952D02*
X-552646904Y565892952D01*
X-552646904Y566197714D01*
X-552685000Y566273904D01*
X-552723095Y566312000D01*
X-552799285Y566350095D01*
X-552913571Y566350095D01*
X-552989761Y566312000D01*
X-553027857Y566273904D01*
X-553065952Y566197714D01*
X-553065952Y565892952D01*
X-553446904Y566692952D02*
X-552646904Y566692952D01*
X-545026904Y565112047D02*
X-545026904Y565607285D01*
X-545331666Y565340619D01*
X-545331666Y565454904D01*
X-545369761Y565531095D01*
X-545407857Y565569190D01*
X-545484047Y565607285D01*
X-545674523Y565607285D01*
X-545750714Y565569190D01*
X-545788809Y565531095D01*
X-545826904Y565454904D01*
X-545826904Y565226333D01*
X-545788809Y565150142D01*
X-545750714Y565112047D01*
X-545750714Y565950142D02*
X-545788809Y565988238D01*
X-545826904Y565950142D01*
X-545788809Y565912047D01*
X-545750714Y565950142D01*
X-545826904Y565950142D01*
X-545026904Y566254904D02*
X-545026904Y566750142D01*
X-545331666Y566483476D01*
X-545331666Y566597761D01*
X-545369761Y566673952D01*
X-545407857Y566712047D01*
X-545484047Y566750142D01*
X-545674523Y566750142D01*
X-545750714Y566712047D01*
X-545788809Y566673952D01*
X-545826904Y566597761D01*
X-545826904Y566369190D01*
X-545788809Y566293000D01*
X-545750714Y566254904D01*
X-545026904Y566978714D02*
X-545826904Y567245380D01*
X-545026904Y567512047D01*
X-542486904Y565099333D02*
X-543286904Y565366000D01*
X-542486904Y565632666D01*
X-543286904Y565899333D02*
X-542486904Y565899333D01*
X-542486904Y566089809D01*
X-542525000Y566204095D01*
X-542601190Y566280285D01*
X-542677380Y566318380D01*
X-542829761Y566356476D01*
X-542944047Y566356476D01*
X-543096428Y566318380D01*
X-543172619Y566280285D01*
X-543248809Y566204095D01*
X-543286904Y566089809D01*
X-543286904Y565899333D01*
X-543286904Y566699333D02*
X-542486904Y566699333D01*
X-542486904Y566889809D01*
X-542525000Y567004095D01*
X-542601190Y567080285D01*
X-542677380Y567118380D01*
X-542829761Y567156476D01*
X-542944047Y567156476D01*
X-543096428Y567118380D01*
X-543172619Y567080285D01*
X-543248809Y567004095D01*
X-543286904Y566889809D01*
X-543286904Y566699333D01*
X-553732809Y567239095D02*
X-553999476Y566439095D01*
X-554266142Y567239095D01*
X-554532809Y566439095D02*
X-554532809Y567239095D01*
X-554913761Y566439095D02*
X-554913761Y567239095D01*
X-555370904Y566439095D01*
X-555370904Y567239095D01*
X-552907333Y547173095D02*
X-553174000Y546373095D01*
X-553440666Y547173095D01*
X-553707333Y546373095D02*
X-553707333Y547173095D01*
X-553897809Y547173095D01*
X-554012095Y547135000D01*
X-554088285Y547058809D01*
X-554126380Y546982619D01*
X-554164476Y546830238D01*
X-554164476Y546715952D01*
X-554126380Y546563571D01*
X-554088285Y546487380D01*
X-554012095Y546411190D01*
X-553897809Y546373095D01*
X-553707333Y546373095D01*
X-554507333Y546373095D02*
X-554507333Y547173095D01*
X-554697809Y547173095D01*
X-554812095Y547135000D01*
X-554888285Y547058809D01*
X-554926380Y546982619D01*
X-554964476Y546830238D01*
X-554964476Y546715952D01*
X-554926380Y546563571D01*
X-554888285Y546487380D01*
X-554812095Y546411190D01*
X-554697809Y546373095D01*
X-554507333Y546373095D01*
X-553351809Y552253095D02*
X-553618476Y551453095D01*
X-553885142Y552253095D01*
X-554151809Y551453095D02*
X-554151809Y552253095D01*
X-554532761Y551453095D02*
X-554532761Y552253095D01*
X-554989904Y551453095D01*
X-554989904Y552253095D01*
X-553364476Y549548000D02*
X-553288285Y549586095D01*
X-553174000Y549586095D01*
X-553059714Y549548000D01*
X-552983523Y549471809D01*
X-552945428Y549395619D01*
X-552907333Y549243238D01*
X-552907333Y549128952D01*
X-552945428Y548976571D01*
X-552983523Y548900380D01*
X-553059714Y548824190D01*
X-553174000Y548786095D01*
X-553250190Y548786095D01*
X-553364476Y548824190D01*
X-553402571Y548862285D01*
X-553402571Y549128952D01*
X-553250190Y549128952D01*
X-553745428Y548786095D02*
X-553745428Y549586095D01*
X-554202571Y548786095D01*
X-554202571Y549586095D01*
X-554583523Y548786095D02*
X-554583523Y549586095D01*
X-554774000Y549586095D01*
X-554888285Y549548000D01*
X-554964476Y549471809D01*
X-555002571Y549395619D01*
X-555040666Y549243238D01*
X-555040666Y549128952D01*
X-555002571Y548976571D01*
X-554964476Y548900380D01*
X-554888285Y548824190D01*
X-554774000Y548786095D01*
X-554583523Y548786095D01*
X-546917714Y579318428D02*
X-547060571Y579270809D01*
X-547108190Y579223190D01*
X-547155809Y579127952D01*
X-547155809Y578985095D01*
X-547108190Y578889857D01*
X-547060571Y578842238D01*
X-546965333Y578794619D01*
X-546584380Y578794619D01*
X-546584380Y579794619D01*
X-546917714Y579794619D01*
X-547012952Y579747000D01*
X-547060571Y579699380D01*
X-547108190Y579604142D01*
X-547108190Y579508904D01*
X-547060571Y579413666D01*
X-547012952Y579366047D01*
X-546917714Y579318428D01*
X-546584380Y579318428D01*
X-548012952Y578794619D02*
X-548012952Y579318428D01*
X-547965333Y579413666D01*
X-547870095Y579461285D01*
X-547679619Y579461285D01*
X-547584380Y579413666D01*
X-548012952Y578842238D02*
X-547917714Y578794619D01*
X-547679619Y578794619D01*
X-547584380Y578842238D01*
X-547536761Y578937476D01*
X-547536761Y579032714D01*
X-547584380Y579127952D01*
X-547679619Y579175571D01*
X-547917714Y579175571D01*
X-548012952Y579223190D01*
X-548917714Y578842238D02*
X-548822476Y578794619D01*
X-548632000Y578794619D01*
X-548536761Y578842238D01*
X-548489142Y578889857D01*
X-548441523Y578985095D01*
X-548441523Y579270809D01*
X-548489142Y579366047D01*
X-548536761Y579413666D01*
X-548632000Y579461285D01*
X-548822476Y579461285D01*
X-548917714Y579413666D01*
X-549346285Y578794619D02*
X-549346285Y579794619D01*
X-549441523Y579175571D02*
X-549727238Y578794619D01*
X-549727238Y579461285D02*
X-549346285Y579080333D01*
X-541293095Y557586809D02*
X-542093095Y557586809D01*
X-542093095Y557396333D01*
X-542055000Y557282047D01*
X-541978809Y557205857D01*
X-541902619Y557167761D01*
X-541750238Y557129666D01*
X-541635952Y557129666D01*
X-541483571Y557167761D01*
X-541407380Y557205857D01*
X-541331190Y557282047D01*
X-541293095Y557396333D01*
X-541293095Y557586809D01*
X-541369285Y556329666D02*
X-541331190Y556367761D01*
X-541293095Y556482047D01*
X-541293095Y556558238D01*
X-541331190Y556672523D01*
X-541407380Y556748714D01*
X-541483571Y556786809D01*
X-541635952Y556824904D01*
X-541750238Y556824904D01*
X-541902619Y556786809D01*
X-541978809Y556748714D01*
X-542055000Y556672523D01*
X-542093095Y556558238D01*
X-542093095Y556482047D01*
X-542055000Y556367761D01*
X-542016904Y556329666D01*
X-541293095Y555605857D02*
X-541293095Y555986809D01*
X-542093095Y555986809D01*
X-541293095Y555339190D02*
X-542093095Y555339190D01*
X-541293095Y554882047D02*
X-541750238Y555224904D01*
X-542093095Y554882047D02*
X-541635952Y555339190D01*
X-541216904Y554729666D02*
X-541216904Y554120142D01*
X-542093095Y553777285D02*
X-542093095Y553624904D01*
X-542055000Y553548714D01*
X-541978809Y553472523D01*
X-541826428Y553434428D01*
X-541559761Y553434428D01*
X-541407380Y553472523D01*
X-541331190Y553548714D01*
X-541293095Y553624904D01*
X-541293095Y553777285D01*
X-541331190Y553853476D01*
X-541407380Y553929666D01*
X-541559761Y553967761D01*
X-541826428Y553967761D01*
X-541978809Y553929666D01*
X-542055000Y553853476D01*
X-542093095Y553777285D01*
X-541712142Y553091571D02*
X-541712142Y552824904D01*
X-541293095Y552710619D02*
X-541293095Y553091571D01*
X-542093095Y553091571D01*
X-542093095Y552710619D01*
X-541216904Y552558238D02*
X-541216904Y551948714D01*
X-544366428Y557459857D02*
X-543833095Y557459857D01*
X-544290238Y557459857D02*
X-544328333Y557421761D01*
X-544366428Y557345571D01*
X-544366428Y557231285D01*
X-544328333Y557155095D01*
X-544252142Y557117000D01*
X-543833095Y557117000D01*
X-543909285Y556278904D02*
X-543871190Y556317000D01*
X-543833095Y556431285D01*
X-543833095Y556507476D01*
X-543871190Y556621761D01*
X-543947380Y556697952D01*
X-544023571Y556736047D01*
X-544175952Y556774142D01*
X-544290238Y556774142D01*
X-544442619Y556736047D01*
X-544518809Y556697952D01*
X-544595000Y556621761D01*
X-544633095Y556507476D01*
X-544633095Y556431285D01*
X-544595000Y556317000D01*
X-544556904Y556278904D01*
X-544633095Y555783666D02*
X-544633095Y555631285D01*
X-544595000Y555555095D01*
X-544518809Y555478904D01*
X-544366428Y555440809D01*
X-544099761Y555440809D01*
X-543947380Y555478904D01*
X-543871190Y555555095D01*
X-543833095Y555631285D01*
X-543833095Y555783666D01*
X-543871190Y555859857D01*
X-543947380Y555936047D01*
X-544099761Y555974142D01*
X-544366428Y555974142D01*
X-544518809Y555936047D01*
X-544595000Y555859857D01*
X-544633095Y555783666D01*
X-543833095Y555097952D02*
X-544633095Y555097952D01*
X-543833095Y554640809D01*
X-544633095Y554640809D01*
X-544252142Y553993190D02*
X-544252142Y554259857D01*
X-543833095Y554259857D02*
X-544633095Y554259857D01*
X-544633095Y553878904D01*
X-543833095Y553574142D02*
X-544633095Y553574142D01*
X-544595000Y552774142D02*
X-544633095Y552850333D01*
X-544633095Y552964619D01*
X-544595000Y553078904D01*
X-544518809Y553155095D01*
X-544442619Y553193190D01*
X-544290238Y553231285D01*
X-544175952Y553231285D01*
X-544023571Y553193190D01*
X-543947380Y553155095D01*
X-543871190Y553078904D01*
X-543833095Y552964619D01*
X-543833095Y552888428D01*
X-543871190Y552774142D01*
X-543909285Y552736047D01*
X-544175952Y552736047D01*
X-544175952Y552888428D01*
X-546449285Y557066380D02*
X-546411190Y557104476D01*
X-546373095Y557218761D01*
X-546373095Y557294952D01*
X-546411190Y557409238D01*
X-546487380Y557485428D01*
X-546563571Y557523523D01*
X-546715952Y557561619D01*
X-546830238Y557561619D01*
X-546982619Y557523523D01*
X-547058809Y557485428D01*
X-547135000Y557409238D01*
X-547173095Y557294952D01*
X-547173095Y557218761D01*
X-547135000Y557104476D01*
X-547096904Y557066380D01*
X-546411190Y556761619D02*
X-546373095Y556647333D01*
X-546373095Y556456857D01*
X-546411190Y556380666D01*
X-546449285Y556342571D01*
X-546525476Y556304476D01*
X-546601666Y556304476D01*
X-546677857Y556342571D01*
X-546715952Y556380666D01*
X-546754047Y556456857D01*
X-546792142Y556609238D01*
X-546830238Y556685428D01*
X-546868333Y556723523D01*
X-546944523Y556761619D01*
X-547020714Y556761619D01*
X-547096904Y556723523D01*
X-547135000Y556685428D01*
X-547173095Y556609238D01*
X-547173095Y556418761D01*
X-547135000Y556304476D01*
X-546373095Y555961619D02*
X-547173095Y555961619D01*
X-546373095Y555504476D01*
X-547173095Y555504476D01*
X-548913095Y557593333D02*
X-549713095Y557593333D01*
X-549713095Y557402857D01*
X-549675000Y557288571D01*
X-549598809Y557212380D01*
X-549522619Y557174285D01*
X-549370238Y557136190D01*
X-549255952Y557136190D01*
X-549103571Y557174285D01*
X-549027380Y557212380D01*
X-548951190Y557288571D01*
X-548913095Y557402857D01*
X-548913095Y557593333D01*
X-548989285Y556336190D02*
X-548951190Y556374285D01*
X-548913095Y556488571D01*
X-548913095Y556564761D01*
X-548951190Y556679047D01*
X-549027380Y556755238D01*
X-549103571Y556793333D01*
X-549255952Y556831428D01*
X-549370238Y556831428D01*
X-549522619Y556793333D01*
X-549598809Y556755238D01*
X-549675000Y556679047D01*
X-549713095Y556564761D01*
X-549713095Y556488571D01*
X-549675000Y556374285D01*
X-549636904Y556336190D01*
X-548913095Y555612380D02*
X-548913095Y555993333D01*
X-549713095Y555993333D01*
X-548913095Y555345714D02*
X-549713095Y555345714D01*
X-548913095Y554888571D02*
X-549370238Y555231428D01*
X-549713095Y554888571D02*
X-549255952Y555345714D01*
X-551453095Y557586952D02*
X-552253095Y557586952D01*
X-552253095Y557396476D01*
X-552215000Y557282190D01*
X-552138809Y557206000D01*
X-552062619Y557167904D01*
X-551910238Y557129809D01*
X-551795952Y557129809D01*
X-551643571Y557167904D01*
X-551567380Y557206000D01*
X-551491190Y557282190D01*
X-551453095Y557396476D01*
X-551453095Y557586952D01*
X-551681666Y556825047D02*
X-551681666Y556444095D01*
X-551453095Y556901238D02*
X-552253095Y556634571D01*
X-551453095Y556367904D01*
X-552253095Y556215523D02*
X-552253095Y555758380D01*
X-551453095Y555986952D02*
X-552253095Y555986952D01*
X-551681666Y555529809D02*
X-551681666Y555148857D01*
X-551453095Y555606000D02*
X-552253095Y555339333D01*
X-551453095Y555072666D01*
X-552253095Y554653619D02*
X-552253095Y554577428D01*
X-552215000Y554501238D01*
X-552176904Y554463142D01*
X-552100714Y554425047D01*
X-551948333Y554386952D01*
X-551757857Y554386952D01*
X-551605476Y554425047D01*
X-551529285Y554463142D01*
X-551491190Y554501238D01*
X-551453095Y554577428D01*
X-551453095Y554653619D01*
X-551491190Y554729809D01*
X-551529285Y554767904D01*
X-551605476Y554806000D01*
X-551757857Y554844095D01*
X-551948333Y554844095D01*
X-552100714Y554806000D01*
X-552176904Y554767904D01*
X-552215000Y554729809D01*
X-552253095Y554653619D01*
X-553993095Y557517142D02*
X-554793095Y557517142D01*
X-554221666Y557250476D01*
X-554793095Y556983809D01*
X-553993095Y556983809D01*
X-553993095Y556602857D02*
X-554793095Y556602857D01*
X-554031190Y556260000D02*
X-553993095Y556145714D01*
X-553993095Y555955238D01*
X-554031190Y555879047D01*
X-554069285Y555840952D01*
X-554145476Y555802857D01*
X-554221666Y555802857D01*
X-554297857Y555840952D01*
X-554335952Y555879047D01*
X-554374047Y555955238D01*
X-554412142Y556107619D01*
X-554450238Y556183809D01*
X-554488333Y556221904D01*
X-554564523Y556260000D01*
X-554640714Y556260000D01*
X-554716904Y556221904D01*
X-554755000Y556183809D01*
X-554793095Y556107619D01*
X-554793095Y555917142D01*
X-554755000Y555802857D01*
X-554793095Y555307619D02*
X-554793095Y555155238D01*
X-554755000Y555079047D01*
X-554678809Y555002857D01*
X-554526428Y554964761D01*
X-554259761Y554964761D01*
X-554107380Y555002857D01*
X-554031190Y555079047D01*
X-553993095Y555155238D01*
X-553993095Y555307619D01*
X-554031190Y555383809D01*
X-554107380Y555460000D01*
X-554259761Y555498095D01*
X-554526428Y555498095D01*
X-554678809Y555460000D01*
X-554755000Y555383809D01*
X-554793095Y555307619D01*
X-557130000Y571525476D02*
X-557091904Y571449285D01*
X-557091904Y571335000D01*
X-557130000Y571220714D01*
X-557206190Y571144523D01*
X-557282380Y571106428D01*
X-557434761Y571068333D01*
X-557549047Y571068333D01*
X-557701428Y571106428D01*
X-557777619Y571144523D01*
X-557853809Y571220714D01*
X-557891904Y571335000D01*
X-557891904Y571411190D01*
X-557853809Y571525476D01*
X-557815714Y571563571D01*
X-557549047Y571563571D01*
X-557549047Y571411190D01*
X-557891904Y571906428D02*
X-557091904Y571906428D01*
X-557891904Y572363571D01*
X-557091904Y572363571D01*
X-557891904Y572744523D02*
X-557091904Y572744523D01*
X-557091904Y572935000D01*
X-557130000Y573049285D01*
X-557206190Y573125476D01*
X-557282380Y573163571D01*
X-557434761Y573201666D01*
X-557549047Y573201666D01*
X-557701428Y573163571D01*
X-557777619Y573125476D01*
X-557853809Y573049285D01*
X-557891904Y572935000D01*
X-557891904Y572744523D01*
X-555351904Y571131857D02*
X-554551904Y571131857D01*
X-555123333Y571398523D01*
X-554551904Y571665190D01*
X-555351904Y571665190D01*
X-555351904Y572046142D02*
X-554551904Y572046142D01*
X-555313809Y572389000D02*
X-555351904Y572503285D01*
X-555351904Y572693761D01*
X-555313809Y572769952D01*
X-555275714Y572808047D01*
X-555199523Y572846142D01*
X-555123333Y572846142D01*
X-555047142Y572808047D01*
X-555009047Y572769952D01*
X-554970952Y572693761D01*
X-554932857Y572541380D01*
X-554894761Y572465190D01*
X-554856666Y572427095D01*
X-554780476Y572389000D01*
X-554704285Y572389000D01*
X-554628095Y572427095D01*
X-554590000Y572465190D01*
X-554551904Y572541380D01*
X-554551904Y572731857D01*
X-554590000Y572846142D01*
X-554551904Y573341380D02*
X-554551904Y573493761D01*
X-554590000Y573569952D01*
X-554666190Y573646142D01*
X-554818571Y573684238D01*
X-555085238Y573684238D01*
X-555237619Y573646142D01*
X-555313809Y573569952D01*
X-555351904Y573493761D01*
X-555351904Y573341380D01*
X-555313809Y573265190D01*
X-555237619Y573189000D01*
X-555085238Y573150904D01*
X-554818571Y573150904D01*
X-554666190Y573189000D01*
X-554590000Y573265190D01*
X-554551904Y573341380D01*
X-552049904Y571182666D02*
X-551249904Y571182666D01*
X-551249904Y571373142D01*
X-551288000Y571487428D01*
X-551364190Y571563619D01*
X-551440380Y571601714D01*
X-551592761Y571639809D01*
X-551707047Y571639809D01*
X-551859428Y571601714D01*
X-551935619Y571563619D01*
X-552011809Y571487428D01*
X-552049904Y571373142D01*
X-552049904Y571182666D01*
X-551973714Y572439809D02*
X-552011809Y572401714D01*
X-552049904Y572287428D01*
X-552049904Y572211238D01*
X-552011809Y572096952D01*
X-551935619Y572020761D01*
X-551859428Y571982666D01*
X-551707047Y571944571D01*
X-551592761Y571944571D01*
X-551440380Y571982666D01*
X-551364190Y572020761D01*
X-551288000Y572096952D01*
X-551249904Y572211238D01*
X-551249904Y572287428D01*
X-551288000Y572401714D01*
X-551326095Y572439809D01*
X-552049904Y573163619D02*
X-552049904Y572782666D01*
X-551249904Y572782666D01*
X-552049904Y573430285D02*
X-551249904Y573430285D01*
X-552049904Y573887428D02*
X-551592761Y573544571D01*
X-551249904Y573887428D02*
X-551707047Y573430285D01*
X-549636904Y571189047D02*
X-548836904Y571189047D01*
X-548836904Y571379523D01*
X-548875000Y571493809D01*
X-548951190Y571570000D01*
X-549027380Y571608095D01*
X-549179761Y571646190D01*
X-549294047Y571646190D01*
X-549446428Y571608095D01*
X-549522619Y571570000D01*
X-549598809Y571493809D01*
X-549636904Y571379523D01*
X-549636904Y571189047D01*
X-549408333Y571950952D02*
X-549408333Y572331904D01*
X-549636904Y571874761D02*
X-548836904Y572141428D01*
X-549636904Y572408095D01*
X-548836904Y572560476D02*
X-548836904Y573017619D01*
X-549636904Y572789047D02*
X-548836904Y572789047D01*
X-549408333Y573246190D02*
X-549408333Y573627142D01*
X-549636904Y573170000D02*
X-548836904Y573436666D01*
X-549636904Y573703333D01*
X-548836904Y574122380D02*
X-548836904Y574198571D01*
X-548875000Y574274761D01*
X-548913095Y574312857D01*
X-548989285Y574350952D01*
X-549141666Y574389047D01*
X-549332142Y574389047D01*
X-549484523Y574350952D01*
X-549560714Y574312857D01*
X-549598809Y574274761D01*
X-549636904Y574198571D01*
X-549636904Y574122380D01*
X-549598809Y574046190D01*
X-549560714Y574008095D01*
X-549484523Y573970000D01*
X-549332142Y573931904D01*
X-549141666Y573931904D01*
X-548989285Y573970000D01*
X-548913095Y574008095D01*
X-548875000Y574046190D01*
X-548836904Y574122380D01*
X-547020714Y571582619D02*
X-547058809Y571544523D01*
X-547096904Y571430238D01*
X-547096904Y571354047D01*
X-547058809Y571239761D01*
X-546982619Y571163571D01*
X-546906428Y571125476D01*
X-546754047Y571087380D01*
X-546639761Y571087380D01*
X-546487380Y571125476D01*
X-546411190Y571163571D01*
X-546335000Y571239761D01*
X-546296904Y571354047D01*
X-546296904Y571430238D01*
X-546335000Y571544523D01*
X-546373095Y571582619D01*
X-547058809Y571887380D02*
X-547096904Y572001666D01*
X-547096904Y572192142D01*
X-547058809Y572268333D01*
X-547020714Y572306428D01*
X-546944523Y572344523D01*
X-546868333Y572344523D01*
X-546792142Y572306428D01*
X-546754047Y572268333D01*
X-546715952Y572192142D01*
X-546677857Y572039761D01*
X-546639761Y571963571D01*
X-546601666Y571925476D01*
X-546525476Y571887380D01*
X-546449285Y571887380D01*
X-546373095Y571925476D01*
X-546335000Y571963571D01*
X-546296904Y572039761D01*
X-546296904Y572230238D01*
X-546335000Y572344523D01*
X-547096904Y572687380D02*
X-546296904Y572687380D01*
X-547096904Y573144523D01*
X-546296904Y573144523D01*
X-543756904Y571081047D02*
X-543756904Y571576285D01*
X-544061666Y571309619D01*
X-544061666Y571423904D01*
X-544099761Y571500095D01*
X-544137857Y571538190D01*
X-544214047Y571576285D01*
X-544404523Y571576285D01*
X-544480714Y571538190D01*
X-544518809Y571500095D01*
X-544556904Y571423904D01*
X-544556904Y571195333D01*
X-544518809Y571119142D01*
X-544480714Y571081047D01*
X-544480714Y571919142D02*
X-544518809Y571957238D01*
X-544556904Y571919142D01*
X-544518809Y571881047D01*
X-544480714Y571919142D01*
X-544556904Y571919142D01*
X-543756904Y572223904D02*
X-543756904Y572719142D01*
X-544061666Y572452476D01*
X-544061666Y572566761D01*
X-544099761Y572642952D01*
X-544137857Y572681047D01*
X-544214047Y572719142D01*
X-544404523Y572719142D01*
X-544480714Y572681047D01*
X-544518809Y572642952D01*
X-544556904Y572566761D01*
X-544556904Y572338190D01*
X-544518809Y572262000D01*
X-544480714Y572223904D01*
X-543756904Y572947714D02*
X-544556904Y573214380D01*
X-543756904Y573481047D01*
X-550741809Y565156428D02*
X-550779904Y565270714D01*
X-550779904Y565461190D01*
X-550741809Y565537380D01*
X-550703714Y565575476D01*
X-550627523Y565613571D01*
X-550551333Y565613571D01*
X-550475142Y565575476D01*
X-550437047Y565537380D01*
X-550398952Y565461190D01*
X-550360857Y565308809D01*
X-550322761Y565232619D01*
X-550284666Y565194523D01*
X-550208476Y565156428D01*
X-550132285Y565156428D01*
X-550056095Y565194523D01*
X-550018000Y565232619D01*
X-549979904Y565308809D01*
X-549979904Y565499285D01*
X-550018000Y565613571D01*
X-550779904Y565956428D02*
X-549979904Y565956428D01*
X-549979904Y566146904D01*
X-550018000Y566261190D01*
X-550094190Y566337380D01*
X-550170380Y566375476D01*
X-550322761Y566413571D01*
X-550437047Y566413571D01*
X-550589428Y566375476D01*
X-550665619Y566337380D01*
X-550741809Y566261190D01*
X-550779904Y566146904D01*
X-550779904Y565956428D01*
X-554720095Y542964619D02*
X-554243904Y542964619D01*
X-554196285Y542488428D01*
X-554243904Y542536047D01*
X-554339142Y542583666D01*
X-554577238Y542583666D01*
X-554672476Y542536047D01*
X-554720095Y542488428D01*
X-554767714Y542393190D01*
X-554767714Y542155095D01*
X-554720095Y542059857D01*
X-554672476Y542012238D01*
X-554577238Y541964619D01*
X-554339142Y541964619D01*
X-554243904Y542012238D01*
X-554196285Y542059857D01*
X-552799380Y540297619D02*
X-553418428Y540297619D01*
X-553085095Y539916666D01*
X-553227952Y539916666D01*
X-553323190Y539869047D01*
X-553370809Y539821428D01*
X-553418428Y539726190D01*
X-553418428Y539488095D01*
X-553370809Y539392857D01*
X-553323190Y539345238D01*
X-553227952Y539297619D01*
X-552942238Y539297619D01*
X-552847000Y539345238D01*
X-552799380Y539392857D01*
X-553847000Y539392857D02*
X-553894619Y539345238D01*
X-553847000Y539297619D01*
X-553799380Y539345238D01*
X-553847000Y539392857D01*
X-553847000Y539297619D01*
X-554227952Y540297619D02*
X-554847000Y540297619D01*
X-554513666Y539916666D01*
X-554656523Y539916666D01*
X-554751761Y539869047D01*
X-554799380Y539821428D01*
X-554847000Y539726190D01*
X-554847000Y539488095D01*
X-554799380Y539392857D01*
X-554751761Y539345238D01*
X-554656523Y539297619D01*
X-554370809Y539297619D01*
X-554275571Y539345238D01*
X-554227952Y539392857D01*
X-552831095Y537583000D02*
X-552735857Y537630619D01*
X-552593000Y537630619D01*
X-552450142Y537583000D01*
X-552354904Y537487761D01*
X-552307285Y537392523D01*
X-552259666Y537202047D01*
X-552259666Y537059190D01*
X-552307285Y536868714D01*
X-552354904Y536773476D01*
X-552450142Y536678238D01*
X-552593000Y536630619D01*
X-552688238Y536630619D01*
X-552831095Y536678238D01*
X-552878714Y536725857D01*
X-552878714Y537059190D01*
X-552688238Y537059190D01*
X-553307285Y536630619D02*
X-553307285Y537630619D01*
X-553878714Y536630619D01*
X-553878714Y537630619D01*
X-554354904Y536630619D02*
X-554354904Y537630619D01*
X-554593000Y537630619D01*
X-554735857Y537583000D01*
X-554831095Y537487761D01*
X-554878714Y537392523D01*
X-554926333Y537202047D01*
X-554926333Y537059190D01*
X-554878714Y536868714D01*
X-554831095Y536773476D01*
X-554735857Y536678238D01*
X-554593000Y536630619D01*
X-554354904Y536630619D01*
X-547481428Y584430238D02*
X-547624285Y584382619D01*
X-547862380Y584382619D01*
X-547957619Y584430238D01*
X-548005238Y584477857D01*
X-548052857Y584573095D01*
X-548052857Y584668333D01*
X-548005238Y584763571D01*
X-547957619Y584811190D01*
X-547862380Y584858809D01*
X-547671904Y584906428D01*
X-547576666Y584954047D01*
X-547529047Y585001666D01*
X-547481428Y585096904D01*
X-547481428Y585192142D01*
X-547529047Y585287380D01*
X-547576666Y585335000D01*
X-547671904Y585382619D01*
X-547910000Y585382619D01*
X-548052857Y585335000D01*
X-548481428Y584382619D02*
X-548481428Y585382619D01*
X-548719523Y585382619D01*
X-548862380Y585335000D01*
X-548957619Y585239761D01*
X-549005238Y585144523D01*
X-549052857Y584954047D01*
X-549052857Y584811190D01*
X-549005238Y584620714D01*
X-548957619Y584525476D01*
X-548862380Y584430238D01*
X-548719523Y584382619D01*
X-548481428Y584382619D01*
X-549910000Y584430238D02*
X-549814761Y584382619D01*
X-549624285Y584382619D01*
X-549529047Y584430238D01*
X-549481428Y584477857D01*
X-549433809Y584573095D01*
X-549433809Y584858809D01*
X-549481428Y584954047D01*
X-549529047Y585001666D01*
X-549624285Y585049285D01*
X-549814761Y585049285D01*
X-549910000Y585001666D01*
X-550767142Y584382619D02*
X-550767142Y584906428D01*
X-550719523Y585001666D01*
X-550624285Y585049285D01*
X-550433809Y585049285D01*
X-550338571Y585001666D01*
X-550767142Y584430238D02*
X-550671904Y584382619D01*
X-550433809Y584382619D01*
X-550338571Y584430238D01*
X-550290952Y584525476D01*
X-550290952Y584620714D01*
X-550338571Y584715952D01*
X-550433809Y584763571D01*
X-550671904Y584763571D01*
X-550767142Y584811190D01*
X-551243333Y584382619D02*
X-551243333Y585049285D01*
X-551243333Y584858809D02*
X-551290952Y584954047D01*
X-551338571Y585001666D01*
X-551433809Y585049285D01*
X-551529047Y585049285D01*
X-552290952Y584382619D02*
X-552290952Y585382619D01*
X-552290952Y584430238D02*
X-552195714Y584382619D01*
X-552005238Y584382619D01*
X-551910000Y584430238D01*
X-551862380Y584477857D01*
X-551814761Y584573095D01*
X-551814761Y584858809D01*
X-551862380Y584954047D01*
X-551910000Y585001666D01*
X-552005238Y585049285D01*
X-552195714Y585049285D01*
X-552290952Y585001666D01*
D10*
X-542925000Y568325000D02*
X-542925000Y586105000D01*
X-558165000Y586105000D02*
X-542925000Y586105000D01*
X-558165000Y586105000D02*
X-558165000Y568325000D01*
D11*
X-548758619Y550155380D02*
X-549758619Y550155380D01*
X-549282428Y550155380D02*
X-549282428Y549583952D01*
X-548758619Y549583952D02*
X-549758619Y549583952D01*
X-549758619Y549203000D02*
X-548758619Y548964904D01*
X-549472904Y548774428D01*
X-548758619Y548583952D01*
X-549758619Y548345857D01*
X-548758619Y547964904D02*
X-549758619Y547964904D01*
X-548853857Y546917285D02*
X-548806238Y546964904D01*
X-548758619Y547107761D01*
X-548758619Y547203000D01*
X-548806238Y547345857D01*
X-548901476Y547441095D01*
X-548996714Y547488714D01*
X-549187190Y547536333D01*
X-549330047Y547536333D01*
X-549520523Y547488714D01*
X-549615761Y547441095D01*
X-549711000Y547345857D01*
X-549758619Y547203000D01*
X-549758619Y547107761D01*
X-549711000Y546964904D01*
X-549663380Y546917285D01*
X-548758619Y545726809D02*
X-549758619Y545726809D01*
X-549758619Y545488714D01*
X-549711000Y545345857D01*
X-549615761Y545250619D01*
X-549520523Y545203000D01*
X-549330047Y545155380D01*
X-549187190Y545155380D01*
X-548996714Y545203000D01*
X-548901476Y545250619D01*
X-548806238Y545345857D01*
X-548758619Y545488714D01*
X-548758619Y545726809D01*
X-548806238Y544345857D02*
X-548758619Y544441095D01*
X-548758619Y544631571D01*
X-548806238Y544726809D01*
X-548901476Y544774428D01*
X-549282428Y544774428D01*
X-549377666Y544726809D01*
X-549425285Y544631571D01*
X-549425285Y544441095D01*
X-549377666Y544345857D01*
X-549282428Y544298238D01*
X-549187190Y544298238D01*
X-549091952Y544774428D01*
X-549425285Y543964904D02*
X-548758619Y543726809D01*
X-549425285Y543488714D01*
X-549282428Y542774428D02*
X-549234809Y542631571D01*
X-549187190Y542583952D01*
X-549091952Y542536333D01*
X-548949095Y542536333D01*
X-548853857Y542583952D01*
X-548806238Y542631571D01*
X-548758619Y542726809D01*
X-548758619Y543107761D01*
X-549758619Y543107761D01*
X-549758619Y542774428D01*
X-549711000Y542679190D01*
X-549663380Y542631571D01*
X-549568142Y542583952D01*
X-549472904Y542583952D01*
X-549377666Y542631571D01*
X-549330047Y542679190D01*
X-549282428Y542774428D01*
X-549282428Y543107761D01*
X-548758619Y541964904D02*
X-548806238Y542060142D01*
X-548853857Y542107761D01*
X-548949095Y542155380D01*
X-549234809Y542155380D01*
X-549330047Y542107761D01*
X-549377666Y542060142D01*
X-549425285Y541964904D01*
X-549425285Y541822047D01*
X-549377666Y541726809D01*
X-549330047Y541679190D01*
X-549234809Y541631571D01*
X-548949095Y541631571D01*
X-548853857Y541679190D01*
X-548806238Y541726809D01*
X-548758619Y541822047D01*
X-548758619Y541964904D01*
X-548758619Y540774428D02*
X-549282428Y540774428D01*
X-549377666Y540822047D01*
X-549425285Y540917285D01*
X-549425285Y541107761D01*
X-549377666Y541203000D01*
X-548806238Y540774428D02*
X-548758619Y540869666D01*
X-548758619Y541107761D01*
X-548806238Y541203000D01*
X-548901476Y541250619D01*
X-548996714Y541250619D01*
X-549091952Y541203000D01*
X-549139571Y541107761D01*
X-549139571Y540869666D01*
X-549187190Y540774428D01*
X-548758619Y540298238D02*
X-549425285Y540298238D01*
X-549234809Y540298238D02*
X-549330047Y540250619D01*
X-549377666Y540203000D01*
X-549425285Y540107761D01*
X-549425285Y540012523D01*
X-548758619Y539250619D02*
X-549758619Y539250619D01*
X-548806238Y539250619D02*
X-548758619Y539345857D01*
X-548758619Y539536333D01*
X-548806238Y539631571D01*
X-548853857Y539679190D01*
X-548949095Y539726809D01*
X-549234809Y539726809D01*
X-549330047Y539679190D01*
X-549377666Y539631571D01*
X-549425285Y539536333D01*
X-549425285Y539345857D01*
X-549377666Y539250619D01*
X-548108619Y549726809D02*
X-548108619Y549155380D01*
X-547108619Y549441095D02*
X-548108619Y549441095D01*
X-547108619Y548679190D02*
X-547156238Y548774428D01*
X-547203857Y548822047D01*
X-547299095Y548869666D01*
X-547584809Y548869666D01*
X-547680047Y548822047D01*
X-547727666Y548774428D01*
X-547775285Y548679190D01*
X-547775285Y548536333D01*
X-547727666Y548441095D01*
X-547680047Y548393476D01*
X-547584809Y548345857D01*
X-547299095Y548345857D01*
X-547203857Y548393476D01*
X-547156238Y548441095D01*
X-547108619Y548536333D01*
X-547108619Y548679190D01*
X-547108619Y547917285D02*
X-547775285Y547917285D01*
X-547680047Y547917285D02*
X-547727666Y547869666D01*
X-547775285Y547774428D01*
X-547775285Y547631571D01*
X-547727666Y547536333D01*
X-547632428Y547488714D01*
X-547108619Y547488714D01*
X-547632428Y547488714D02*
X-547727666Y547441095D01*
X-547775285Y547345857D01*
X-547775285Y547203000D01*
X-547727666Y547107761D01*
X-547632428Y547060142D01*
X-547108619Y547060142D01*
X-548108619Y545964904D02*
X-547108619Y545631571D01*
X-548108619Y545298238D01*
X-547156238Y544583952D02*
X-547108619Y544679190D01*
X-547108619Y544869666D01*
X-547156238Y544964904D01*
X-547251476Y545012523D01*
X-547632428Y545012523D01*
X-547727666Y544964904D01*
X-547775285Y544869666D01*
X-547775285Y544679190D01*
X-547727666Y544583952D01*
X-547632428Y544536333D01*
X-547537190Y544536333D01*
X-547441952Y545012523D01*
X-547108619Y544107761D02*
X-547775285Y544107761D01*
X-547584809Y544107761D02*
X-547680047Y544060142D01*
X-547727666Y544012523D01*
X-547775285Y543917285D01*
X-547775285Y543822047D01*
X-547108619Y543488714D02*
X-548108619Y543488714D01*
X-547727666Y543488714D02*
X-547775285Y543393476D01*
X-547775285Y543203000D01*
X-547727666Y543107761D01*
X-547680047Y543060142D01*
X-547584809Y543012523D01*
X-547299095Y543012523D01*
X-547203857Y543060142D01*
X-547156238Y543107761D01*
X-547108619Y543203000D01*
X-547108619Y543393476D01*
X-547156238Y543488714D01*
X-547156238Y542203000D02*
X-547108619Y542298238D01*
X-547108619Y542488714D01*
X-547156238Y542583952D01*
X-547251476Y542631571D01*
X-547632428Y542631571D01*
X-547727666Y542583952D01*
X-547775285Y542488714D01*
X-547775285Y542298238D01*
X-547727666Y542203000D01*
X-547632428Y542155380D01*
X-547537190Y542155380D01*
X-547441952Y542631571D01*
X-547775285Y541298238D02*
X-547108619Y541298238D01*
X-547775285Y541726809D02*
X-547251476Y541726809D01*
X-547156238Y541679190D01*
X-547108619Y541583952D01*
X-547108619Y541441095D01*
X-547156238Y541345857D01*
X-547203857Y541298238D01*
X-547108619Y540822047D02*
X-547775285Y540822047D01*
X-547584809Y540822047D02*
X-547680047Y540774428D01*
X-547727666Y540726809D01*
X-547775285Y540631571D01*
X-547775285Y540536333D01*
X-547156238Y539822047D02*
X-547108619Y539917285D01*
X-547108619Y540107761D01*
X-547156238Y540203000D01*
X-547251476Y540250619D01*
X-547632428Y540250619D01*
X-547727666Y540203000D01*
X-547775285Y540107761D01*
X-547775285Y539917285D01*
X-547727666Y539822047D01*
X-547632428Y539774428D01*
X-547537190Y539774428D01*
X-547441952Y540250619D01*
D10*
X-539419800Y582320400D02*
X-540232600Y582320400D01*
X-538149800Y582320400D02*
X-538810200Y582320400D01*
X-536727400Y582320400D02*
X-537540200Y582320400D01*
X-538454600Y540512000D02*
X-538353000Y540512000D01*
X-538454600Y540359600D02*
X-538454600Y540512000D01*
X-538454600Y539089600D02*
X-538454600Y539191200D01*
X-538251400Y539089600D02*
X-538454600Y539089600D01*
X-540232600Y539089600D02*
X-539115000Y539089600D01*
X-540232600Y539851600D02*
X-540232600Y539089600D01*
X-539673800Y540512000D02*
X-540232600Y540512000D01*
X-536727400Y539089600D02*
X-537540200Y539089600D01*
X-540232600Y540512000D02*
X-540232600Y582320400D01*
X-536727400Y539089600D02*
X-536727400Y582320400D01*
X-536727400Y553059600D02*
X-537083000Y553059600D01*
X-536727400Y559511200D02*
X-536879800Y559511200D01*
X-536727400Y565759600D02*
X-537083000Y565759600D01*
X-536727400Y572109600D02*
X-536879800Y572109600D01*
X-536727400Y578510400D02*
X-537083000Y578510400D01*
X-539877000Y577240400D02*
X-540232600Y577240400D01*
X-540080200Y570890400D02*
X-540232600Y570890400D01*
X-539826200Y564540400D02*
X-540232600Y564540400D01*
X-540080200Y558139600D02*
X-540232600Y558139600D01*
X-539877000Y551789600D02*
X-540232600Y551789600D01*
X-536727400Y546760400D02*
X-536879800Y546760400D01*
X-540232600Y545388800D02*
X-540080200Y545388800D01*
D11*
X-538607000Y540258000D02*
X-538607000Y539242000D01*
X-539623000Y540258000D02*
X-538607000Y540258000D01*
X-539623000Y539242000D02*
X-539623000Y540258000D01*
X-538607000Y539242000D02*
X-539623000Y539242000D01*
X-537443391Y539750000D02*
G75*
G03X-537443391Y539750000I-401609J0D01*
G01*
X-538713391Y539750000D02*
G75*
G03X-538713391Y539750000I-401609J0D01*
G01*
X-538713391Y581660000D02*
G75*
G03X-538713391Y581660000I-401609J0D01*
G01*
X-537443391Y581660000D02*
G75*
G03X-537443391Y581660000I-401609J0D01*
G01*
X-537443391Y579120000D02*
G75*
G03X-537443391Y579120000I-401609J0D01*
G01*
X-537443391Y576580000D02*
G75*
G03X-537443391Y576580000I-401609J0D01*
G01*
X-537443391Y574040000D02*
G75*
G03X-537443391Y574040000I-401609J0D01*
G01*
X-537443391Y560070000D02*
G75*
G03X-537443391Y560070000I-401609J0D01*
G01*
X-538713391Y560070000D02*
G75*
G03X-538713391Y560070000I-401609J0D01*
G01*
X-538713391Y548640000D02*
G75*
G03X-538713391Y548640000I-401609J0D01*
G01*
X-538713391Y549910000D02*
G75*
G03X-538713391Y549910000I-401609J0D01*
G01*
X-537443391Y549910000D02*
G75*
G03X-537443391Y549910000I-401609J0D01*
G01*
X-537443391Y548640000D02*
G75*
G03X-537443391Y548640000I-401609J0D01*
G01*
X-537443391Y547370000D02*
G75*
G03X-537443391Y547370000I-401609J0D01*
G01*
X-538713391Y547370000D02*
G75*
G03X-538713391Y547370000I-401609J0D01*
G01*
X-537443391Y546100000D02*
G75*
G03X-537443391Y546100000I-401609J0D01*
G01*
X-538713391Y544830000D02*
G75*
G03X-538713391Y544830000I-401609J0D01*
G01*
X-537443391Y568960000D02*
G75*
G03X-537443391Y568960000I-401609J0D01*
G01*
X-537443391Y567690000D02*
G75*
G03X-537443391Y567690000I-401609J0D01*
G01*
X-538713391Y567690000D02*
G75*
G03X-538713391Y567690000I-401609J0D01*
G01*
X-538713391Y566420000D02*
G75*
G03X-538713391Y566420000I-401609J0D01*
G01*
X-537443391Y566420000D02*
G75*
G03X-537443391Y566420000I-401609J0D01*
G01*
D10*
X-558225000Y565090000D02*
X-556895000Y565090000D01*
X-558225000Y566420000D02*
X-558225000Y565090000D01*
X-558225000Y567690000D02*
X-555565000Y567690000D01*
X-555565000Y567690000D02*
X-555565000Y567750000D01*
X-558225000Y567690000D02*
X-558225000Y567750000D01*
X-558225000Y567750000D02*
X-555565000Y567750000D01*
X-539877000Y561213000D02*
X-558673000Y561213000D01*
X-539877000Y543941000D02*
X-539877000Y561213000D01*
X-543433000Y543941000D02*
X-539877000Y543941000D01*
X-543433000Y534797000D02*
X-543433000Y543941000D01*
X-555117000Y534797000D02*
X-543433000Y534797000D01*
X-555117000Y543941000D02*
X-555117000Y534797000D01*
X-558673000Y543941000D02*
X-555117000Y543941000D01*
X-558673000Y561213000D02*
X-558673000Y543941000D01*
X-541595000Y564575000D02*
X-542925000Y564575000D01*
X-541595000Y563245000D02*
X-541595000Y564575000D01*
X-544195000Y564575000D02*
X-546795000Y564575000D01*
X-544195000Y561975000D02*
X-544195000Y564575000D01*
X-541595000Y561975000D02*
X-544195000Y561975000D01*
X-546795000Y564575000D02*
X-546795000Y561915000D01*
X-541595000Y561975000D02*
X-541595000Y561915000D01*
X-541595000Y561915000D02*
X-546795000Y561915000D01*
X-555685000Y564575000D02*
X-555685000Y563245000D01*
X-554355000Y564575000D02*
X-555685000Y564575000D01*
X-553085000Y564575000D02*
X-553085000Y561915000D01*
X-553085000Y561915000D02*
X-547945000Y561915000D01*
X-553085000Y564575000D02*
X-547945000Y564575000D01*
X-547945000Y564575000D02*
X-547945000Y561915000D01*
X-542865000Y568265000D02*
X-542865000Y569595000D01*
X-544195000Y568265000D02*
X-542865000Y568265000D01*
X-545465000Y568265000D02*
X-545465000Y570925000D01*
X-545465000Y570925000D02*
X-558225000Y570925000D01*
X-545465000Y568265000D02*
X-558225000Y568265000D01*
X-558225000Y568265000D02*
X-558225000Y570925000D01*
D11*
X-557323666Y564808619D02*
X-557323666Y564094333D01*
X-557276047Y563951476D01*
X-557180809Y563856238D01*
X-557037952Y563808619D01*
X-556942714Y563808619D01*
X-558276047Y564808619D02*
X-557799857Y564808619D01*
X-557752238Y564332428D01*
X-557799857Y564380047D01*
X-557895095Y564427666D01*
X-558133190Y564427666D01*
X-558228428Y564380047D01*
X-558276047Y564332428D01*
X-558323666Y564237190D01*
X-558323666Y563999095D01*
X-558276047Y563903857D01*
X-558228428Y563856238D01*
X-558133190Y563808619D01*
X-557895095Y563808619D01*
X-557799857Y563856238D01*
X-557752238Y563903857D01*
X-555879095Y559982619D02*
X-555879095Y559173095D01*
X-555926714Y559077857D01*
X-555974333Y559030238D01*
X-556069571Y558982619D01*
X-556260047Y558982619D01*
X-556355285Y559030238D01*
X-556402904Y559077857D01*
X-556450523Y559173095D01*
X-556450523Y559982619D01*
X-556879095Y559887380D02*
X-556926714Y559935000D01*
X-557021952Y559982619D01*
X-557260047Y559982619D01*
X-557355285Y559935000D01*
X-557402904Y559887380D01*
X-557450523Y559792142D01*
X-557450523Y559696904D01*
X-557402904Y559554047D01*
X-556831476Y558982619D01*
X-557450523Y558982619D01*
X-541186619Y564205333D02*
X-540472333Y564205333D01*
X-540329476Y564252952D01*
X-540234238Y564348190D01*
X-540186619Y564491047D01*
X-540186619Y564586285D01*
X-540186619Y563729142D02*
X-541186619Y563729142D01*
X-541186619Y563348190D01*
X-541139000Y563252952D01*
X-541091380Y563205333D01*
X-540996142Y563157714D01*
X-540853285Y563157714D01*
X-540758047Y563205333D01*
X-540710428Y563252952D01*
X-540662809Y563348190D01*
X-540662809Y563729142D01*
X-540186619Y562205333D02*
X-540186619Y562776761D01*
X-540186619Y562491047D02*
X-541186619Y562491047D01*
X-541043761Y562586285D01*
X-540948523Y562681523D01*
X-540900904Y562776761D01*
X-556061666Y562776619D02*
X-556061666Y562062333D01*
X-556014047Y561919476D01*
X-555918809Y561824238D01*
X-555775952Y561776619D01*
X-555680714Y561776619D01*
X-556537857Y561776619D02*
X-556537857Y562776619D01*
X-556918809Y562776619D01*
X-557014047Y562729000D01*
X-557061666Y562681380D01*
X-557109285Y562586142D01*
X-557109285Y562443285D01*
X-557061666Y562348047D01*
X-557014047Y562300428D01*
X-556918809Y562252809D01*
X-556537857Y562252809D01*
X-557490238Y562681380D02*
X-557537857Y562729000D01*
X-557633095Y562776619D01*
X-557871190Y562776619D01*
X-557966428Y562729000D01*
X-558014047Y562681380D01*
X-558061666Y562586142D01*
X-558061666Y562490904D01*
X-558014047Y562348047D01*
X-557442619Y561776619D01*
X-558061666Y561776619D01*
X-547798666Y567983619D02*
X-547798666Y567269333D01*
X-547751047Y567126476D01*
X-547655809Y567031238D01*
X-547512952Y566983619D01*
X-547417714Y566983619D01*
X-548703428Y567983619D02*
X-548512952Y567983619D01*
X-548417714Y567936000D01*
X-548370095Y567888380D01*
X-548274857Y567745523D01*
X-548227238Y567555047D01*
X-548227238Y567174095D01*
X-548274857Y567078857D01*
X-548322476Y567031238D01*
X-548417714Y566983619D01*
X-548608190Y566983619D01*
X-548703428Y567031238D01*
X-548751047Y567078857D01*
X-548798666Y567174095D01*
X-548798666Y567412190D01*
X-548751047Y567507428D01*
X-548703428Y567555047D01*
X-548608190Y567602666D01*
X-548417714Y567602666D01*
X-548322476Y567555047D01*
X-548274857Y567507428D01*
X-548227238Y567412190D01*
M02*
