G04 #@! TF.GenerationSoftware,KiCad,Pcbnew,(5.1.5-0)*
G04 #@! TF.CreationDate,2019-12-08T13:08:37-08:00*
G04 #@! TF.ProjectId,cisco_hwic_dev_board,63697363-6f5f-4687-9769-635f6465765f,rev?*
G04 #@! TF.SameCoordinates,Original*
G04 #@! TF.FileFunction,Copper,L1,Top*
G04 #@! TF.FilePolarity,Positive*
%FSLAX46Y46*%
G04 Gerber Fmt 4.6, Leading zero omitted, Abs format (unit mm)*
G04 Created by KiCad (PCBNEW (5.1.5-0)) date 2019-12-08 13:08:37*
%MOMM*%
%LPD*%
G04 APERTURE LIST*
%ADD10O,1.700000X1.700000*%
%ADD11R,1.700000X1.700000*%
%ADD12C,0.150000*%
%ADD13O,1.000000X1.000000*%
%ADD14C,1.371600*%
%ADD15C,0.685800*%
%ADD16C,0.304800*%
%ADD17C,0.152400*%
%ADD18C,0.254000*%
G04 APERTURE END LIST*
D10*
X-554228000Y584708000D03*
X-554228000Y582168000D03*
D11*
X-554228000Y579628000D03*
D10*
X-549148000Y555752000D03*
X-551688000Y555752000D03*
D11*
X-554228000Y555752000D03*
D10*
X-554482000Y540512000D03*
X-551942000Y540512000D03*
X-554482000Y543052000D03*
X-551942000Y543052000D03*
X-554482000Y545592000D03*
X-551942000Y545592000D03*
X-554482000Y548132000D03*
X-551942000Y548132000D03*
X-554482000Y550672000D03*
D11*
X-551942000Y550672000D03*
G04 #@! TA.AperFunction,SMDPad,CuDef*
D12*
G36*
X-545789221Y564861856D02*
G01*
X-545766166Y564858437D01*
X-545743557Y564852773D01*
X-545721613Y564844921D01*
X-545700543Y564834956D01*
X-545680552Y564822974D01*
X-545661832Y564809090D01*
X-545644562Y564793438D01*
X-545628910Y564776168D01*
X-545615026Y564757448D01*
X-545603044Y564737457D01*
X-545593079Y564716387D01*
X-545585227Y564694443D01*
X-545579563Y564671834D01*
X-545576144Y564648779D01*
X-545575000Y564625500D01*
X-545575000Y564150500D01*
X-545576144Y564127221D01*
X-545579563Y564104166D01*
X-545585227Y564081557D01*
X-545593079Y564059613D01*
X-545603044Y564038543D01*
X-545615026Y564018552D01*
X-545628910Y563999832D01*
X-545644562Y563982562D01*
X-545661832Y563966910D01*
X-545680552Y563953026D01*
X-545700543Y563941044D01*
X-545721613Y563931079D01*
X-545743557Y563923227D01*
X-545766166Y563917563D01*
X-545789221Y563914144D01*
X-545812500Y563913000D01*
X-546387500Y563913000D01*
X-546410779Y563914144D01*
X-546433834Y563917563D01*
X-546456443Y563923227D01*
X-546478387Y563931079D01*
X-546499457Y563941044D01*
X-546519448Y563953026D01*
X-546538168Y563966910D01*
X-546555438Y563982562D01*
X-546571090Y563999832D01*
X-546584974Y564018552D01*
X-546596956Y564038543D01*
X-546606921Y564059613D01*
X-546614773Y564081557D01*
X-546620437Y564104166D01*
X-546623856Y564127221D01*
X-546625000Y564150500D01*
X-546625000Y564625500D01*
X-546623856Y564648779D01*
X-546620437Y564671834D01*
X-546614773Y564694443D01*
X-546606921Y564716387D01*
X-546596956Y564737457D01*
X-546584974Y564757448D01*
X-546571090Y564776168D01*
X-546555438Y564793438D01*
X-546538168Y564809090D01*
X-546519448Y564822974D01*
X-546499457Y564834956D01*
X-546478387Y564844921D01*
X-546456443Y564852773D01*
X-546433834Y564858437D01*
X-546410779Y564861856D01*
X-546387500Y564863000D01*
X-545812500Y564863000D01*
X-545789221Y564861856D01*
G37*
G04 #@! TD.AperFunction*
G04 #@! TA.AperFunction,SMDPad,CuDef*
G36*
X-547539221Y564861856D02*
G01*
X-547516166Y564858437D01*
X-547493557Y564852773D01*
X-547471613Y564844921D01*
X-547450543Y564834956D01*
X-547430552Y564822974D01*
X-547411832Y564809090D01*
X-547394562Y564793438D01*
X-547378910Y564776168D01*
X-547365026Y564757448D01*
X-547353044Y564737457D01*
X-547343079Y564716387D01*
X-547335227Y564694443D01*
X-547329563Y564671834D01*
X-547326144Y564648779D01*
X-547325000Y564625500D01*
X-547325000Y564150500D01*
X-547326144Y564127221D01*
X-547329563Y564104166D01*
X-547335227Y564081557D01*
X-547343079Y564059613D01*
X-547353044Y564038543D01*
X-547365026Y564018552D01*
X-547378910Y563999832D01*
X-547394562Y563982562D01*
X-547411832Y563966910D01*
X-547430552Y563953026D01*
X-547450543Y563941044D01*
X-547471613Y563931079D01*
X-547493557Y563923227D01*
X-547516166Y563917563D01*
X-547539221Y563914144D01*
X-547562500Y563913000D01*
X-548137500Y563913000D01*
X-548160779Y563914144D01*
X-548183834Y563917563D01*
X-548206443Y563923227D01*
X-548228387Y563931079D01*
X-548249457Y563941044D01*
X-548269448Y563953026D01*
X-548288168Y563966910D01*
X-548305438Y563982562D01*
X-548321090Y563999832D01*
X-548334974Y564018552D01*
X-548346956Y564038543D01*
X-548356921Y564059613D01*
X-548364773Y564081557D01*
X-548370437Y564104166D01*
X-548373856Y564127221D01*
X-548375000Y564150500D01*
X-548375000Y564625500D01*
X-548373856Y564648779D01*
X-548370437Y564671834D01*
X-548364773Y564694443D01*
X-548356921Y564716387D01*
X-548346956Y564737457D01*
X-548334974Y564757448D01*
X-548321090Y564776168D01*
X-548305438Y564793438D01*
X-548288168Y564809090D01*
X-548269448Y564822974D01*
X-548249457Y564834956D01*
X-548228387Y564844921D01*
X-548206443Y564852773D01*
X-548183834Y564858437D01*
X-548160779Y564861856D01*
X-548137500Y564863000D01*
X-547562500Y564863000D01*
X-547539221Y564861856D01*
G37*
G04 #@! TD.AperFunction*
G04 #@! TA.AperFunction,SMDPad,CuDef*
G36*
X-550107221Y539207856D02*
G01*
X-550084166Y539204437D01*
X-550061557Y539198773D01*
X-550039613Y539190921D01*
X-550018543Y539180956D01*
X-549998552Y539168974D01*
X-549979832Y539155090D01*
X-549962562Y539139438D01*
X-549946910Y539122168D01*
X-549933026Y539103448D01*
X-549921044Y539083457D01*
X-549911079Y539062387D01*
X-549903227Y539040443D01*
X-549897563Y539017834D01*
X-549894144Y538994779D01*
X-549893000Y538971500D01*
X-549893000Y538496500D01*
X-549894144Y538473221D01*
X-549897563Y538450166D01*
X-549903227Y538427557D01*
X-549911079Y538405613D01*
X-549921044Y538384543D01*
X-549933026Y538364552D01*
X-549946910Y538345832D01*
X-549962562Y538328562D01*
X-549979832Y538312910D01*
X-549998552Y538299026D01*
X-550018543Y538287044D01*
X-550039613Y538277079D01*
X-550061557Y538269227D01*
X-550084166Y538263563D01*
X-550107221Y538260144D01*
X-550130500Y538259000D01*
X-550705500Y538259000D01*
X-550728779Y538260144D01*
X-550751834Y538263563D01*
X-550774443Y538269227D01*
X-550796387Y538277079D01*
X-550817457Y538287044D01*
X-550837448Y538299026D01*
X-550856168Y538312910D01*
X-550873438Y538328562D01*
X-550889090Y538345832D01*
X-550902974Y538364552D01*
X-550914956Y538384543D01*
X-550924921Y538405613D01*
X-550932773Y538427557D01*
X-550938437Y538450166D01*
X-550941856Y538473221D01*
X-550943000Y538496500D01*
X-550943000Y538971500D01*
X-550941856Y538994779D01*
X-550938437Y539017834D01*
X-550932773Y539040443D01*
X-550924921Y539062387D01*
X-550914956Y539083457D01*
X-550902974Y539103448D01*
X-550889090Y539122168D01*
X-550873438Y539139438D01*
X-550856168Y539155090D01*
X-550837448Y539168974D01*
X-550817457Y539180956D01*
X-550796387Y539190921D01*
X-550774443Y539198773D01*
X-550751834Y539204437D01*
X-550728779Y539207856D01*
X-550705500Y539209000D01*
X-550130500Y539209000D01*
X-550107221Y539207856D01*
G37*
G04 #@! TD.AperFunction*
G04 #@! TA.AperFunction,SMDPad,CuDef*
G36*
X-551857221Y539207856D02*
G01*
X-551834166Y539204437D01*
X-551811557Y539198773D01*
X-551789613Y539190921D01*
X-551768543Y539180956D01*
X-551748552Y539168974D01*
X-551729832Y539155090D01*
X-551712562Y539139438D01*
X-551696910Y539122168D01*
X-551683026Y539103448D01*
X-551671044Y539083457D01*
X-551661079Y539062387D01*
X-551653227Y539040443D01*
X-551647563Y539017834D01*
X-551644144Y538994779D01*
X-551643000Y538971500D01*
X-551643000Y538496500D01*
X-551644144Y538473221D01*
X-551647563Y538450166D01*
X-551653227Y538427557D01*
X-551661079Y538405613D01*
X-551671044Y538384543D01*
X-551683026Y538364552D01*
X-551696910Y538345832D01*
X-551712562Y538328562D01*
X-551729832Y538312910D01*
X-551748552Y538299026D01*
X-551768543Y538287044D01*
X-551789613Y538277079D01*
X-551811557Y538269227D01*
X-551834166Y538263563D01*
X-551857221Y538260144D01*
X-551880500Y538259000D01*
X-552455500Y538259000D01*
X-552478779Y538260144D01*
X-552501834Y538263563D01*
X-552524443Y538269227D01*
X-552546387Y538277079D01*
X-552567457Y538287044D01*
X-552587448Y538299026D01*
X-552606168Y538312910D01*
X-552623438Y538328562D01*
X-552639090Y538345832D01*
X-552652974Y538364552D01*
X-552664956Y538384543D01*
X-552674921Y538405613D01*
X-552682773Y538427557D01*
X-552688437Y538450166D01*
X-552691856Y538473221D01*
X-552693000Y538496500D01*
X-552693000Y538971500D01*
X-552691856Y538994779D01*
X-552688437Y539017834D01*
X-552682773Y539040443D01*
X-552674921Y539062387D01*
X-552664956Y539083457D01*
X-552652974Y539103448D01*
X-552639090Y539122168D01*
X-552623438Y539139438D01*
X-552606168Y539155090D01*
X-552587448Y539168974D01*
X-552567457Y539180956D01*
X-552546387Y539190921D01*
X-552524443Y539198773D01*
X-552501834Y539204437D01*
X-552478779Y539207856D01*
X-552455500Y539209000D01*
X-551880500Y539209000D01*
X-551857221Y539207856D01*
G37*
G04 #@! TD.AperFunction*
D10*
X-541782000Y536448000D03*
X-544322000Y536448000D03*
X-546862000Y536448000D03*
X-549402000Y536448000D03*
X-551942000Y536448000D03*
D11*
X-554482000Y536448000D03*
G04 #@! TA.AperFunction,SMDPad,CuDef*
D12*
G36*
X-544293221Y582387856D02*
G01*
X-544270166Y582384437D01*
X-544247557Y582378773D01*
X-544225613Y582370921D01*
X-544204543Y582360956D01*
X-544184552Y582348974D01*
X-544165832Y582335090D01*
X-544148562Y582319438D01*
X-544132910Y582302168D01*
X-544119026Y582283448D01*
X-544107044Y582263457D01*
X-544097079Y582242387D01*
X-544089227Y582220443D01*
X-544083563Y582197834D01*
X-544080144Y582174779D01*
X-544079000Y582151500D01*
X-544079000Y581676500D01*
X-544080144Y581653221D01*
X-544083563Y581630166D01*
X-544089227Y581607557D01*
X-544097079Y581585613D01*
X-544107044Y581564543D01*
X-544119026Y581544552D01*
X-544132910Y581525832D01*
X-544148562Y581508562D01*
X-544165832Y581492910D01*
X-544184552Y581479026D01*
X-544204543Y581467044D01*
X-544225613Y581457079D01*
X-544247557Y581449227D01*
X-544270166Y581443563D01*
X-544293221Y581440144D01*
X-544316500Y581439000D01*
X-544891500Y581439000D01*
X-544914779Y581440144D01*
X-544937834Y581443563D01*
X-544960443Y581449227D01*
X-544982387Y581457079D01*
X-545003457Y581467044D01*
X-545023448Y581479026D01*
X-545042168Y581492910D01*
X-545059438Y581508562D01*
X-545075090Y581525832D01*
X-545088974Y581544552D01*
X-545100956Y581564543D01*
X-545110921Y581585613D01*
X-545118773Y581607557D01*
X-545124437Y581630166D01*
X-545127856Y581653221D01*
X-545129000Y581676500D01*
X-545129000Y582151500D01*
X-545127856Y582174779D01*
X-545124437Y582197834D01*
X-545118773Y582220443D01*
X-545110921Y582242387D01*
X-545100956Y582263457D01*
X-545088974Y582283448D01*
X-545075090Y582302168D01*
X-545059438Y582319438D01*
X-545042168Y582335090D01*
X-545023448Y582348974D01*
X-545003457Y582360956D01*
X-544982387Y582370921D01*
X-544960443Y582378773D01*
X-544937834Y582384437D01*
X-544914779Y582387856D01*
X-544891500Y582389000D01*
X-544316500Y582389000D01*
X-544293221Y582387856D01*
G37*
G04 #@! TD.AperFunction*
G04 #@! TA.AperFunction,SMDPad,CuDef*
G36*
X-546043221Y582387856D02*
G01*
X-546020166Y582384437D01*
X-545997557Y582378773D01*
X-545975613Y582370921D01*
X-545954543Y582360956D01*
X-545934552Y582348974D01*
X-545915832Y582335090D01*
X-545898562Y582319438D01*
X-545882910Y582302168D01*
X-545869026Y582283448D01*
X-545857044Y582263457D01*
X-545847079Y582242387D01*
X-545839227Y582220443D01*
X-545833563Y582197834D01*
X-545830144Y582174779D01*
X-545829000Y582151500D01*
X-545829000Y581676500D01*
X-545830144Y581653221D01*
X-545833563Y581630166D01*
X-545839227Y581607557D01*
X-545847079Y581585613D01*
X-545857044Y581564543D01*
X-545869026Y581544552D01*
X-545882910Y581525832D01*
X-545898562Y581508562D01*
X-545915832Y581492910D01*
X-545934552Y581479026D01*
X-545954543Y581467044D01*
X-545975613Y581457079D01*
X-545997557Y581449227D01*
X-546020166Y581443563D01*
X-546043221Y581440144D01*
X-546066500Y581439000D01*
X-546641500Y581439000D01*
X-546664779Y581440144D01*
X-546687834Y581443563D01*
X-546710443Y581449227D01*
X-546732387Y581457079D01*
X-546753457Y581467044D01*
X-546773448Y581479026D01*
X-546792168Y581492910D01*
X-546809438Y581508562D01*
X-546825090Y581525832D01*
X-546838974Y581544552D01*
X-546850956Y581564543D01*
X-546860921Y581585613D01*
X-546868773Y581607557D01*
X-546874437Y581630166D01*
X-546877856Y581653221D01*
X-546879000Y581676500D01*
X-546879000Y582151500D01*
X-546877856Y582174779D01*
X-546874437Y582197834D01*
X-546868773Y582220443D01*
X-546860921Y582242387D01*
X-546850956Y582263457D01*
X-546838974Y582283448D01*
X-546825090Y582302168D01*
X-546809438Y582319438D01*
X-546792168Y582335090D01*
X-546773448Y582348974D01*
X-546753457Y582360956D01*
X-546732387Y582370921D01*
X-546710443Y582378773D01*
X-546687834Y582384437D01*
X-546664779Y582387856D01*
X-546641500Y582389000D01*
X-546066500Y582389000D01*
X-546043221Y582387856D01*
G37*
G04 #@! TD.AperFunction*
G04 #@! TA.AperFunction,SMDPad,CuDef*
G36*
X-551377221Y582387856D02*
G01*
X-551354166Y582384437D01*
X-551331557Y582378773D01*
X-551309613Y582370921D01*
X-551288543Y582360956D01*
X-551268552Y582348974D01*
X-551249832Y582335090D01*
X-551232562Y582319438D01*
X-551216910Y582302168D01*
X-551203026Y582283448D01*
X-551191044Y582263457D01*
X-551181079Y582242387D01*
X-551173227Y582220443D01*
X-551167563Y582197834D01*
X-551164144Y582174779D01*
X-551163000Y582151500D01*
X-551163000Y581676500D01*
X-551164144Y581653221D01*
X-551167563Y581630166D01*
X-551173227Y581607557D01*
X-551181079Y581585613D01*
X-551191044Y581564543D01*
X-551203026Y581544552D01*
X-551216910Y581525832D01*
X-551232562Y581508562D01*
X-551249832Y581492910D01*
X-551268552Y581479026D01*
X-551288543Y581467044D01*
X-551309613Y581457079D01*
X-551331557Y581449227D01*
X-551354166Y581443563D01*
X-551377221Y581440144D01*
X-551400500Y581439000D01*
X-551975500Y581439000D01*
X-551998779Y581440144D01*
X-552021834Y581443563D01*
X-552044443Y581449227D01*
X-552066387Y581457079D01*
X-552087457Y581467044D01*
X-552107448Y581479026D01*
X-552126168Y581492910D01*
X-552143438Y581508562D01*
X-552159090Y581525832D01*
X-552172974Y581544552D01*
X-552184956Y581564543D01*
X-552194921Y581585613D01*
X-552202773Y581607557D01*
X-552208437Y581630166D01*
X-552211856Y581653221D01*
X-552213000Y581676500D01*
X-552213000Y582151500D01*
X-552211856Y582174779D01*
X-552208437Y582197834D01*
X-552202773Y582220443D01*
X-552194921Y582242387D01*
X-552184956Y582263457D01*
X-552172974Y582283448D01*
X-552159090Y582302168D01*
X-552143438Y582319438D01*
X-552126168Y582335090D01*
X-552107448Y582348974D01*
X-552087457Y582360956D01*
X-552066387Y582370921D01*
X-552044443Y582378773D01*
X-552021834Y582384437D01*
X-551998779Y582387856D01*
X-551975500Y582389000D01*
X-551400500Y582389000D01*
X-551377221Y582387856D01*
G37*
G04 #@! TD.AperFunction*
G04 #@! TA.AperFunction,SMDPad,CuDef*
G36*
X-549627221Y582387856D02*
G01*
X-549604166Y582384437D01*
X-549581557Y582378773D01*
X-549559613Y582370921D01*
X-549538543Y582360956D01*
X-549518552Y582348974D01*
X-549499832Y582335090D01*
X-549482562Y582319438D01*
X-549466910Y582302168D01*
X-549453026Y582283448D01*
X-549441044Y582263457D01*
X-549431079Y582242387D01*
X-549423227Y582220443D01*
X-549417563Y582197834D01*
X-549414144Y582174779D01*
X-549413000Y582151500D01*
X-549413000Y581676500D01*
X-549414144Y581653221D01*
X-549417563Y581630166D01*
X-549423227Y581607557D01*
X-549431079Y581585613D01*
X-549441044Y581564543D01*
X-549453026Y581544552D01*
X-549466910Y581525832D01*
X-549482562Y581508562D01*
X-549499832Y581492910D01*
X-549518552Y581479026D01*
X-549538543Y581467044D01*
X-549559613Y581457079D01*
X-549581557Y581449227D01*
X-549604166Y581443563D01*
X-549627221Y581440144D01*
X-549650500Y581439000D01*
X-550225500Y581439000D01*
X-550248779Y581440144D01*
X-550271834Y581443563D01*
X-550294443Y581449227D01*
X-550316387Y581457079D01*
X-550337457Y581467044D01*
X-550357448Y581479026D01*
X-550376168Y581492910D01*
X-550393438Y581508562D01*
X-550409090Y581525832D01*
X-550422974Y581544552D01*
X-550434956Y581564543D01*
X-550444921Y581585613D01*
X-550452773Y581607557D01*
X-550458437Y581630166D01*
X-550461856Y581653221D01*
X-550463000Y581676500D01*
X-550463000Y582151500D01*
X-550461856Y582174779D01*
X-550458437Y582197834D01*
X-550452773Y582220443D01*
X-550444921Y582242387D01*
X-550434956Y582263457D01*
X-550422974Y582283448D01*
X-550409090Y582302168D01*
X-550393438Y582319438D01*
X-550376168Y582335090D01*
X-550357448Y582348974D01*
X-550337457Y582360956D01*
X-550316387Y582370921D01*
X-550294443Y582378773D01*
X-550271834Y582384437D01*
X-550248779Y582387856D01*
X-550225500Y582389000D01*
X-549650500Y582389000D01*
X-549627221Y582387856D01*
G37*
G04 #@! TD.AperFunction*
G04 #@! TA.AperFunction,SMDPad,CuDef*
G36*
X-544293221Y580609856D02*
G01*
X-544270166Y580606437D01*
X-544247557Y580600773D01*
X-544225613Y580592921D01*
X-544204543Y580582956D01*
X-544184552Y580570974D01*
X-544165832Y580557090D01*
X-544148562Y580541438D01*
X-544132910Y580524168D01*
X-544119026Y580505448D01*
X-544107044Y580485457D01*
X-544097079Y580464387D01*
X-544089227Y580442443D01*
X-544083563Y580419834D01*
X-544080144Y580396779D01*
X-544079000Y580373500D01*
X-544079000Y579898500D01*
X-544080144Y579875221D01*
X-544083563Y579852166D01*
X-544089227Y579829557D01*
X-544097079Y579807613D01*
X-544107044Y579786543D01*
X-544119026Y579766552D01*
X-544132910Y579747832D01*
X-544148562Y579730562D01*
X-544165832Y579714910D01*
X-544184552Y579701026D01*
X-544204543Y579689044D01*
X-544225613Y579679079D01*
X-544247557Y579671227D01*
X-544270166Y579665563D01*
X-544293221Y579662144D01*
X-544316500Y579661000D01*
X-544891500Y579661000D01*
X-544914779Y579662144D01*
X-544937834Y579665563D01*
X-544960443Y579671227D01*
X-544982387Y579679079D01*
X-545003457Y579689044D01*
X-545023448Y579701026D01*
X-545042168Y579714910D01*
X-545059438Y579730562D01*
X-545075090Y579747832D01*
X-545088974Y579766552D01*
X-545100956Y579786543D01*
X-545110921Y579807613D01*
X-545118773Y579829557D01*
X-545124437Y579852166D01*
X-545127856Y579875221D01*
X-545129000Y579898500D01*
X-545129000Y580373500D01*
X-545127856Y580396779D01*
X-545124437Y580419834D01*
X-545118773Y580442443D01*
X-545110921Y580464387D01*
X-545100956Y580485457D01*
X-545088974Y580505448D01*
X-545075090Y580524168D01*
X-545059438Y580541438D01*
X-545042168Y580557090D01*
X-545023448Y580570974D01*
X-545003457Y580582956D01*
X-544982387Y580592921D01*
X-544960443Y580600773D01*
X-544937834Y580606437D01*
X-544914779Y580609856D01*
X-544891500Y580611000D01*
X-544316500Y580611000D01*
X-544293221Y580609856D01*
G37*
G04 #@! TD.AperFunction*
G04 #@! TA.AperFunction,SMDPad,CuDef*
G36*
X-546043221Y580609856D02*
G01*
X-546020166Y580606437D01*
X-545997557Y580600773D01*
X-545975613Y580592921D01*
X-545954543Y580582956D01*
X-545934552Y580570974D01*
X-545915832Y580557090D01*
X-545898562Y580541438D01*
X-545882910Y580524168D01*
X-545869026Y580505448D01*
X-545857044Y580485457D01*
X-545847079Y580464387D01*
X-545839227Y580442443D01*
X-545833563Y580419834D01*
X-545830144Y580396779D01*
X-545829000Y580373500D01*
X-545829000Y579898500D01*
X-545830144Y579875221D01*
X-545833563Y579852166D01*
X-545839227Y579829557D01*
X-545847079Y579807613D01*
X-545857044Y579786543D01*
X-545869026Y579766552D01*
X-545882910Y579747832D01*
X-545898562Y579730562D01*
X-545915832Y579714910D01*
X-545934552Y579701026D01*
X-545954543Y579689044D01*
X-545975613Y579679079D01*
X-545997557Y579671227D01*
X-546020166Y579665563D01*
X-546043221Y579662144D01*
X-546066500Y579661000D01*
X-546641500Y579661000D01*
X-546664779Y579662144D01*
X-546687834Y579665563D01*
X-546710443Y579671227D01*
X-546732387Y579679079D01*
X-546753457Y579689044D01*
X-546773448Y579701026D01*
X-546792168Y579714910D01*
X-546809438Y579730562D01*
X-546825090Y579747832D01*
X-546838974Y579766552D01*
X-546850956Y579786543D01*
X-546860921Y579807613D01*
X-546868773Y579829557D01*
X-546874437Y579852166D01*
X-546877856Y579875221D01*
X-546879000Y579898500D01*
X-546879000Y580373500D01*
X-546877856Y580396779D01*
X-546874437Y580419834D01*
X-546868773Y580442443D01*
X-546860921Y580464387D01*
X-546850956Y580485457D01*
X-546838974Y580505448D01*
X-546825090Y580524168D01*
X-546809438Y580541438D01*
X-546792168Y580557090D01*
X-546773448Y580570974D01*
X-546753457Y580582956D01*
X-546732387Y580592921D01*
X-546710443Y580600773D01*
X-546687834Y580606437D01*
X-546664779Y580609856D01*
X-546641500Y580611000D01*
X-546066500Y580611000D01*
X-546043221Y580609856D01*
G37*
G04 #@! TD.AperFunction*
G04 #@! TA.AperFunction,SMDPad,CuDef*
G36*
X-549571221Y580609856D02*
G01*
X-549548166Y580606437D01*
X-549525557Y580600773D01*
X-549503613Y580592921D01*
X-549482543Y580582956D01*
X-549462552Y580570974D01*
X-549443832Y580557090D01*
X-549426562Y580541438D01*
X-549410910Y580524168D01*
X-549397026Y580505448D01*
X-549385044Y580485457D01*
X-549375079Y580464387D01*
X-549367227Y580442443D01*
X-549361563Y580419834D01*
X-549358144Y580396779D01*
X-549357000Y580373500D01*
X-549357000Y579898500D01*
X-549358144Y579875221D01*
X-549361563Y579852166D01*
X-549367227Y579829557D01*
X-549375079Y579807613D01*
X-549385044Y579786543D01*
X-549397026Y579766552D01*
X-549410910Y579747832D01*
X-549426562Y579730562D01*
X-549443832Y579714910D01*
X-549462552Y579701026D01*
X-549482543Y579689044D01*
X-549503613Y579679079D01*
X-549525557Y579671227D01*
X-549548166Y579665563D01*
X-549571221Y579662144D01*
X-549594500Y579661000D01*
X-550169500Y579661000D01*
X-550192779Y579662144D01*
X-550215834Y579665563D01*
X-550238443Y579671227D01*
X-550260387Y579679079D01*
X-550281457Y579689044D01*
X-550301448Y579701026D01*
X-550320168Y579714910D01*
X-550337438Y579730562D01*
X-550353090Y579747832D01*
X-550366974Y579766552D01*
X-550378956Y579786543D01*
X-550388921Y579807613D01*
X-550396773Y579829557D01*
X-550402437Y579852166D01*
X-550405856Y579875221D01*
X-550407000Y579898500D01*
X-550407000Y580373500D01*
X-550405856Y580396779D01*
X-550402437Y580419834D01*
X-550396773Y580442443D01*
X-550388921Y580464387D01*
X-550378956Y580485457D01*
X-550366974Y580505448D01*
X-550353090Y580524168D01*
X-550337438Y580541438D01*
X-550320168Y580557090D01*
X-550301448Y580570974D01*
X-550281457Y580582956D01*
X-550260387Y580592921D01*
X-550238443Y580600773D01*
X-550215834Y580606437D01*
X-550192779Y580609856D01*
X-550169500Y580611000D01*
X-549594500Y580611000D01*
X-549571221Y580609856D01*
G37*
G04 #@! TD.AperFunction*
G04 #@! TA.AperFunction,SMDPad,CuDef*
G36*
X-547821221Y580609856D02*
G01*
X-547798166Y580606437D01*
X-547775557Y580600773D01*
X-547753613Y580592921D01*
X-547732543Y580582956D01*
X-547712552Y580570974D01*
X-547693832Y580557090D01*
X-547676562Y580541438D01*
X-547660910Y580524168D01*
X-547647026Y580505448D01*
X-547635044Y580485457D01*
X-547625079Y580464387D01*
X-547617227Y580442443D01*
X-547611563Y580419834D01*
X-547608144Y580396779D01*
X-547607000Y580373500D01*
X-547607000Y579898500D01*
X-547608144Y579875221D01*
X-547611563Y579852166D01*
X-547617227Y579829557D01*
X-547625079Y579807613D01*
X-547635044Y579786543D01*
X-547647026Y579766552D01*
X-547660910Y579747832D01*
X-547676562Y579730562D01*
X-547693832Y579714910D01*
X-547712552Y579701026D01*
X-547732543Y579689044D01*
X-547753613Y579679079D01*
X-547775557Y579671227D01*
X-547798166Y579665563D01*
X-547821221Y579662144D01*
X-547844500Y579661000D01*
X-548419500Y579661000D01*
X-548442779Y579662144D01*
X-548465834Y579665563D01*
X-548488443Y579671227D01*
X-548510387Y579679079D01*
X-548531457Y579689044D01*
X-548551448Y579701026D01*
X-548570168Y579714910D01*
X-548587438Y579730562D01*
X-548603090Y579747832D01*
X-548616974Y579766552D01*
X-548628956Y579786543D01*
X-548638921Y579807613D01*
X-548646773Y579829557D01*
X-548652437Y579852166D01*
X-548655856Y579875221D01*
X-548657000Y579898500D01*
X-548657000Y580373500D01*
X-548655856Y580396779D01*
X-548652437Y580419834D01*
X-548646773Y580442443D01*
X-548638921Y580464387D01*
X-548628956Y580485457D01*
X-548616974Y580505448D01*
X-548603090Y580524168D01*
X-548587438Y580541438D01*
X-548570168Y580557090D01*
X-548551448Y580570974D01*
X-548531457Y580582956D01*
X-548510387Y580592921D01*
X-548488443Y580600773D01*
X-548465834Y580606437D01*
X-548442779Y580609856D01*
X-548419500Y580611000D01*
X-547844500Y580611000D01*
X-547821221Y580609856D01*
G37*
G04 #@! TD.AperFunction*
G04 #@! TA.AperFunction,SMDPad,CuDef*
G36*
X-544293221Y579085856D02*
G01*
X-544270166Y579082437D01*
X-544247557Y579076773D01*
X-544225613Y579068921D01*
X-544204543Y579058956D01*
X-544184552Y579046974D01*
X-544165832Y579033090D01*
X-544148562Y579017438D01*
X-544132910Y579000168D01*
X-544119026Y578981448D01*
X-544107044Y578961457D01*
X-544097079Y578940387D01*
X-544089227Y578918443D01*
X-544083563Y578895834D01*
X-544080144Y578872779D01*
X-544079000Y578849500D01*
X-544079000Y578374500D01*
X-544080144Y578351221D01*
X-544083563Y578328166D01*
X-544089227Y578305557D01*
X-544097079Y578283613D01*
X-544107044Y578262543D01*
X-544119026Y578242552D01*
X-544132910Y578223832D01*
X-544148562Y578206562D01*
X-544165832Y578190910D01*
X-544184552Y578177026D01*
X-544204543Y578165044D01*
X-544225613Y578155079D01*
X-544247557Y578147227D01*
X-544270166Y578141563D01*
X-544293221Y578138144D01*
X-544316500Y578137000D01*
X-544891500Y578137000D01*
X-544914779Y578138144D01*
X-544937834Y578141563D01*
X-544960443Y578147227D01*
X-544982387Y578155079D01*
X-545003457Y578165044D01*
X-545023448Y578177026D01*
X-545042168Y578190910D01*
X-545059438Y578206562D01*
X-545075090Y578223832D01*
X-545088974Y578242552D01*
X-545100956Y578262543D01*
X-545110921Y578283613D01*
X-545118773Y578305557D01*
X-545124437Y578328166D01*
X-545127856Y578351221D01*
X-545129000Y578374500D01*
X-545129000Y578849500D01*
X-545127856Y578872779D01*
X-545124437Y578895834D01*
X-545118773Y578918443D01*
X-545110921Y578940387D01*
X-545100956Y578961457D01*
X-545088974Y578981448D01*
X-545075090Y579000168D01*
X-545059438Y579017438D01*
X-545042168Y579033090D01*
X-545023448Y579046974D01*
X-545003457Y579058956D01*
X-544982387Y579068921D01*
X-544960443Y579076773D01*
X-544937834Y579082437D01*
X-544914779Y579085856D01*
X-544891500Y579087000D01*
X-544316500Y579087000D01*
X-544293221Y579085856D01*
G37*
G04 #@! TD.AperFunction*
G04 #@! TA.AperFunction,SMDPad,CuDef*
G36*
X-546043221Y579085856D02*
G01*
X-546020166Y579082437D01*
X-545997557Y579076773D01*
X-545975613Y579068921D01*
X-545954543Y579058956D01*
X-545934552Y579046974D01*
X-545915832Y579033090D01*
X-545898562Y579017438D01*
X-545882910Y579000168D01*
X-545869026Y578981448D01*
X-545857044Y578961457D01*
X-545847079Y578940387D01*
X-545839227Y578918443D01*
X-545833563Y578895834D01*
X-545830144Y578872779D01*
X-545829000Y578849500D01*
X-545829000Y578374500D01*
X-545830144Y578351221D01*
X-545833563Y578328166D01*
X-545839227Y578305557D01*
X-545847079Y578283613D01*
X-545857044Y578262543D01*
X-545869026Y578242552D01*
X-545882910Y578223832D01*
X-545898562Y578206562D01*
X-545915832Y578190910D01*
X-545934552Y578177026D01*
X-545954543Y578165044D01*
X-545975613Y578155079D01*
X-545997557Y578147227D01*
X-546020166Y578141563D01*
X-546043221Y578138144D01*
X-546066500Y578137000D01*
X-546641500Y578137000D01*
X-546664779Y578138144D01*
X-546687834Y578141563D01*
X-546710443Y578147227D01*
X-546732387Y578155079D01*
X-546753457Y578165044D01*
X-546773448Y578177026D01*
X-546792168Y578190910D01*
X-546809438Y578206562D01*
X-546825090Y578223832D01*
X-546838974Y578242552D01*
X-546850956Y578262543D01*
X-546860921Y578283613D01*
X-546868773Y578305557D01*
X-546874437Y578328166D01*
X-546877856Y578351221D01*
X-546879000Y578374500D01*
X-546879000Y578849500D01*
X-546877856Y578872779D01*
X-546874437Y578895834D01*
X-546868773Y578918443D01*
X-546860921Y578940387D01*
X-546850956Y578961457D01*
X-546838974Y578981448D01*
X-546825090Y579000168D01*
X-546809438Y579017438D01*
X-546792168Y579033090D01*
X-546773448Y579046974D01*
X-546753457Y579058956D01*
X-546732387Y579068921D01*
X-546710443Y579076773D01*
X-546687834Y579082437D01*
X-546664779Y579085856D01*
X-546641500Y579087000D01*
X-546066500Y579087000D01*
X-546043221Y579085856D01*
G37*
G04 #@! TD.AperFunction*
G04 #@! TA.AperFunction,SMDPad,CuDef*
G36*
X-549571221Y579085856D02*
G01*
X-549548166Y579082437D01*
X-549525557Y579076773D01*
X-549503613Y579068921D01*
X-549482543Y579058956D01*
X-549462552Y579046974D01*
X-549443832Y579033090D01*
X-549426562Y579017438D01*
X-549410910Y579000168D01*
X-549397026Y578981448D01*
X-549385044Y578961457D01*
X-549375079Y578940387D01*
X-549367227Y578918443D01*
X-549361563Y578895834D01*
X-549358144Y578872779D01*
X-549357000Y578849500D01*
X-549357000Y578374500D01*
X-549358144Y578351221D01*
X-549361563Y578328166D01*
X-549367227Y578305557D01*
X-549375079Y578283613D01*
X-549385044Y578262543D01*
X-549397026Y578242552D01*
X-549410910Y578223832D01*
X-549426562Y578206562D01*
X-549443832Y578190910D01*
X-549462552Y578177026D01*
X-549482543Y578165044D01*
X-549503613Y578155079D01*
X-549525557Y578147227D01*
X-549548166Y578141563D01*
X-549571221Y578138144D01*
X-549594500Y578137000D01*
X-550169500Y578137000D01*
X-550192779Y578138144D01*
X-550215834Y578141563D01*
X-550238443Y578147227D01*
X-550260387Y578155079D01*
X-550281457Y578165044D01*
X-550301448Y578177026D01*
X-550320168Y578190910D01*
X-550337438Y578206562D01*
X-550353090Y578223832D01*
X-550366974Y578242552D01*
X-550378956Y578262543D01*
X-550388921Y578283613D01*
X-550396773Y578305557D01*
X-550402437Y578328166D01*
X-550405856Y578351221D01*
X-550407000Y578374500D01*
X-550407000Y578849500D01*
X-550405856Y578872779D01*
X-550402437Y578895834D01*
X-550396773Y578918443D01*
X-550388921Y578940387D01*
X-550378956Y578961457D01*
X-550366974Y578981448D01*
X-550353090Y579000168D01*
X-550337438Y579017438D01*
X-550320168Y579033090D01*
X-550301448Y579046974D01*
X-550281457Y579058956D01*
X-550260387Y579068921D01*
X-550238443Y579076773D01*
X-550215834Y579082437D01*
X-550192779Y579085856D01*
X-550169500Y579087000D01*
X-549594500Y579087000D01*
X-549571221Y579085856D01*
G37*
G04 #@! TD.AperFunction*
G04 #@! TA.AperFunction,SMDPad,CuDef*
G36*
X-547821221Y579085856D02*
G01*
X-547798166Y579082437D01*
X-547775557Y579076773D01*
X-547753613Y579068921D01*
X-547732543Y579058956D01*
X-547712552Y579046974D01*
X-547693832Y579033090D01*
X-547676562Y579017438D01*
X-547660910Y579000168D01*
X-547647026Y578981448D01*
X-547635044Y578961457D01*
X-547625079Y578940387D01*
X-547617227Y578918443D01*
X-547611563Y578895834D01*
X-547608144Y578872779D01*
X-547607000Y578849500D01*
X-547607000Y578374500D01*
X-547608144Y578351221D01*
X-547611563Y578328166D01*
X-547617227Y578305557D01*
X-547625079Y578283613D01*
X-547635044Y578262543D01*
X-547647026Y578242552D01*
X-547660910Y578223832D01*
X-547676562Y578206562D01*
X-547693832Y578190910D01*
X-547712552Y578177026D01*
X-547732543Y578165044D01*
X-547753613Y578155079D01*
X-547775557Y578147227D01*
X-547798166Y578141563D01*
X-547821221Y578138144D01*
X-547844500Y578137000D01*
X-548419500Y578137000D01*
X-548442779Y578138144D01*
X-548465834Y578141563D01*
X-548488443Y578147227D01*
X-548510387Y578155079D01*
X-548531457Y578165044D01*
X-548551448Y578177026D01*
X-548570168Y578190910D01*
X-548587438Y578206562D01*
X-548603090Y578223832D01*
X-548616974Y578242552D01*
X-548628956Y578262543D01*
X-548638921Y578283613D01*
X-548646773Y578305557D01*
X-548652437Y578328166D01*
X-548655856Y578351221D01*
X-548657000Y578374500D01*
X-548657000Y578849500D01*
X-548655856Y578872779D01*
X-548652437Y578895834D01*
X-548646773Y578918443D01*
X-548638921Y578940387D01*
X-548628956Y578961457D01*
X-548616974Y578981448D01*
X-548603090Y579000168D01*
X-548587438Y579017438D01*
X-548570168Y579033090D01*
X-548551448Y579046974D01*
X-548531457Y579058956D01*
X-548510387Y579068921D01*
X-548488443Y579076773D01*
X-548465834Y579082437D01*
X-548442779Y579085856D01*
X-548419500Y579087000D01*
X-547844500Y579087000D01*
X-547821221Y579085856D01*
G37*
G04 #@! TD.AperFunction*
D10*
X-538988000Y584708000D03*
X-541528000Y584708000D03*
X-544068000Y584708000D03*
X-546608000Y584708000D03*
X-549148000Y584708000D03*
D11*
X-551688000Y584708000D03*
D10*
X-554228000Y572008000D03*
X-554228000Y574548000D03*
D11*
X-554228000Y577088000D03*
G04 #@! TA.AperFunction,SMDPad,CuDef*
D12*
G36*
X-550253297Y572728278D02*
G01*
X-550238736Y572726118D01*
X-550224457Y572722541D01*
X-550210597Y572717582D01*
X-550197290Y572711288D01*
X-550184664Y572703720D01*
X-550172841Y572694952D01*
X-550161934Y572685066D01*
X-550152048Y572674159D01*
X-550143280Y572662336D01*
X-550135712Y572649710D01*
X-550129418Y572636403D01*
X-550124459Y572622543D01*
X-550120882Y572608264D01*
X-550118722Y572593703D01*
X-550118000Y572579000D01*
X-550118000Y570929000D01*
X-550118722Y570914297D01*
X-550120882Y570899736D01*
X-550124459Y570885457D01*
X-550129418Y570871597D01*
X-550135712Y570858290D01*
X-550143280Y570845664D01*
X-550152048Y570833841D01*
X-550161934Y570822934D01*
X-550172841Y570813048D01*
X-550184664Y570804280D01*
X-550197290Y570796712D01*
X-550210597Y570790418D01*
X-550224457Y570785459D01*
X-550238736Y570781882D01*
X-550253297Y570779722D01*
X-550268000Y570779000D01*
X-550568000Y570779000D01*
X-550582703Y570779722D01*
X-550597264Y570781882D01*
X-550611543Y570785459D01*
X-550625403Y570790418D01*
X-550638710Y570796712D01*
X-550651336Y570804280D01*
X-550663159Y570813048D01*
X-550674066Y570822934D01*
X-550683952Y570833841D01*
X-550692720Y570845664D01*
X-550700288Y570858290D01*
X-550706582Y570871597D01*
X-550711541Y570885457D01*
X-550715118Y570899736D01*
X-550717278Y570914297D01*
X-550718000Y570929000D01*
X-550718000Y572579000D01*
X-550717278Y572593703D01*
X-550715118Y572608264D01*
X-550711541Y572622543D01*
X-550706582Y572636403D01*
X-550700288Y572649710D01*
X-550692720Y572662336D01*
X-550683952Y572674159D01*
X-550674066Y572685066D01*
X-550663159Y572694952D01*
X-550651336Y572703720D01*
X-550638710Y572711288D01*
X-550625403Y572717582D01*
X-550611543Y572722541D01*
X-550597264Y572726118D01*
X-550582703Y572728278D01*
X-550568000Y572729000D01*
X-550268000Y572729000D01*
X-550253297Y572728278D01*
G37*
G04 #@! TD.AperFunction*
G04 #@! TA.AperFunction,SMDPad,CuDef*
G36*
X-548983297Y572728278D02*
G01*
X-548968736Y572726118D01*
X-548954457Y572722541D01*
X-548940597Y572717582D01*
X-548927290Y572711288D01*
X-548914664Y572703720D01*
X-548902841Y572694952D01*
X-548891934Y572685066D01*
X-548882048Y572674159D01*
X-548873280Y572662336D01*
X-548865712Y572649710D01*
X-548859418Y572636403D01*
X-548854459Y572622543D01*
X-548850882Y572608264D01*
X-548848722Y572593703D01*
X-548848000Y572579000D01*
X-548848000Y570929000D01*
X-548848722Y570914297D01*
X-548850882Y570899736D01*
X-548854459Y570885457D01*
X-548859418Y570871597D01*
X-548865712Y570858290D01*
X-548873280Y570845664D01*
X-548882048Y570833841D01*
X-548891934Y570822934D01*
X-548902841Y570813048D01*
X-548914664Y570804280D01*
X-548927290Y570796712D01*
X-548940597Y570790418D01*
X-548954457Y570785459D01*
X-548968736Y570781882D01*
X-548983297Y570779722D01*
X-548998000Y570779000D01*
X-549298000Y570779000D01*
X-549312703Y570779722D01*
X-549327264Y570781882D01*
X-549341543Y570785459D01*
X-549355403Y570790418D01*
X-549368710Y570796712D01*
X-549381336Y570804280D01*
X-549393159Y570813048D01*
X-549404066Y570822934D01*
X-549413952Y570833841D01*
X-549422720Y570845664D01*
X-549430288Y570858290D01*
X-549436582Y570871597D01*
X-549441541Y570885457D01*
X-549445118Y570899736D01*
X-549447278Y570914297D01*
X-549448000Y570929000D01*
X-549448000Y572579000D01*
X-549447278Y572593703D01*
X-549445118Y572608264D01*
X-549441541Y572622543D01*
X-549436582Y572636403D01*
X-549430288Y572649710D01*
X-549422720Y572662336D01*
X-549413952Y572674159D01*
X-549404066Y572685066D01*
X-549393159Y572694952D01*
X-549381336Y572703720D01*
X-549368710Y572711288D01*
X-549355403Y572717582D01*
X-549341543Y572722541D01*
X-549327264Y572726118D01*
X-549312703Y572728278D01*
X-549298000Y572729000D01*
X-548998000Y572729000D01*
X-548983297Y572728278D01*
G37*
G04 #@! TD.AperFunction*
G04 #@! TA.AperFunction,SMDPad,CuDef*
G36*
X-547713297Y572728278D02*
G01*
X-547698736Y572726118D01*
X-547684457Y572722541D01*
X-547670597Y572717582D01*
X-547657290Y572711288D01*
X-547644664Y572703720D01*
X-547632841Y572694952D01*
X-547621934Y572685066D01*
X-547612048Y572674159D01*
X-547603280Y572662336D01*
X-547595712Y572649710D01*
X-547589418Y572636403D01*
X-547584459Y572622543D01*
X-547580882Y572608264D01*
X-547578722Y572593703D01*
X-547578000Y572579000D01*
X-547578000Y570929000D01*
X-547578722Y570914297D01*
X-547580882Y570899736D01*
X-547584459Y570885457D01*
X-547589418Y570871597D01*
X-547595712Y570858290D01*
X-547603280Y570845664D01*
X-547612048Y570833841D01*
X-547621934Y570822934D01*
X-547632841Y570813048D01*
X-547644664Y570804280D01*
X-547657290Y570796712D01*
X-547670597Y570790418D01*
X-547684457Y570785459D01*
X-547698736Y570781882D01*
X-547713297Y570779722D01*
X-547728000Y570779000D01*
X-548028000Y570779000D01*
X-548042703Y570779722D01*
X-548057264Y570781882D01*
X-548071543Y570785459D01*
X-548085403Y570790418D01*
X-548098710Y570796712D01*
X-548111336Y570804280D01*
X-548123159Y570813048D01*
X-548134066Y570822934D01*
X-548143952Y570833841D01*
X-548152720Y570845664D01*
X-548160288Y570858290D01*
X-548166582Y570871597D01*
X-548171541Y570885457D01*
X-548175118Y570899736D01*
X-548177278Y570914297D01*
X-548178000Y570929000D01*
X-548178000Y572579000D01*
X-548177278Y572593703D01*
X-548175118Y572608264D01*
X-548171541Y572622543D01*
X-548166582Y572636403D01*
X-548160288Y572649710D01*
X-548152720Y572662336D01*
X-548143952Y572674159D01*
X-548134066Y572685066D01*
X-548123159Y572694952D01*
X-548111336Y572703720D01*
X-548098710Y572711288D01*
X-548085403Y572717582D01*
X-548071543Y572722541D01*
X-548057264Y572726118D01*
X-548042703Y572728278D01*
X-548028000Y572729000D01*
X-547728000Y572729000D01*
X-547713297Y572728278D01*
G37*
G04 #@! TD.AperFunction*
G04 #@! TA.AperFunction,SMDPad,CuDef*
G36*
X-546443297Y572728278D02*
G01*
X-546428736Y572726118D01*
X-546414457Y572722541D01*
X-546400597Y572717582D01*
X-546387290Y572711288D01*
X-546374664Y572703720D01*
X-546362841Y572694952D01*
X-546351934Y572685066D01*
X-546342048Y572674159D01*
X-546333280Y572662336D01*
X-546325712Y572649710D01*
X-546319418Y572636403D01*
X-546314459Y572622543D01*
X-546310882Y572608264D01*
X-546308722Y572593703D01*
X-546308000Y572579000D01*
X-546308000Y570929000D01*
X-546308722Y570914297D01*
X-546310882Y570899736D01*
X-546314459Y570885457D01*
X-546319418Y570871597D01*
X-546325712Y570858290D01*
X-546333280Y570845664D01*
X-546342048Y570833841D01*
X-546351934Y570822934D01*
X-546362841Y570813048D01*
X-546374664Y570804280D01*
X-546387290Y570796712D01*
X-546400597Y570790418D01*
X-546414457Y570785459D01*
X-546428736Y570781882D01*
X-546443297Y570779722D01*
X-546458000Y570779000D01*
X-546758000Y570779000D01*
X-546772703Y570779722D01*
X-546787264Y570781882D01*
X-546801543Y570785459D01*
X-546815403Y570790418D01*
X-546828710Y570796712D01*
X-546841336Y570804280D01*
X-546853159Y570813048D01*
X-546864066Y570822934D01*
X-546873952Y570833841D01*
X-546882720Y570845664D01*
X-546890288Y570858290D01*
X-546896582Y570871597D01*
X-546901541Y570885457D01*
X-546905118Y570899736D01*
X-546907278Y570914297D01*
X-546908000Y570929000D01*
X-546908000Y572579000D01*
X-546907278Y572593703D01*
X-546905118Y572608264D01*
X-546901541Y572622543D01*
X-546896582Y572636403D01*
X-546890288Y572649710D01*
X-546882720Y572662336D01*
X-546873952Y572674159D01*
X-546864066Y572685066D01*
X-546853159Y572694952D01*
X-546841336Y572703720D01*
X-546828710Y572711288D01*
X-546815403Y572717582D01*
X-546801543Y572722541D01*
X-546787264Y572726118D01*
X-546772703Y572728278D01*
X-546758000Y572729000D01*
X-546458000Y572729000D01*
X-546443297Y572728278D01*
G37*
G04 #@! TD.AperFunction*
G04 #@! TA.AperFunction,SMDPad,CuDef*
G36*
X-546443297Y567778278D02*
G01*
X-546428736Y567776118D01*
X-546414457Y567772541D01*
X-546400597Y567767582D01*
X-546387290Y567761288D01*
X-546374664Y567753720D01*
X-546362841Y567744952D01*
X-546351934Y567735066D01*
X-546342048Y567724159D01*
X-546333280Y567712336D01*
X-546325712Y567699710D01*
X-546319418Y567686403D01*
X-546314459Y567672543D01*
X-546310882Y567658264D01*
X-546308722Y567643703D01*
X-546308000Y567629000D01*
X-546308000Y565979000D01*
X-546308722Y565964297D01*
X-546310882Y565949736D01*
X-546314459Y565935457D01*
X-546319418Y565921597D01*
X-546325712Y565908290D01*
X-546333280Y565895664D01*
X-546342048Y565883841D01*
X-546351934Y565872934D01*
X-546362841Y565863048D01*
X-546374664Y565854280D01*
X-546387290Y565846712D01*
X-546400597Y565840418D01*
X-546414457Y565835459D01*
X-546428736Y565831882D01*
X-546443297Y565829722D01*
X-546458000Y565829000D01*
X-546758000Y565829000D01*
X-546772703Y565829722D01*
X-546787264Y565831882D01*
X-546801543Y565835459D01*
X-546815403Y565840418D01*
X-546828710Y565846712D01*
X-546841336Y565854280D01*
X-546853159Y565863048D01*
X-546864066Y565872934D01*
X-546873952Y565883841D01*
X-546882720Y565895664D01*
X-546890288Y565908290D01*
X-546896582Y565921597D01*
X-546901541Y565935457D01*
X-546905118Y565949736D01*
X-546907278Y565964297D01*
X-546908000Y565979000D01*
X-546908000Y567629000D01*
X-546907278Y567643703D01*
X-546905118Y567658264D01*
X-546901541Y567672543D01*
X-546896582Y567686403D01*
X-546890288Y567699710D01*
X-546882720Y567712336D01*
X-546873952Y567724159D01*
X-546864066Y567735066D01*
X-546853159Y567744952D01*
X-546841336Y567753720D01*
X-546828710Y567761288D01*
X-546815403Y567767582D01*
X-546801543Y567772541D01*
X-546787264Y567776118D01*
X-546772703Y567778278D01*
X-546758000Y567779000D01*
X-546458000Y567779000D01*
X-546443297Y567778278D01*
G37*
G04 #@! TD.AperFunction*
G04 #@! TA.AperFunction,SMDPad,CuDef*
G36*
X-547713297Y567778278D02*
G01*
X-547698736Y567776118D01*
X-547684457Y567772541D01*
X-547670597Y567767582D01*
X-547657290Y567761288D01*
X-547644664Y567753720D01*
X-547632841Y567744952D01*
X-547621934Y567735066D01*
X-547612048Y567724159D01*
X-547603280Y567712336D01*
X-547595712Y567699710D01*
X-547589418Y567686403D01*
X-547584459Y567672543D01*
X-547580882Y567658264D01*
X-547578722Y567643703D01*
X-547578000Y567629000D01*
X-547578000Y565979000D01*
X-547578722Y565964297D01*
X-547580882Y565949736D01*
X-547584459Y565935457D01*
X-547589418Y565921597D01*
X-547595712Y565908290D01*
X-547603280Y565895664D01*
X-547612048Y565883841D01*
X-547621934Y565872934D01*
X-547632841Y565863048D01*
X-547644664Y565854280D01*
X-547657290Y565846712D01*
X-547670597Y565840418D01*
X-547684457Y565835459D01*
X-547698736Y565831882D01*
X-547713297Y565829722D01*
X-547728000Y565829000D01*
X-548028000Y565829000D01*
X-548042703Y565829722D01*
X-548057264Y565831882D01*
X-548071543Y565835459D01*
X-548085403Y565840418D01*
X-548098710Y565846712D01*
X-548111336Y565854280D01*
X-548123159Y565863048D01*
X-548134066Y565872934D01*
X-548143952Y565883841D01*
X-548152720Y565895664D01*
X-548160288Y565908290D01*
X-548166582Y565921597D01*
X-548171541Y565935457D01*
X-548175118Y565949736D01*
X-548177278Y565964297D01*
X-548178000Y565979000D01*
X-548178000Y567629000D01*
X-548177278Y567643703D01*
X-548175118Y567658264D01*
X-548171541Y567672543D01*
X-548166582Y567686403D01*
X-548160288Y567699710D01*
X-548152720Y567712336D01*
X-548143952Y567724159D01*
X-548134066Y567735066D01*
X-548123159Y567744952D01*
X-548111336Y567753720D01*
X-548098710Y567761288D01*
X-548085403Y567767582D01*
X-548071543Y567772541D01*
X-548057264Y567776118D01*
X-548042703Y567778278D01*
X-548028000Y567779000D01*
X-547728000Y567779000D01*
X-547713297Y567778278D01*
G37*
G04 #@! TD.AperFunction*
G04 #@! TA.AperFunction,SMDPad,CuDef*
G36*
X-548983297Y567778278D02*
G01*
X-548968736Y567776118D01*
X-548954457Y567772541D01*
X-548940597Y567767582D01*
X-548927290Y567761288D01*
X-548914664Y567753720D01*
X-548902841Y567744952D01*
X-548891934Y567735066D01*
X-548882048Y567724159D01*
X-548873280Y567712336D01*
X-548865712Y567699710D01*
X-548859418Y567686403D01*
X-548854459Y567672543D01*
X-548850882Y567658264D01*
X-548848722Y567643703D01*
X-548848000Y567629000D01*
X-548848000Y565979000D01*
X-548848722Y565964297D01*
X-548850882Y565949736D01*
X-548854459Y565935457D01*
X-548859418Y565921597D01*
X-548865712Y565908290D01*
X-548873280Y565895664D01*
X-548882048Y565883841D01*
X-548891934Y565872934D01*
X-548902841Y565863048D01*
X-548914664Y565854280D01*
X-548927290Y565846712D01*
X-548940597Y565840418D01*
X-548954457Y565835459D01*
X-548968736Y565831882D01*
X-548983297Y565829722D01*
X-548998000Y565829000D01*
X-549298000Y565829000D01*
X-549312703Y565829722D01*
X-549327264Y565831882D01*
X-549341543Y565835459D01*
X-549355403Y565840418D01*
X-549368710Y565846712D01*
X-549381336Y565854280D01*
X-549393159Y565863048D01*
X-549404066Y565872934D01*
X-549413952Y565883841D01*
X-549422720Y565895664D01*
X-549430288Y565908290D01*
X-549436582Y565921597D01*
X-549441541Y565935457D01*
X-549445118Y565949736D01*
X-549447278Y565964297D01*
X-549448000Y565979000D01*
X-549448000Y567629000D01*
X-549447278Y567643703D01*
X-549445118Y567658264D01*
X-549441541Y567672543D01*
X-549436582Y567686403D01*
X-549430288Y567699710D01*
X-549422720Y567712336D01*
X-549413952Y567724159D01*
X-549404066Y567735066D01*
X-549393159Y567744952D01*
X-549381336Y567753720D01*
X-549368710Y567761288D01*
X-549355403Y567767582D01*
X-549341543Y567772541D01*
X-549327264Y567776118D01*
X-549312703Y567778278D01*
X-549298000Y567779000D01*
X-548998000Y567779000D01*
X-548983297Y567778278D01*
G37*
G04 #@! TD.AperFunction*
G04 #@! TA.AperFunction,SMDPad,CuDef*
G36*
X-550253297Y567778278D02*
G01*
X-550238736Y567776118D01*
X-550224457Y567772541D01*
X-550210597Y567767582D01*
X-550197290Y567761288D01*
X-550184664Y567753720D01*
X-550172841Y567744952D01*
X-550161934Y567735066D01*
X-550152048Y567724159D01*
X-550143280Y567712336D01*
X-550135712Y567699710D01*
X-550129418Y567686403D01*
X-550124459Y567672543D01*
X-550120882Y567658264D01*
X-550118722Y567643703D01*
X-550118000Y567629000D01*
X-550118000Y565979000D01*
X-550118722Y565964297D01*
X-550120882Y565949736D01*
X-550124459Y565935457D01*
X-550129418Y565921597D01*
X-550135712Y565908290D01*
X-550143280Y565895664D01*
X-550152048Y565883841D01*
X-550161934Y565872934D01*
X-550172841Y565863048D01*
X-550184664Y565854280D01*
X-550197290Y565846712D01*
X-550210597Y565840418D01*
X-550224457Y565835459D01*
X-550238736Y565831882D01*
X-550253297Y565829722D01*
X-550268000Y565829000D01*
X-550568000Y565829000D01*
X-550582703Y565829722D01*
X-550597264Y565831882D01*
X-550611543Y565835459D01*
X-550625403Y565840418D01*
X-550638710Y565846712D01*
X-550651336Y565854280D01*
X-550663159Y565863048D01*
X-550674066Y565872934D01*
X-550683952Y565883841D01*
X-550692720Y565895664D01*
X-550700288Y565908290D01*
X-550706582Y565921597D01*
X-550711541Y565935457D01*
X-550715118Y565949736D01*
X-550717278Y565964297D01*
X-550718000Y565979000D01*
X-550718000Y567629000D01*
X-550717278Y567643703D01*
X-550715118Y567658264D01*
X-550711541Y567672543D01*
X-550706582Y567686403D01*
X-550700288Y567699710D01*
X-550692720Y567712336D01*
X-550683952Y567724159D01*
X-550674066Y567735066D01*
X-550663159Y567744952D01*
X-550651336Y567753720D01*
X-550638710Y567761288D01*
X-550625403Y567767582D01*
X-550611543Y567772541D01*
X-550597264Y567776118D01*
X-550582703Y567778278D01*
X-550568000Y567779000D01*
X-550268000Y567779000D01*
X-550253297Y567778278D01*
G37*
G04 #@! TD.AperFunction*
D10*
X-554482000Y559308000D03*
D11*
X-554482000Y561848000D03*
X-554482000Y566166000D03*
D10*
X-532892000Y536448000D03*
X-535432000Y536448000D03*
X-532892000Y538988000D03*
X-535432000Y538988000D03*
X-532892000Y541528000D03*
X-535432000Y541528000D03*
X-532892000Y544068000D03*
X-535432000Y544068000D03*
X-532892000Y546608000D03*
X-535432000Y546608000D03*
X-532892000Y549148000D03*
X-535432000Y549148000D03*
X-532892000Y551688000D03*
X-535432000Y551688000D03*
X-532892000Y554228000D03*
X-535432000Y554228000D03*
X-532892000Y556768000D03*
X-535432000Y556768000D03*
X-532892000Y559308000D03*
X-535432000Y559308000D03*
X-532892000Y561848000D03*
X-535432000Y561848000D03*
X-532892000Y564388000D03*
X-535432000Y564388000D03*
X-532892000Y566928000D03*
X-535432000Y566928000D03*
X-532892000Y569468000D03*
X-535432000Y569468000D03*
X-532892000Y572008000D03*
X-535432000Y572008000D03*
X-532892000Y574548000D03*
X-535432000Y574548000D03*
X-532892000Y577088000D03*
X-535432000Y577088000D03*
X-532892000Y579628000D03*
X-535432000Y579628000D03*
X-532892000Y582168000D03*
X-535432000Y582168000D03*
X-532892000Y584708000D03*
D11*
X-535432000Y584708000D03*
D10*
X-543052000Y541020000D03*
X-543052000Y543560000D03*
X-543052000Y546100000D03*
X-543052000Y548640000D03*
X-543052000Y551180000D03*
X-543052000Y574040000D03*
D11*
X-543052000Y576580000D03*
D13*
X-539496000Y539750000D03*
X-540766000Y539750000D03*
X-540766000Y541020000D03*
X-539496000Y542290000D03*
X-540766000Y542290000D03*
X-540766000Y543560000D03*
X-539496000Y544830000D03*
X-540766000Y544830000D03*
X-540766000Y546100000D03*
X-539496000Y547370000D03*
X-540766000Y547370000D03*
X-539496000Y548640000D03*
X-540766000Y548640000D03*
X-539496000Y549910000D03*
X-540766000Y549910000D03*
X-540766000Y551180000D03*
X-539496000Y553720000D03*
X-539496000Y554990000D03*
X-540766000Y554990000D03*
X-539496000Y556260000D03*
X-540766000Y556260000D03*
X-539496000Y557530000D03*
X-540766000Y557530000D03*
X-539496000Y558800000D03*
X-540766000Y558800000D03*
X-539496000Y561340000D03*
X-540766000Y561340000D03*
X-539496000Y562610000D03*
X-540766000Y562610000D03*
X-539496000Y563880000D03*
X-540766000Y563880000D03*
X-539496000Y565150000D03*
X-540766000Y565150000D03*
X-539496000Y566420000D03*
X-540766000Y566420000D03*
X-539496000Y567690000D03*
X-540766000Y567690000D03*
X-539496000Y568960000D03*
X-540766000Y568960000D03*
X-540766000Y574040000D03*
X-539496000Y575310000D03*
X-539496000Y576580000D03*
X-540766000Y576580000D03*
X-539496000Y577850000D03*
X-540766000Y577850000D03*
X-539496000Y579120000D03*
X-540766000Y579120000D03*
D14*
X-548132000Y581660000D03*
X-542137590Y552958000D03*
X-546354000Y569214000D03*
X-548745997Y559940831D03*
X-551434000Y579374000D03*
D15*
X-537718000Y560451000D03*
X-537210000Y549529000D03*
X-539877000Y572262000D03*
X-538588208Y573640209D03*
X-537800194Y574526941D03*
X-546608000Y574040000D03*
X-548386000Y549656000D03*
X-547116000Y575310000D03*
X-549484849Y577070851D03*
X-544830000Y568198000D03*
X-542988490Y553976857D03*
X-545592000Y551434000D03*
X-537337000Y563499000D03*
X-546608000Y542798000D03*
D16*
X-541265999Y550680001D02*
X-540766000Y551180000D01*
X-542202001Y549743999D02*
X-541265999Y550680001D01*
X-542202001Y549489999D02*
X-542202001Y549743999D01*
X-543052000Y548640000D02*
X-542202001Y549489999D01*
X-540766000Y574040000D02*
X-541265999Y573540001D01*
X-541265999Y569459999D02*
X-540766000Y568960000D01*
X-541265999Y573540001D02*
X-541265999Y569459999D01*
X-548132000Y580136000D02*
X-546354000Y580136000D01*
X-548132000Y580136000D02*
X-548132000Y581660000D01*
X-546608000Y568960000D02*
X-546354000Y569214000D01*
X-542137590Y552551590D02*
X-542137590Y552958000D01*
X-540766000Y551180000D02*
X-542137590Y552551590D01*
X-546608000Y566804000D02*
X-546608000Y568960000D01*
X-546100000Y566296000D02*
X-546608000Y566804000D01*
X-546100000Y564388000D02*
X-546100000Y566296000D01*
X-544068000Y538734000D02*
X-541782000Y536448000D01*
X-550418000Y538734000D02*
X-544068000Y538734000D01*
X-548132000Y578612000D02*
X-546354000Y578612000D01*
X-549148000Y571754000D02*
X-550418000Y571754000D01*
X-548178000Y567104000D02*
X-547878000Y566804000D01*
X-548543190Y567469190D02*
X-548178000Y567104000D01*
X-548543190Y571149190D02*
X-548543190Y567469190D01*
X-549148000Y571754000D02*
X-548543190Y571149190D01*
X-534046801Y535293199D02*
X-532892000Y536448000D01*
X-554481999Y535293199D02*
X-534046801Y535293199D01*
X-554482000Y536448000D02*
X-554481999Y535293199D01*
X-547878000Y566804000D02*
X-547878000Y560808828D01*
X-547878000Y560808828D02*
X-548745997Y559940831D01*
X-552693000Y538734000D02*
X-552168000Y538734000D01*
X-553350800Y538734000D02*
X-552693000Y538734000D01*
X-554482000Y537602800D02*
X-553350800Y538734000D01*
X-554482000Y536448000D02*
X-554482000Y537602800D01*
X-555331999Y558458001D02*
X-554482000Y559308000D01*
X-555636801Y558153199D02*
X-555331999Y558458001D01*
X-555752000Y551942000D02*
X-555498000Y552196000D01*
X-555498000Y552196000D02*
X-555636801Y558153199D01*
X-554482000Y537718000D02*
X-555752000Y538988000D01*
X-554482000Y537602800D02*
X-554482000Y537718000D01*
X-555684081Y548132000D02*
X-555752000Y548132000D01*
X-554482000Y548132000D02*
X-555684081Y548132000D01*
X-555752000Y548132000D02*
X-555752000Y551942000D01*
X-555752000Y538988000D02*
X-555752000Y548132000D01*
X-549148000Y574802000D02*
X-551434000Y577088000D01*
X-549148000Y574802000D02*
X-549148000Y576472130D01*
X-551434000Y577088000D02*
X-551434000Y579374000D01*
X-549148000Y576472130D02*
X-548132000Y577488130D01*
X-549148000Y571754000D02*
X-549148000Y574802000D01*
X-548132000Y577488130D02*
X-548132000Y578137000D01*
X-548132000Y578137000D02*
X-548132000Y578612000D01*
D17*
X-536321000Y561848000D02*
X-535432000Y561848000D01*
X-537718000Y560451000D02*
X-536321000Y561848000D01*
X-533741999Y549997999D02*
X-532892000Y549148000D01*
X-536512399Y550226601D02*
X-533970601Y550226601D01*
X-533970601Y550226601D02*
X-533741999Y549997999D01*
X-537210000Y549529000D02*
X-536512399Y550226601D01*
X-535686000Y572262000D02*
X-535432000Y572008000D01*
X-539877000Y572262000D02*
X-535686000Y572262000D01*
X-536339791Y573640209D02*
X-535432000Y574548000D01*
X-538588208Y573640209D02*
X-536339791Y573640209D01*
X-537800194Y574719806D02*
X-537800194Y574526941D01*
X-535432000Y577088000D02*
X-537800194Y574719806D01*
X-544604000Y580611000D02*
X-544604000Y580136000D01*
X-545829000Y581914000D02*
X-544604000Y580689000D01*
X-544604000Y580689000D02*
X-544604000Y580611000D01*
X-544604000Y580136000D02*
X-544604000Y578612000D01*
X-532892000Y554228000D02*
X-531114000Y556006000D01*
X-531114000Y556006000D02*
X-531114000Y584962000D01*
X-545529399Y582213601D02*
X-545829000Y581914000D01*
X-544280918Y586091412D02*
X-545529399Y584842931D01*
X-532248015Y586091412D02*
X-544280918Y586091412D01*
X-531118603Y584962000D02*
X-532248015Y586091412D01*
X-545829000Y581914000D02*
X-546354000Y581914000D01*
X-545529399Y584842931D02*
X-545529399Y582213601D01*
X-531114000Y584962000D02*
X-531118603Y584962000D01*
X-540678001Y585557999D02*
X-541528000Y584708000D01*
X-532892000Y569468000D02*
X-531622000Y570738000D01*
X-540449399Y585786601D02*
X-540678001Y585557999D01*
X-532374271Y585786601D02*
X-540449399Y585786601D01*
X-531622000Y585034330D02*
X-532374271Y585786601D01*
X-531622000Y570738000D02*
X-531622000Y585034330D01*
X-546608000Y571754000D02*
X-546608000Y574040000D01*
X-542798000Y565658000D02*
X-540766000Y567690000D01*
X-543560000Y565658000D02*
X-542798000Y565658000D01*
X-546608000Y571754000D02*
X-543560000Y568706000D01*
X-543560000Y566166000D02*
X-543560000Y565658000D01*
X-543560000Y568706000D02*
X-543560000Y566166000D01*
X-543560000Y554966933D02*
X-543560000Y565658000D01*
X-548386000Y550140933D02*
X-543560000Y554966933D01*
X-548386000Y549656000D02*
X-548386000Y550140933D01*
X-549938000Y580192000D02*
X-549882000Y580136000D01*
X-549938000Y581914000D02*
X-549938000Y580192000D01*
X-549882000Y580136000D02*
X-549882000Y578612000D01*
X-540957670Y575310000D02*
X-539750000Y574102330D01*
X-547055000Y575310000D02*
X-540957670Y575310000D01*
X-539750000Y574102330D02*
X-539750000Y573532000D01*
X-538313887Y573068708D02*
X-538104595Y573278000D01*
X-539286708Y573068708D02*
X-538313887Y573068708D01*
X-539750000Y573532000D02*
X-539286708Y573068708D01*
X-534582001Y570317999D02*
X-535432000Y569468000D01*
X-534353399Y570546601D02*
X-534582001Y570317999D01*
X-534353399Y572525729D02*
X-534353399Y570546601D01*
X-535105670Y573278000D02*
X-534353399Y572525729D01*
X-538104595Y573278000D02*
X-535105670Y573278000D01*
X-547055000Y575310000D02*
X-547116000Y575310000D01*
X-549484849Y577739849D02*
X-549484849Y577555784D01*
X-549882000Y578612000D02*
X-549882000Y578137000D01*
X-549484849Y577555784D02*
X-549484849Y577070851D01*
X-549882000Y578137000D02*
X-549484849Y577739849D01*
X-545600390Y578118677D02*
X-548178000Y575541067D01*
X-545600390Y579042572D02*
X-545600390Y578118677D01*
X-549046402Y582269598D02*
X-549046402Y579866220D01*
X-548178000Y572054000D02*
X-547878000Y571754000D01*
X-549046402Y579866220D02*
X-548612572Y579432390D01*
X-546608000Y584708000D02*
X-549046402Y582269598D01*
X-548178000Y575541067D02*
X-548178000Y572054000D01*
X-545990208Y579432390D02*
X-545600390Y579042572D01*
X-548612572Y579432390D02*
X-545990208Y579432390D01*
X-547878000Y571754000D02*
X-547878000Y570779000D01*
X-547878000Y570779000D02*
X-547583000Y570484000D01*
X-547583000Y570484000D02*
X-545769066Y570484000D01*
X-544830000Y568682933D02*
X-544830000Y568198000D01*
X-545769066Y570484000D02*
X-544830000Y569544934D01*
X-544830000Y569544934D02*
X-544830000Y568682933D01*
X-542503557Y553976857D02*
X-542988490Y553976857D01*
X-541803133Y553976857D02*
X-542503557Y553976857D01*
X-539496000Y549910000D02*
X-539496000Y551669724D01*
X-539496000Y551669724D02*
X-541803133Y553976857D01*
X-543049143Y553976857D02*
X-542988490Y553976857D01*
X-545592000Y551434000D02*
X-543049143Y553976857D01*
X-537337000Y565023000D02*
X-537337000Y563499000D01*
X-535432000Y566928000D02*
X-537337000Y565023000D01*
X-550418000Y565829000D02*
X-550118000Y566129000D01*
X-550118000Y566504000D02*
X-550418000Y566804000D01*
X-550118000Y566129000D02*
X-550118000Y566504000D01*
X-554228000Y557199067D02*
X-550418000Y561009067D01*
X-550418000Y561009067D02*
X-550418000Y565829000D01*
X-554228000Y555752000D02*
X-554228000Y557199067D01*
X-555306601Y577011799D02*
X-555230400Y577088000D01*
X-555230400Y577088000D02*
X-554228000Y577088000D01*
X-555306601Y567993001D02*
X-555306601Y577011799D01*
X-554482000Y567168400D02*
X-555306601Y567993001D01*
X-554482000Y566166000D02*
X-554482000Y567168400D01*
X-551688000Y583705600D02*
X-551688000Y581914000D01*
X-551688000Y584708000D02*
X-551688000Y583705600D01*
X-551688000Y542798000D02*
X-551942000Y543052000D01*
X-546608000Y542798000D02*
X-551688000Y542798000D01*
X-549148000Y560832000D02*
X-549148000Y566804000D01*
X-553020601Y556959399D02*
X-549148000Y560832000D01*
X-553020601Y544130601D02*
X-553020601Y556959399D01*
X-551942000Y543052000D02*
X-553020601Y544130601D01*
X-551688000Y576750684D02*
X-551688000Y570319000D01*
X-551688000Y570319000D02*
X-549148000Y567779000D01*
X-551688000Y581914000D02*
X-552213000Y581914000D01*
X-552213000Y581914000D02*
X-552348402Y581778598D01*
X-552348402Y581778598D02*
X-552348402Y577411086D01*
X-552348402Y577411086D02*
X-551688000Y576750684D01*
X-549148000Y567779000D02*
X-549148000Y566804000D01*
X-541782000Y581914000D02*
X-538988000Y584708000D01*
X-544604000Y581914000D02*
X-541782000Y581914000D01*
D18*
G36*
X-547722420Y569783091D02*
G01*
X-547617936Y569772800D01*
X-547617927Y569772800D01*
X-547583001Y569769360D01*
X-547548075Y569772800D01*
X-546063653Y569772800D01*
X-545541200Y569250346D01*
X-545541200Y568869760D01*
X-545589585Y568821375D01*
X-545696604Y568661210D01*
X-545770320Y568483243D01*
X-545807900Y568294315D01*
X-545807900Y568170582D01*
X-545856815Y568230185D01*
X-545953506Y568309537D01*
X-546063820Y568368502D01*
X-546183518Y568404812D01*
X-546308000Y568417072D01*
X-546322250Y568414000D01*
X-546481000Y568255250D01*
X-546481000Y566931000D01*
X-545831750Y566931000D01*
X-545673000Y567089750D01*
X-545670300Y567695424D01*
X-545589585Y567574625D01*
X-545453375Y567438415D01*
X-545293210Y567331396D01*
X-545115243Y567257680D01*
X-544926315Y567220100D01*
X-544733685Y567220100D01*
X-544544757Y567257680D01*
X-544366790Y567331396D01*
X-544271199Y567395268D01*
X-544271199Y566200945D01*
X-544271200Y566200935D01*
X-544271200Y565692936D01*
X-544274641Y565658000D01*
X-544271199Y565623054D01*
X-544271200Y555261522D01*
X-548864190Y550668530D01*
X-548891326Y550646260D01*
X-548980202Y550537966D01*
X-549046242Y550414414D01*
X-549061785Y550363175D01*
X-549145585Y550279375D01*
X-549252604Y550119210D01*
X-549326320Y549941243D01*
X-549363900Y549752315D01*
X-549363900Y549559685D01*
X-549326320Y549370757D01*
X-549252604Y549192790D01*
X-549145585Y549032625D01*
X-549009375Y548896415D01*
X-548849210Y548789396D01*
X-548671243Y548715680D01*
X-548482315Y548678100D01*
X-548289685Y548678100D01*
X-548100757Y548715680D01*
X-547922790Y548789396D01*
X-547762625Y548896415D01*
X-547626415Y549032625D01*
X-547519396Y549192790D01*
X-547445680Y549370757D01*
X-547408100Y549559685D01*
X-547408100Y549752315D01*
X-547445680Y549941243D01*
X-547484993Y550036153D01*
X-546485477Y551035668D01*
X-546458604Y550970790D01*
X-546351585Y550810625D01*
X-546215375Y550674415D01*
X-546055210Y550567396D01*
X-545877243Y550493680D01*
X-545688315Y550456100D01*
X-545495685Y550456100D01*
X-545306757Y550493680D01*
X-545128790Y550567396D01*
X-544968625Y550674415D01*
X-544832415Y550810625D01*
X-544725396Y550970790D01*
X-544651680Y551148757D01*
X-544614100Y551337685D01*
X-544614100Y551406113D01*
X-544498028Y551522185D01*
X-544537000Y551326260D01*
X-544537000Y551033740D01*
X-544479932Y550746842D01*
X-544367990Y550476589D01*
X-544205475Y550233368D01*
X-543998632Y550026525D01*
X-543816466Y549904805D01*
X-543933355Y549835178D01*
X-544149588Y549640269D01*
X-544323641Y549406920D01*
X-544448825Y549144099D01*
X-544493476Y548996890D01*
X-544372155Y548767000D01*
X-543179000Y548767000D01*
X-543179000Y548787000D01*
X-542925000Y548787000D01*
X-542925000Y548767000D01*
X-542905000Y548767000D01*
X-542905000Y548513000D01*
X-542925000Y548513000D01*
X-542925000Y548493000D01*
X-543179000Y548493000D01*
X-543179000Y548513000D01*
X-544372155Y548513000D01*
X-544493476Y548283110D01*
X-544448825Y548135901D01*
X-544323641Y547873080D01*
X-544149588Y547639731D01*
X-543933355Y547444822D01*
X-543816466Y547375195D01*
X-543998632Y547253475D01*
X-544205475Y547046632D01*
X-544367990Y546803411D01*
X-544479932Y546533158D01*
X-544537000Y546246260D01*
X-544537000Y545953740D01*
X-544479932Y545666842D01*
X-544367990Y545396589D01*
X-544205475Y545153368D01*
X-543998632Y544946525D01*
X-543816466Y544824805D01*
X-543933355Y544755178D01*
X-544149588Y544560269D01*
X-544323641Y544326920D01*
X-544448825Y544064099D01*
X-544493476Y543916890D01*
X-544372155Y543687000D01*
X-543179000Y543687000D01*
X-543179000Y543707000D01*
X-542925000Y543707000D01*
X-542925000Y543687000D01*
X-542905000Y543687000D01*
X-542905000Y543433000D01*
X-542925000Y543433000D01*
X-542925000Y543413000D01*
X-543179000Y543413000D01*
X-543179000Y543433000D01*
X-544372155Y543433000D01*
X-544493476Y543203110D01*
X-544448825Y543055901D01*
X-544323641Y542793080D01*
X-544149588Y542559731D01*
X-543933355Y542364822D01*
X-543816466Y542295195D01*
X-543998632Y542173475D01*
X-544205475Y541966632D01*
X-544367990Y541723411D01*
X-544479932Y541453158D01*
X-544537000Y541166260D01*
X-544537000Y540873740D01*
X-544479932Y540586842D01*
X-544367990Y540316589D01*
X-544205475Y540073368D01*
X-543998632Y539866525D01*
X-543755411Y539704010D01*
X-543485158Y539592068D01*
X-543198260Y539535000D01*
X-542905740Y539535000D01*
X-542618842Y539592068D01*
X-542348589Y539704010D01*
X-542105368Y539866525D01*
X-541898525Y540073368D01*
X-541778602Y540252845D01*
X-541843446Y540106864D01*
X-541860119Y540051874D01*
X-541733954Y539877000D01*
X-540893000Y539877000D01*
X-540893000Y539888026D01*
X-540877788Y539885000D01*
X-540654212Y539885000D01*
X-540639000Y539888026D01*
X-540639000Y539877000D01*
X-540627974Y539877000D01*
X-540631000Y539861788D01*
X-540631000Y539638212D01*
X-540627974Y539623000D01*
X-540639000Y539623000D01*
X-540639000Y538780871D01*
X-540464124Y538655874D01*
X-540256471Y538735790D01*
X-540135512Y538812256D01*
X-540033624Y538744176D01*
X-539827067Y538658617D01*
X-539607788Y538615000D01*
X-539384212Y538615000D01*
X-539164933Y538658617D01*
X-538958376Y538744176D01*
X-538772480Y538868388D01*
X-538614388Y539026480D01*
X-538490176Y539212376D01*
X-538404617Y539418933D01*
X-538361000Y539638212D01*
X-538361000Y539861788D01*
X-538404617Y540081067D01*
X-538490176Y540287624D01*
X-538614388Y540473520D01*
X-538772480Y540631612D01*
X-538958376Y540755824D01*
X-539164933Y540841383D01*
X-539384212Y540885000D01*
X-539607788Y540885000D01*
X-539636764Y540879236D01*
X-539631000Y540908212D01*
X-539631000Y541131788D01*
X-539636764Y541160764D01*
X-539607788Y541155000D01*
X-539384212Y541155000D01*
X-539164933Y541198617D01*
X-538958376Y541284176D01*
X-538772480Y541408388D01*
X-538614388Y541566480D01*
X-538490176Y541752376D01*
X-538404617Y541958933D01*
X-538361000Y542178212D01*
X-538361000Y542401788D01*
X-538404617Y542621067D01*
X-538490176Y542827624D01*
X-538614388Y543013520D01*
X-538772480Y543171612D01*
X-538958376Y543295824D01*
X-539164933Y543381383D01*
X-539384212Y543425000D01*
X-539607788Y543425000D01*
X-539636764Y543419236D01*
X-539631000Y543448212D01*
X-539631000Y543671788D01*
X-539636764Y543700764D01*
X-539607788Y543695000D01*
X-539384212Y543695000D01*
X-539164933Y543738617D01*
X-538958376Y543824176D01*
X-538772480Y543948388D01*
X-538614388Y544106480D01*
X-538490176Y544292376D01*
X-538404617Y544498933D01*
X-538361000Y544718212D01*
X-538361000Y544941788D01*
X-538404617Y545161067D01*
X-538490176Y545367624D01*
X-538614388Y545553520D01*
X-538772480Y545711612D01*
X-538958376Y545835824D01*
X-539164933Y545921383D01*
X-539384212Y545965000D01*
X-539607788Y545965000D01*
X-539636764Y545959236D01*
X-539631000Y545988212D01*
X-539631000Y546211788D01*
X-539636764Y546240764D01*
X-539607788Y546235000D01*
X-539384212Y546235000D01*
X-539164933Y546278617D01*
X-538958376Y546364176D01*
X-538772480Y546488388D01*
X-538614388Y546646480D01*
X-538490176Y546832376D01*
X-538404617Y547038933D01*
X-538361000Y547258212D01*
X-538361000Y547481788D01*
X-538404617Y547701067D01*
X-538490176Y547907624D01*
X-538555241Y548005000D01*
X-538490176Y548102376D01*
X-538404617Y548308933D01*
X-538361000Y548528212D01*
X-538361000Y548751788D01*
X-538404617Y548971067D01*
X-538490176Y549177624D01*
X-538555241Y549275000D01*
X-538490176Y549372376D01*
X-538404617Y549578933D01*
X-538361000Y549798212D01*
X-538361000Y550021788D01*
X-538404617Y550241067D01*
X-538490176Y550447624D01*
X-538614388Y550633520D01*
X-538772480Y550791612D01*
X-538784800Y550799844D01*
X-538784800Y551634796D01*
X-538781360Y551669724D01*
X-538784800Y551704653D01*
X-538784800Y551704660D01*
X-538795091Y551809144D01*
X-538817620Y551883411D01*
X-538835758Y551943206D01*
X-538901798Y552066757D01*
X-538968403Y552147915D01*
X-538990673Y552175051D01*
X-539017809Y552197321D01*
X-539405488Y552585000D01*
X-539384212Y552585000D01*
X-539164933Y552628617D01*
X-538958376Y552714176D01*
X-538772480Y552838388D01*
X-538614388Y552996480D01*
X-538490176Y553182376D01*
X-538404617Y553388933D01*
X-538361000Y553608212D01*
X-538361000Y553831788D01*
X-538404617Y554051067D01*
X-538490176Y554257624D01*
X-538555241Y554355000D01*
X-538490176Y554452376D01*
X-538404617Y554658933D01*
X-538361000Y554878212D01*
X-538361000Y555101788D01*
X-538404617Y555321067D01*
X-538490176Y555527624D01*
X-538555241Y555625000D01*
X-538490176Y555722376D01*
X-538404617Y555928933D01*
X-538361000Y556148212D01*
X-538361000Y556371788D01*
X-538404617Y556591067D01*
X-538490176Y556797624D01*
X-538555241Y556895000D01*
X-538490176Y556992376D01*
X-538404617Y557198933D01*
X-538361000Y557418212D01*
X-538361000Y557641788D01*
X-538404617Y557861067D01*
X-538490176Y558067624D01*
X-538555241Y558165000D01*
X-538490176Y558262376D01*
X-538404617Y558468933D01*
X-538361000Y558688212D01*
X-538361000Y558911788D01*
X-538404617Y559131067D01*
X-538490176Y559337624D01*
X-538614388Y559523520D01*
X-538772480Y559681612D01*
X-538958376Y559805824D01*
X-539164933Y559891383D01*
X-539384212Y559935000D01*
X-539607788Y559935000D01*
X-539827067Y559891383D01*
X-540033624Y559805824D01*
X-540131000Y559740759D01*
X-540228376Y559805824D01*
X-540434933Y559891383D01*
X-540654212Y559935000D01*
X-540877788Y559935000D01*
X-541097067Y559891383D01*
X-541303624Y559805824D01*
X-541489520Y559681612D01*
X-541647612Y559523520D01*
X-541771824Y559337624D01*
X-541857383Y559131067D01*
X-541901000Y558911788D01*
X-541901000Y558688212D01*
X-541857383Y558468933D01*
X-541771824Y558262376D01*
X-541706759Y558165000D01*
X-541771824Y558067624D01*
X-541857383Y557861067D01*
X-541901000Y557641788D01*
X-541901000Y557418212D01*
X-541857383Y557198933D01*
X-541771824Y556992376D01*
X-541706759Y556895000D01*
X-541771824Y556797624D01*
X-541857383Y556591067D01*
X-541901000Y556371788D01*
X-541901000Y556148212D01*
X-541857383Y555928933D01*
X-541771824Y555722376D01*
X-541706759Y555625000D01*
X-541771824Y555527624D01*
X-541857383Y555321067D01*
X-541901000Y555101788D01*
X-541901000Y554878212D01*
X-541863176Y554688057D01*
X-542316730Y554688057D01*
X-542365115Y554736442D01*
X-542525280Y554843461D01*
X-542703247Y554917177D01*
X-542847436Y554945858D01*
X-542845360Y554966933D01*
X-542848800Y555001861D01*
X-542848800Y564946800D01*
X-542832926Y564946800D01*
X-542798000Y564943360D01*
X-542763074Y564946800D01*
X-542763064Y564946800D01*
X-542658580Y564957091D01*
X-542524519Y564997758D01*
X-542400967Y565063798D01*
X-542292673Y565152673D01*
X-542270398Y565179815D01*
X-541778354Y565671858D01*
X-541857383Y565481067D01*
X-541901000Y565261788D01*
X-541901000Y565038212D01*
X-541857383Y564818933D01*
X-541771824Y564612376D01*
X-541706759Y564515000D01*
X-541771824Y564417624D01*
X-541857383Y564211067D01*
X-541901000Y563991788D01*
X-541901000Y563768212D01*
X-541857383Y563548933D01*
X-541771824Y563342376D01*
X-541706759Y563245000D01*
X-541771824Y563147624D01*
X-541857383Y562941067D01*
X-541901000Y562721788D01*
X-541901000Y562498212D01*
X-541857383Y562278933D01*
X-541771824Y562072376D01*
X-541706759Y561975000D01*
X-541771824Y561877624D01*
X-541857383Y561671067D01*
X-541901000Y561451788D01*
X-541901000Y561228212D01*
X-541857383Y561008933D01*
X-541771824Y560802376D01*
X-541647612Y560616480D01*
X-541489520Y560458388D01*
X-541303624Y560334176D01*
X-541097067Y560248617D01*
X-540877788Y560205000D01*
X-540654212Y560205000D01*
X-540434933Y560248617D01*
X-540228376Y560334176D01*
X-540131000Y560399241D01*
X-540033624Y560334176D01*
X-539827067Y560248617D01*
X-539607788Y560205000D01*
X-539384212Y560205000D01*
X-539164933Y560248617D01*
X-538958376Y560334176D01*
X-538772480Y560458388D01*
X-538695900Y560534968D01*
X-538695900Y560354685D01*
X-538658320Y560165757D01*
X-538584604Y559987790D01*
X-538477585Y559827625D01*
X-538341375Y559691415D01*
X-538181210Y559584396D01*
X-538003243Y559510680D01*
X-537814315Y559473100D01*
X-537621685Y559473100D01*
X-537432757Y559510680D01*
X-537254790Y559584396D01*
X-537094625Y559691415D01*
X-536958415Y559827625D01*
X-536851396Y559987790D01*
X-536777680Y560165757D01*
X-536740100Y560354685D01*
X-536740100Y560423112D01*
X-536423659Y560739552D01*
X-536378632Y560694525D01*
X-536204240Y560578000D01*
X-536378632Y560461475D01*
X-536585475Y560254632D01*
X-536747990Y560011411D01*
X-536859932Y559741158D01*
X-536917000Y559454260D01*
X-536917000Y559161740D01*
X-536859932Y558874842D01*
X-536747990Y558604589D01*
X-536585475Y558361368D01*
X-536378632Y558154525D01*
X-536204240Y558038000D01*
X-536378632Y557921475D01*
X-536585475Y557714632D01*
X-536747990Y557471411D01*
X-536859932Y557201158D01*
X-536917000Y556914260D01*
X-536917000Y556621740D01*
X-536859932Y556334842D01*
X-536747990Y556064589D01*
X-536585475Y555821368D01*
X-536378632Y555614525D01*
X-536204240Y555498000D01*
X-536378632Y555381475D01*
X-536585475Y555174632D01*
X-536747990Y554931411D01*
X-536859932Y554661158D01*
X-536917000Y554374260D01*
X-536917000Y554081740D01*
X-536859932Y553794842D01*
X-536747990Y553524589D01*
X-536585475Y553281368D01*
X-536378632Y553074525D01*
X-536204240Y552958000D01*
X-536378632Y552841475D01*
X-536585475Y552634632D01*
X-536747990Y552391411D01*
X-536859932Y552121158D01*
X-536917000Y551834260D01*
X-536917000Y551541740D01*
X-536859932Y551254842D01*
X-536747990Y550984589D01*
X-536700071Y550912873D01*
X-536785881Y550886843D01*
X-536870071Y550841842D01*
X-536909432Y550820803D01*
X-537017726Y550731928D01*
X-537039997Y550704791D01*
X-537237888Y550506900D01*
X-537306315Y550506900D01*
X-537495243Y550469320D01*
X-537673210Y550395604D01*
X-537833375Y550288585D01*
X-537969585Y550152375D01*
X-538076604Y549992210D01*
X-538150320Y549814243D01*
X-538187900Y549625315D01*
X-538187900Y549432685D01*
X-538150320Y549243757D01*
X-538076604Y549065790D01*
X-537969585Y548905625D01*
X-537833375Y548769415D01*
X-537673210Y548662396D01*
X-537495243Y548588680D01*
X-537306315Y548551100D01*
X-537113685Y548551100D01*
X-536924757Y548588680D01*
X-536824820Y548630075D01*
X-536747990Y548444589D01*
X-536585475Y548201368D01*
X-536378632Y547994525D01*
X-536204240Y547878000D01*
X-536378632Y547761475D01*
X-536585475Y547554632D01*
X-536747990Y547311411D01*
X-536859932Y547041158D01*
X-536917000Y546754260D01*
X-536917000Y546461740D01*
X-536859932Y546174842D01*
X-536747990Y545904589D01*
X-536585475Y545661368D01*
X-536378632Y545454525D01*
X-536204240Y545338000D01*
X-536378632Y545221475D01*
X-536585475Y545014632D01*
X-536747990Y544771411D01*
X-536859932Y544501158D01*
X-536917000Y544214260D01*
X-536917000Y543921740D01*
X-536859932Y543634842D01*
X-536747990Y543364589D01*
X-536585475Y543121368D01*
X-536378632Y542914525D01*
X-536204240Y542798000D01*
X-536378632Y542681475D01*
X-536585475Y542474632D01*
X-536747990Y542231411D01*
X-536859932Y541961158D01*
X-536917000Y541674260D01*
X-536917000Y541381740D01*
X-536859932Y541094842D01*
X-536747990Y540824589D01*
X-536585475Y540581368D01*
X-536378632Y540374525D01*
X-536196466Y540252805D01*
X-536313355Y540183178D01*
X-536529588Y539988269D01*
X-536703641Y539754920D01*
X-536828825Y539492099D01*
X-536873476Y539344890D01*
X-536752155Y539115000D01*
X-535559000Y539115000D01*
X-535559000Y539135000D01*
X-535305000Y539135000D01*
X-535305000Y539115000D01*
X-533019000Y539115000D01*
X-533019000Y539135000D01*
X-532765000Y539135000D01*
X-532765000Y539115000D01*
X-531571845Y539115000D01*
X-531450524Y539344890D01*
X-531495175Y539492099D01*
X-531620359Y539754920D01*
X-531794412Y539988269D01*
X-532010645Y540183178D01*
X-532127534Y540252805D01*
X-531945368Y540374525D01*
X-531738525Y540581368D01*
X-531576010Y540824589D01*
X-531464068Y541094842D01*
X-531407000Y541381740D01*
X-531407000Y541674260D01*
X-531464068Y541961158D01*
X-531576010Y542231411D01*
X-531738525Y542474632D01*
X-531945368Y542681475D01*
X-532119760Y542798000D01*
X-531945368Y542914525D01*
X-531738525Y543121368D01*
X-531576010Y543364589D01*
X-531464068Y543634842D01*
X-531407000Y543921740D01*
X-531407000Y544214260D01*
X-531464068Y544501158D01*
X-531576010Y544771411D01*
X-531738525Y545014632D01*
X-531945368Y545221475D01*
X-532119760Y545338000D01*
X-531945368Y545454525D01*
X-531738525Y545661368D01*
X-531576010Y545904589D01*
X-531464068Y546174842D01*
X-531407000Y546461740D01*
X-531407000Y546754260D01*
X-531464068Y547041158D01*
X-531576010Y547311411D01*
X-531738525Y547554632D01*
X-531945368Y547761475D01*
X-532119760Y547878000D01*
X-531945368Y547994525D01*
X-531738525Y548201368D01*
X-531576010Y548444589D01*
X-531464068Y548714842D01*
X-531407000Y549001740D01*
X-531407000Y549294260D01*
X-531464068Y549581158D01*
X-531576010Y549851411D01*
X-531738525Y550094632D01*
X-531945368Y550301475D01*
X-532119760Y550418000D01*
X-531945368Y550534525D01*
X-531738525Y550741368D01*
X-531576010Y550984589D01*
X-531464068Y551254842D01*
X-531407000Y551541740D01*
X-531407000Y551834260D01*
X-531464068Y552121158D01*
X-531576010Y552391411D01*
X-531738525Y552634632D01*
X-531945368Y552841475D01*
X-532119760Y552958000D01*
X-531945368Y553074525D01*
X-531738525Y553281368D01*
X-531576010Y553524589D01*
X-531464068Y553794842D01*
X-531407000Y554081740D01*
X-531407000Y554374260D01*
X-531462241Y554651971D01*
X-530987000Y555127211D01*
X-530987000Y535355000D01*
X-531884893Y535355000D01*
X-531738525Y535501368D01*
X-531576010Y535744589D01*
X-531464068Y536014842D01*
X-531407000Y536301740D01*
X-531407000Y536594260D01*
X-531464068Y536881158D01*
X-531576010Y537151411D01*
X-531738525Y537394632D01*
X-531945368Y537601475D01*
X-532127534Y537723195D01*
X-532010645Y537792822D01*
X-531794412Y537987731D01*
X-531620359Y538221080D01*
X-531495175Y538483901D01*
X-531450524Y538631110D01*
X-531571845Y538861000D01*
X-532765000Y538861000D01*
X-532765000Y538841000D01*
X-533019000Y538841000D01*
X-533019000Y538861000D01*
X-535305000Y538861000D01*
X-535305000Y538841000D01*
X-535559000Y538841000D01*
X-535559000Y538861000D01*
X-536752155Y538861000D01*
X-536873476Y538631110D01*
X-536828825Y538483901D01*
X-536703641Y538221080D01*
X-536529588Y537987731D01*
X-536313355Y537792822D01*
X-536196466Y537723195D01*
X-536378632Y537601475D01*
X-536585475Y537394632D01*
X-536747990Y537151411D01*
X-536859932Y536881158D01*
X-536917000Y536594260D01*
X-536917000Y536301740D01*
X-536873012Y536080599D01*
X-540344247Y536080599D01*
X-540340519Y536091109D01*
X-540461186Y536321000D01*
X-541655000Y536321000D01*
X-541655000Y536301000D01*
X-541909000Y536301000D01*
X-541909000Y536321000D01*
X-541929000Y536321000D01*
X-541929000Y536575000D01*
X-541909000Y536575000D01*
X-541909000Y537768155D01*
X-541655000Y537768155D01*
X-541655000Y536575000D01*
X-540461186Y536575000D01*
X-540340519Y536804891D01*
X-540437843Y537079252D01*
X-540586822Y537329355D01*
X-540781731Y537545588D01*
X-541015080Y537719641D01*
X-541277901Y537844825D01*
X-541425110Y537889476D01*
X-541655000Y537768155D01*
X-541909000Y537768155D01*
X-542138890Y537889476D01*
X-542286099Y537844825D01*
X-542548920Y537719641D01*
X-542782269Y537545588D01*
X-542977178Y537329355D01*
X-543046805Y537212466D01*
X-543168525Y537394632D01*
X-543375368Y537601475D01*
X-543618589Y537763990D01*
X-543888842Y537875932D01*
X-544175740Y537933000D01*
X-544468260Y537933000D01*
X-544755158Y537875932D01*
X-545025411Y537763990D01*
X-545268632Y537601475D01*
X-545475475Y537394632D01*
X-545592000Y537220240D01*
X-545708525Y537394632D01*
X-545915368Y537601475D01*
X-546158589Y537763990D01*
X-546428842Y537875932D01*
X-546715740Y537933000D01*
X-547008260Y537933000D01*
X-547295158Y537875932D01*
X-547565411Y537763990D01*
X-547808632Y537601475D01*
X-548015475Y537394632D01*
X-548132000Y537220240D01*
X-548248525Y537394632D01*
X-548455368Y537601475D01*
X-548698589Y537763990D01*
X-548968842Y537875932D01*
X-549255740Y537933000D01*
X-549347232Y537933000D01*
X-549303498Y538014820D01*
X-549267188Y538134518D01*
X-549254928Y538259000D01*
X-549258000Y538448250D01*
X-549416750Y538607000D01*
X-550291000Y538607000D01*
X-550291000Y537782750D01*
X-550205418Y537697168D01*
X-550348632Y537601475D01*
X-550555475Y537394632D01*
X-550672000Y537220240D01*
X-550788525Y537394632D01*
X-550995368Y537601475D01*
X-551038568Y537630340D01*
X-550943000Y537620928D01*
X-550703750Y537624000D01*
X-550545000Y537782750D01*
X-550545000Y538607000D01*
X-550565000Y538607000D01*
X-550565000Y538861000D01*
X-550545000Y538861000D01*
X-550545000Y539685250D01*
X-550291000Y539685250D01*
X-550291000Y538861000D01*
X-549416750Y538861000D01*
X-549258000Y539019750D01*
X-549254928Y539209000D01*
X-549267188Y539333482D01*
X-549301964Y539448126D01*
X-541860119Y539448126D01*
X-541843446Y539393136D01*
X-541753123Y539189794D01*
X-541624865Y539007980D01*
X-541463601Y538854682D01*
X-541275529Y538735790D01*
X-541067876Y538655874D01*
X-540893000Y538780871D01*
X-540893000Y539623000D01*
X-541733954Y539623000D01*
X-541860119Y539448126D01*
X-549301964Y539448126D01*
X-549303498Y539453180D01*
X-549362463Y539563494D01*
X-549441815Y539660185D01*
X-549538506Y539739537D01*
X-549648820Y539798502D01*
X-549768518Y539834812D01*
X-549893000Y539847072D01*
X-550132250Y539844000D01*
X-550291000Y539685250D01*
X-550545000Y539685250D01*
X-550642965Y539783215D01*
X-550626010Y539808589D01*
X-550514068Y540078842D01*
X-550457000Y540365740D01*
X-550457000Y540658260D01*
X-550514068Y540945158D01*
X-550626010Y541215411D01*
X-550788525Y541458632D01*
X-550995368Y541665475D01*
X-551169760Y541782000D01*
X-550995368Y541898525D01*
X-550807093Y542086800D01*
X-547279760Y542086800D01*
X-547231375Y542038415D01*
X-547071210Y541931396D01*
X-546893243Y541857680D01*
X-546704315Y541820100D01*
X-546511685Y541820100D01*
X-546322757Y541857680D01*
X-546144790Y541931396D01*
X-545984625Y542038415D01*
X-545848415Y542174625D01*
X-545741396Y542334790D01*
X-545667680Y542512757D01*
X-545630100Y542701685D01*
X-545630100Y542894315D01*
X-545667680Y543083243D01*
X-545741396Y543261210D01*
X-545848415Y543421375D01*
X-545984625Y543557585D01*
X-546144790Y543664604D01*
X-546322757Y543738320D01*
X-546511685Y543775900D01*
X-546704315Y543775900D01*
X-546893243Y543738320D01*
X-547071210Y543664604D01*
X-547231375Y543557585D01*
X-547279760Y543509200D01*
X-550524026Y543509200D01*
X-550626010Y543755411D01*
X-550788525Y543998632D01*
X-550995368Y544205475D01*
X-551169760Y544322000D01*
X-550995368Y544438525D01*
X-550788525Y544645368D01*
X-550626010Y544888589D01*
X-550514068Y545158842D01*
X-550457000Y545445740D01*
X-550457000Y545738260D01*
X-550514068Y546025158D01*
X-550626010Y546295411D01*
X-550788525Y546538632D01*
X-550995368Y546745475D01*
X-551169760Y546862000D01*
X-550995368Y546978525D01*
X-550788525Y547185368D01*
X-550626010Y547428589D01*
X-550514068Y547698842D01*
X-550457000Y547985740D01*
X-550457000Y548278260D01*
X-550514068Y548565158D01*
X-550626010Y548835411D01*
X-550788525Y549078632D01*
X-550920380Y549210487D01*
X-550847820Y549232498D01*
X-550737506Y549291463D01*
X-550640815Y549370815D01*
X-550561463Y549467506D01*
X-550502498Y549577820D01*
X-550466188Y549697518D01*
X-550453928Y549822000D01*
X-550453928Y551522000D01*
X-550466188Y551646482D01*
X-550502498Y551766180D01*
X-550561463Y551876494D01*
X-550640815Y551973185D01*
X-550737506Y552052537D01*
X-550847820Y552111502D01*
X-550967518Y552147812D01*
X-551092000Y552160072D01*
X-552309401Y552160072D01*
X-552309401Y554402040D01*
X-552121158Y554324068D01*
X-551834260Y554267000D01*
X-551541740Y554267000D01*
X-551254842Y554324068D01*
X-550984589Y554436010D01*
X-550741368Y554598525D01*
X-550534525Y554805368D01*
X-550418000Y554979760D01*
X-550301475Y554805368D01*
X-550094632Y554598525D01*
X-549851411Y554436010D01*
X-549581158Y554324068D01*
X-549294260Y554267000D01*
X-549001740Y554267000D01*
X-548714842Y554324068D01*
X-548444589Y554436010D01*
X-548201368Y554598525D01*
X-547994525Y554805368D01*
X-547832010Y555048589D01*
X-547720068Y555318842D01*
X-547663000Y555605740D01*
X-547663000Y555898260D01*
X-547720068Y556185158D01*
X-547832010Y556455411D01*
X-547994525Y556698632D01*
X-548201368Y556905475D01*
X-548444589Y557067990D01*
X-548714842Y557179932D01*
X-549001740Y557237000D01*
X-549294260Y557237000D01*
X-549581158Y557179932D01*
X-549851411Y557067990D01*
X-550094632Y556905475D01*
X-550301475Y556698632D01*
X-550418000Y556524240D01*
X-550534525Y556698632D01*
X-550741368Y556905475D01*
X-550984589Y557067990D01*
X-551254842Y557179932D01*
X-551541740Y557237000D01*
X-551737213Y557237000D01*
X-549813351Y559160861D01*
X-549771930Y559098870D01*
X-549587958Y558914898D01*
X-549371631Y558770353D01*
X-549131260Y558670788D01*
X-548876084Y558620031D01*
X-548615910Y558620031D01*
X-548360734Y558670788D01*
X-548120363Y558770353D01*
X-547904036Y558914898D01*
X-547720064Y559098870D01*
X-547575519Y559315197D01*
X-547475954Y559555568D01*
X-547425197Y559810744D01*
X-547425197Y560070918D01*
X-547437999Y560135278D01*
X-547348567Y560224709D01*
X-547318531Y560249359D01*
X-547267466Y560311581D01*
X-547220135Y560369255D01*
X-547199158Y560408498D01*
X-547147018Y560506045D01*
X-547101994Y560654471D01*
X-547090600Y560770155D01*
X-547090600Y560770164D01*
X-547086792Y560808827D01*
X-547090600Y560847490D01*
X-547090600Y563414715D01*
X-547076058Y563422488D01*
X-547052161Y563442099D01*
X-546979494Y563382463D01*
X-546869180Y563323498D01*
X-546749482Y563287188D01*
X-546625000Y563274928D01*
X-546385750Y563278000D01*
X-546227000Y563436750D01*
X-546227000Y564261000D01*
X-545973000Y564261000D01*
X-545973000Y563436750D01*
X-545814250Y563278000D01*
X-545575000Y563274928D01*
X-545450518Y563287188D01*
X-545330820Y563323498D01*
X-545220506Y563382463D01*
X-545123815Y563461815D01*
X-545044463Y563558506D01*
X-544985498Y563668820D01*
X-544949188Y563788518D01*
X-544936928Y563913000D01*
X-544940000Y564102250D01*
X-545098750Y564261000D01*
X-545973000Y564261000D01*
X-546227000Y564261000D01*
X-546247000Y564261000D01*
X-546247000Y564515000D01*
X-546227000Y564515000D01*
X-546227000Y564535000D01*
X-545973000Y564535000D01*
X-545973000Y564515000D01*
X-545098750Y564515000D01*
X-544940000Y564673750D01*
X-544936928Y564863000D01*
X-544949188Y564987482D01*
X-544985498Y565107180D01*
X-545044463Y565217494D01*
X-545123815Y565314185D01*
X-545220506Y565393537D01*
X-545330820Y565452502D01*
X-545450518Y565488812D01*
X-545575000Y565501072D01*
X-545764564Y565498638D01*
X-545718498Y565584820D01*
X-545682188Y565704518D01*
X-545669928Y565829000D01*
X-545673000Y566518250D01*
X-545831750Y566677000D01*
X-546481000Y566677000D01*
X-546481000Y566657000D01*
X-546735000Y566657000D01*
X-546735000Y566677000D01*
X-546755000Y566677000D01*
X-546755000Y566931000D01*
X-546735000Y566931000D01*
X-546735000Y568255250D01*
X-546893750Y568414000D01*
X-546908000Y568417072D01*
X-547032482Y568404812D01*
X-547152180Y568368502D01*
X-547262494Y568309537D01*
X-547292064Y568285270D01*
X-547426418Y568357084D01*
X-547574255Y568401929D01*
X-547728000Y568417072D01*
X-547755790Y568417072D01*
X-547755790Y569793214D01*
X-547722420Y569783091D01*
G37*
X-547722420Y569783091D02*
X-547617936Y569772800D01*
X-547617927Y569772800D01*
X-547583001Y569769360D01*
X-547548075Y569772800D01*
X-546063653Y569772800D01*
X-545541200Y569250346D01*
X-545541200Y568869760D01*
X-545589585Y568821375D01*
X-545696604Y568661210D01*
X-545770320Y568483243D01*
X-545807900Y568294315D01*
X-545807900Y568170582D01*
X-545856815Y568230185D01*
X-545953506Y568309537D01*
X-546063820Y568368502D01*
X-546183518Y568404812D01*
X-546308000Y568417072D01*
X-546322250Y568414000D01*
X-546481000Y568255250D01*
X-546481000Y566931000D01*
X-545831750Y566931000D01*
X-545673000Y567089750D01*
X-545670300Y567695424D01*
X-545589585Y567574625D01*
X-545453375Y567438415D01*
X-545293210Y567331396D01*
X-545115243Y567257680D01*
X-544926315Y567220100D01*
X-544733685Y567220100D01*
X-544544757Y567257680D01*
X-544366790Y567331396D01*
X-544271199Y567395268D01*
X-544271199Y566200945D01*
X-544271200Y566200935D01*
X-544271200Y565692936D01*
X-544274641Y565658000D01*
X-544271199Y565623054D01*
X-544271200Y555261522D01*
X-548864190Y550668530D01*
X-548891326Y550646260D01*
X-548980202Y550537966D01*
X-549046242Y550414414D01*
X-549061785Y550363175D01*
X-549145585Y550279375D01*
X-549252604Y550119210D01*
X-549326320Y549941243D01*
X-549363900Y549752315D01*
X-549363900Y549559685D01*
X-549326320Y549370757D01*
X-549252604Y549192790D01*
X-549145585Y549032625D01*
X-549009375Y548896415D01*
X-548849210Y548789396D01*
X-548671243Y548715680D01*
X-548482315Y548678100D01*
X-548289685Y548678100D01*
X-548100757Y548715680D01*
X-547922790Y548789396D01*
X-547762625Y548896415D01*
X-547626415Y549032625D01*
X-547519396Y549192790D01*
X-547445680Y549370757D01*
X-547408100Y549559685D01*
X-547408100Y549752315D01*
X-547445680Y549941243D01*
X-547484993Y550036153D01*
X-546485477Y551035668D01*
X-546458604Y550970790D01*
X-546351585Y550810625D01*
X-546215375Y550674415D01*
X-546055210Y550567396D01*
X-545877243Y550493680D01*
X-545688315Y550456100D01*
X-545495685Y550456100D01*
X-545306757Y550493680D01*
X-545128790Y550567396D01*
X-544968625Y550674415D01*
X-544832415Y550810625D01*
X-544725396Y550970790D01*
X-544651680Y551148757D01*
X-544614100Y551337685D01*
X-544614100Y551406113D01*
X-544498028Y551522185D01*
X-544537000Y551326260D01*
X-544537000Y551033740D01*
X-544479932Y550746842D01*
X-544367990Y550476589D01*
X-544205475Y550233368D01*
X-543998632Y550026525D01*
X-543816466Y549904805D01*
X-543933355Y549835178D01*
X-544149588Y549640269D01*
X-544323641Y549406920D01*
X-544448825Y549144099D01*
X-544493476Y548996890D01*
X-544372155Y548767000D01*
X-543179000Y548767000D01*
X-543179000Y548787000D01*
X-542925000Y548787000D01*
X-542925000Y548767000D01*
X-542905000Y548767000D01*
X-542905000Y548513000D01*
X-542925000Y548513000D01*
X-542925000Y548493000D01*
X-543179000Y548493000D01*
X-543179000Y548513000D01*
X-544372155Y548513000D01*
X-544493476Y548283110D01*
X-544448825Y548135901D01*
X-544323641Y547873080D01*
X-544149588Y547639731D01*
X-543933355Y547444822D01*
X-543816466Y547375195D01*
X-543998632Y547253475D01*
X-544205475Y547046632D01*
X-544367990Y546803411D01*
X-544479932Y546533158D01*
X-544537000Y546246260D01*
X-544537000Y545953740D01*
X-544479932Y545666842D01*
X-544367990Y545396589D01*
X-544205475Y545153368D01*
X-543998632Y544946525D01*
X-543816466Y544824805D01*
X-543933355Y544755178D01*
X-544149588Y544560269D01*
X-544323641Y544326920D01*
X-544448825Y544064099D01*
X-544493476Y543916890D01*
X-544372155Y543687000D01*
X-543179000Y543687000D01*
X-543179000Y543707000D01*
X-542925000Y543707000D01*
X-542925000Y543687000D01*
X-542905000Y543687000D01*
X-542905000Y543433000D01*
X-542925000Y543433000D01*
X-542925000Y543413000D01*
X-543179000Y543413000D01*
X-543179000Y543433000D01*
X-544372155Y543433000D01*
X-544493476Y543203110D01*
X-544448825Y543055901D01*
X-544323641Y542793080D01*
X-544149588Y542559731D01*
X-543933355Y542364822D01*
X-543816466Y542295195D01*
X-543998632Y542173475D01*
X-544205475Y541966632D01*
X-544367990Y541723411D01*
X-544479932Y541453158D01*
X-544537000Y541166260D01*
X-544537000Y540873740D01*
X-544479932Y540586842D01*
X-544367990Y540316589D01*
X-544205475Y540073368D01*
X-543998632Y539866525D01*
X-543755411Y539704010D01*
X-543485158Y539592068D01*
X-543198260Y539535000D01*
X-542905740Y539535000D01*
X-542618842Y539592068D01*
X-542348589Y539704010D01*
X-542105368Y539866525D01*
X-541898525Y540073368D01*
X-541778602Y540252845D01*
X-541843446Y540106864D01*
X-541860119Y540051874D01*
X-541733954Y539877000D01*
X-540893000Y539877000D01*
X-540893000Y539888026D01*
X-540877788Y539885000D01*
X-540654212Y539885000D01*
X-540639000Y539888026D01*
X-540639000Y539877000D01*
X-540627974Y539877000D01*
X-540631000Y539861788D01*
X-540631000Y539638212D01*
X-540627974Y539623000D01*
X-540639000Y539623000D01*
X-540639000Y538780871D01*
X-540464124Y538655874D01*
X-540256471Y538735790D01*
X-540135512Y538812256D01*
X-540033624Y538744176D01*
X-539827067Y538658617D01*
X-539607788Y538615000D01*
X-539384212Y538615000D01*
X-539164933Y538658617D01*
X-538958376Y538744176D01*
X-538772480Y538868388D01*
X-538614388Y539026480D01*
X-538490176Y539212376D01*
X-538404617Y539418933D01*
X-538361000Y539638212D01*
X-538361000Y539861788D01*
X-538404617Y540081067D01*
X-538490176Y540287624D01*
X-538614388Y540473520D01*
X-538772480Y540631612D01*
X-538958376Y540755824D01*
X-539164933Y540841383D01*
X-539384212Y540885000D01*
X-539607788Y540885000D01*
X-539636764Y540879236D01*
X-539631000Y540908212D01*
X-539631000Y541131788D01*
X-539636764Y541160764D01*
X-539607788Y541155000D01*
X-539384212Y541155000D01*
X-539164933Y541198617D01*
X-538958376Y541284176D01*
X-538772480Y541408388D01*
X-538614388Y541566480D01*
X-538490176Y541752376D01*
X-538404617Y541958933D01*
X-538361000Y542178212D01*
X-538361000Y542401788D01*
X-538404617Y542621067D01*
X-538490176Y542827624D01*
X-538614388Y543013520D01*
X-538772480Y543171612D01*
X-538958376Y543295824D01*
X-539164933Y543381383D01*
X-539384212Y543425000D01*
X-539607788Y543425000D01*
X-539636764Y543419236D01*
X-539631000Y543448212D01*
X-539631000Y543671788D01*
X-539636764Y543700764D01*
X-539607788Y543695000D01*
X-539384212Y543695000D01*
X-539164933Y543738617D01*
X-538958376Y543824176D01*
X-538772480Y543948388D01*
X-538614388Y544106480D01*
X-538490176Y544292376D01*
X-538404617Y544498933D01*
X-538361000Y544718212D01*
X-538361000Y544941788D01*
X-538404617Y545161067D01*
X-538490176Y545367624D01*
X-538614388Y545553520D01*
X-538772480Y545711612D01*
X-538958376Y545835824D01*
X-539164933Y545921383D01*
X-539384212Y545965000D01*
X-539607788Y545965000D01*
X-539636764Y545959236D01*
X-539631000Y545988212D01*
X-539631000Y546211788D01*
X-539636764Y546240764D01*
X-539607788Y546235000D01*
X-539384212Y546235000D01*
X-539164933Y546278617D01*
X-538958376Y546364176D01*
X-538772480Y546488388D01*
X-538614388Y546646480D01*
X-538490176Y546832376D01*
X-538404617Y547038933D01*
X-538361000Y547258212D01*
X-538361000Y547481788D01*
X-538404617Y547701067D01*
X-538490176Y547907624D01*
X-538555241Y548005000D01*
X-538490176Y548102376D01*
X-538404617Y548308933D01*
X-538361000Y548528212D01*
X-538361000Y548751788D01*
X-538404617Y548971067D01*
X-538490176Y549177624D01*
X-538555241Y549275000D01*
X-538490176Y549372376D01*
X-538404617Y549578933D01*
X-538361000Y549798212D01*
X-538361000Y550021788D01*
X-538404617Y550241067D01*
X-538490176Y550447624D01*
X-538614388Y550633520D01*
X-538772480Y550791612D01*
X-538784800Y550799844D01*
X-538784800Y551634796D01*
X-538781360Y551669724D01*
X-538784800Y551704653D01*
X-538784800Y551704660D01*
X-538795091Y551809144D01*
X-538817620Y551883411D01*
X-538835758Y551943206D01*
X-538901798Y552066757D01*
X-538968403Y552147915D01*
X-538990673Y552175051D01*
X-539017809Y552197321D01*
X-539405488Y552585000D01*
X-539384212Y552585000D01*
X-539164933Y552628617D01*
X-538958376Y552714176D01*
X-538772480Y552838388D01*
X-538614388Y552996480D01*
X-538490176Y553182376D01*
X-538404617Y553388933D01*
X-538361000Y553608212D01*
X-538361000Y553831788D01*
X-538404617Y554051067D01*
X-538490176Y554257624D01*
X-538555241Y554355000D01*
X-538490176Y554452376D01*
X-538404617Y554658933D01*
X-538361000Y554878212D01*
X-538361000Y555101788D01*
X-538404617Y555321067D01*
X-538490176Y555527624D01*
X-538555241Y555625000D01*
X-538490176Y555722376D01*
X-538404617Y555928933D01*
X-538361000Y556148212D01*
X-538361000Y556371788D01*
X-538404617Y556591067D01*
X-538490176Y556797624D01*
X-538555241Y556895000D01*
X-538490176Y556992376D01*
X-538404617Y557198933D01*
X-538361000Y557418212D01*
X-538361000Y557641788D01*
X-538404617Y557861067D01*
X-538490176Y558067624D01*
X-538555241Y558165000D01*
X-538490176Y558262376D01*
X-538404617Y558468933D01*
X-538361000Y558688212D01*
X-538361000Y558911788D01*
X-538404617Y559131067D01*
X-538490176Y559337624D01*
X-538614388Y559523520D01*
X-538772480Y559681612D01*
X-538958376Y559805824D01*
X-539164933Y559891383D01*
X-539384212Y559935000D01*
X-539607788Y559935000D01*
X-539827067Y559891383D01*
X-540033624Y559805824D01*
X-540131000Y559740759D01*
X-540228376Y559805824D01*
X-540434933Y559891383D01*
X-540654212Y559935000D01*
X-540877788Y559935000D01*
X-541097067Y559891383D01*
X-541303624Y559805824D01*
X-541489520Y559681612D01*
X-541647612Y559523520D01*
X-541771824Y559337624D01*
X-541857383Y559131067D01*
X-541901000Y558911788D01*
X-541901000Y558688212D01*
X-541857383Y558468933D01*
X-541771824Y558262376D01*
X-541706759Y558165000D01*
X-541771824Y558067624D01*
X-541857383Y557861067D01*
X-541901000Y557641788D01*
X-541901000Y557418212D01*
X-541857383Y557198933D01*
X-541771824Y556992376D01*
X-541706759Y556895000D01*
X-541771824Y556797624D01*
X-541857383Y556591067D01*
X-541901000Y556371788D01*
X-541901000Y556148212D01*
X-541857383Y555928933D01*
X-541771824Y555722376D01*
X-541706759Y555625000D01*
X-541771824Y555527624D01*
X-541857383Y555321067D01*
X-541901000Y555101788D01*
X-541901000Y554878212D01*
X-541863176Y554688057D01*
X-542316730Y554688057D01*
X-542365115Y554736442D01*
X-542525280Y554843461D01*
X-542703247Y554917177D01*
X-542847436Y554945858D01*
X-542845360Y554966933D01*
X-542848800Y555001861D01*
X-542848800Y564946800D01*
X-542832926Y564946800D01*
X-542798000Y564943360D01*
X-542763074Y564946800D01*
X-542763064Y564946800D01*
X-542658580Y564957091D01*
X-542524519Y564997758D01*
X-542400967Y565063798D01*
X-542292673Y565152673D01*
X-542270398Y565179815D01*
X-541778354Y565671858D01*
X-541857383Y565481067D01*
X-541901000Y565261788D01*
X-541901000Y565038212D01*
X-541857383Y564818933D01*
X-541771824Y564612376D01*
X-541706759Y564515000D01*
X-541771824Y564417624D01*
X-541857383Y564211067D01*
X-541901000Y563991788D01*
X-541901000Y563768212D01*
X-541857383Y563548933D01*
X-541771824Y563342376D01*
X-541706759Y563245000D01*
X-541771824Y563147624D01*
X-541857383Y562941067D01*
X-541901000Y562721788D01*
X-541901000Y562498212D01*
X-541857383Y562278933D01*
X-541771824Y562072376D01*
X-541706759Y561975000D01*
X-541771824Y561877624D01*
X-541857383Y561671067D01*
X-541901000Y561451788D01*
X-541901000Y561228212D01*
X-541857383Y561008933D01*
X-541771824Y560802376D01*
X-541647612Y560616480D01*
X-541489520Y560458388D01*
X-541303624Y560334176D01*
X-541097067Y560248617D01*
X-540877788Y560205000D01*
X-540654212Y560205000D01*
X-540434933Y560248617D01*
X-540228376Y560334176D01*
X-540131000Y560399241D01*
X-540033624Y560334176D01*
X-539827067Y560248617D01*
X-539607788Y560205000D01*
X-539384212Y560205000D01*
X-539164933Y560248617D01*
X-538958376Y560334176D01*
X-538772480Y560458388D01*
X-538695900Y560534968D01*
X-538695900Y560354685D01*
X-538658320Y560165757D01*
X-538584604Y559987790D01*
X-538477585Y559827625D01*
X-538341375Y559691415D01*
X-538181210Y559584396D01*
X-538003243Y559510680D01*
X-537814315Y559473100D01*
X-537621685Y559473100D01*
X-537432757Y559510680D01*
X-537254790Y559584396D01*
X-537094625Y559691415D01*
X-536958415Y559827625D01*
X-536851396Y559987790D01*
X-536777680Y560165757D01*
X-536740100Y560354685D01*
X-536740100Y560423112D01*
X-536423659Y560739552D01*
X-536378632Y560694525D01*
X-536204240Y560578000D01*
X-536378632Y560461475D01*
X-536585475Y560254632D01*
X-536747990Y560011411D01*
X-536859932Y559741158D01*
X-536917000Y559454260D01*
X-536917000Y559161740D01*
X-536859932Y558874842D01*
X-536747990Y558604589D01*
X-536585475Y558361368D01*
X-536378632Y558154525D01*
X-536204240Y558038000D01*
X-536378632Y557921475D01*
X-536585475Y557714632D01*
X-536747990Y557471411D01*
X-536859932Y557201158D01*
X-536917000Y556914260D01*
X-536917000Y556621740D01*
X-536859932Y556334842D01*
X-536747990Y556064589D01*
X-536585475Y555821368D01*
X-536378632Y555614525D01*
X-536204240Y555498000D01*
X-536378632Y555381475D01*
X-536585475Y555174632D01*
X-536747990Y554931411D01*
X-536859932Y554661158D01*
X-536917000Y554374260D01*
X-536917000Y554081740D01*
X-536859932Y553794842D01*
X-536747990Y553524589D01*
X-536585475Y553281368D01*
X-536378632Y553074525D01*
X-536204240Y552958000D01*
X-536378632Y552841475D01*
X-536585475Y552634632D01*
X-536747990Y552391411D01*
X-536859932Y552121158D01*
X-536917000Y551834260D01*
X-536917000Y551541740D01*
X-536859932Y551254842D01*
X-536747990Y550984589D01*
X-536700071Y550912873D01*
X-536785881Y550886843D01*
X-536870071Y550841842D01*
X-536909432Y550820803D01*
X-537017726Y550731928D01*
X-537039997Y550704791D01*
X-537237888Y550506900D01*
X-537306315Y550506900D01*
X-537495243Y550469320D01*
X-537673210Y550395604D01*
X-537833375Y550288585D01*
X-537969585Y550152375D01*
X-538076604Y549992210D01*
X-538150320Y549814243D01*
X-538187900Y549625315D01*
X-538187900Y549432685D01*
X-538150320Y549243757D01*
X-538076604Y549065790D01*
X-537969585Y548905625D01*
X-537833375Y548769415D01*
X-537673210Y548662396D01*
X-537495243Y548588680D01*
X-537306315Y548551100D01*
X-537113685Y548551100D01*
X-536924757Y548588680D01*
X-536824820Y548630075D01*
X-536747990Y548444589D01*
X-536585475Y548201368D01*
X-536378632Y547994525D01*
X-536204240Y547878000D01*
X-536378632Y547761475D01*
X-536585475Y547554632D01*
X-536747990Y547311411D01*
X-536859932Y547041158D01*
X-536917000Y546754260D01*
X-536917000Y546461740D01*
X-536859932Y546174842D01*
X-536747990Y545904589D01*
X-536585475Y545661368D01*
X-536378632Y545454525D01*
X-536204240Y545338000D01*
X-536378632Y545221475D01*
X-536585475Y545014632D01*
X-536747990Y544771411D01*
X-536859932Y544501158D01*
X-536917000Y544214260D01*
X-536917000Y543921740D01*
X-536859932Y543634842D01*
X-536747990Y543364589D01*
X-536585475Y543121368D01*
X-536378632Y542914525D01*
X-536204240Y542798000D01*
X-536378632Y542681475D01*
X-536585475Y542474632D01*
X-536747990Y542231411D01*
X-536859932Y541961158D01*
X-536917000Y541674260D01*
X-536917000Y541381740D01*
X-536859932Y541094842D01*
X-536747990Y540824589D01*
X-536585475Y540581368D01*
X-536378632Y540374525D01*
X-536196466Y540252805D01*
X-536313355Y540183178D01*
X-536529588Y539988269D01*
X-536703641Y539754920D01*
X-536828825Y539492099D01*
X-536873476Y539344890D01*
X-536752155Y539115000D01*
X-535559000Y539115000D01*
X-535559000Y539135000D01*
X-535305000Y539135000D01*
X-535305000Y539115000D01*
X-533019000Y539115000D01*
X-533019000Y539135000D01*
X-532765000Y539135000D01*
X-532765000Y539115000D01*
X-531571845Y539115000D01*
X-531450524Y539344890D01*
X-531495175Y539492099D01*
X-531620359Y539754920D01*
X-531794412Y539988269D01*
X-532010645Y540183178D01*
X-532127534Y540252805D01*
X-531945368Y540374525D01*
X-531738525Y540581368D01*
X-531576010Y540824589D01*
X-531464068Y541094842D01*
X-531407000Y541381740D01*
X-531407000Y541674260D01*
X-531464068Y541961158D01*
X-531576010Y542231411D01*
X-531738525Y542474632D01*
X-531945368Y542681475D01*
X-532119760Y542798000D01*
X-531945368Y542914525D01*
X-531738525Y543121368D01*
X-531576010Y543364589D01*
X-531464068Y543634842D01*
X-531407000Y543921740D01*
X-531407000Y544214260D01*
X-531464068Y544501158D01*
X-531576010Y544771411D01*
X-531738525Y545014632D01*
X-531945368Y545221475D01*
X-532119760Y545338000D01*
X-531945368Y545454525D01*
X-531738525Y545661368D01*
X-531576010Y545904589D01*
X-531464068Y546174842D01*
X-531407000Y546461740D01*
X-531407000Y546754260D01*
X-531464068Y547041158D01*
X-531576010Y547311411D01*
X-531738525Y547554632D01*
X-531945368Y547761475D01*
X-532119760Y547878000D01*
X-531945368Y547994525D01*
X-531738525Y548201368D01*
X-531576010Y548444589D01*
X-531464068Y548714842D01*
X-531407000Y549001740D01*
X-531407000Y549294260D01*
X-531464068Y549581158D01*
X-531576010Y549851411D01*
X-531738525Y550094632D01*
X-531945368Y550301475D01*
X-532119760Y550418000D01*
X-531945368Y550534525D01*
X-531738525Y550741368D01*
X-531576010Y550984589D01*
X-531464068Y551254842D01*
X-531407000Y551541740D01*
X-531407000Y551834260D01*
X-531464068Y552121158D01*
X-531576010Y552391411D01*
X-531738525Y552634632D01*
X-531945368Y552841475D01*
X-532119760Y552958000D01*
X-531945368Y553074525D01*
X-531738525Y553281368D01*
X-531576010Y553524589D01*
X-531464068Y553794842D01*
X-531407000Y554081740D01*
X-531407000Y554374260D01*
X-531462241Y554651971D01*
X-530987000Y555127211D01*
X-530987000Y535355000D01*
X-531884893Y535355000D01*
X-531738525Y535501368D01*
X-531576010Y535744589D01*
X-531464068Y536014842D01*
X-531407000Y536301740D01*
X-531407000Y536594260D01*
X-531464068Y536881158D01*
X-531576010Y537151411D01*
X-531738525Y537394632D01*
X-531945368Y537601475D01*
X-532127534Y537723195D01*
X-532010645Y537792822D01*
X-531794412Y537987731D01*
X-531620359Y538221080D01*
X-531495175Y538483901D01*
X-531450524Y538631110D01*
X-531571845Y538861000D01*
X-532765000Y538861000D01*
X-532765000Y538841000D01*
X-533019000Y538841000D01*
X-533019000Y538861000D01*
X-535305000Y538861000D01*
X-535305000Y538841000D01*
X-535559000Y538841000D01*
X-535559000Y538861000D01*
X-536752155Y538861000D01*
X-536873476Y538631110D01*
X-536828825Y538483901D01*
X-536703641Y538221080D01*
X-536529588Y537987731D01*
X-536313355Y537792822D01*
X-536196466Y537723195D01*
X-536378632Y537601475D01*
X-536585475Y537394632D01*
X-536747990Y537151411D01*
X-536859932Y536881158D01*
X-536917000Y536594260D01*
X-536917000Y536301740D01*
X-536873012Y536080599D01*
X-540344247Y536080599D01*
X-540340519Y536091109D01*
X-540461186Y536321000D01*
X-541655000Y536321000D01*
X-541655000Y536301000D01*
X-541909000Y536301000D01*
X-541909000Y536321000D01*
X-541929000Y536321000D01*
X-541929000Y536575000D01*
X-541909000Y536575000D01*
X-541909000Y537768155D01*
X-541655000Y537768155D01*
X-541655000Y536575000D01*
X-540461186Y536575000D01*
X-540340519Y536804891D01*
X-540437843Y537079252D01*
X-540586822Y537329355D01*
X-540781731Y537545588D01*
X-541015080Y537719641D01*
X-541277901Y537844825D01*
X-541425110Y537889476D01*
X-541655000Y537768155D01*
X-541909000Y537768155D01*
X-542138890Y537889476D01*
X-542286099Y537844825D01*
X-542548920Y537719641D01*
X-542782269Y537545588D01*
X-542977178Y537329355D01*
X-543046805Y537212466D01*
X-543168525Y537394632D01*
X-543375368Y537601475D01*
X-543618589Y537763990D01*
X-543888842Y537875932D01*
X-544175740Y537933000D01*
X-544468260Y537933000D01*
X-544755158Y537875932D01*
X-545025411Y537763990D01*
X-545268632Y537601475D01*
X-545475475Y537394632D01*
X-545592000Y537220240D01*
X-545708525Y537394632D01*
X-545915368Y537601475D01*
X-546158589Y537763990D01*
X-546428842Y537875932D01*
X-546715740Y537933000D01*
X-547008260Y537933000D01*
X-547295158Y537875932D01*
X-547565411Y537763990D01*
X-547808632Y537601475D01*
X-548015475Y537394632D01*
X-548132000Y537220240D01*
X-548248525Y537394632D01*
X-548455368Y537601475D01*
X-548698589Y537763990D01*
X-548968842Y537875932D01*
X-549255740Y537933000D01*
X-549347232Y537933000D01*
X-549303498Y538014820D01*
X-549267188Y538134518D01*
X-549254928Y538259000D01*
X-549258000Y538448250D01*
X-549416750Y538607000D01*
X-550291000Y538607000D01*
X-550291000Y537782750D01*
X-550205418Y537697168D01*
X-550348632Y537601475D01*
X-550555475Y537394632D01*
X-550672000Y537220240D01*
X-550788525Y537394632D01*
X-550995368Y537601475D01*
X-551038568Y537630340D01*
X-550943000Y537620928D01*
X-550703750Y537624000D01*
X-550545000Y537782750D01*
X-550545000Y538607000D01*
X-550565000Y538607000D01*
X-550565000Y538861000D01*
X-550545000Y538861000D01*
X-550545000Y539685250D01*
X-550291000Y539685250D01*
X-550291000Y538861000D01*
X-549416750Y538861000D01*
X-549258000Y539019750D01*
X-549254928Y539209000D01*
X-549267188Y539333482D01*
X-549301964Y539448126D01*
X-541860119Y539448126D01*
X-541843446Y539393136D01*
X-541753123Y539189794D01*
X-541624865Y539007980D01*
X-541463601Y538854682D01*
X-541275529Y538735790D01*
X-541067876Y538655874D01*
X-540893000Y538780871D01*
X-540893000Y539623000D01*
X-541733954Y539623000D01*
X-541860119Y539448126D01*
X-549301964Y539448126D01*
X-549303498Y539453180D01*
X-549362463Y539563494D01*
X-549441815Y539660185D01*
X-549538506Y539739537D01*
X-549648820Y539798502D01*
X-549768518Y539834812D01*
X-549893000Y539847072D01*
X-550132250Y539844000D01*
X-550291000Y539685250D01*
X-550545000Y539685250D01*
X-550642965Y539783215D01*
X-550626010Y539808589D01*
X-550514068Y540078842D01*
X-550457000Y540365740D01*
X-550457000Y540658260D01*
X-550514068Y540945158D01*
X-550626010Y541215411D01*
X-550788525Y541458632D01*
X-550995368Y541665475D01*
X-551169760Y541782000D01*
X-550995368Y541898525D01*
X-550807093Y542086800D01*
X-547279760Y542086800D01*
X-547231375Y542038415D01*
X-547071210Y541931396D01*
X-546893243Y541857680D01*
X-546704315Y541820100D01*
X-546511685Y541820100D01*
X-546322757Y541857680D01*
X-546144790Y541931396D01*
X-545984625Y542038415D01*
X-545848415Y542174625D01*
X-545741396Y542334790D01*
X-545667680Y542512757D01*
X-545630100Y542701685D01*
X-545630100Y542894315D01*
X-545667680Y543083243D01*
X-545741396Y543261210D01*
X-545848415Y543421375D01*
X-545984625Y543557585D01*
X-546144790Y543664604D01*
X-546322757Y543738320D01*
X-546511685Y543775900D01*
X-546704315Y543775900D01*
X-546893243Y543738320D01*
X-547071210Y543664604D01*
X-547231375Y543557585D01*
X-547279760Y543509200D01*
X-550524026Y543509200D01*
X-550626010Y543755411D01*
X-550788525Y543998632D01*
X-550995368Y544205475D01*
X-551169760Y544322000D01*
X-550995368Y544438525D01*
X-550788525Y544645368D01*
X-550626010Y544888589D01*
X-550514068Y545158842D01*
X-550457000Y545445740D01*
X-550457000Y545738260D01*
X-550514068Y546025158D01*
X-550626010Y546295411D01*
X-550788525Y546538632D01*
X-550995368Y546745475D01*
X-551169760Y546862000D01*
X-550995368Y546978525D01*
X-550788525Y547185368D01*
X-550626010Y547428589D01*
X-550514068Y547698842D01*
X-550457000Y547985740D01*
X-550457000Y548278260D01*
X-550514068Y548565158D01*
X-550626010Y548835411D01*
X-550788525Y549078632D01*
X-550920380Y549210487D01*
X-550847820Y549232498D01*
X-550737506Y549291463D01*
X-550640815Y549370815D01*
X-550561463Y549467506D01*
X-550502498Y549577820D01*
X-550466188Y549697518D01*
X-550453928Y549822000D01*
X-550453928Y551522000D01*
X-550466188Y551646482D01*
X-550502498Y551766180D01*
X-550561463Y551876494D01*
X-550640815Y551973185D01*
X-550737506Y552052537D01*
X-550847820Y552111502D01*
X-550967518Y552147812D01*
X-551092000Y552160072D01*
X-552309401Y552160072D01*
X-552309401Y554402040D01*
X-552121158Y554324068D01*
X-551834260Y554267000D01*
X-551541740Y554267000D01*
X-551254842Y554324068D01*
X-550984589Y554436010D01*
X-550741368Y554598525D01*
X-550534525Y554805368D01*
X-550418000Y554979760D01*
X-550301475Y554805368D01*
X-550094632Y554598525D01*
X-549851411Y554436010D01*
X-549581158Y554324068D01*
X-549294260Y554267000D01*
X-549001740Y554267000D01*
X-548714842Y554324068D01*
X-548444589Y554436010D01*
X-548201368Y554598525D01*
X-547994525Y554805368D01*
X-547832010Y555048589D01*
X-547720068Y555318842D01*
X-547663000Y555605740D01*
X-547663000Y555898260D01*
X-547720068Y556185158D01*
X-547832010Y556455411D01*
X-547994525Y556698632D01*
X-548201368Y556905475D01*
X-548444589Y557067990D01*
X-548714842Y557179932D01*
X-549001740Y557237000D01*
X-549294260Y557237000D01*
X-549581158Y557179932D01*
X-549851411Y557067990D01*
X-550094632Y556905475D01*
X-550301475Y556698632D01*
X-550418000Y556524240D01*
X-550534525Y556698632D01*
X-550741368Y556905475D01*
X-550984589Y557067990D01*
X-551254842Y557179932D01*
X-551541740Y557237000D01*
X-551737213Y557237000D01*
X-549813351Y559160861D01*
X-549771930Y559098870D01*
X-549587958Y558914898D01*
X-549371631Y558770353D01*
X-549131260Y558670788D01*
X-548876084Y558620031D01*
X-548615910Y558620031D01*
X-548360734Y558670788D01*
X-548120363Y558770353D01*
X-547904036Y558914898D01*
X-547720064Y559098870D01*
X-547575519Y559315197D01*
X-547475954Y559555568D01*
X-547425197Y559810744D01*
X-547425197Y560070918D01*
X-547437999Y560135278D01*
X-547348567Y560224709D01*
X-547318531Y560249359D01*
X-547267466Y560311581D01*
X-547220135Y560369255D01*
X-547199158Y560408498D01*
X-547147018Y560506045D01*
X-547101994Y560654471D01*
X-547090600Y560770155D01*
X-547090600Y560770164D01*
X-547086792Y560808827D01*
X-547090600Y560847490D01*
X-547090600Y563414715D01*
X-547076058Y563422488D01*
X-547052161Y563442099D01*
X-546979494Y563382463D01*
X-546869180Y563323498D01*
X-546749482Y563287188D01*
X-546625000Y563274928D01*
X-546385750Y563278000D01*
X-546227000Y563436750D01*
X-546227000Y564261000D01*
X-545973000Y564261000D01*
X-545973000Y563436750D01*
X-545814250Y563278000D01*
X-545575000Y563274928D01*
X-545450518Y563287188D01*
X-545330820Y563323498D01*
X-545220506Y563382463D01*
X-545123815Y563461815D01*
X-545044463Y563558506D01*
X-544985498Y563668820D01*
X-544949188Y563788518D01*
X-544936928Y563913000D01*
X-544940000Y564102250D01*
X-545098750Y564261000D01*
X-545973000Y564261000D01*
X-546227000Y564261000D01*
X-546247000Y564261000D01*
X-546247000Y564515000D01*
X-546227000Y564515000D01*
X-546227000Y564535000D01*
X-545973000Y564535000D01*
X-545973000Y564515000D01*
X-545098750Y564515000D01*
X-544940000Y564673750D01*
X-544936928Y564863000D01*
X-544949188Y564987482D01*
X-544985498Y565107180D01*
X-545044463Y565217494D01*
X-545123815Y565314185D01*
X-545220506Y565393537D01*
X-545330820Y565452502D01*
X-545450518Y565488812D01*
X-545575000Y565501072D01*
X-545764564Y565498638D01*
X-545718498Y565584820D01*
X-545682188Y565704518D01*
X-545669928Y565829000D01*
X-545673000Y566518250D01*
X-545831750Y566677000D01*
X-546481000Y566677000D01*
X-546481000Y566657000D01*
X-546735000Y566657000D01*
X-546735000Y566677000D01*
X-546755000Y566677000D01*
X-546755000Y566931000D01*
X-546735000Y566931000D01*
X-546735000Y568255250D01*
X-546893750Y568414000D01*
X-546908000Y568417072D01*
X-547032482Y568404812D01*
X-547152180Y568368502D01*
X-547262494Y568309537D01*
X-547292064Y568285270D01*
X-547426418Y568357084D01*
X-547574255Y568401929D01*
X-547728000Y568417072D01*
X-547755790Y568417072D01*
X-547755790Y569793214D01*
X-547722420Y569783091D01*
G36*
X-554355000Y540639000D02*
G01*
X-554335000Y540639000D01*
X-554335000Y540385000D01*
X-554355000Y540385000D01*
X-554355000Y539191186D01*
X-554126895Y539071456D01*
X-554424400Y538773951D01*
X-554761559Y539111110D01*
X-554609000Y539191186D01*
X-554609000Y540385000D01*
X-554629000Y540385000D01*
X-554629000Y540639000D01*
X-554609000Y540639000D01*
X-554609000Y540659000D01*
X-554355000Y540659000D01*
X-554355000Y540639000D01*
G37*
X-554355000Y540639000D02*
X-554335000Y540639000D01*
X-554335000Y540385000D01*
X-554355000Y540385000D01*
X-554355000Y539191186D01*
X-554126895Y539071456D01*
X-554424400Y538773951D01*
X-554761559Y539111110D01*
X-554609000Y539191186D01*
X-554609000Y540385000D01*
X-554629000Y540385000D01*
X-554629000Y540639000D01*
X-554609000Y540639000D01*
X-554609000Y540659000D01*
X-554355000Y540659000D01*
X-554355000Y540639000D01*
G36*
X-541703647Y542920342D02*
G01*
X-541753123Y542850206D01*
X-541843446Y542646864D01*
X-541860119Y542591874D01*
X-541733954Y542417000D01*
X-540893000Y542417000D01*
X-540893000Y542428026D01*
X-540877788Y542425000D01*
X-540654212Y542425000D01*
X-540639000Y542428026D01*
X-540639000Y542417000D01*
X-540627974Y542417000D01*
X-540631000Y542401788D01*
X-540631000Y542178212D01*
X-540627974Y542163000D01*
X-540639000Y542163000D01*
X-540639000Y542151974D01*
X-540654212Y542155000D01*
X-540877788Y542155000D01*
X-540893000Y542151974D01*
X-540893000Y542163000D01*
X-541733954Y542163000D01*
X-541860119Y541988126D01*
X-541843446Y541933136D01*
X-541778602Y541787155D01*
X-541898525Y541966632D01*
X-542105368Y542173475D01*
X-542287534Y542295195D01*
X-542170645Y542364822D01*
X-541954412Y542559731D01*
X-541780359Y542793080D01*
X-541713044Y542934406D01*
X-541703647Y542920342D01*
G37*
X-541703647Y542920342D02*
X-541753123Y542850206D01*
X-541843446Y542646864D01*
X-541860119Y542591874D01*
X-541733954Y542417000D01*
X-540893000Y542417000D01*
X-540893000Y542428026D01*
X-540877788Y542425000D01*
X-540654212Y542425000D01*
X-540639000Y542428026D01*
X-540639000Y542417000D01*
X-540627974Y542417000D01*
X-540631000Y542401788D01*
X-540631000Y542178212D01*
X-540627974Y542163000D01*
X-540639000Y542163000D01*
X-540639000Y542151974D01*
X-540654212Y542155000D01*
X-540877788Y542155000D01*
X-540893000Y542151974D01*
X-540893000Y542163000D01*
X-541733954Y542163000D01*
X-541860119Y541988126D01*
X-541843446Y541933136D01*
X-541778602Y541787155D01*
X-541898525Y541966632D01*
X-542105368Y542173475D01*
X-542287534Y542295195D01*
X-542170645Y542364822D01*
X-541954412Y542559731D01*
X-541780359Y542793080D01*
X-541713044Y542934406D01*
X-541703647Y542920342D01*
G36*
X-541843446Y545186864D02*
G01*
X-541860119Y545131874D01*
X-541733954Y544957000D01*
X-540893000Y544957000D01*
X-540893000Y544968026D01*
X-540877788Y544965000D01*
X-540654212Y544965000D01*
X-540639000Y544968026D01*
X-540639000Y544957000D01*
X-540627974Y544957000D01*
X-540631000Y544941788D01*
X-540631000Y544718212D01*
X-540627974Y544703000D01*
X-540639000Y544703000D01*
X-540639000Y544691974D01*
X-540654212Y544695000D01*
X-540877788Y544695000D01*
X-540893000Y544691974D01*
X-540893000Y544703000D01*
X-541733954Y544703000D01*
X-541860119Y544528126D01*
X-541843446Y544473136D01*
X-541753123Y544269794D01*
X-541703647Y544199658D01*
X-541713044Y544185594D01*
X-541780359Y544326920D01*
X-541954412Y544560269D01*
X-542170645Y544755178D01*
X-542287534Y544824805D01*
X-542105368Y544946525D01*
X-541898525Y545153368D01*
X-541778602Y545332845D01*
X-541843446Y545186864D01*
G37*
X-541843446Y545186864D02*
X-541860119Y545131874D01*
X-541733954Y544957000D01*
X-540893000Y544957000D01*
X-540893000Y544968026D01*
X-540877788Y544965000D01*
X-540654212Y544965000D01*
X-540639000Y544968026D01*
X-540639000Y544957000D01*
X-540627974Y544957000D01*
X-540631000Y544941788D01*
X-540631000Y544718212D01*
X-540627974Y544703000D01*
X-540639000Y544703000D01*
X-540639000Y544691974D01*
X-540654212Y544695000D01*
X-540877788Y544695000D01*
X-540893000Y544691974D01*
X-540893000Y544703000D01*
X-541733954Y544703000D01*
X-541860119Y544528126D01*
X-541843446Y544473136D01*
X-541753123Y544269794D01*
X-541703647Y544199658D01*
X-541713044Y544185594D01*
X-541780359Y544326920D01*
X-541954412Y544560269D01*
X-542170645Y544755178D01*
X-542287534Y544824805D01*
X-542105368Y544946525D01*
X-541898525Y545153368D01*
X-541778602Y545332845D01*
X-541843446Y545186864D01*
G36*
X-541857383Y550241067D02*
G01*
X-541901000Y550021788D01*
X-541901000Y549798212D01*
X-541857383Y549578933D01*
X-541793343Y549424327D01*
X-541954412Y549640269D01*
X-542170645Y549835178D01*
X-542287534Y549904805D01*
X-542105368Y550026525D01*
X-541898525Y550233368D01*
X-541798671Y550382811D01*
X-541857383Y550241067D01*
G37*
X-541857383Y550241067D02*
X-541901000Y550021788D01*
X-541901000Y549798212D01*
X-541857383Y549578933D01*
X-541793343Y549424327D01*
X-541954412Y549640269D01*
X-542170645Y549835178D01*
X-542287534Y549904805D01*
X-542105368Y550026525D01*
X-541898525Y550233368D01*
X-541798671Y550382811D01*
X-541857383Y550241067D01*
G36*
X-553731800Y551945303D02*
G01*
X-553850748Y552016157D01*
X-554125109Y552113481D01*
X-554355000Y551992814D01*
X-554355000Y550799000D01*
X-554335000Y550799000D01*
X-554335000Y550545000D01*
X-554355000Y550545000D01*
X-554355000Y550525000D01*
X-554609000Y550525000D01*
X-554609000Y550545000D01*
X-554629000Y550545000D01*
X-554629000Y550799000D01*
X-554609000Y550799000D01*
X-554609000Y551992814D01*
X-554720894Y552051546D01*
X-554718610Y552059761D01*
X-554713493Y552127965D01*
X-554706792Y552195999D01*
X-554711500Y552243802D01*
X-554758569Y554263928D01*
X-553731800Y554263928D01*
X-553731800Y551945303D01*
G37*
X-553731800Y551945303D02*
X-553850748Y552016157D01*
X-554125109Y552113481D01*
X-554355000Y551992814D01*
X-554355000Y550799000D01*
X-554335000Y550799000D01*
X-554335000Y550545000D01*
X-554355000Y550545000D01*
X-554355000Y550525000D01*
X-554609000Y550525000D01*
X-554609000Y550545000D01*
X-554629000Y550545000D01*
X-554629000Y550799000D01*
X-554609000Y550799000D01*
X-554609000Y551992814D01*
X-554720894Y552051546D01*
X-554718610Y552059761D01*
X-554713493Y552127965D01*
X-554706792Y552195999D01*
X-554711500Y552243802D01*
X-554758569Y554263928D01*
X-553731800Y554263928D01*
X-553731800Y551945303D01*
G36*
X-540639000Y551307000D02*
G01*
X-540619000Y551307000D01*
X-540619000Y551053000D01*
X-540639000Y551053000D01*
X-540639000Y551041974D01*
X-540654212Y551045000D01*
X-540877788Y551045000D01*
X-540893000Y551041974D01*
X-540893000Y551053000D01*
X-540913000Y551053000D01*
X-540913000Y551307000D01*
X-540893000Y551307000D01*
X-540893000Y551327000D01*
X-540639000Y551327000D01*
X-540639000Y551307000D01*
G37*
X-540639000Y551307000D02*
X-540619000Y551307000D01*
X-540619000Y551053000D01*
X-540639000Y551053000D01*
X-540639000Y551041974D01*
X-540654212Y551045000D01*
X-540877788Y551045000D01*
X-540893000Y551041974D01*
X-540893000Y551053000D01*
X-540913000Y551053000D01*
X-540913000Y551307000D01*
X-540893000Y551307000D01*
X-540893000Y551327000D01*
X-540639000Y551327000D01*
X-540639000Y551307000D01*
G36*
X-541095542Y552263479D02*
G01*
X-541275529Y552194210D01*
X-541463601Y552075318D01*
X-541624865Y551922020D01*
X-541704968Y551808469D01*
X-541736010Y551883411D01*
X-541898525Y552126632D01*
X-542105368Y552333475D01*
X-542348589Y552495990D01*
X-542618842Y552607932D01*
X-542905740Y552665000D01*
X-543198260Y552665000D01*
X-543394184Y552626028D01*
X-543021255Y552998957D01*
X-542892175Y552998957D01*
X-542703247Y553036537D01*
X-542525280Y553110253D01*
X-542365115Y553217272D01*
X-542316730Y553265657D01*
X-542097720Y553265657D01*
X-541095542Y552263479D01*
G37*
X-541095542Y552263479D02*
X-541275529Y552194210D01*
X-541463601Y552075318D01*
X-541624865Y551922020D01*
X-541704968Y551808469D01*
X-541736010Y551883411D01*
X-541898525Y552126632D01*
X-542105368Y552333475D01*
X-542348589Y552495990D01*
X-542618842Y552607932D01*
X-542905740Y552665000D01*
X-543198260Y552665000D01*
X-543394184Y552626028D01*
X-543021255Y552998957D01*
X-542892175Y552998957D01*
X-542703247Y553036537D01*
X-542525280Y553110253D01*
X-542365115Y553217272D01*
X-542316730Y553265657D01*
X-542097720Y553265657D01*
X-541095542Y552263479D01*
G36*
X-552399200Y576456096D02*
G01*
X-552399199Y570353936D01*
X-552402640Y570319000D01*
X-552399199Y570284064D01*
X-552388908Y570179580D01*
X-552377183Y570140928D01*
X-552348241Y570045519D01*
X-552282202Y569921968D01*
X-552215597Y569840810D01*
X-552193326Y569813673D01*
X-552166190Y569791403D01*
X-550763923Y568389135D01*
X-550869582Y568357084D01*
X-551005829Y568284258D01*
X-551125251Y568186251D01*
X-551223258Y568066829D01*
X-551296084Y567930582D01*
X-551340929Y567782745D01*
X-551356072Y567629000D01*
X-551356072Y565979000D01*
X-551340929Y565825255D01*
X-551296084Y565677418D01*
X-551223258Y565541171D01*
X-551129199Y565426560D01*
X-551129200Y561303656D01*
X-552997000Y559435855D01*
X-552997000Y559454260D01*
X-553054068Y559741158D01*
X-553166010Y560011411D01*
X-553328525Y560254632D01*
X-553460380Y560386487D01*
X-553387820Y560408498D01*
X-553277506Y560467463D01*
X-553180815Y560546815D01*
X-553101463Y560643506D01*
X-553042498Y560753820D01*
X-553006188Y560873518D01*
X-552993928Y560998000D01*
X-552993928Y562698000D01*
X-553006188Y562822482D01*
X-553042498Y562942180D01*
X-553101463Y563052494D01*
X-553180815Y563149185D01*
X-553277506Y563228537D01*
X-553387820Y563287502D01*
X-553507518Y563323812D01*
X-553632000Y563336072D01*
X-555332000Y563336072D01*
X-555456482Y563323812D01*
X-555575000Y563287860D01*
X-555575000Y564726140D01*
X-555456482Y564690188D01*
X-555332000Y564677928D01*
X-553632000Y564677928D01*
X-553507518Y564690188D01*
X-553387820Y564726498D01*
X-553277506Y564785463D01*
X-553180815Y564864815D01*
X-553101463Y564961506D01*
X-553042498Y565071820D01*
X-553006188Y565191518D01*
X-552993928Y565316000D01*
X-552993928Y567016000D01*
X-553006188Y567140482D01*
X-553042498Y567260180D01*
X-553101463Y567370494D01*
X-553180815Y567467185D01*
X-553277506Y567546537D01*
X-553387820Y567605502D01*
X-553507518Y567641812D01*
X-553632000Y567654072D01*
X-553960542Y567654072D01*
X-553976673Y567673727D01*
X-554003810Y567695997D01*
X-554595401Y568287588D01*
X-554595401Y570566988D01*
X-554374260Y570523000D01*
X-554081740Y570523000D01*
X-553794842Y570580068D01*
X-553524589Y570692010D01*
X-553281368Y570854525D01*
X-553074525Y571061368D01*
X-552912010Y571304589D01*
X-552800068Y571574842D01*
X-552743000Y571861740D01*
X-552743000Y572154260D01*
X-552800068Y572441158D01*
X-552912010Y572711411D01*
X-553074525Y572954632D01*
X-553281368Y573161475D01*
X-553463534Y573283195D01*
X-553346645Y573352822D01*
X-553130412Y573547731D01*
X-552956359Y573781080D01*
X-552831175Y574043901D01*
X-552786524Y574191110D01*
X-552907845Y574421000D01*
X-554101000Y574421000D01*
X-554101000Y574401000D01*
X-554355000Y574401000D01*
X-554355000Y574421000D01*
X-554375000Y574421000D01*
X-554375000Y574675000D01*
X-554355000Y574675000D01*
X-554355000Y574695000D01*
X-554101000Y574695000D01*
X-554101000Y574675000D01*
X-552907845Y574675000D01*
X-552786524Y574904890D01*
X-552831175Y575052099D01*
X-552956359Y575314920D01*
X-553130412Y575548269D01*
X-553214466Y575624034D01*
X-553133820Y575648498D01*
X-553023506Y575707463D01*
X-552926815Y575786815D01*
X-552847463Y575883506D01*
X-552788498Y575993820D01*
X-552752188Y576113518D01*
X-552739928Y576238000D01*
X-552739928Y576796825D01*
X-552399200Y576456096D01*
G37*
X-552399200Y576456096D02*
X-552399199Y570353936D01*
X-552402640Y570319000D01*
X-552399199Y570284064D01*
X-552388908Y570179580D01*
X-552377183Y570140928D01*
X-552348241Y570045519D01*
X-552282202Y569921968D01*
X-552215597Y569840810D01*
X-552193326Y569813673D01*
X-552166190Y569791403D01*
X-550763923Y568389135D01*
X-550869582Y568357084D01*
X-551005829Y568284258D01*
X-551125251Y568186251D01*
X-551223258Y568066829D01*
X-551296084Y567930582D01*
X-551340929Y567782745D01*
X-551356072Y567629000D01*
X-551356072Y565979000D01*
X-551340929Y565825255D01*
X-551296084Y565677418D01*
X-551223258Y565541171D01*
X-551129199Y565426560D01*
X-551129200Y561303656D01*
X-552997000Y559435855D01*
X-552997000Y559454260D01*
X-553054068Y559741158D01*
X-553166010Y560011411D01*
X-553328525Y560254632D01*
X-553460380Y560386487D01*
X-553387820Y560408498D01*
X-553277506Y560467463D01*
X-553180815Y560546815D01*
X-553101463Y560643506D01*
X-553042498Y560753820D01*
X-553006188Y560873518D01*
X-552993928Y560998000D01*
X-552993928Y562698000D01*
X-553006188Y562822482D01*
X-553042498Y562942180D01*
X-553101463Y563052494D01*
X-553180815Y563149185D01*
X-553277506Y563228537D01*
X-553387820Y563287502D01*
X-553507518Y563323812D01*
X-553632000Y563336072D01*
X-555332000Y563336072D01*
X-555456482Y563323812D01*
X-555575000Y563287860D01*
X-555575000Y564726140D01*
X-555456482Y564690188D01*
X-555332000Y564677928D01*
X-553632000Y564677928D01*
X-553507518Y564690188D01*
X-553387820Y564726498D01*
X-553277506Y564785463D01*
X-553180815Y564864815D01*
X-553101463Y564961506D01*
X-553042498Y565071820D01*
X-553006188Y565191518D01*
X-552993928Y565316000D01*
X-552993928Y567016000D01*
X-553006188Y567140482D01*
X-553042498Y567260180D01*
X-553101463Y567370494D01*
X-553180815Y567467185D01*
X-553277506Y567546537D01*
X-553387820Y567605502D01*
X-553507518Y567641812D01*
X-553632000Y567654072D01*
X-553960542Y567654072D01*
X-553976673Y567673727D01*
X-554003810Y567695997D01*
X-554595401Y568287588D01*
X-554595401Y570566988D01*
X-554374260Y570523000D01*
X-554081740Y570523000D01*
X-553794842Y570580068D01*
X-553524589Y570692010D01*
X-553281368Y570854525D01*
X-553074525Y571061368D01*
X-552912010Y571304589D01*
X-552800068Y571574842D01*
X-552743000Y571861740D01*
X-552743000Y572154260D01*
X-552800068Y572441158D01*
X-552912010Y572711411D01*
X-553074525Y572954632D01*
X-553281368Y573161475D01*
X-553463534Y573283195D01*
X-553346645Y573352822D01*
X-553130412Y573547731D01*
X-552956359Y573781080D01*
X-552831175Y574043901D01*
X-552786524Y574191110D01*
X-552907845Y574421000D01*
X-554101000Y574421000D01*
X-554101000Y574401000D01*
X-554355000Y574401000D01*
X-554355000Y574421000D01*
X-554375000Y574421000D01*
X-554375000Y574675000D01*
X-554355000Y574675000D01*
X-554355000Y574695000D01*
X-554101000Y574695000D01*
X-554101000Y574675000D01*
X-552907845Y574675000D01*
X-552786524Y574904890D01*
X-552831175Y575052099D01*
X-552956359Y575314920D01*
X-553130412Y575548269D01*
X-553214466Y575624034D01*
X-553133820Y575648498D01*
X-553023506Y575707463D01*
X-552926815Y575786815D01*
X-552847463Y575883506D01*
X-552788498Y575993820D01*
X-552752188Y576113518D01*
X-552739928Y576238000D01*
X-552739928Y576796825D01*
X-552399200Y576456096D01*
G36*
X-544479932Y574473158D02*
G01*
X-544537000Y574186260D01*
X-544537000Y573893740D01*
X-544479932Y573606842D01*
X-544367990Y573336589D01*
X-544205475Y573093368D01*
X-543998632Y572886525D01*
X-543755411Y572724010D01*
X-543485158Y572612068D01*
X-543198260Y572555000D01*
X-542905740Y572555000D01*
X-542618842Y572612068D01*
X-542348589Y572724010D01*
X-542105368Y572886525D01*
X-541898525Y573093368D01*
X-541736010Y573336589D01*
X-541704968Y573411531D01*
X-541624865Y573297980D01*
X-541463601Y573144682D01*
X-541275529Y573025790D01*
X-541067876Y572945874D01*
X-540893000Y573070871D01*
X-540893000Y573913000D01*
X-540913000Y573913000D01*
X-540913000Y574167000D01*
X-540893000Y574167000D01*
X-540893000Y574187000D01*
X-540840458Y574187000D01*
X-540619000Y573965542D01*
X-540619000Y573913000D01*
X-540639000Y573913000D01*
X-540639000Y573070871D01*
X-540529417Y572992543D01*
X-540636585Y572885375D01*
X-540743604Y572725210D01*
X-540817320Y572547243D01*
X-540854900Y572358315D01*
X-540854900Y572165685D01*
X-540817320Y571976757D01*
X-540743604Y571798790D01*
X-540636585Y571638625D01*
X-540500375Y571502415D01*
X-540340210Y571395396D01*
X-540162243Y571321680D01*
X-539973315Y571284100D01*
X-539780685Y571284100D01*
X-539591757Y571321680D01*
X-539413790Y571395396D01*
X-539253625Y571502415D01*
X-539205240Y571550800D01*
X-536849974Y571550800D01*
X-536747990Y571304589D01*
X-536585475Y571061368D01*
X-536378632Y570854525D01*
X-536204240Y570738000D01*
X-536378632Y570621475D01*
X-536585475Y570414632D01*
X-536747990Y570171411D01*
X-536859932Y569901158D01*
X-536917000Y569614260D01*
X-536917000Y569321740D01*
X-536859932Y569034842D01*
X-536747990Y568764589D01*
X-536585475Y568521368D01*
X-536378632Y568314525D01*
X-536204240Y568198000D01*
X-536378632Y568081475D01*
X-536585475Y567874632D01*
X-536747990Y567631411D01*
X-536859932Y567361158D01*
X-536917000Y567074260D01*
X-536917000Y566781740D01*
X-536861759Y566504028D01*
X-537815190Y565550598D01*
X-537842327Y565528326D01*
X-537931202Y565420032D01*
X-537997242Y565296480D01*
X-538037909Y565162419D01*
X-538048200Y565057935D01*
X-538048200Y565057926D01*
X-538051640Y565023000D01*
X-538048200Y564988074D01*
X-538048199Y564170761D01*
X-538096585Y564122375D01*
X-538203604Y563962210D01*
X-538277320Y563784243D01*
X-538314900Y563595315D01*
X-538314900Y563402685D01*
X-538277320Y563213757D01*
X-538203604Y563035790D01*
X-538096585Y562875625D01*
X-537960375Y562739415D01*
X-537800210Y562632396D01*
X-537622243Y562558680D01*
X-537433315Y562521100D01*
X-537240685Y562521100D01*
X-537051757Y562558680D01*
X-536873790Y562632396D01*
X-536713625Y562739415D01*
X-536577415Y562875625D01*
X-536470396Y563035790D01*
X-536396680Y563213757D01*
X-536390240Y563246133D01*
X-536378632Y563234525D01*
X-536204240Y563118000D01*
X-536378632Y563001475D01*
X-536585475Y562794632D01*
X-536747990Y562551411D01*
X-536833821Y562344195D01*
X-536848593Y562326196D01*
X-537745888Y561428900D01*
X-537814315Y561428900D01*
X-538003243Y561391320D01*
X-538181210Y561317604D01*
X-538341375Y561210585D01*
X-538370250Y561181710D01*
X-538361000Y561228212D01*
X-538361000Y561451788D01*
X-538404617Y561671067D01*
X-538490176Y561877624D01*
X-538555241Y561975000D01*
X-538490176Y562072376D01*
X-538404617Y562278933D01*
X-538361000Y562498212D01*
X-538361000Y562721788D01*
X-538404617Y562941067D01*
X-538490176Y563147624D01*
X-538555241Y563245000D01*
X-538490176Y563342376D01*
X-538404617Y563548933D01*
X-538361000Y563768212D01*
X-538361000Y563991788D01*
X-538404617Y564211067D01*
X-538490176Y564417624D01*
X-538555241Y564515000D01*
X-538490176Y564612376D01*
X-538404617Y564818933D01*
X-538361000Y565038212D01*
X-538361000Y565261788D01*
X-538404617Y565481067D01*
X-538490176Y565687624D01*
X-538555241Y565785000D01*
X-538490176Y565882376D01*
X-538404617Y566088933D01*
X-538361000Y566308212D01*
X-538361000Y566531788D01*
X-538404617Y566751067D01*
X-538490176Y566957624D01*
X-538555241Y567055000D01*
X-538490176Y567152376D01*
X-538404617Y567358933D01*
X-538361000Y567578212D01*
X-538361000Y567801788D01*
X-538404617Y568021067D01*
X-538490176Y568227624D01*
X-538558353Y568329658D01*
X-538508877Y568399794D01*
X-538418554Y568603136D01*
X-538401881Y568658126D01*
X-538528046Y568833000D01*
X-539369000Y568833000D01*
X-539369000Y568821974D01*
X-539384212Y568825000D01*
X-539607788Y568825000D01*
X-539623000Y568821974D01*
X-539623000Y568833000D01*
X-540639000Y568833000D01*
X-540639000Y568821974D01*
X-540654212Y568825000D01*
X-540877788Y568825000D01*
X-540893000Y568821974D01*
X-540893000Y568833000D01*
X-541733954Y568833000D01*
X-541860119Y568658126D01*
X-541843446Y568603136D01*
X-541753123Y568399794D01*
X-541703647Y568329658D01*
X-541771824Y568227624D01*
X-541857383Y568021067D01*
X-541901000Y567801788D01*
X-541901000Y567578212D01*
X-541898109Y567563679D01*
X-542848800Y566612987D01*
X-542848800Y568671072D01*
X-542845360Y568706000D01*
X-542848800Y568740929D01*
X-542848800Y568740936D01*
X-542859091Y568845420D01*
X-542899758Y568979481D01*
X-542965798Y569103033D01*
X-543032403Y569184191D01*
X-543032407Y569184195D01*
X-543054674Y569211327D01*
X-543081805Y569233593D01*
X-543110086Y569261874D01*
X-541860119Y569261874D01*
X-541733954Y569087000D01*
X-540893000Y569087000D01*
X-540893000Y569929129D01*
X-540639000Y569929129D01*
X-540639000Y569087000D01*
X-539623000Y569087000D01*
X-539623000Y569929129D01*
X-539369000Y569929129D01*
X-539369000Y569087000D01*
X-538528046Y569087000D01*
X-538401881Y569261874D01*
X-538418554Y569316864D01*
X-538508877Y569520206D01*
X-538637135Y569702020D01*
X-538798399Y569855318D01*
X-538986471Y569974210D01*
X-539194124Y570054126D01*
X-539369000Y569929129D01*
X-539623000Y569929129D01*
X-539797876Y570054126D01*
X-540005529Y569974210D01*
X-540131000Y569894892D01*
X-540256471Y569974210D01*
X-540464124Y570054126D01*
X-540639000Y569929129D01*
X-540893000Y569929129D01*
X-541067876Y570054126D01*
X-541275529Y569974210D01*
X-541463601Y569855318D01*
X-541624865Y569702020D01*
X-541753123Y569520206D01*
X-541843446Y569316864D01*
X-541860119Y569261874D01*
X-543110086Y569261874D01*
X-545669928Y571821715D01*
X-545669928Y572579000D01*
X-545685071Y572732745D01*
X-545729916Y572880582D01*
X-545802742Y573016829D01*
X-545896800Y573131439D01*
X-545896800Y573368240D01*
X-545848415Y573416625D01*
X-545741396Y573576790D01*
X-545667680Y573754757D01*
X-545630100Y573943685D01*
X-545630100Y574136315D01*
X-545667680Y574325243D01*
X-545741396Y574503210D01*
X-545805267Y574598800D01*
X-544427890Y574598800D01*
X-544479932Y574473158D01*
G37*
X-544479932Y574473158D02*
X-544537000Y574186260D01*
X-544537000Y573893740D01*
X-544479932Y573606842D01*
X-544367990Y573336589D01*
X-544205475Y573093368D01*
X-543998632Y572886525D01*
X-543755411Y572724010D01*
X-543485158Y572612068D01*
X-543198260Y572555000D01*
X-542905740Y572555000D01*
X-542618842Y572612068D01*
X-542348589Y572724010D01*
X-542105368Y572886525D01*
X-541898525Y573093368D01*
X-541736010Y573336589D01*
X-541704968Y573411531D01*
X-541624865Y573297980D01*
X-541463601Y573144682D01*
X-541275529Y573025790D01*
X-541067876Y572945874D01*
X-540893000Y573070871D01*
X-540893000Y573913000D01*
X-540913000Y573913000D01*
X-540913000Y574167000D01*
X-540893000Y574167000D01*
X-540893000Y574187000D01*
X-540840458Y574187000D01*
X-540619000Y573965542D01*
X-540619000Y573913000D01*
X-540639000Y573913000D01*
X-540639000Y573070871D01*
X-540529417Y572992543D01*
X-540636585Y572885375D01*
X-540743604Y572725210D01*
X-540817320Y572547243D01*
X-540854900Y572358315D01*
X-540854900Y572165685D01*
X-540817320Y571976757D01*
X-540743604Y571798790D01*
X-540636585Y571638625D01*
X-540500375Y571502415D01*
X-540340210Y571395396D01*
X-540162243Y571321680D01*
X-539973315Y571284100D01*
X-539780685Y571284100D01*
X-539591757Y571321680D01*
X-539413790Y571395396D01*
X-539253625Y571502415D01*
X-539205240Y571550800D01*
X-536849974Y571550800D01*
X-536747990Y571304589D01*
X-536585475Y571061368D01*
X-536378632Y570854525D01*
X-536204240Y570738000D01*
X-536378632Y570621475D01*
X-536585475Y570414632D01*
X-536747990Y570171411D01*
X-536859932Y569901158D01*
X-536917000Y569614260D01*
X-536917000Y569321740D01*
X-536859932Y569034842D01*
X-536747990Y568764589D01*
X-536585475Y568521368D01*
X-536378632Y568314525D01*
X-536204240Y568198000D01*
X-536378632Y568081475D01*
X-536585475Y567874632D01*
X-536747990Y567631411D01*
X-536859932Y567361158D01*
X-536917000Y567074260D01*
X-536917000Y566781740D01*
X-536861759Y566504028D01*
X-537815190Y565550598D01*
X-537842327Y565528326D01*
X-537931202Y565420032D01*
X-537997242Y565296480D01*
X-538037909Y565162419D01*
X-538048200Y565057935D01*
X-538048200Y565057926D01*
X-538051640Y565023000D01*
X-538048200Y564988074D01*
X-538048199Y564170761D01*
X-538096585Y564122375D01*
X-538203604Y563962210D01*
X-538277320Y563784243D01*
X-538314900Y563595315D01*
X-538314900Y563402685D01*
X-538277320Y563213757D01*
X-538203604Y563035790D01*
X-538096585Y562875625D01*
X-537960375Y562739415D01*
X-537800210Y562632396D01*
X-537622243Y562558680D01*
X-537433315Y562521100D01*
X-537240685Y562521100D01*
X-537051757Y562558680D01*
X-536873790Y562632396D01*
X-536713625Y562739415D01*
X-536577415Y562875625D01*
X-536470396Y563035790D01*
X-536396680Y563213757D01*
X-536390240Y563246133D01*
X-536378632Y563234525D01*
X-536204240Y563118000D01*
X-536378632Y563001475D01*
X-536585475Y562794632D01*
X-536747990Y562551411D01*
X-536833821Y562344195D01*
X-536848593Y562326196D01*
X-537745888Y561428900D01*
X-537814315Y561428900D01*
X-538003243Y561391320D01*
X-538181210Y561317604D01*
X-538341375Y561210585D01*
X-538370250Y561181710D01*
X-538361000Y561228212D01*
X-538361000Y561451788D01*
X-538404617Y561671067D01*
X-538490176Y561877624D01*
X-538555241Y561975000D01*
X-538490176Y562072376D01*
X-538404617Y562278933D01*
X-538361000Y562498212D01*
X-538361000Y562721788D01*
X-538404617Y562941067D01*
X-538490176Y563147624D01*
X-538555241Y563245000D01*
X-538490176Y563342376D01*
X-538404617Y563548933D01*
X-538361000Y563768212D01*
X-538361000Y563991788D01*
X-538404617Y564211067D01*
X-538490176Y564417624D01*
X-538555241Y564515000D01*
X-538490176Y564612376D01*
X-538404617Y564818933D01*
X-538361000Y565038212D01*
X-538361000Y565261788D01*
X-538404617Y565481067D01*
X-538490176Y565687624D01*
X-538555241Y565785000D01*
X-538490176Y565882376D01*
X-538404617Y566088933D01*
X-538361000Y566308212D01*
X-538361000Y566531788D01*
X-538404617Y566751067D01*
X-538490176Y566957624D01*
X-538555241Y567055000D01*
X-538490176Y567152376D01*
X-538404617Y567358933D01*
X-538361000Y567578212D01*
X-538361000Y567801788D01*
X-538404617Y568021067D01*
X-538490176Y568227624D01*
X-538558353Y568329658D01*
X-538508877Y568399794D01*
X-538418554Y568603136D01*
X-538401881Y568658126D01*
X-538528046Y568833000D01*
X-539369000Y568833000D01*
X-539369000Y568821974D01*
X-539384212Y568825000D01*
X-539607788Y568825000D01*
X-539623000Y568821974D01*
X-539623000Y568833000D01*
X-540639000Y568833000D01*
X-540639000Y568821974D01*
X-540654212Y568825000D01*
X-540877788Y568825000D01*
X-540893000Y568821974D01*
X-540893000Y568833000D01*
X-541733954Y568833000D01*
X-541860119Y568658126D01*
X-541843446Y568603136D01*
X-541753123Y568399794D01*
X-541703647Y568329658D01*
X-541771824Y568227624D01*
X-541857383Y568021067D01*
X-541901000Y567801788D01*
X-541901000Y567578212D01*
X-541898109Y567563679D01*
X-542848800Y566612987D01*
X-542848800Y568671072D01*
X-542845360Y568706000D01*
X-542848800Y568740929D01*
X-542848800Y568740936D01*
X-542859091Y568845420D01*
X-542899758Y568979481D01*
X-542965798Y569103033D01*
X-543032403Y569184191D01*
X-543032407Y569184195D01*
X-543054674Y569211327D01*
X-543081805Y569233593D01*
X-543110086Y569261874D01*
X-541860119Y569261874D01*
X-541733954Y569087000D01*
X-540893000Y569087000D01*
X-540893000Y569929129D01*
X-540639000Y569929129D01*
X-540639000Y569087000D01*
X-539623000Y569087000D01*
X-539623000Y569929129D01*
X-539369000Y569929129D01*
X-539369000Y569087000D01*
X-538528046Y569087000D01*
X-538401881Y569261874D01*
X-538418554Y569316864D01*
X-538508877Y569520206D01*
X-538637135Y569702020D01*
X-538798399Y569855318D01*
X-538986471Y569974210D01*
X-539194124Y570054126D01*
X-539369000Y569929129D01*
X-539623000Y569929129D01*
X-539797876Y570054126D01*
X-540005529Y569974210D01*
X-540131000Y569894892D01*
X-540256471Y569974210D01*
X-540464124Y570054126D01*
X-540639000Y569929129D01*
X-540893000Y569929129D01*
X-541067876Y570054126D01*
X-541275529Y569974210D01*
X-541463601Y569855318D01*
X-541624865Y569702020D01*
X-541753123Y569520206D01*
X-541843446Y569316864D01*
X-541860119Y569261874D01*
X-543110086Y569261874D01*
X-545669928Y571821715D01*
X-545669928Y572579000D01*
X-545685071Y572732745D01*
X-545729916Y572880582D01*
X-545802742Y573016829D01*
X-545896800Y573131439D01*
X-545896800Y573368240D01*
X-545848415Y573416625D01*
X-545741396Y573576790D01*
X-545667680Y573754757D01*
X-545630100Y573943685D01*
X-545630100Y574136315D01*
X-545667680Y574325243D01*
X-545741396Y574503210D01*
X-545805267Y574598800D01*
X-544427890Y574598800D01*
X-544479932Y574473158D01*
G36*
X-532765000Y567055000D02*
G01*
X-532745000Y567055000D01*
X-532745000Y566801000D01*
X-532765000Y566801000D01*
X-532765000Y566781000D01*
X-533019000Y566781000D01*
X-533019000Y566801000D01*
X-533039000Y566801000D01*
X-533039000Y567055000D01*
X-533019000Y567055000D01*
X-533019000Y567075000D01*
X-532765000Y567075000D01*
X-532765000Y567055000D01*
G37*
X-532765000Y567055000D02*
X-532745000Y567055000D01*
X-532745000Y566801000D01*
X-532765000Y566801000D01*
X-532765000Y566781000D01*
X-533019000Y566781000D01*
X-533019000Y566801000D01*
X-533039000Y566801000D01*
X-533039000Y567055000D01*
X-533019000Y567055000D01*
X-533019000Y567075000D01*
X-532765000Y567075000D01*
X-532765000Y567055000D01*
G36*
X-532765000Y572135000D02*
G01*
X-532745000Y572135000D01*
X-532745000Y571881000D01*
X-532765000Y571881000D01*
X-532765000Y571861000D01*
X-533019000Y571861000D01*
X-533019000Y571881000D01*
X-533039000Y571881000D01*
X-533039000Y572135000D01*
X-533019000Y572135000D01*
X-533019000Y572155000D01*
X-532765000Y572155000D01*
X-532765000Y572135000D01*
G37*
X-532765000Y572135000D02*
X-532745000Y572135000D01*
X-532745000Y571881000D01*
X-532765000Y571881000D01*
X-532765000Y571861000D01*
X-533019000Y571861000D01*
X-533019000Y571881000D01*
X-533039000Y571881000D01*
X-533039000Y572135000D01*
X-533019000Y572135000D01*
X-533019000Y572155000D01*
X-532765000Y572155000D01*
X-532765000Y572135000D01*
G36*
X-539369000Y575437000D02*
G01*
X-539349000Y575437000D01*
X-539349000Y575183000D01*
X-539369000Y575183000D01*
X-539369000Y575163000D01*
X-539623000Y575163000D01*
X-539623000Y575183000D01*
X-539643000Y575183000D01*
X-539643000Y575437000D01*
X-539623000Y575437000D01*
X-539623000Y575448026D01*
X-539607788Y575445000D01*
X-539384212Y575445000D01*
X-539369000Y575448026D01*
X-539369000Y575437000D01*
G37*
X-539369000Y575437000D02*
X-539349000Y575437000D01*
X-539349000Y575183000D01*
X-539369000Y575183000D01*
X-539369000Y575163000D01*
X-539623000Y575163000D01*
X-539623000Y575183000D01*
X-539643000Y575183000D01*
X-539643000Y575437000D01*
X-539623000Y575437000D01*
X-539623000Y575448026D01*
X-539607788Y575445000D01*
X-539384212Y575445000D01*
X-539369000Y575448026D01*
X-539369000Y575437000D01*
G36*
X-536920072Y583858000D02*
G01*
X-536907812Y583733518D01*
X-536871502Y583613820D01*
X-536812537Y583503506D01*
X-536733185Y583406815D01*
X-536636494Y583327463D01*
X-536526180Y583268498D01*
X-536453620Y583246487D01*
X-536585475Y583114632D01*
X-536747990Y582871411D01*
X-536859932Y582601158D01*
X-536917000Y582314260D01*
X-536917000Y582021740D01*
X-536859932Y581734842D01*
X-536747990Y581464589D01*
X-536585475Y581221368D01*
X-536378632Y581014525D01*
X-536204240Y580898000D01*
X-536378632Y580781475D01*
X-536585475Y580574632D01*
X-536747990Y580331411D01*
X-536859932Y580061158D01*
X-536917000Y579774260D01*
X-536917000Y579481740D01*
X-536859932Y579194842D01*
X-536747990Y578924589D01*
X-536585475Y578681368D01*
X-536378632Y578474525D01*
X-536204240Y578358000D01*
X-536378632Y578241475D01*
X-536585475Y578034632D01*
X-536747990Y577791411D01*
X-536859932Y577521158D01*
X-536917000Y577234260D01*
X-536917000Y576941740D01*
X-536861759Y576664028D01*
X-538051844Y575473943D01*
X-538085437Y575467261D01*
X-538263404Y575393545D01*
X-538361000Y575328333D01*
X-538361000Y575437002D01*
X-538528045Y575437002D01*
X-538401881Y575611874D01*
X-538418554Y575666864D01*
X-538508877Y575870206D01*
X-538558353Y575940342D01*
X-538490176Y576042376D01*
X-538404617Y576248933D01*
X-538361000Y576468212D01*
X-538361000Y576691788D01*
X-538404617Y576911067D01*
X-538490176Y577117624D01*
X-538558353Y577219658D01*
X-538508877Y577289794D01*
X-538418554Y577493136D01*
X-538401881Y577548126D01*
X-538528046Y577723000D01*
X-539369000Y577723000D01*
X-539369000Y577711974D01*
X-539384212Y577715000D01*
X-539607788Y577715000D01*
X-539623000Y577711974D01*
X-539623000Y577723000D01*
X-539634026Y577723000D01*
X-539631000Y577738212D01*
X-539631000Y577961788D01*
X-539634026Y577977000D01*
X-539623000Y577977000D01*
X-539623000Y578993000D01*
X-539369000Y578993000D01*
X-539369000Y577977000D01*
X-538528046Y577977000D01*
X-538401881Y578151874D01*
X-538418554Y578206864D01*
X-538508877Y578410206D01*
X-538561639Y578485000D01*
X-538508877Y578559794D01*
X-538418554Y578763136D01*
X-538401881Y578818126D01*
X-538528046Y578993000D01*
X-539369000Y578993000D01*
X-539623000Y578993000D01*
X-540639000Y578993000D01*
X-540639000Y578981974D01*
X-540654212Y578985000D01*
X-540877788Y578985000D01*
X-540893000Y578981974D01*
X-540893000Y578993000D01*
X-541733954Y578993000D01*
X-541860119Y578818126D01*
X-541843446Y578763136D01*
X-541753123Y578559794D01*
X-541703647Y578489658D01*
X-541771824Y578387624D01*
X-541857383Y578181067D01*
X-541896084Y577986503D01*
X-541957820Y578019502D01*
X-542077518Y578055812D01*
X-542202000Y578068072D01*
X-543498889Y578068072D01*
X-543457752Y578203684D01*
X-543440928Y578374500D01*
X-543440928Y578849500D01*
X-543457752Y579020316D01*
X-543507577Y579184567D01*
X-543588488Y579335942D01*
X-543619722Y579374000D01*
X-543588488Y579412058D01*
X-543583242Y579421874D01*
X-541860119Y579421874D01*
X-541733954Y579247000D01*
X-540893000Y579247000D01*
X-540893000Y580089129D01*
X-540639000Y580089129D01*
X-540639000Y579247000D01*
X-539623000Y579247000D01*
X-539623000Y580089129D01*
X-539369000Y580089129D01*
X-539369000Y579247000D01*
X-538528046Y579247000D01*
X-538401881Y579421874D01*
X-538418554Y579476864D01*
X-538508877Y579680206D01*
X-538637135Y579862020D01*
X-538798399Y580015318D01*
X-538986471Y580134210D01*
X-539194124Y580214126D01*
X-539369000Y580089129D01*
X-539623000Y580089129D01*
X-539797876Y580214126D01*
X-540005529Y580134210D01*
X-540131000Y580054892D01*
X-540256471Y580134210D01*
X-540464124Y580214126D01*
X-540639000Y580089129D01*
X-540893000Y580089129D01*
X-541067876Y580214126D01*
X-541275529Y580134210D01*
X-541463601Y580015318D01*
X-541624865Y579862020D01*
X-541753123Y579680206D01*
X-541843446Y579476864D01*
X-541860119Y579421874D01*
X-543583242Y579421874D01*
X-543507577Y579563433D01*
X-543457752Y579727684D01*
X-543440928Y579898500D01*
X-543440928Y580373500D01*
X-543457752Y580544316D01*
X-543507577Y580708567D01*
X-543588488Y580859942D01*
X-543697377Y580992623D01*
X-543736828Y581025000D01*
X-543697377Y581057377D01*
X-543588488Y581190058D01*
X-543581677Y581202800D01*
X-541816926Y581202800D01*
X-541782000Y581199360D01*
X-541747074Y581202800D01*
X-541747064Y581202800D01*
X-541642580Y581213091D01*
X-541508519Y581253758D01*
X-541384967Y581319798D01*
X-541276673Y581408673D01*
X-541254398Y581435815D01*
X-539411971Y583278241D01*
X-539134260Y583223000D01*
X-538841740Y583223000D01*
X-538554842Y583280068D01*
X-538284589Y583392010D01*
X-538041368Y583554525D01*
X-537834525Y583761368D01*
X-537672010Y584004589D01*
X-537560068Y584274842D01*
X-537503000Y584561740D01*
X-537503000Y584854260D01*
X-537546988Y585075401D01*
X-536920072Y585075401D01*
X-536920072Y583858000D01*
G37*
X-536920072Y583858000D02*
X-536907812Y583733518D01*
X-536871502Y583613820D01*
X-536812537Y583503506D01*
X-536733185Y583406815D01*
X-536636494Y583327463D01*
X-536526180Y583268498D01*
X-536453620Y583246487D01*
X-536585475Y583114632D01*
X-536747990Y582871411D01*
X-536859932Y582601158D01*
X-536917000Y582314260D01*
X-536917000Y582021740D01*
X-536859932Y581734842D01*
X-536747990Y581464589D01*
X-536585475Y581221368D01*
X-536378632Y581014525D01*
X-536204240Y580898000D01*
X-536378632Y580781475D01*
X-536585475Y580574632D01*
X-536747990Y580331411D01*
X-536859932Y580061158D01*
X-536917000Y579774260D01*
X-536917000Y579481740D01*
X-536859932Y579194842D01*
X-536747990Y578924589D01*
X-536585475Y578681368D01*
X-536378632Y578474525D01*
X-536204240Y578358000D01*
X-536378632Y578241475D01*
X-536585475Y578034632D01*
X-536747990Y577791411D01*
X-536859932Y577521158D01*
X-536917000Y577234260D01*
X-536917000Y576941740D01*
X-536861759Y576664028D01*
X-538051844Y575473943D01*
X-538085437Y575467261D01*
X-538263404Y575393545D01*
X-538361000Y575328333D01*
X-538361000Y575437002D01*
X-538528045Y575437002D01*
X-538401881Y575611874D01*
X-538418554Y575666864D01*
X-538508877Y575870206D01*
X-538558353Y575940342D01*
X-538490176Y576042376D01*
X-538404617Y576248933D01*
X-538361000Y576468212D01*
X-538361000Y576691788D01*
X-538404617Y576911067D01*
X-538490176Y577117624D01*
X-538558353Y577219658D01*
X-538508877Y577289794D01*
X-538418554Y577493136D01*
X-538401881Y577548126D01*
X-538528046Y577723000D01*
X-539369000Y577723000D01*
X-539369000Y577711974D01*
X-539384212Y577715000D01*
X-539607788Y577715000D01*
X-539623000Y577711974D01*
X-539623000Y577723000D01*
X-539634026Y577723000D01*
X-539631000Y577738212D01*
X-539631000Y577961788D01*
X-539634026Y577977000D01*
X-539623000Y577977000D01*
X-539623000Y578993000D01*
X-539369000Y578993000D01*
X-539369000Y577977000D01*
X-538528046Y577977000D01*
X-538401881Y578151874D01*
X-538418554Y578206864D01*
X-538508877Y578410206D01*
X-538561639Y578485000D01*
X-538508877Y578559794D01*
X-538418554Y578763136D01*
X-538401881Y578818126D01*
X-538528046Y578993000D01*
X-539369000Y578993000D01*
X-539623000Y578993000D01*
X-540639000Y578993000D01*
X-540639000Y578981974D01*
X-540654212Y578985000D01*
X-540877788Y578985000D01*
X-540893000Y578981974D01*
X-540893000Y578993000D01*
X-541733954Y578993000D01*
X-541860119Y578818126D01*
X-541843446Y578763136D01*
X-541753123Y578559794D01*
X-541703647Y578489658D01*
X-541771824Y578387624D01*
X-541857383Y578181067D01*
X-541896084Y577986503D01*
X-541957820Y578019502D01*
X-542077518Y578055812D01*
X-542202000Y578068072D01*
X-543498889Y578068072D01*
X-543457752Y578203684D01*
X-543440928Y578374500D01*
X-543440928Y578849500D01*
X-543457752Y579020316D01*
X-543507577Y579184567D01*
X-543588488Y579335942D01*
X-543619722Y579374000D01*
X-543588488Y579412058D01*
X-543583242Y579421874D01*
X-541860119Y579421874D01*
X-541733954Y579247000D01*
X-540893000Y579247000D01*
X-540893000Y580089129D01*
X-540639000Y580089129D01*
X-540639000Y579247000D01*
X-539623000Y579247000D01*
X-539623000Y580089129D01*
X-539369000Y580089129D01*
X-539369000Y579247000D01*
X-538528046Y579247000D01*
X-538401881Y579421874D01*
X-538418554Y579476864D01*
X-538508877Y579680206D01*
X-538637135Y579862020D01*
X-538798399Y580015318D01*
X-538986471Y580134210D01*
X-539194124Y580214126D01*
X-539369000Y580089129D01*
X-539623000Y580089129D01*
X-539797876Y580214126D01*
X-540005529Y580134210D01*
X-540131000Y580054892D01*
X-540256471Y580134210D01*
X-540464124Y580214126D01*
X-540639000Y580089129D01*
X-540893000Y580089129D01*
X-541067876Y580214126D01*
X-541275529Y580134210D01*
X-541463601Y580015318D01*
X-541624865Y579862020D01*
X-541753123Y579680206D01*
X-541843446Y579476864D01*
X-541860119Y579421874D01*
X-543583242Y579421874D01*
X-543507577Y579563433D01*
X-543457752Y579727684D01*
X-543440928Y579898500D01*
X-543440928Y580373500D01*
X-543457752Y580544316D01*
X-543507577Y580708567D01*
X-543588488Y580859942D01*
X-543697377Y580992623D01*
X-543736828Y581025000D01*
X-543697377Y581057377D01*
X-543588488Y581190058D01*
X-543581677Y581202800D01*
X-541816926Y581202800D01*
X-541782000Y581199360D01*
X-541747074Y581202800D01*
X-541747064Y581202800D01*
X-541642580Y581213091D01*
X-541508519Y581253758D01*
X-541384967Y581319798D01*
X-541276673Y581408673D01*
X-541254398Y581435815D01*
X-539411971Y583278241D01*
X-539134260Y583223000D01*
X-538841740Y583223000D01*
X-538554842Y583280068D01*
X-538284589Y583392010D01*
X-538041368Y583554525D01*
X-537834525Y583761368D01*
X-537672010Y584004589D01*
X-537560068Y584274842D01*
X-537503000Y584561740D01*
X-537503000Y584854260D01*
X-537546988Y585075401D01*
X-536920072Y585075401D01*
X-536920072Y583858000D01*
G36*
X-540639000Y576707000D02*
G01*
X-540627974Y576707000D01*
X-540631000Y576691788D01*
X-540631000Y576468212D01*
X-540627974Y576453000D01*
X-540639000Y576453000D01*
X-540639000Y576433000D01*
X-540893000Y576433000D01*
X-540893000Y576453000D01*
X-540913000Y576453000D01*
X-540913000Y576707000D01*
X-540893000Y576707000D01*
X-540893000Y576718026D01*
X-540877788Y576715000D01*
X-540654212Y576715000D01*
X-540639000Y576718026D01*
X-540639000Y576707000D01*
G37*
X-540639000Y576707000D02*
X-540627974Y576707000D01*
X-540631000Y576691788D01*
X-540631000Y576468212D01*
X-540627974Y576453000D01*
X-540639000Y576453000D01*
X-540639000Y576433000D01*
X-540893000Y576433000D01*
X-540893000Y576453000D01*
X-540913000Y576453000D01*
X-540913000Y576707000D01*
X-540893000Y576707000D01*
X-540893000Y576718026D01*
X-540877788Y576715000D01*
X-540654212Y576715000D01*
X-540639000Y576718026D01*
X-540639000Y576707000D01*
G36*
X-554101000Y579755000D02*
G01*
X-554081000Y579755000D01*
X-554081000Y579501000D01*
X-554101000Y579501000D01*
X-554101000Y579481000D01*
X-554355000Y579481000D01*
X-554355000Y579501000D01*
X-554375000Y579501000D01*
X-554375000Y579755000D01*
X-554355000Y579755000D01*
X-554355000Y579775000D01*
X-554101000Y579775000D01*
X-554101000Y579755000D01*
G37*
X-554101000Y579755000D02*
X-554081000Y579755000D01*
X-554081000Y579501000D01*
X-554101000Y579501000D01*
X-554101000Y579481000D01*
X-554355000Y579481000D01*
X-554355000Y579501000D01*
X-554375000Y579501000D01*
X-554375000Y579755000D01*
X-554355000Y579755000D01*
X-554355000Y579775000D01*
X-554101000Y579775000D01*
X-554101000Y579755000D01*
G36*
X-546754260Y583223000D02*
G01*
X-546461740Y583223000D01*
X-546240598Y583266988D01*
X-546240598Y583027072D01*
X-546641500Y583027072D01*
X-546812316Y583010248D01*
X-546976567Y582960423D01*
X-547127942Y582879512D01*
X-547260623Y582770623D01*
X-547369512Y582637942D01*
X-547450423Y582486567D01*
X-547500248Y582322316D01*
X-547517072Y582151500D01*
X-547517072Y581676500D01*
X-547500248Y581505684D01*
X-547450423Y581341433D01*
X-547377470Y581204946D01*
X-547482518Y581236812D01*
X-547607000Y581249072D01*
X-547846250Y581246000D01*
X-548005000Y581087250D01*
X-548005000Y580263000D01*
X-547985000Y580263000D01*
X-547985000Y580143590D01*
X-548279000Y580143590D01*
X-548279000Y580263000D01*
X-548259000Y580263000D01*
X-548259000Y581087250D01*
X-548335202Y581163452D01*
X-548335202Y581975011D01*
X-547031972Y583278241D01*
X-546754260Y583223000D01*
G37*
X-546754260Y583223000D02*
X-546461740Y583223000D01*
X-546240598Y583266988D01*
X-546240598Y583027072D01*
X-546641500Y583027072D01*
X-546812316Y583010248D01*
X-546976567Y582960423D01*
X-547127942Y582879512D01*
X-547260623Y582770623D01*
X-547369512Y582637942D01*
X-547450423Y582486567D01*
X-547500248Y582322316D01*
X-547517072Y582151500D01*
X-547517072Y581676500D01*
X-547500248Y581505684D01*
X-547450423Y581341433D01*
X-547377470Y581204946D01*
X-547482518Y581236812D01*
X-547607000Y581249072D01*
X-547846250Y581246000D01*
X-548005000Y581087250D01*
X-548005000Y580263000D01*
X-547985000Y580263000D01*
X-547985000Y580143590D01*
X-548279000Y580143590D01*
X-548279000Y580263000D01*
X-548259000Y580263000D01*
X-548259000Y581087250D01*
X-548335202Y581163452D01*
X-548335202Y581975011D01*
X-547031972Y583278241D01*
X-546754260Y583223000D01*
M02*
