G04 #@! TF.GenerationSoftware,KiCad,Pcbnew,(5.1.5-0)*
G04 #@! TF.CreationDate,2020-01-01T00:13:39-08:00*
G04 #@! TF.ProjectId,cisco_hwic_dev_board,63697363-6f5f-4687-9769-635f6465765f,rev?*
G04 #@! TF.SameCoordinates,Original*
G04 #@! TF.FileFunction,Copper,L1,Top*
G04 #@! TF.FilePolarity,Positive*
%FSLAX46Y46*%
G04 Gerber Fmt 4.6, Leading zero omitted, Abs format (unit mm)*
G04 Created by KiCad (PCBNEW (5.1.5-0)) date 2020-01-01 00:13:39*
%MOMM*%
%LPD*%
G04 APERTURE LIST*
%ADD10O,1.100000X1.100000*%
%ADD11O,1.700000X1.700000*%
%ADD12R,1.700000X1.700000*%
%ADD13C,0.100000*%
%ADD14C,1.371600*%
%ADD15C,0.685800*%
%ADD16C,0.304800*%
%ADD17C,0.152400*%
%ADD18C,0.300000*%
%ADD19C,0.254000*%
G04 APERTURE END LIST*
D10*
X-537845000Y580390000D03*
X-539115000Y580390000D03*
X-539115000Y579120000D03*
X-537845000Y577850000D03*
X-539115000Y577850000D03*
X-539115000Y576580000D03*
X-537845000Y575310000D03*
X-539115000Y575310000D03*
X-539115000Y574040000D03*
X-537845000Y572770000D03*
X-539115000Y572770000D03*
X-537845000Y571500000D03*
X-539115000Y571500000D03*
X-537845000Y570230000D03*
X-539115000Y570230000D03*
X-539115000Y568960000D03*
X-537845000Y566420000D03*
X-537845000Y565150000D03*
X-539115000Y565150000D03*
X-537845000Y563880000D03*
X-539115000Y563880000D03*
X-537845000Y562610000D03*
X-539115000Y562610000D03*
X-537845000Y561340000D03*
X-539115000Y561340000D03*
X-537845000Y558800000D03*
X-539115000Y558800000D03*
X-537845000Y557530000D03*
X-539115000Y557530000D03*
X-537845000Y556260000D03*
X-539115000Y556260000D03*
X-537845000Y554990000D03*
X-539115000Y554990000D03*
X-537845000Y553720000D03*
X-539115000Y553720000D03*
X-537845000Y552450000D03*
X-539115000Y552450000D03*
X-537845000Y551180000D03*
X-539115000Y551180000D03*
X-539115000Y546100000D03*
X-537845000Y544830000D03*
X-537845000Y543560000D03*
X-539115000Y543560000D03*
X-537845000Y542290000D03*
X-539115000Y542290000D03*
X-537845000Y541020000D03*
X-539115000Y541020000D03*
D11*
X-530225000Y584835000D03*
X-527685000Y584835000D03*
X-530225000Y582295000D03*
X-527685000Y582295000D03*
X-530225000Y579755000D03*
X-527685000Y579755000D03*
X-530225000Y577215000D03*
X-527685000Y577215000D03*
X-530225000Y574675000D03*
X-527685000Y574675000D03*
X-530225000Y572135000D03*
X-527685000Y572135000D03*
X-530225000Y569595000D03*
X-527685000Y569595000D03*
X-530225000Y567055000D03*
X-527685000Y567055000D03*
X-530225000Y564515000D03*
X-527685000Y564515000D03*
X-530225000Y561975000D03*
X-527685000Y561975000D03*
X-530225000Y559435000D03*
X-527685000Y559435000D03*
X-530225000Y556895000D03*
X-527685000Y556895000D03*
X-530225000Y554355000D03*
X-527685000Y554355000D03*
X-530225000Y551815000D03*
X-527685000Y551815000D03*
X-530225000Y549275000D03*
X-527685000Y549275000D03*
X-530225000Y546735000D03*
X-527685000Y546735000D03*
X-530225000Y544195000D03*
X-527685000Y544195000D03*
X-530225000Y541655000D03*
X-527685000Y541655000D03*
X-530225000Y539115000D03*
X-527685000Y539115000D03*
X-530225000Y536575000D03*
D12*
X-527685000Y536575000D03*
G04 #@! TA.AperFunction,SMDPad,CuDef*
D13*
G36*
X-546932221Y572735856D02*
G01*
X-546909166Y572732437D01*
X-546886557Y572726773D01*
X-546864613Y572718921D01*
X-546843543Y572708956D01*
X-546823552Y572696974D01*
X-546804832Y572683090D01*
X-546787562Y572667438D01*
X-546771910Y572650168D01*
X-546758026Y572631448D01*
X-546746044Y572611457D01*
X-546736079Y572590387D01*
X-546728227Y572568443D01*
X-546722563Y572545834D01*
X-546719144Y572522779D01*
X-546718000Y572499500D01*
X-546718000Y572024500D01*
X-546719144Y572001221D01*
X-546722563Y571978166D01*
X-546728227Y571955557D01*
X-546736079Y571933613D01*
X-546746044Y571912543D01*
X-546758026Y571892552D01*
X-546771910Y571873832D01*
X-546787562Y571856562D01*
X-546804832Y571840910D01*
X-546823552Y571827026D01*
X-546843543Y571815044D01*
X-546864613Y571805079D01*
X-546886557Y571797227D01*
X-546909166Y571791563D01*
X-546932221Y571788144D01*
X-546955500Y571787000D01*
X-547530500Y571787000D01*
X-547553779Y571788144D01*
X-547576834Y571791563D01*
X-547599443Y571797227D01*
X-547621387Y571805079D01*
X-547642457Y571815044D01*
X-547662448Y571827026D01*
X-547681168Y571840910D01*
X-547698438Y571856562D01*
X-547714090Y571873832D01*
X-547727974Y571892552D01*
X-547739956Y571912543D01*
X-547749921Y571933613D01*
X-547757773Y571955557D01*
X-547763437Y571978166D01*
X-547766856Y572001221D01*
X-547768000Y572024500D01*
X-547768000Y572499500D01*
X-547766856Y572522779D01*
X-547763437Y572545834D01*
X-547757773Y572568443D01*
X-547749921Y572590387D01*
X-547739956Y572611457D01*
X-547727974Y572631448D01*
X-547714090Y572650168D01*
X-547698438Y572667438D01*
X-547681168Y572683090D01*
X-547662448Y572696974D01*
X-547642457Y572708956D01*
X-547621387Y572718921D01*
X-547599443Y572726773D01*
X-547576834Y572732437D01*
X-547553779Y572735856D01*
X-547530500Y572737000D01*
X-546955500Y572737000D01*
X-546932221Y572735856D01*
G37*
G04 #@! TD.AperFunction*
G04 #@! TA.AperFunction,SMDPad,CuDef*
G36*
X-545182221Y572735856D02*
G01*
X-545159166Y572732437D01*
X-545136557Y572726773D01*
X-545114613Y572718921D01*
X-545093543Y572708956D01*
X-545073552Y572696974D01*
X-545054832Y572683090D01*
X-545037562Y572667438D01*
X-545021910Y572650168D01*
X-545008026Y572631448D01*
X-544996044Y572611457D01*
X-544986079Y572590387D01*
X-544978227Y572568443D01*
X-544972563Y572545834D01*
X-544969144Y572522779D01*
X-544968000Y572499500D01*
X-544968000Y572024500D01*
X-544969144Y572001221D01*
X-544972563Y571978166D01*
X-544978227Y571955557D01*
X-544986079Y571933613D01*
X-544996044Y571912543D01*
X-545008026Y571892552D01*
X-545021910Y571873832D01*
X-545037562Y571856562D01*
X-545054832Y571840910D01*
X-545073552Y571827026D01*
X-545093543Y571815044D01*
X-545114613Y571805079D01*
X-545136557Y571797227D01*
X-545159166Y571791563D01*
X-545182221Y571788144D01*
X-545205500Y571787000D01*
X-545780500Y571787000D01*
X-545803779Y571788144D01*
X-545826834Y571791563D01*
X-545849443Y571797227D01*
X-545871387Y571805079D01*
X-545892457Y571815044D01*
X-545912448Y571827026D01*
X-545931168Y571840910D01*
X-545948438Y571856562D01*
X-545964090Y571873832D01*
X-545977974Y571892552D01*
X-545989956Y571912543D01*
X-545999921Y571933613D01*
X-546007773Y571955557D01*
X-546013437Y571978166D01*
X-546016856Y572001221D01*
X-546018000Y572024500D01*
X-546018000Y572499500D01*
X-546016856Y572522779D01*
X-546013437Y572545834D01*
X-546007773Y572568443D01*
X-545999921Y572590387D01*
X-545989956Y572611457D01*
X-545977974Y572631448D01*
X-545964090Y572650168D01*
X-545948438Y572667438D01*
X-545931168Y572683090D01*
X-545912448Y572696974D01*
X-545892457Y572708956D01*
X-545871387Y572718921D01*
X-545849443Y572726773D01*
X-545826834Y572732437D01*
X-545803779Y572735856D01*
X-545780500Y572737000D01*
X-545205500Y572737000D01*
X-545182221Y572735856D01*
G37*
G04 #@! TD.AperFunction*
D12*
X-556895000Y566420000D03*
D11*
X-541655000Y559435000D03*
X-544195000Y559435000D03*
X-546735000Y559435000D03*
X-549275000Y559435000D03*
X-551815000Y559435000D03*
D12*
X-554355000Y559435000D03*
D11*
X-556895000Y546735000D03*
X-556895000Y549275000D03*
D12*
X-556895000Y551815000D03*
D11*
X-545465000Y563245000D03*
D12*
X-542925000Y563245000D03*
D11*
X-549275000Y563245000D03*
X-551815000Y563245000D03*
D12*
X-554355000Y563245000D03*
D11*
X-556260000Y582930000D03*
X-553720000Y582930000D03*
X-556260000Y580390000D03*
X-553720000Y580390000D03*
X-556260000Y577850000D03*
X-553720000Y577850000D03*
X-556260000Y575310000D03*
X-553720000Y575310000D03*
X-556260000Y572770000D03*
D12*
X-553720000Y572770000D03*
D11*
X-556895000Y569595000D03*
X-554355000Y569595000D03*
X-551815000Y569595000D03*
X-549275000Y569595000D03*
X-546735000Y569595000D03*
D12*
X-544195000Y569595000D03*
D11*
X-541655000Y577850000D03*
X-541655000Y575310000D03*
X-541655000Y572770000D03*
X-541655000Y570230000D03*
X-541655000Y567690000D03*
X-541655000Y544830000D03*
D12*
X-541655000Y542290000D03*
G04 #@! TA.AperFunction,SMDPad,CuDef*
D13*
G36*
X-545204221Y540273856D02*
G01*
X-545181166Y540270437D01*
X-545158557Y540264773D01*
X-545136613Y540256921D01*
X-545115543Y540246956D01*
X-545095552Y540234974D01*
X-545076832Y540221090D01*
X-545059562Y540205438D01*
X-545043910Y540188168D01*
X-545030026Y540169448D01*
X-545018044Y540149457D01*
X-545008079Y540128387D01*
X-545000227Y540106443D01*
X-544994563Y540083834D01*
X-544991144Y540060779D01*
X-544990000Y540037500D01*
X-544990000Y539462500D01*
X-544991144Y539439221D01*
X-544994563Y539416166D01*
X-545000227Y539393557D01*
X-545008079Y539371613D01*
X-545018044Y539350543D01*
X-545030026Y539330552D01*
X-545043910Y539311832D01*
X-545059562Y539294562D01*
X-545076832Y539278910D01*
X-545095552Y539265026D01*
X-545115543Y539253044D01*
X-545136613Y539243079D01*
X-545158557Y539235227D01*
X-545181166Y539229563D01*
X-545204221Y539226144D01*
X-545227500Y539225000D01*
X-545702500Y539225000D01*
X-545725779Y539226144D01*
X-545748834Y539229563D01*
X-545771443Y539235227D01*
X-545793387Y539243079D01*
X-545814457Y539253044D01*
X-545834448Y539265026D01*
X-545853168Y539278910D01*
X-545870438Y539294562D01*
X-545886090Y539311832D01*
X-545899974Y539330552D01*
X-545911956Y539350543D01*
X-545921921Y539371613D01*
X-545929773Y539393557D01*
X-545935437Y539416166D01*
X-545938856Y539439221D01*
X-545940000Y539462500D01*
X-545940000Y540037500D01*
X-545938856Y540060779D01*
X-545935437Y540083834D01*
X-545929773Y540106443D01*
X-545921921Y540128387D01*
X-545911956Y540149457D01*
X-545899974Y540169448D01*
X-545886090Y540188168D01*
X-545870438Y540205438D01*
X-545853168Y540221090D01*
X-545834448Y540234974D01*
X-545814457Y540246956D01*
X-545793387Y540256921D01*
X-545771443Y540264773D01*
X-545748834Y540270437D01*
X-545725779Y540273856D01*
X-545702500Y540275000D01*
X-545227500Y540275000D01*
X-545204221Y540273856D01*
G37*
G04 #@! TD.AperFunction*
G04 #@! TA.AperFunction,SMDPad,CuDef*
G36*
X-545204221Y542023856D02*
G01*
X-545181166Y542020437D01*
X-545158557Y542014773D01*
X-545136613Y542006921D01*
X-545115543Y541996956D01*
X-545095552Y541984974D01*
X-545076832Y541971090D01*
X-545059562Y541955438D01*
X-545043910Y541938168D01*
X-545030026Y541919448D01*
X-545018044Y541899457D01*
X-545008079Y541878387D01*
X-545000227Y541856443D01*
X-544994563Y541833834D01*
X-544991144Y541810779D01*
X-544990000Y541787500D01*
X-544990000Y541212500D01*
X-544991144Y541189221D01*
X-544994563Y541166166D01*
X-545000227Y541143557D01*
X-545008079Y541121613D01*
X-545018044Y541100543D01*
X-545030026Y541080552D01*
X-545043910Y541061832D01*
X-545059562Y541044562D01*
X-545076832Y541028910D01*
X-545095552Y541015026D01*
X-545115543Y541003044D01*
X-545136613Y540993079D01*
X-545158557Y540985227D01*
X-545181166Y540979563D01*
X-545204221Y540976144D01*
X-545227500Y540975000D01*
X-545702500Y540975000D01*
X-545725779Y540976144D01*
X-545748834Y540979563D01*
X-545771443Y540985227D01*
X-545793387Y540993079D01*
X-545814457Y541003044D01*
X-545834448Y541015026D01*
X-545853168Y541028910D01*
X-545870438Y541044562D01*
X-545886090Y541061832D01*
X-545899974Y541080552D01*
X-545911956Y541100543D01*
X-545921921Y541121613D01*
X-545929773Y541143557D01*
X-545935437Y541166166D01*
X-545938856Y541189221D01*
X-545940000Y541212500D01*
X-545940000Y541787500D01*
X-545938856Y541810779D01*
X-545935437Y541833834D01*
X-545929773Y541856443D01*
X-545921921Y541878387D01*
X-545911956Y541899457D01*
X-545899974Y541919448D01*
X-545886090Y541938168D01*
X-545870438Y541955438D01*
X-545853168Y541971090D01*
X-545834448Y541984974D01*
X-545814457Y541996956D01*
X-545793387Y542006921D01*
X-545771443Y542014773D01*
X-545748834Y542020437D01*
X-545725779Y542023856D01*
X-545702500Y542025000D01*
X-545227500Y542025000D01*
X-545204221Y542023856D01*
G37*
G04 #@! TD.AperFunction*
G04 #@! TA.AperFunction,SMDPad,CuDef*
G36*
X-551015297Y545209278D02*
G01*
X-551000736Y545207118D01*
X-550986457Y545203541D01*
X-550972597Y545198582D01*
X-550959290Y545192288D01*
X-550946664Y545184720D01*
X-550934841Y545175952D01*
X-550923934Y545166066D01*
X-550914048Y545155159D01*
X-550905280Y545143336D01*
X-550897712Y545130710D01*
X-550891418Y545117403D01*
X-550886459Y545103543D01*
X-550882882Y545089264D01*
X-550880722Y545074703D01*
X-550880000Y545060000D01*
X-550880000Y543760000D01*
X-550880722Y543745297D01*
X-550882882Y543730736D01*
X-550886459Y543716457D01*
X-550891418Y543702597D01*
X-550897712Y543689290D01*
X-550905280Y543676664D01*
X-550914048Y543664841D01*
X-550923934Y543653934D01*
X-550934841Y543644048D01*
X-550946664Y543635280D01*
X-550959290Y543627712D01*
X-550972597Y543621418D01*
X-550986457Y543616459D01*
X-551000736Y543612882D01*
X-551015297Y543610722D01*
X-551030000Y543610000D01*
X-551330000Y543610000D01*
X-551344703Y543610722D01*
X-551359264Y543612882D01*
X-551373543Y543616459D01*
X-551387403Y543621418D01*
X-551400710Y543627712D01*
X-551413336Y543635280D01*
X-551425159Y543644048D01*
X-551436066Y543653934D01*
X-551445952Y543664841D01*
X-551454720Y543676664D01*
X-551462288Y543689290D01*
X-551468582Y543702597D01*
X-551473541Y543716457D01*
X-551477118Y543730736D01*
X-551479278Y543745297D01*
X-551480000Y543760000D01*
X-551480000Y545060000D01*
X-551479278Y545074703D01*
X-551477118Y545089264D01*
X-551473541Y545103543D01*
X-551468582Y545117403D01*
X-551462288Y545130710D01*
X-551454720Y545143336D01*
X-551445952Y545155159D01*
X-551436066Y545166066D01*
X-551425159Y545175952D01*
X-551413336Y545184720D01*
X-551400710Y545192288D01*
X-551387403Y545198582D01*
X-551373543Y545203541D01*
X-551359264Y545207118D01*
X-551344703Y545209278D01*
X-551330000Y545210000D01*
X-551030000Y545210000D01*
X-551015297Y545209278D01*
G37*
G04 #@! TD.AperFunction*
G04 #@! TA.AperFunction,SMDPad,CuDef*
G36*
X-549745297Y545209278D02*
G01*
X-549730736Y545207118D01*
X-549716457Y545203541D01*
X-549702597Y545198582D01*
X-549689290Y545192288D01*
X-549676664Y545184720D01*
X-549664841Y545175952D01*
X-549653934Y545166066D01*
X-549644048Y545155159D01*
X-549635280Y545143336D01*
X-549627712Y545130710D01*
X-549621418Y545117403D01*
X-549616459Y545103543D01*
X-549612882Y545089264D01*
X-549610722Y545074703D01*
X-549610000Y545060000D01*
X-549610000Y543760000D01*
X-549610722Y543745297D01*
X-549612882Y543730736D01*
X-549616459Y543716457D01*
X-549621418Y543702597D01*
X-549627712Y543689290D01*
X-549635280Y543676664D01*
X-549644048Y543664841D01*
X-549653934Y543653934D01*
X-549664841Y543644048D01*
X-549676664Y543635280D01*
X-549689290Y543627712D01*
X-549702597Y543621418D01*
X-549716457Y543616459D01*
X-549730736Y543612882D01*
X-549745297Y543610722D01*
X-549760000Y543610000D01*
X-550060000Y543610000D01*
X-550074703Y543610722D01*
X-550089264Y543612882D01*
X-550103543Y543616459D01*
X-550117403Y543621418D01*
X-550130710Y543627712D01*
X-550143336Y543635280D01*
X-550155159Y543644048D01*
X-550166066Y543653934D01*
X-550175952Y543664841D01*
X-550184720Y543676664D01*
X-550192288Y543689290D01*
X-550198582Y543702597D01*
X-550203541Y543716457D01*
X-550207118Y543730736D01*
X-550209278Y543745297D01*
X-550210000Y543760000D01*
X-550210000Y545060000D01*
X-550209278Y545074703D01*
X-550207118Y545089264D01*
X-550203541Y545103543D01*
X-550198582Y545117403D01*
X-550192288Y545130710D01*
X-550184720Y545143336D01*
X-550175952Y545155159D01*
X-550166066Y545166066D01*
X-550155159Y545175952D01*
X-550143336Y545184720D01*
X-550130710Y545192288D01*
X-550117403Y545198582D01*
X-550103543Y545203541D01*
X-550089264Y545207118D01*
X-550074703Y545209278D01*
X-550060000Y545210000D01*
X-549760000Y545210000D01*
X-549745297Y545209278D01*
G37*
G04 #@! TD.AperFunction*
G04 #@! TA.AperFunction,SMDPad,CuDef*
G36*
X-548475297Y545209278D02*
G01*
X-548460736Y545207118D01*
X-548446457Y545203541D01*
X-548432597Y545198582D01*
X-548419290Y545192288D01*
X-548406664Y545184720D01*
X-548394841Y545175952D01*
X-548383934Y545166066D01*
X-548374048Y545155159D01*
X-548365280Y545143336D01*
X-548357712Y545130710D01*
X-548351418Y545117403D01*
X-548346459Y545103543D01*
X-548342882Y545089264D01*
X-548340722Y545074703D01*
X-548340000Y545060000D01*
X-548340000Y543760000D01*
X-548340722Y543745297D01*
X-548342882Y543730736D01*
X-548346459Y543716457D01*
X-548351418Y543702597D01*
X-548357712Y543689290D01*
X-548365280Y543676664D01*
X-548374048Y543664841D01*
X-548383934Y543653934D01*
X-548394841Y543644048D01*
X-548406664Y543635280D01*
X-548419290Y543627712D01*
X-548432597Y543621418D01*
X-548446457Y543616459D01*
X-548460736Y543612882D01*
X-548475297Y543610722D01*
X-548490000Y543610000D01*
X-548790000Y543610000D01*
X-548804703Y543610722D01*
X-548819264Y543612882D01*
X-548833543Y543616459D01*
X-548847403Y543621418D01*
X-548860710Y543627712D01*
X-548873336Y543635280D01*
X-548885159Y543644048D01*
X-548896066Y543653934D01*
X-548905952Y543664841D01*
X-548914720Y543676664D01*
X-548922288Y543689290D01*
X-548928582Y543702597D01*
X-548933541Y543716457D01*
X-548937118Y543730736D01*
X-548939278Y543745297D01*
X-548940000Y543760000D01*
X-548940000Y545060000D01*
X-548939278Y545074703D01*
X-548937118Y545089264D01*
X-548933541Y545103543D01*
X-548928582Y545117403D01*
X-548922288Y545130710D01*
X-548914720Y545143336D01*
X-548905952Y545155159D01*
X-548896066Y545166066D01*
X-548885159Y545175952D01*
X-548873336Y545184720D01*
X-548860710Y545192288D01*
X-548847403Y545198582D01*
X-548833543Y545203541D01*
X-548819264Y545207118D01*
X-548804703Y545209278D01*
X-548790000Y545210000D01*
X-548490000Y545210000D01*
X-548475297Y545209278D01*
G37*
G04 #@! TD.AperFunction*
G04 #@! TA.AperFunction,SMDPad,CuDef*
G36*
X-547205297Y545209278D02*
G01*
X-547190736Y545207118D01*
X-547176457Y545203541D01*
X-547162597Y545198582D01*
X-547149290Y545192288D01*
X-547136664Y545184720D01*
X-547124841Y545175952D01*
X-547113934Y545166066D01*
X-547104048Y545155159D01*
X-547095280Y545143336D01*
X-547087712Y545130710D01*
X-547081418Y545117403D01*
X-547076459Y545103543D01*
X-547072882Y545089264D01*
X-547070722Y545074703D01*
X-547070000Y545060000D01*
X-547070000Y543760000D01*
X-547070722Y543745297D01*
X-547072882Y543730736D01*
X-547076459Y543716457D01*
X-547081418Y543702597D01*
X-547087712Y543689290D01*
X-547095280Y543676664D01*
X-547104048Y543664841D01*
X-547113934Y543653934D01*
X-547124841Y543644048D01*
X-547136664Y543635280D01*
X-547149290Y543627712D01*
X-547162597Y543621418D01*
X-547176457Y543616459D01*
X-547190736Y543612882D01*
X-547205297Y543610722D01*
X-547220000Y543610000D01*
X-547520000Y543610000D01*
X-547534703Y543610722D01*
X-547549264Y543612882D01*
X-547563543Y543616459D01*
X-547577403Y543621418D01*
X-547590710Y543627712D01*
X-547603336Y543635280D01*
X-547615159Y543644048D01*
X-547626066Y543653934D01*
X-547635952Y543664841D01*
X-547644720Y543676664D01*
X-547652288Y543689290D01*
X-547658582Y543702597D01*
X-547663541Y543716457D01*
X-547667118Y543730736D01*
X-547669278Y543745297D01*
X-547670000Y543760000D01*
X-547670000Y545060000D01*
X-547669278Y545074703D01*
X-547667118Y545089264D01*
X-547663541Y545103543D01*
X-547658582Y545117403D01*
X-547652288Y545130710D01*
X-547644720Y545143336D01*
X-547635952Y545155159D01*
X-547626066Y545166066D01*
X-547615159Y545175952D01*
X-547603336Y545184720D01*
X-547590710Y545192288D01*
X-547577403Y545198582D01*
X-547563543Y545203541D01*
X-547549264Y545207118D01*
X-547534703Y545209278D01*
X-547520000Y545210000D01*
X-547220000Y545210000D01*
X-547205297Y545209278D01*
G37*
G04 #@! TD.AperFunction*
G04 #@! TA.AperFunction,SMDPad,CuDef*
G36*
X-547205297Y538009278D02*
G01*
X-547190736Y538007118D01*
X-547176457Y538003541D01*
X-547162597Y537998582D01*
X-547149290Y537992288D01*
X-547136664Y537984720D01*
X-547124841Y537975952D01*
X-547113934Y537966066D01*
X-547104048Y537955159D01*
X-547095280Y537943336D01*
X-547087712Y537930710D01*
X-547081418Y537917403D01*
X-547076459Y537903543D01*
X-547072882Y537889264D01*
X-547070722Y537874703D01*
X-547070000Y537860000D01*
X-547070000Y536560000D01*
X-547070722Y536545297D01*
X-547072882Y536530736D01*
X-547076459Y536516457D01*
X-547081418Y536502597D01*
X-547087712Y536489290D01*
X-547095280Y536476664D01*
X-547104048Y536464841D01*
X-547113934Y536453934D01*
X-547124841Y536444048D01*
X-547136664Y536435280D01*
X-547149290Y536427712D01*
X-547162597Y536421418D01*
X-547176457Y536416459D01*
X-547190736Y536412882D01*
X-547205297Y536410722D01*
X-547220000Y536410000D01*
X-547520000Y536410000D01*
X-547534703Y536410722D01*
X-547549264Y536412882D01*
X-547563543Y536416459D01*
X-547577403Y536421418D01*
X-547590710Y536427712D01*
X-547603336Y536435280D01*
X-547615159Y536444048D01*
X-547626066Y536453934D01*
X-547635952Y536464841D01*
X-547644720Y536476664D01*
X-547652288Y536489290D01*
X-547658582Y536502597D01*
X-547663541Y536516457D01*
X-547667118Y536530736D01*
X-547669278Y536545297D01*
X-547670000Y536560000D01*
X-547670000Y537860000D01*
X-547669278Y537874703D01*
X-547667118Y537889264D01*
X-547663541Y537903543D01*
X-547658582Y537917403D01*
X-547652288Y537930710D01*
X-547644720Y537943336D01*
X-547635952Y537955159D01*
X-547626066Y537966066D01*
X-547615159Y537975952D01*
X-547603336Y537984720D01*
X-547590710Y537992288D01*
X-547577403Y537998582D01*
X-547563543Y538003541D01*
X-547549264Y538007118D01*
X-547534703Y538009278D01*
X-547520000Y538010000D01*
X-547220000Y538010000D01*
X-547205297Y538009278D01*
G37*
G04 #@! TD.AperFunction*
G04 #@! TA.AperFunction,SMDPad,CuDef*
G36*
X-548475297Y538009278D02*
G01*
X-548460736Y538007118D01*
X-548446457Y538003541D01*
X-548432597Y537998582D01*
X-548419290Y537992288D01*
X-548406664Y537984720D01*
X-548394841Y537975952D01*
X-548383934Y537966066D01*
X-548374048Y537955159D01*
X-548365280Y537943336D01*
X-548357712Y537930710D01*
X-548351418Y537917403D01*
X-548346459Y537903543D01*
X-548342882Y537889264D01*
X-548340722Y537874703D01*
X-548340000Y537860000D01*
X-548340000Y536560000D01*
X-548340722Y536545297D01*
X-548342882Y536530736D01*
X-548346459Y536516457D01*
X-548351418Y536502597D01*
X-548357712Y536489290D01*
X-548365280Y536476664D01*
X-548374048Y536464841D01*
X-548383934Y536453934D01*
X-548394841Y536444048D01*
X-548406664Y536435280D01*
X-548419290Y536427712D01*
X-548432597Y536421418D01*
X-548446457Y536416459D01*
X-548460736Y536412882D01*
X-548475297Y536410722D01*
X-548490000Y536410000D01*
X-548790000Y536410000D01*
X-548804703Y536410722D01*
X-548819264Y536412882D01*
X-548833543Y536416459D01*
X-548847403Y536421418D01*
X-548860710Y536427712D01*
X-548873336Y536435280D01*
X-548885159Y536444048D01*
X-548896066Y536453934D01*
X-548905952Y536464841D01*
X-548914720Y536476664D01*
X-548922288Y536489290D01*
X-548928582Y536502597D01*
X-548933541Y536516457D01*
X-548937118Y536530736D01*
X-548939278Y536545297D01*
X-548940000Y536560000D01*
X-548940000Y537860000D01*
X-548939278Y537874703D01*
X-548937118Y537889264D01*
X-548933541Y537903543D01*
X-548928582Y537917403D01*
X-548922288Y537930710D01*
X-548914720Y537943336D01*
X-548905952Y537955159D01*
X-548896066Y537966066D01*
X-548885159Y537975952D01*
X-548873336Y537984720D01*
X-548860710Y537992288D01*
X-548847403Y537998582D01*
X-548833543Y538003541D01*
X-548819264Y538007118D01*
X-548804703Y538009278D01*
X-548790000Y538010000D01*
X-548490000Y538010000D01*
X-548475297Y538009278D01*
G37*
G04 #@! TD.AperFunction*
G04 #@! TA.AperFunction,SMDPad,CuDef*
G36*
X-549745297Y538009278D02*
G01*
X-549730736Y538007118D01*
X-549716457Y538003541D01*
X-549702597Y537998582D01*
X-549689290Y537992288D01*
X-549676664Y537984720D01*
X-549664841Y537975952D01*
X-549653934Y537966066D01*
X-549644048Y537955159D01*
X-549635280Y537943336D01*
X-549627712Y537930710D01*
X-549621418Y537917403D01*
X-549616459Y537903543D01*
X-549612882Y537889264D01*
X-549610722Y537874703D01*
X-549610000Y537860000D01*
X-549610000Y536560000D01*
X-549610722Y536545297D01*
X-549612882Y536530736D01*
X-549616459Y536516457D01*
X-549621418Y536502597D01*
X-549627712Y536489290D01*
X-549635280Y536476664D01*
X-549644048Y536464841D01*
X-549653934Y536453934D01*
X-549664841Y536444048D01*
X-549676664Y536435280D01*
X-549689290Y536427712D01*
X-549702597Y536421418D01*
X-549716457Y536416459D01*
X-549730736Y536412882D01*
X-549745297Y536410722D01*
X-549760000Y536410000D01*
X-550060000Y536410000D01*
X-550074703Y536410722D01*
X-550089264Y536412882D01*
X-550103543Y536416459D01*
X-550117403Y536421418D01*
X-550130710Y536427712D01*
X-550143336Y536435280D01*
X-550155159Y536444048D01*
X-550166066Y536453934D01*
X-550175952Y536464841D01*
X-550184720Y536476664D01*
X-550192288Y536489290D01*
X-550198582Y536502597D01*
X-550203541Y536516457D01*
X-550207118Y536530736D01*
X-550209278Y536545297D01*
X-550210000Y536560000D01*
X-550210000Y537860000D01*
X-550209278Y537874703D01*
X-550207118Y537889264D01*
X-550203541Y537903543D01*
X-550198582Y537917403D01*
X-550192288Y537930710D01*
X-550184720Y537943336D01*
X-550175952Y537955159D01*
X-550166066Y537966066D01*
X-550155159Y537975952D01*
X-550143336Y537984720D01*
X-550130710Y537992288D01*
X-550117403Y537998582D01*
X-550103543Y538003541D01*
X-550089264Y538007118D01*
X-550074703Y538009278D01*
X-550060000Y538010000D01*
X-549760000Y538010000D01*
X-549745297Y538009278D01*
G37*
G04 #@! TD.AperFunction*
G04 #@! TA.AperFunction,SMDPad,CuDef*
G36*
X-551015297Y538009278D02*
G01*
X-551000736Y538007118D01*
X-550986457Y538003541D01*
X-550972597Y537998582D01*
X-550959290Y537992288D01*
X-550946664Y537984720D01*
X-550934841Y537975952D01*
X-550923934Y537966066D01*
X-550914048Y537955159D01*
X-550905280Y537943336D01*
X-550897712Y537930710D01*
X-550891418Y537917403D01*
X-550886459Y537903543D01*
X-550882882Y537889264D01*
X-550880722Y537874703D01*
X-550880000Y537860000D01*
X-550880000Y536560000D01*
X-550880722Y536545297D01*
X-550882882Y536530736D01*
X-550886459Y536516457D01*
X-550891418Y536502597D01*
X-550897712Y536489290D01*
X-550905280Y536476664D01*
X-550914048Y536464841D01*
X-550923934Y536453934D01*
X-550934841Y536444048D01*
X-550946664Y536435280D01*
X-550959290Y536427712D01*
X-550972597Y536421418D01*
X-550986457Y536416459D01*
X-551000736Y536412882D01*
X-551015297Y536410722D01*
X-551030000Y536410000D01*
X-551330000Y536410000D01*
X-551344703Y536410722D01*
X-551359264Y536412882D01*
X-551373543Y536416459D01*
X-551387403Y536421418D01*
X-551400710Y536427712D01*
X-551413336Y536435280D01*
X-551425159Y536444048D01*
X-551436066Y536453934D01*
X-551445952Y536464841D01*
X-551454720Y536476664D01*
X-551462288Y536489290D01*
X-551468582Y536502597D01*
X-551473541Y536516457D01*
X-551477118Y536530736D01*
X-551479278Y536545297D01*
X-551480000Y536560000D01*
X-551480000Y537860000D01*
X-551479278Y537874703D01*
X-551477118Y537889264D01*
X-551473541Y537903543D01*
X-551468582Y537917403D01*
X-551462288Y537930710D01*
X-551454720Y537943336D01*
X-551445952Y537955159D01*
X-551436066Y537966066D01*
X-551425159Y537975952D01*
X-551413336Y537984720D01*
X-551400710Y537992288D01*
X-551387403Y537998582D01*
X-551373543Y538003541D01*
X-551359264Y538007118D01*
X-551344703Y538009278D01*
X-551330000Y538010000D01*
X-551030000Y538010000D01*
X-551015297Y538009278D01*
G37*
G04 #@! TD.AperFunction*
D11*
X-556895000Y542290000D03*
X-556895000Y539750000D03*
D12*
X-556895000Y537210000D03*
G04 #@! TA.AperFunction,SMDPad,CuDef*
D13*
G36*
X-546833221Y555717856D02*
G01*
X-546810166Y555714437D01*
X-546787557Y555708773D01*
X-546765613Y555700921D01*
X-546744543Y555690956D01*
X-546724552Y555678974D01*
X-546705832Y555665090D01*
X-546688562Y555649438D01*
X-546672910Y555632168D01*
X-546659026Y555613448D01*
X-546647044Y555593457D01*
X-546637079Y555572387D01*
X-546629227Y555550443D01*
X-546623563Y555527834D01*
X-546620144Y555504779D01*
X-546619000Y555481500D01*
X-546619000Y555006500D01*
X-546620144Y554983221D01*
X-546623563Y554960166D01*
X-546629227Y554937557D01*
X-546637079Y554915613D01*
X-546647044Y554894543D01*
X-546659026Y554874552D01*
X-546672910Y554855832D01*
X-546688562Y554838562D01*
X-546705832Y554822910D01*
X-546724552Y554809026D01*
X-546744543Y554797044D01*
X-546765613Y554787079D01*
X-546787557Y554779227D01*
X-546810166Y554773563D01*
X-546833221Y554770144D01*
X-546856500Y554769000D01*
X-547431500Y554769000D01*
X-547454779Y554770144D01*
X-547477834Y554773563D01*
X-547500443Y554779227D01*
X-547522387Y554787079D01*
X-547543457Y554797044D01*
X-547563448Y554809026D01*
X-547582168Y554822910D01*
X-547599438Y554838562D01*
X-547615090Y554855832D01*
X-547628974Y554874552D01*
X-547640956Y554894543D01*
X-547650921Y554915613D01*
X-547658773Y554937557D01*
X-547664437Y554960166D01*
X-547667856Y554983221D01*
X-547669000Y555006500D01*
X-547669000Y555481500D01*
X-547667856Y555504779D01*
X-547664437Y555527834D01*
X-547658773Y555550443D01*
X-547650921Y555572387D01*
X-547640956Y555593457D01*
X-547628974Y555613448D01*
X-547615090Y555632168D01*
X-547599438Y555649438D01*
X-547582168Y555665090D01*
X-547563448Y555678974D01*
X-547543457Y555690956D01*
X-547522387Y555700921D01*
X-547500443Y555708773D01*
X-547477834Y555714437D01*
X-547454779Y555717856D01*
X-547431500Y555719000D01*
X-546856500Y555719000D01*
X-546833221Y555717856D01*
G37*
G04 #@! TD.AperFunction*
G04 #@! TA.AperFunction,SMDPad,CuDef*
G36*
X-548583221Y555717856D02*
G01*
X-548560166Y555714437D01*
X-548537557Y555708773D01*
X-548515613Y555700921D01*
X-548494543Y555690956D01*
X-548474552Y555678974D01*
X-548455832Y555665090D01*
X-548438562Y555649438D01*
X-548422910Y555632168D01*
X-548409026Y555613448D01*
X-548397044Y555593457D01*
X-548387079Y555572387D01*
X-548379227Y555550443D01*
X-548373563Y555527834D01*
X-548370144Y555504779D01*
X-548369000Y555481500D01*
X-548369000Y555006500D01*
X-548370144Y554983221D01*
X-548373563Y554960166D01*
X-548379227Y554937557D01*
X-548387079Y554915613D01*
X-548397044Y554894543D01*
X-548409026Y554874552D01*
X-548422910Y554855832D01*
X-548438562Y554838562D01*
X-548455832Y554822910D01*
X-548474552Y554809026D01*
X-548494543Y554797044D01*
X-548515613Y554787079D01*
X-548537557Y554779227D01*
X-548560166Y554773563D01*
X-548583221Y554770144D01*
X-548606500Y554769000D01*
X-549181500Y554769000D01*
X-549204779Y554770144D01*
X-549227834Y554773563D01*
X-549250443Y554779227D01*
X-549272387Y554787079D01*
X-549293457Y554797044D01*
X-549313448Y554809026D01*
X-549332168Y554822910D01*
X-549349438Y554838562D01*
X-549365090Y554855832D01*
X-549378974Y554874552D01*
X-549390956Y554894543D01*
X-549400921Y554915613D01*
X-549408773Y554937557D01*
X-549414437Y554960166D01*
X-549417856Y554983221D01*
X-549419000Y555006500D01*
X-549419000Y555481500D01*
X-549417856Y555504779D01*
X-549414437Y555527834D01*
X-549408773Y555550443D01*
X-549400921Y555572387D01*
X-549390956Y555593457D01*
X-549378974Y555613448D01*
X-549365090Y555632168D01*
X-549349438Y555649438D01*
X-549332168Y555665090D01*
X-549313448Y555678974D01*
X-549293457Y555690956D01*
X-549272387Y555700921D01*
X-549250443Y555708773D01*
X-549227834Y555714437D01*
X-549204779Y555717856D01*
X-549181500Y555719000D01*
X-548606500Y555719000D01*
X-548583221Y555717856D01*
G37*
G04 #@! TD.AperFunction*
G04 #@! TA.AperFunction,SMDPad,CuDef*
G36*
X-552111221Y555717856D02*
G01*
X-552088166Y555714437D01*
X-552065557Y555708773D01*
X-552043613Y555700921D01*
X-552022543Y555690956D01*
X-552002552Y555678974D01*
X-551983832Y555665090D01*
X-551966562Y555649438D01*
X-551950910Y555632168D01*
X-551937026Y555613448D01*
X-551925044Y555593457D01*
X-551915079Y555572387D01*
X-551907227Y555550443D01*
X-551901563Y555527834D01*
X-551898144Y555504779D01*
X-551897000Y555481500D01*
X-551897000Y555006500D01*
X-551898144Y554983221D01*
X-551901563Y554960166D01*
X-551907227Y554937557D01*
X-551915079Y554915613D01*
X-551925044Y554894543D01*
X-551937026Y554874552D01*
X-551950910Y554855832D01*
X-551966562Y554838562D01*
X-551983832Y554822910D01*
X-552002552Y554809026D01*
X-552022543Y554797044D01*
X-552043613Y554787079D01*
X-552065557Y554779227D01*
X-552088166Y554773563D01*
X-552111221Y554770144D01*
X-552134500Y554769000D01*
X-552709500Y554769000D01*
X-552732779Y554770144D01*
X-552755834Y554773563D01*
X-552778443Y554779227D01*
X-552800387Y554787079D01*
X-552821457Y554797044D01*
X-552841448Y554809026D01*
X-552860168Y554822910D01*
X-552877438Y554838562D01*
X-552893090Y554855832D01*
X-552906974Y554874552D01*
X-552918956Y554894543D01*
X-552928921Y554915613D01*
X-552936773Y554937557D01*
X-552942437Y554960166D01*
X-552945856Y554983221D01*
X-552947000Y555006500D01*
X-552947000Y555481500D01*
X-552945856Y555504779D01*
X-552942437Y555527834D01*
X-552936773Y555550443D01*
X-552928921Y555572387D01*
X-552918956Y555593457D01*
X-552906974Y555613448D01*
X-552893090Y555632168D01*
X-552877438Y555649438D01*
X-552860168Y555665090D01*
X-552841448Y555678974D01*
X-552821457Y555690956D01*
X-552800387Y555700921D01*
X-552778443Y555708773D01*
X-552755834Y555714437D01*
X-552732779Y555717856D01*
X-552709500Y555719000D01*
X-552134500Y555719000D01*
X-552111221Y555717856D01*
G37*
G04 #@! TD.AperFunction*
G04 #@! TA.AperFunction,SMDPad,CuDef*
G36*
X-550361221Y555717856D02*
G01*
X-550338166Y555714437D01*
X-550315557Y555708773D01*
X-550293613Y555700921D01*
X-550272543Y555690956D01*
X-550252552Y555678974D01*
X-550233832Y555665090D01*
X-550216562Y555649438D01*
X-550200910Y555632168D01*
X-550187026Y555613448D01*
X-550175044Y555593457D01*
X-550165079Y555572387D01*
X-550157227Y555550443D01*
X-550151563Y555527834D01*
X-550148144Y555504779D01*
X-550147000Y555481500D01*
X-550147000Y555006500D01*
X-550148144Y554983221D01*
X-550151563Y554960166D01*
X-550157227Y554937557D01*
X-550165079Y554915613D01*
X-550175044Y554894543D01*
X-550187026Y554874552D01*
X-550200910Y554855832D01*
X-550216562Y554838562D01*
X-550233832Y554822910D01*
X-550252552Y554809026D01*
X-550272543Y554797044D01*
X-550293613Y554787079D01*
X-550315557Y554779227D01*
X-550338166Y554773563D01*
X-550361221Y554770144D01*
X-550384500Y554769000D01*
X-550959500Y554769000D01*
X-550982779Y554770144D01*
X-551005834Y554773563D01*
X-551028443Y554779227D01*
X-551050387Y554787079D01*
X-551071457Y554797044D01*
X-551091448Y554809026D01*
X-551110168Y554822910D01*
X-551127438Y554838562D01*
X-551143090Y554855832D01*
X-551156974Y554874552D01*
X-551168956Y554894543D01*
X-551178921Y554915613D01*
X-551186773Y554937557D01*
X-551192437Y554960166D01*
X-551195856Y554983221D01*
X-551197000Y555006500D01*
X-551197000Y555481500D01*
X-551195856Y555504779D01*
X-551192437Y555527834D01*
X-551186773Y555550443D01*
X-551178921Y555572387D01*
X-551168956Y555593457D01*
X-551156974Y555613448D01*
X-551143090Y555632168D01*
X-551127438Y555649438D01*
X-551110168Y555665090D01*
X-551091448Y555678974D01*
X-551071457Y555690956D01*
X-551050387Y555700921D01*
X-551028443Y555708773D01*
X-551005834Y555714437D01*
X-550982779Y555717856D01*
X-550959500Y555719000D01*
X-550384500Y555719000D01*
X-550361221Y555717856D01*
G37*
G04 #@! TD.AperFunction*
G04 #@! TA.AperFunction,SMDPad,CuDef*
G36*
X-546833221Y553558856D02*
G01*
X-546810166Y553555437D01*
X-546787557Y553549773D01*
X-546765613Y553541921D01*
X-546744543Y553531956D01*
X-546724552Y553519974D01*
X-546705832Y553506090D01*
X-546688562Y553490438D01*
X-546672910Y553473168D01*
X-546659026Y553454448D01*
X-546647044Y553434457D01*
X-546637079Y553413387D01*
X-546629227Y553391443D01*
X-546623563Y553368834D01*
X-546620144Y553345779D01*
X-546619000Y553322500D01*
X-546619000Y552847500D01*
X-546620144Y552824221D01*
X-546623563Y552801166D01*
X-546629227Y552778557D01*
X-546637079Y552756613D01*
X-546647044Y552735543D01*
X-546659026Y552715552D01*
X-546672910Y552696832D01*
X-546688562Y552679562D01*
X-546705832Y552663910D01*
X-546724552Y552650026D01*
X-546744543Y552638044D01*
X-546765613Y552628079D01*
X-546787557Y552620227D01*
X-546810166Y552614563D01*
X-546833221Y552611144D01*
X-546856500Y552610000D01*
X-547431500Y552610000D01*
X-547454779Y552611144D01*
X-547477834Y552614563D01*
X-547500443Y552620227D01*
X-547522387Y552628079D01*
X-547543457Y552638044D01*
X-547563448Y552650026D01*
X-547582168Y552663910D01*
X-547599438Y552679562D01*
X-547615090Y552696832D01*
X-547628974Y552715552D01*
X-547640956Y552735543D01*
X-547650921Y552756613D01*
X-547658773Y552778557D01*
X-547664437Y552801166D01*
X-547667856Y552824221D01*
X-547669000Y552847500D01*
X-547669000Y553322500D01*
X-547667856Y553345779D01*
X-547664437Y553368834D01*
X-547658773Y553391443D01*
X-547650921Y553413387D01*
X-547640956Y553434457D01*
X-547628974Y553454448D01*
X-547615090Y553473168D01*
X-547599438Y553490438D01*
X-547582168Y553506090D01*
X-547563448Y553519974D01*
X-547543457Y553531956D01*
X-547522387Y553541921D01*
X-547500443Y553549773D01*
X-547477834Y553555437D01*
X-547454779Y553558856D01*
X-547431500Y553560000D01*
X-546856500Y553560000D01*
X-546833221Y553558856D01*
G37*
G04 #@! TD.AperFunction*
G04 #@! TA.AperFunction,SMDPad,CuDef*
G36*
X-548583221Y553558856D02*
G01*
X-548560166Y553555437D01*
X-548537557Y553549773D01*
X-548515613Y553541921D01*
X-548494543Y553531956D01*
X-548474552Y553519974D01*
X-548455832Y553506090D01*
X-548438562Y553490438D01*
X-548422910Y553473168D01*
X-548409026Y553454448D01*
X-548397044Y553434457D01*
X-548387079Y553413387D01*
X-548379227Y553391443D01*
X-548373563Y553368834D01*
X-548370144Y553345779D01*
X-548369000Y553322500D01*
X-548369000Y552847500D01*
X-548370144Y552824221D01*
X-548373563Y552801166D01*
X-548379227Y552778557D01*
X-548387079Y552756613D01*
X-548397044Y552735543D01*
X-548409026Y552715552D01*
X-548422910Y552696832D01*
X-548438562Y552679562D01*
X-548455832Y552663910D01*
X-548474552Y552650026D01*
X-548494543Y552638044D01*
X-548515613Y552628079D01*
X-548537557Y552620227D01*
X-548560166Y552614563D01*
X-548583221Y552611144D01*
X-548606500Y552610000D01*
X-549181500Y552610000D01*
X-549204779Y552611144D01*
X-549227834Y552614563D01*
X-549250443Y552620227D01*
X-549272387Y552628079D01*
X-549293457Y552638044D01*
X-549313448Y552650026D01*
X-549332168Y552663910D01*
X-549349438Y552679562D01*
X-549365090Y552696832D01*
X-549378974Y552715552D01*
X-549390956Y552735543D01*
X-549400921Y552756613D01*
X-549408773Y552778557D01*
X-549414437Y552801166D01*
X-549417856Y552824221D01*
X-549419000Y552847500D01*
X-549419000Y553322500D01*
X-549417856Y553345779D01*
X-549414437Y553368834D01*
X-549408773Y553391443D01*
X-549400921Y553413387D01*
X-549390956Y553434457D01*
X-549378974Y553454448D01*
X-549365090Y553473168D01*
X-549349438Y553490438D01*
X-549332168Y553506090D01*
X-549313448Y553519974D01*
X-549293457Y553531956D01*
X-549272387Y553541921D01*
X-549250443Y553549773D01*
X-549227834Y553555437D01*
X-549204779Y553558856D01*
X-549181500Y553560000D01*
X-548606500Y553560000D01*
X-548583221Y553558856D01*
G37*
G04 #@! TD.AperFunction*
G04 #@! TA.AperFunction,SMDPad,CuDef*
G36*
X-552139221Y551653856D02*
G01*
X-552116166Y551650437D01*
X-552093557Y551644773D01*
X-552071613Y551636921D01*
X-552050543Y551626956D01*
X-552030552Y551614974D01*
X-552011832Y551601090D01*
X-551994562Y551585438D01*
X-551978910Y551568168D01*
X-551965026Y551549448D01*
X-551953044Y551529457D01*
X-551943079Y551508387D01*
X-551935227Y551486443D01*
X-551929563Y551463834D01*
X-551926144Y551440779D01*
X-551925000Y551417500D01*
X-551925000Y550942500D01*
X-551926144Y550919221D01*
X-551929563Y550896166D01*
X-551935227Y550873557D01*
X-551943079Y550851613D01*
X-551953044Y550830543D01*
X-551965026Y550810552D01*
X-551978910Y550791832D01*
X-551994562Y550774562D01*
X-552011832Y550758910D01*
X-552030552Y550745026D01*
X-552050543Y550733044D01*
X-552071613Y550723079D01*
X-552093557Y550715227D01*
X-552116166Y550709563D01*
X-552139221Y550706144D01*
X-552162500Y550705000D01*
X-552737500Y550705000D01*
X-552760779Y550706144D01*
X-552783834Y550709563D01*
X-552806443Y550715227D01*
X-552828387Y550723079D01*
X-552849457Y550733044D01*
X-552869448Y550745026D01*
X-552888168Y550758910D01*
X-552905438Y550774562D01*
X-552921090Y550791832D01*
X-552934974Y550810552D01*
X-552946956Y550830543D01*
X-552956921Y550851613D01*
X-552964773Y550873557D01*
X-552970437Y550896166D01*
X-552973856Y550919221D01*
X-552975000Y550942500D01*
X-552975000Y551417500D01*
X-552973856Y551440779D01*
X-552970437Y551463834D01*
X-552964773Y551486443D01*
X-552956921Y551508387D01*
X-552946956Y551529457D01*
X-552934974Y551549448D01*
X-552921090Y551568168D01*
X-552905438Y551585438D01*
X-552888168Y551601090D01*
X-552869448Y551614974D01*
X-552849457Y551626956D01*
X-552828387Y551636921D01*
X-552806443Y551644773D01*
X-552783834Y551650437D01*
X-552760779Y551653856D01*
X-552737500Y551655000D01*
X-552162500Y551655000D01*
X-552139221Y551653856D01*
G37*
G04 #@! TD.AperFunction*
G04 #@! TA.AperFunction,SMDPad,CuDef*
G36*
X-550389221Y551653856D02*
G01*
X-550366166Y551650437D01*
X-550343557Y551644773D01*
X-550321613Y551636921D01*
X-550300543Y551626956D01*
X-550280552Y551614974D01*
X-550261832Y551601090D01*
X-550244562Y551585438D01*
X-550228910Y551568168D01*
X-550215026Y551549448D01*
X-550203044Y551529457D01*
X-550193079Y551508387D01*
X-550185227Y551486443D01*
X-550179563Y551463834D01*
X-550176144Y551440779D01*
X-550175000Y551417500D01*
X-550175000Y550942500D01*
X-550176144Y550919221D01*
X-550179563Y550896166D01*
X-550185227Y550873557D01*
X-550193079Y550851613D01*
X-550203044Y550830543D01*
X-550215026Y550810552D01*
X-550228910Y550791832D01*
X-550244562Y550774562D01*
X-550261832Y550758910D01*
X-550280552Y550745026D01*
X-550300543Y550733044D01*
X-550321613Y550723079D01*
X-550343557Y550715227D01*
X-550366166Y550709563D01*
X-550389221Y550706144D01*
X-550412500Y550705000D01*
X-550987500Y550705000D01*
X-551010779Y550706144D01*
X-551033834Y550709563D01*
X-551056443Y550715227D01*
X-551078387Y550723079D01*
X-551099457Y550733044D01*
X-551119448Y550745026D01*
X-551138168Y550758910D01*
X-551155438Y550774562D01*
X-551171090Y550791832D01*
X-551184974Y550810552D01*
X-551196956Y550830543D01*
X-551206921Y550851613D01*
X-551214773Y550873557D01*
X-551220437Y550896166D01*
X-551223856Y550919221D01*
X-551225000Y550942500D01*
X-551225000Y551417500D01*
X-551223856Y551440779D01*
X-551220437Y551463834D01*
X-551214773Y551486443D01*
X-551206921Y551508387D01*
X-551196956Y551529457D01*
X-551184974Y551549448D01*
X-551171090Y551568168D01*
X-551155438Y551585438D01*
X-551138168Y551601090D01*
X-551119448Y551614974D01*
X-551099457Y551626956D01*
X-551078387Y551636921D01*
X-551056443Y551644773D01*
X-551033834Y551650437D01*
X-551010779Y551653856D01*
X-550987500Y551655000D01*
X-550412500Y551655000D01*
X-550389221Y551653856D01*
G37*
G04 #@! TD.AperFunction*
D14*
X-556133000Y563753000D03*
X-557022000Y561467000D03*
D15*
X-545973000Y543306000D03*
X-549148000Y546354000D03*
X-551561000Y538988000D03*
X-550799000Y539877000D03*
X-535175012Y559436958D03*
X-536003490Y559309587D03*
X-536600330Y547641962D03*
X-535619725Y548315357D03*
X-531771030Y567770111D03*
X-535686000Y546227000D03*
X-540475508Y555034632D03*
X-533908000Y542798000D03*
X-542544000Y554482000D03*
X-536067000Y557022000D03*
X-545273601Y557338601D03*
X-537427181Y548168809D03*
D16*
X-545465000Y539115000D02*
X-545465000Y539750000D01*
X-547370000Y537210000D02*
X-545465000Y539115000D01*
X-556895000Y536055200D02*
X-556895000Y537210000D01*
X-555890800Y535051000D02*
X-556895000Y536055200D01*
X-547370000Y535051000D02*
X-555890800Y535051000D01*
X-547370000Y537210000D02*
X-547370000Y535051000D01*
X-539115000Y535051000D02*
X-547370000Y535051000D01*
X-556895000Y572135000D02*
X-556260000Y572770000D01*
X-556895000Y569595000D02*
X-556895000Y572135000D01*
X-548064190Y550808246D02*
X-548064190Y552780190D01*
X-547656134Y550400190D02*
X-548064190Y550808246D01*
X-548369000Y553085000D02*
X-548894000Y553085000D01*
X-540672627Y550400190D02*
X-547656134Y550400190D01*
X-548064190Y552780190D02*
X-548369000Y553085000D01*
X-543040199Y573924801D02*
X-542504999Y574460001D01*
X-542504999Y574460001D02*
X-541655000Y575310000D01*
X-542809801Y576464801D02*
X-542809801Y578404305D01*
X-541655000Y575310000D02*
X-542809801Y576464801D01*
X-547243000Y573913000D02*
X-543040199Y573924801D01*
X-547243000Y572262000D02*
X-547243000Y573913000D01*
X-547485199Y574155199D02*
X-547243000Y573913000D01*
X-554874801Y574155199D02*
X-547485199Y574155199D01*
X-556260000Y572770000D02*
X-554874801Y574155199D01*
X-554874801Y581544801D02*
X-556260000Y582930000D01*
X-554874801Y574155199D02*
X-554874801Y581544801D01*
X-540500199Y572277401D02*
X-541655000Y571122600D01*
X-541655000Y571122600D02*
X-541655000Y570230000D01*
X-540500199Y574155199D02*
X-540500199Y572277401D01*
X-541655000Y575310000D02*
X-540500199Y574155199D01*
X-550225000Y553085000D02*
X-548894000Y553085000D01*
X-556895000Y549275000D02*
X-553063056Y549275000D01*
X-553063056Y549275000D02*
X-551620190Y550717866D01*
X-551620190Y550717866D02*
X-551620190Y551689810D01*
X-551620190Y551689810D02*
X-550225000Y553085000D01*
X-545940000Y541500000D02*
X-545465000Y541500000D01*
X-548640000Y538800000D02*
X-545940000Y541500000D01*
X-548640000Y537210000D02*
X-548640000Y538800000D01*
X-549910000Y543610000D02*
X-549910000Y544410000D01*
X-547800000Y541500000D02*
X-549910000Y543610000D01*
X-545465000Y541500000D02*
X-547800000Y541500000D01*
X-549910000Y544410000D02*
X-551180000Y544410000D01*
X-556045001Y538900001D02*
X-556895000Y539750000D01*
X-553250190Y536105190D02*
X-556045001Y538900001D01*
X-548944810Y536105190D02*
X-553250190Y536105190D01*
X-548640000Y536410000D02*
X-548944810Y536105190D01*
X-548640000Y537210000D02*
X-548640000Y536410000D01*
X-546658799Y564438799D02*
X-546314999Y564094999D01*
X-555447201Y564438799D02*
X-546658799Y564438799D01*
X-546314999Y564094999D02*
X-545465000Y563245000D01*
X-556133000Y563753000D02*
X-555447201Y564438799D01*
X-551180000Y544410000D02*
X-550700000Y544890000D01*
X-550700000Y544890000D02*
X-550700000Y550705000D01*
X-550700000Y550705000D02*
X-550700000Y551180000D01*
X-544968000Y572262000D02*
X-545493000Y572262000D01*
X-544195000Y571489000D02*
X-544968000Y572262000D01*
X-544195000Y569595000D02*
X-544195000Y571489000D01*
X-542504999Y566840001D02*
X-541655000Y567690000D01*
X-544079801Y565265199D02*
X-542504999Y566840001D01*
X-557707799Y563956201D02*
X-556398801Y565265199D01*
X-557707799Y562152799D02*
X-557707799Y563956201D01*
X-556398801Y565265199D02*
X-544079801Y565265199D01*
X-557022000Y561467000D02*
X-557707799Y562152799D01*
D17*
X-539242000Y571373000D02*
X-539115000Y571500000D01*
X-546266000Y543306000D02*
X-545973000Y543306000D01*
X-547370000Y544410000D02*
X-546266000Y543306000D01*
X-552450000Y551180000D02*
X-552450000Y553085000D01*
X-550672000Y554769000D02*
X-550672000Y555244000D01*
X-550672000Y554338000D02*
X-550672000Y554769000D01*
X-551925000Y553085000D02*
X-550672000Y554338000D01*
X-552450000Y553085000D02*
X-551925000Y553085000D01*
X-550443390Y555947610D02*
X-550672000Y555719000D01*
X-548640000Y545846000D02*
X-549148000Y546354000D01*
X-548640000Y544410000D02*
X-548640000Y545846000D01*
X-551180000Y538607000D02*
X-551561000Y538988000D01*
X-551180000Y537210000D02*
X-551180000Y538607000D01*
X-550438610Y539516610D02*
X-550799000Y539877000D01*
X-550438610Y537738610D02*
X-550438610Y539516610D01*
X-549910000Y537210000D02*
X-550438610Y537738610D01*
X-554355000Y558432600D02*
X-554355000Y559435000D01*
X-552947000Y555244000D02*
X-554355000Y556652000D01*
X-554355000Y556652000D02*
X-554355000Y558432600D01*
X-552422000Y555244000D02*
X-552947000Y555244000D01*
D18*
X-542925000Y562242600D02*
X-542925000Y563245000D01*
X-556895000Y546735000D02*
X-558419000Y548259000D01*
X-558419000Y548259000D02*
X-558419000Y557911000D01*
X-555103400Y561226600D02*
X-543941000Y561226600D01*
X-558419000Y557911000D02*
X-555103400Y561226600D01*
X-543941000Y561226600D02*
X-542925000Y562242600D01*
D17*
X-548894000Y554769000D02*
X-548894000Y555244000D01*
X-548894000Y554310000D02*
X-548894000Y554769000D01*
X-547669000Y553085000D02*
X-548894000Y554310000D01*
X-547144000Y553085000D02*
X-547669000Y553085000D01*
D16*
X-527685000Y582295000D02*
X-530225000Y582295000D01*
X-537210000Y582295000D02*
X-539115000Y580390000D01*
X-530225000Y582295000D02*
X-537210000Y582295000D01*
X-539664999Y578399999D02*
X-539115000Y577850000D01*
X-539969801Y579535199D02*
X-539969801Y578704801D01*
X-539969801Y578704801D02*
X-539664999Y578399999D01*
X-539115000Y580390000D02*
X-539969801Y579535199D01*
X-539664999Y575859999D02*
X-539115000Y575310000D01*
X-539969801Y576164801D02*
X-539664999Y575859999D01*
X-539969801Y576995199D02*
X-539969801Y576164801D01*
X-539115000Y577850000D02*
X-539969801Y576995199D01*
X-539969801Y569814801D02*
X-539664999Y569509999D01*
X-539969801Y574455199D02*
X-539969801Y569814801D01*
X-539664999Y569509999D02*
X-539115000Y568960000D01*
X-539115000Y575310000D02*
X-539969801Y574455199D01*
X-540200199Y574455199D02*
X-540500199Y574155199D01*
X-539969801Y574455199D02*
X-540200199Y574455199D01*
X-533400000Y551180000D02*
X-530225000Y554355000D01*
X-537845000Y551180000D02*
X-533400000Y551180000D01*
X-537845000Y551180000D02*
X-539115000Y551180000D01*
X-540442816Y550630001D02*
X-540672627Y550400190D01*
X-539664999Y550630001D02*
X-540442816Y550630001D01*
X-539115000Y551180000D02*
X-539664999Y550630001D01*
X-539115000Y546100000D02*
X-539115000Y551180000D01*
X-539115000Y546100000D02*
X-537845000Y544830000D01*
X-537845000Y544830000D02*
X-539115000Y543560000D01*
X-539115000Y543560000D02*
X-537845000Y542290000D01*
X-537845000Y542290000D02*
X-537845000Y541020000D01*
X-537845000Y541020000D02*
X-539115000Y541020000D01*
X-529070199Y555509801D02*
X-527292199Y555509801D01*
X-530225000Y554355000D02*
X-529070199Y555509801D01*
X-526530199Y556271801D02*
X-526530199Y581140199D01*
X-526835001Y581445001D02*
X-527685000Y582295000D01*
X-526530199Y581140199D02*
X-526835001Y581445001D01*
X-527292199Y555509801D02*
X-526530199Y556271801D01*
X-539115000Y541020000D02*
X-539115000Y535051000D01*
X-539115000Y535051000D02*
X-526288000Y535051000D01*
X-527130695Y555509801D02*
X-529070199Y555509801D01*
X-526288000Y554667106D02*
X-527130695Y555509801D01*
X-526288000Y535051000D02*
X-526288000Y554667106D01*
D17*
X-537067183Y561340000D02*
X-535175012Y559447829D01*
X-537845000Y561340000D02*
X-537067183Y561340000D01*
X-535175012Y559447829D02*
X-535175012Y559436958D01*
X-537084587Y559309587D02*
X-536003490Y559309587D01*
X-539115000Y561340000D02*
X-537084587Y559309587D01*
X-535894046Y548886858D02*
X-536600330Y548180574D01*
X-527685000Y549275000D02*
X-528763601Y548196399D01*
X-531433188Y548886858D02*
X-535894046Y548886858D01*
X-536600330Y548126895D02*
X-536600330Y547641962D01*
X-536600330Y548180574D02*
X-536600330Y548126895D01*
X-528763601Y548196399D02*
X-530742729Y548196399D01*
X-530742729Y548196399D02*
X-531433188Y548886858D01*
X-527685000Y546735000D02*
X-528841588Y547891588D01*
X-528841588Y547891588D02*
X-535195956Y547891588D01*
X-535195956Y547891588D02*
X-535276826Y547972458D01*
X-535276826Y547972458D02*
X-535619725Y548315357D01*
X-527685000Y569595000D02*
X-528763601Y568516399D01*
X-531428131Y568113010D02*
X-531771030Y567770111D01*
X-531024742Y568516399D02*
X-531428131Y568113010D01*
X-528763601Y568516399D02*
X-531024742Y568516399D01*
X-528763601Y545273601D02*
X-534732601Y545273601D01*
X-534732601Y545273601D02*
X-535686000Y546227000D01*
X-527685000Y544195000D02*
X-528763601Y545273601D01*
X-540430876Y554990000D02*
X-540475508Y555034632D01*
X-539115000Y554990000D02*
X-540430876Y554990000D01*
X-528828000Y542798000D02*
X-527685000Y541655000D01*
X-528828000Y542798000D02*
X-533908000Y542798000D01*
X-540512000Y552450000D02*
X-542544000Y554482000D01*
X-539115000Y552450000D02*
X-540512000Y552450000D01*
X-537337000Y557022000D02*
X-537845000Y557530000D01*
X-536067000Y557022000D02*
X-537337000Y557022000D01*
X-550672000Y555719000D02*
X-550672000Y555244000D01*
X-549395298Y556995702D02*
X-550672000Y555719000D01*
X-545616500Y556995702D02*
X-549395298Y556995702D01*
X-545273601Y557338601D02*
X-545616500Y556995702D01*
X-537845000Y569452183D02*
X-537845000Y570230000D01*
X-537845000Y569077670D02*
X-537845000Y569452183D01*
X-538788171Y568134499D02*
X-537845000Y569077670D01*
X-539643321Y568134499D02*
X-538788171Y568134499D01*
X-540277423Y568768601D02*
X-539643321Y568134499D01*
X-543162119Y568516399D02*
X-542909917Y568768601D01*
X-542909917Y568768601D02*
X-540277423Y568768601D01*
X-550736399Y568516399D02*
X-543162119Y568516399D01*
X-551815000Y569595000D02*
X-550736399Y568516399D01*
X-546619000Y553085000D02*
X-547144000Y553085000D01*
X-540576399Y558917271D02*
X-546408670Y553085000D01*
X-538844399Y567198601D02*
X-540576399Y565466601D01*
X-546408670Y553085000D02*
X-546619000Y553085000D01*
X-540576399Y565466601D02*
X-540576399Y558917271D01*
X-531570682Y567198601D02*
X-538844399Y567198601D01*
X-531427081Y567055000D02*
X-531570682Y567198601D01*
X-530225000Y567055000D02*
X-531427081Y567055000D01*
X-545846000Y555244000D02*
X-541655000Y559435000D01*
X-547144000Y555244000D02*
X-545846000Y555244000D01*
X-530225000Y549275000D02*
X-536320990Y549275000D01*
X-536320990Y549275000D02*
X-537427181Y548168809D01*
D19*
G36*
X-556768000Y537337000D02*
G01*
X-556748000Y537337000D01*
X-556748000Y537083000D01*
X-556768000Y537083000D01*
X-556768000Y535883750D01*
X-556609250Y535725000D01*
X-556045000Y535721928D01*
X-555920518Y535734188D01*
X-555800820Y535770498D01*
X-555690506Y535829463D01*
X-555593815Y535908815D01*
X-555514463Y536005506D01*
X-555455498Y536115820D01*
X-555419188Y536235518D01*
X-555406928Y536360000D01*
X-555410000Y536924250D01*
X-555568748Y537082998D01*
X-555410000Y537082998D01*
X-555410000Y537151449D01*
X-553834309Y535575757D01*
X-553809659Y535545721D01*
X-553779623Y535521071D01*
X-553779620Y535521068D01*
X-553730577Y535480820D01*
X-553689762Y535447324D01*
X-553552973Y535374208D01*
X-553489652Y535355000D01*
X-558115000Y535355000D01*
X-558115000Y535842188D01*
X-558099494Y535829463D01*
X-557989180Y535770498D01*
X-557869482Y535734188D01*
X-557745000Y535721928D01*
X-557180750Y535725000D01*
X-557022000Y535883750D01*
X-557022000Y537083000D01*
X-557042000Y537083000D01*
X-557042000Y537337000D01*
X-557022000Y537337000D01*
X-557022000Y537357000D01*
X-556768000Y537357000D01*
X-556768000Y537337000D01*
G37*
X-556768000Y537337000D02*
X-556748000Y537337000D01*
X-556748000Y537083000D01*
X-556768000Y537083000D01*
X-556768000Y535883750D01*
X-556609250Y535725000D01*
X-556045000Y535721928D01*
X-555920518Y535734188D01*
X-555800820Y535770498D01*
X-555690506Y535829463D01*
X-555593815Y535908815D01*
X-555514463Y536005506D01*
X-555455498Y536115820D01*
X-555419188Y536235518D01*
X-555406928Y536360000D01*
X-555410000Y536924250D01*
X-555568748Y537082998D01*
X-555410000Y537082998D01*
X-555410000Y537151449D01*
X-553834309Y535575757D01*
X-553809659Y535545721D01*
X-553779623Y535521071D01*
X-553779620Y535521068D01*
X-553730577Y535480820D01*
X-553689762Y535447324D01*
X-553552973Y535374208D01*
X-553489652Y535355000D01*
X-558115000Y535355000D01*
X-558115000Y535842188D01*
X-558099494Y535829463D01*
X-557989180Y535770498D01*
X-557869482Y535734188D01*
X-557745000Y535721928D01*
X-557180750Y535725000D01*
X-557022000Y535883750D01*
X-557022000Y537083000D01*
X-557042000Y537083000D01*
X-557042000Y537337000D01*
X-557022000Y537337000D01*
X-557022000Y537357000D01*
X-556768000Y537357000D01*
X-556768000Y537337000D01*
G36*
X-531824114Y566460798D02*
G01*
X-531700562Y566394758D01*
X-531566501Y566354091D01*
X-531540982Y566351578D01*
X-531378475Y566108368D01*
X-531171632Y565901525D01*
X-530997240Y565785000D01*
X-531171632Y565668475D01*
X-531378475Y565461632D01*
X-531540990Y565218411D01*
X-531652932Y564948158D01*
X-531710000Y564661260D01*
X-531710000Y564368740D01*
X-531652932Y564081842D01*
X-531540990Y563811589D01*
X-531378475Y563568368D01*
X-531171632Y563361525D01*
X-530997240Y563245000D01*
X-531171632Y563128475D01*
X-531378475Y562921632D01*
X-531540990Y562678411D01*
X-531652932Y562408158D01*
X-531710000Y562121260D01*
X-531710000Y561828740D01*
X-531652932Y561541842D01*
X-531540990Y561271589D01*
X-531378475Y561028368D01*
X-531171632Y560821525D01*
X-530997240Y560705000D01*
X-531171632Y560588475D01*
X-531378475Y560381632D01*
X-531540990Y560138411D01*
X-531652932Y559868158D01*
X-531710000Y559581260D01*
X-531710000Y559288740D01*
X-531652932Y559001842D01*
X-531540990Y558731589D01*
X-531378475Y558488368D01*
X-531171632Y558281525D01*
X-530997240Y558165000D01*
X-531171632Y558048475D01*
X-531378475Y557841632D01*
X-531540990Y557598411D01*
X-531652932Y557328158D01*
X-531710000Y557041260D01*
X-531710000Y556748740D01*
X-531652932Y556461842D01*
X-531540990Y556191589D01*
X-531378475Y555948368D01*
X-531171632Y555741525D01*
X-530989466Y555619805D01*
X-531106355Y555550178D01*
X-531322588Y555355269D01*
X-531496641Y555121920D01*
X-531621825Y554859099D01*
X-531666476Y554711890D01*
X-531545155Y554482000D01*
X-530352000Y554482000D01*
X-530352000Y554502000D01*
X-530098000Y554502000D01*
X-530098000Y554482000D01*
X-530078000Y554482000D01*
X-530078000Y554228000D01*
X-530098000Y554228000D01*
X-530098000Y554208000D01*
X-530352000Y554208000D01*
X-530352000Y554228000D01*
X-531545155Y554228000D01*
X-531666476Y553998110D01*
X-531621825Y553850901D01*
X-531496641Y553588080D01*
X-531322588Y553354731D01*
X-531106355Y553159822D01*
X-530989466Y553090195D01*
X-531171632Y552968475D01*
X-531378475Y552761632D01*
X-531540990Y552518411D01*
X-531652932Y552248158D01*
X-531710000Y551961260D01*
X-531710000Y551668740D01*
X-531652932Y551381842D01*
X-531540990Y551111589D01*
X-531378475Y550868368D01*
X-531171632Y550661525D01*
X-530997240Y550545000D01*
X-531171632Y550428475D01*
X-531378475Y550221632D01*
X-531535786Y549986200D01*
X-536286065Y549986200D01*
X-536320991Y549989640D01*
X-536355917Y549986200D01*
X-536355926Y549986200D01*
X-536460410Y549975909D01*
X-536594471Y549935242D01*
X-536718023Y549869202D01*
X-536799182Y549802597D01*
X-536799186Y549802593D01*
X-536826317Y549780327D01*
X-536848583Y549753196D01*
X-537455069Y549146709D01*
X-537523496Y549146709D01*
X-537712424Y549109129D01*
X-537890391Y549035413D01*
X-538050556Y548928394D01*
X-538186766Y548792184D01*
X-538293785Y548632019D01*
X-538367501Y548454052D01*
X-538405081Y548265124D01*
X-538405081Y548072494D01*
X-538367501Y547883566D01*
X-538293785Y547705599D01*
X-538186766Y547545434D01*
X-538050556Y547409224D01*
X-537890391Y547302205D01*
X-537712424Y547228489D01*
X-537523496Y547190909D01*
X-537471970Y547190909D01*
X-537466934Y547178752D01*
X-537359915Y547018587D01*
X-537223705Y546882377D01*
X-537063540Y546775358D01*
X-536885573Y546701642D01*
X-536696645Y546664062D01*
X-536563435Y546664062D01*
X-536626320Y546512243D01*
X-536663900Y546323315D01*
X-536663900Y546130685D01*
X-536626320Y545941757D01*
X-536552604Y545763790D01*
X-536445585Y545603625D01*
X-536309375Y545467415D01*
X-536149210Y545360396D01*
X-535971243Y545286680D01*
X-535782315Y545249100D01*
X-535713887Y545249100D01*
X-535260198Y544795411D01*
X-535237928Y544768274D01*
X-535134923Y544683740D01*
X-535129634Y544679399D01*
X-535006083Y544613359D01*
X-534872021Y544572692D01*
X-534767537Y544562401D01*
X-534767530Y544562401D01*
X-534732601Y544558961D01*
X-534697673Y544562401D01*
X-531666012Y544562401D01*
X-531710000Y544341260D01*
X-531710000Y544048740D01*
X-531652932Y543761842D01*
X-531548285Y543509200D01*
X-533236240Y543509200D01*
X-533284625Y543557585D01*
X-533444790Y543664604D01*
X-533622757Y543738320D01*
X-533811685Y543775900D01*
X-534004315Y543775900D01*
X-534193243Y543738320D01*
X-534371210Y543664604D01*
X-534531375Y543557585D01*
X-534667585Y543421375D01*
X-534774604Y543261210D01*
X-534848320Y543083243D01*
X-534885900Y542894315D01*
X-534885900Y542701685D01*
X-534848320Y542512757D01*
X-534774604Y542334790D01*
X-534667585Y542174625D01*
X-534531375Y542038415D01*
X-534371210Y541931396D01*
X-534193243Y541857680D01*
X-534004315Y541820100D01*
X-533811685Y541820100D01*
X-533622757Y541857680D01*
X-533444790Y541931396D01*
X-533284625Y542038415D01*
X-533236240Y542086800D01*
X-531653202Y542086800D01*
X-531710000Y541801260D01*
X-531710000Y541508740D01*
X-531652932Y541221842D01*
X-531540990Y540951589D01*
X-531378475Y540708368D01*
X-531171632Y540501525D01*
X-530997240Y540385000D01*
X-531171632Y540268475D01*
X-531378475Y540061632D01*
X-531540990Y539818411D01*
X-531652932Y539548158D01*
X-531710000Y539261260D01*
X-531710000Y538968740D01*
X-531652932Y538681842D01*
X-531540990Y538411589D01*
X-531378475Y538168368D01*
X-531171632Y537961525D01*
X-530997240Y537845000D01*
X-531171632Y537728475D01*
X-531378475Y537521632D01*
X-531540990Y537278411D01*
X-531652932Y537008158D01*
X-531710000Y536721260D01*
X-531710000Y536428740D01*
X-531652932Y536141842D01*
X-531540990Y535871589D01*
X-531378475Y535628368D01*
X-531171632Y535421525D01*
X-531072070Y535355000D01*
X-548705348Y535355000D01*
X-548642027Y535374208D01*
X-548505238Y535447324D01*
X-548385341Y535545721D01*
X-548360683Y535575767D01*
X-548110573Y535825876D01*
X-548080531Y535850531D01*
X-548043791Y535895299D01*
X-548024494Y535879463D01*
X-547914180Y535820498D01*
X-547794482Y535784188D01*
X-547670000Y535771928D01*
X-547655750Y535775000D01*
X-547497000Y535933750D01*
X-547497000Y537083000D01*
X-547243000Y537083000D01*
X-547243000Y535933750D01*
X-547084250Y535775000D01*
X-547070000Y535771928D01*
X-546945518Y535784188D01*
X-546825820Y535820498D01*
X-546715506Y535879463D01*
X-546618815Y535958815D01*
X-546539463Y536055506D01*
X-546480498Y536165820D01*
X-546444188Y536285518D01*
X-546431928Y536410000D01*
X-546435000Y536924250D01*
X-546593750Y537083000D01*
X-547243000Y537083000D01*
X-547497000Y537083000D01*
X-547517000Y537083000D01*
X-547517000Y537337000D01*
X-547497000Y537337000D01*
X-547497000Y538486250D01*
X-547243000Y538486250D01*
X-547243000Y537337000D01*
X-546593750Y537337000D01*
X-546435000Y537495750D01*
X-546431928Y538010000D01*
X-546444188Y538134482D01*
X-546480498Y538254180D01*
X-546539463Y538364494D01*
X-546618815Y538461185D01*
X-546715506Y538540537D01*
X-546825820Y538599502D01*
X-546945518Y538635812D01*
X-547070000Y538648072D01*
X-547084250Y538645000D01*
X-547243000Y538486250D01*
X-547497000Y538486250D01*
X-547655750Y538645000D01*
X-547670000Y538648072D01*
X-547679293Y538647157D01*
X-547101450Y539225000D01*
X-546578072Y539225000D01*
X-546565812Y539100518D01*
X-546529502Y538980820D01*
X-546470537Y538870506D01*
X-546391185Y538773815D01*
X-546294494Y538694463D01*
X-546184180Y538635498D01*
X-546064482Y538599188D01*
X-545940000Y538586928D01*
X-545750750Y538590000D01*
X-545592000Y538748750D01*
X-545592000Y539623000D01*
X-545338000Y539623000D01*
X-545338000Y538748750D01*
X-545179250Y538590000D01*
X-544990000Y538586928D01*
X-544865518Y538599188D01*
X-544745820Y538635498D01*
X-544635506Y538694463D01*
X-544538815Y538773815D01*
X-544459463Y538870506D01*
X-544400498Y538980820D01*
X-544364188Y539100518D01*
X-544351928Y539225000D01*
X-544355000Y539464250D01*
X-544513750Y539623000D01*
X-545338000Y539623000D01*
X-545592000Y539623000D01*
X-546416250Y539623000D01*
X-546575000Y539464250D01*
X-546578072Y539225000D01*
X-547101450Y539225000D01*
X-546432849Y539893599D01*
X-546416250Y539877000D01*
X-545592000Y539877000D01*
X-545592000Y539897000D01*
X-545338000Y539897000D01*
X-545338000Y539877000D01*
X-544513750Y539877000D01*
X-544355000Y540035750D01*
X-544351928Y540275000D01*
X-544364188Y540399482D01*
X-544400498Y540519180D01*
X-544459463Y540629494D01*
X-544519099Y540702161D01*
X-544512456Y540710256D01*
X-540258803Y540710256D01*
X-540238127Y540642077D01*
X-540142817Y540430228D01*
X-540008009Y540241043D01*
X-539838883Y540081793D01*
X-539641939Y539958598D01*
X-539424745Y539876192D01*
X-539242000Y540000569D01*
X-539242000Y540710256D01*
X-538988803Y540710256D01*
X-538988000Y540707608D01*
X-538988000Y540000569D01*
X-538805255Y539876192D01*
X-538588061Y539958598D01*
X-538480000Y540026194D01*
X-538371939Y539958598D01*
X-538154745Y539876192D01*
X-537972000Y540000569D01*
X-537972000Y540707608D01*
X-537971197Y540710256D01*
X-537972000Y540711426D01*
X-537972000Y540893000D01*
X-537718000Y540893000D01*
X-537718000Y540000569D01*
X-537535255Y539876192D01*
X-537318061Y539958598D01*
X-537121117Y540081793D01*
X-536951991Y540241043D01*
X-536817183Y540430228D01*
X-536721873Y540642077D01*
X-536701197Y540710256D01*
X-536826639Y540893000D01*
X-537718000Y540893000D01*
X-537972000Y540893000D01*
X-538988000Y540893000D01*
X-538988000Y540711426D01*
X-538988803Y540710256D01*
X-539242000Y540710256D01*
X-539242000Y540893000D01*
X-540133361Y540893000D01*
X-540258803Y540710256D01*
X-544512456Y540710256D01*
X-544499488Y540726058D01*
X-544418577Y540877433D01*
X-544368752Y541041684D01*
X-544351928Y541212500D01*
X-544351928Y541787500D01*
X-544368752Y541958316D01*
X-544418577Y542122567D01*
X-544499488Y542273942D01*
X-544608377Y542406623D01*
X-544741058Y542515512D01*
X-544892433Y542596423D01*
X-545056684Y542646248D01*
X-545227500Y542663072D01*
X-545232968Y542663072D01*
X-545213415Y542682625D01*
X-545106396Y542842790D01*
X-545032680Y543020757D01*
X-545008962Y543140000D01*
X-543143072Y543140000D01*
X-543143072Y541440000D01*
X-543130812Y541315518D01*
X-543094502Y541195820D01*
X-543035537Y541085506D01*
X-542956185Y540988815D01*
X-542859494Y540909463D01*
X-542749180Y540850498D01*
X-542629482Y540814188D01*
X-542505000Y540801928D01*
X-540805000Y540801928D01*
X-540680518Y540814188D01*
X-540560820Y540850498D01*
X-540450506Y540909463D01*
X-540353815Y540988815D01*
X-540274463Y541085506D01*
X-540215498Y541195820D01*
X-540200595Y541244947D01*
X-540133361Y541147000D01*
X-539442860Y541147000D01*
X-539231712Y541105000D01*
X-538998288Y541105000D01*
X-538787140Y541147000D01*
X-538156875Y541147000D01*
X-538154745Y541146192D01*
X-538153558Y541147000D01*
X-537972000Y541147000D01*
X-537972000Y541328574D01*
X-537971197Y541329744D01*
X-537972000Y541332392D01*
X-537972000Y541962140D01*
X-537932047Y542163000D01*
X-537718000Y542163000D01*
X-537718000Y541147000D01*
X-537536442Y541147000D01*
X-537535255Y541146192D01*
X-537533125Y541147000D01*
X-536826639Y541147000D01*
X-536701197Y541329744D01*
X-536721873Y541397923D01*
X-536817183Y541609772D01*
X-536849411Y541655000D01*
X-536817183Y541700228D01*
X-536721873Y541912077D01*
X-536701197Y541980256D01*
X-536826639Y542163000D01*
X-537533125Y542163000D01*
X-537535255Y542163808D01*
X-537536442Y542163000D01*
X-537718000Y542163000D01*
X-537932047Y542163000D01*
X-537930000Y542173288D01*
X-537930000Y542375000D01*
X-537728288Y542375000D01*
X-537517140Y542417000D01*
X-536826639Y542417000D01*
X-536701197Y542599744D01*
X-536721873Y542667923D01*
X-536817183Y542879772D01*
X-536846673Y542921157D01*
X-536794866Y542998692D01*
X-536705539Y543214348D01*
X-536660000Y543443288D01*
X-536660000Y543676712D01*
X-536705539Y543905652D01*
X-536794866Y544121308D01*
X-536846673Y544198843D01*
X-536817183Y544240228D01*
X-536721873Y544452077D01*
X-536701197Y544520256D01*
X-536826639Y544703000D01*
X-537517140Y544703000D01*
X-537728288Y544745000D01*
X-537961712Y544745000D01*
X-538172860Y544703000D01*
X-538803125Y544703000D01*
X-538805255Y544703808D01*
X-538806442Y544703000D01*
X-538863361Y544703000D01*
X-538913270Y544630293D01*
X-538988000Y544579431D01*
X-538988000Y544521426D01*
X-538988803Y544520256D01*
X-538988000Y544517608D01*
X-538988000Y543887860D01*
X-539030000Y543676712D01*
X-539030000Y543475000D01*
X-539231712Y543475000D01*
X-539442860Y543433000D01*
X-540133361Y543433000D01*
X-540200595Y543335053D01*
X-540215498Y543384180D01*
X-540274463Y543494494D01*
X-540353815Y543591185D01*
X-540450506Y543670537D01*
X-540560820Y543729502D01*
X-540633380Y543751513D01*
X-540515149Y543869744D01*
X-540258803Y543869744D01*
X-540133361Y543687000D01*
X-539242000Y543687000D01*
X-539242000Y544579431D01*
X-539424745Y544703808D01*
X-539641939Y544621402D01*
X-539838883Y544498207D01*
X-540008009Y544338957D01*
X-540142817Y544149772D01*
X-540238127Y543937923D01*
X-540258803Y543869744D01*
X-540515149Y543869744D01*
X-540501525Y543883368D01*
X-540339010Y544126589D01*
X-540227068Y544396842D01*
X-540170000Y544683740D01*
X-540170000Y544976260D01*
X-540227068Y545263158D01*
X-540339010Y545533411D01*
X-540501525Y545776632D01*
X-540515149Y545790256D01*
X-540258803Y545790256D01*
X-540238127Y545722077D01*
X-540142817Y545510228D01*
X-540008009Y545321043D01*
X-539838883Y545161793D01*
X-539641939Y545038598D01*
X-539424745Y544956192D01*
X-539242000Y545080569D01*
X-539242000Y545139744D01*
X-538988803Y545139744D01*
X-538988000Y545138574D01*
X-538988000Y545080569D01*
X-538913270Y545029707D01*
X-538863361Y544957000D01*
X-538806442Y544957000D01*
X-538805255Y544956192D01*
X-538803125Y544957000D01*
X-537972000Y544957000D01*
X-537972000Y545787608D01*
X-537971197Y545790256D01*
X-537972000Y545791426D01*
X-537972000Y545849431D01*
X-537718000Y545849431D01*
X-537718000Y544957000D01*
X-536826639Y544957000D01*
X-536701197Y545139744D01*
X-536721873Y545207923D01*
X-536817183Y545419772D01*
X-536951991Y545608957D01*
X-537121117Y545768207D01*
X-537318061Y545891402D01*
X-537535255Y545973808D01*
X-537718000Y545849431D01*
X-537972000Y545849431D01*
X-538046730Y545900293D01*
X-538096639Y545973000D01*
X-538153558Y545973000D01*
X-538154745Y545973808D01*
X-538156875Y545973000D01*
X-538988000Y545973000D01*
X-538988000Y545142392D01*
X-538988803Y545139744D01*
X-539242000Y545139744D01*
X-539242000Y545973000D01*
X-540133361Y545973000D01*
X-540258803Y545790256D01*
X-540515149Y545790256D01*
X-540708368Y545983475D01*
X-540951589Y546145990D01*
X-541221842Y546257932D01*
X-541508740Y546315000D01*
X-541801260Y546315000D01*
X-542088158Y546257932D01*
X-542358411Y546145990D01*
X-542601632Y545983475D01*
X-542808475Y545776632D01*
X-542970990Y545533411D01*
X-543082932Y545263158D01*
X-543140000Y544976260D01*
X-543140000Y544683740D01*
X-543082932Y544396842D01*
X-542970990Y544126589D01*
X-542808475Y543883368D01*
X-542676620Y543751513D01*
X-542749180Y543729502D01*
X-542859494Y543670537D01*
X-542956185Y543591185D01*
X-543035537Y543494494D01*
X-543094502Y543384180D01*
X-543130812Y543264482D01*
X-543143072Y543140000D01*
X-545008962Y543140000D01*
X-544995100Y543209685D01*
X-544995100Y543402315D01*
X-545032680Y543591243D01*
X-545106396Y543769210D01*
X-545213415Y543929375D01*
X-545349625Y544065585D01*
X-545509790Y544172604D01*
X-545687757Y544246320D01*
X-545876685Y544283900D01*
X-546069315Y544283900D01*
X-546210107Y544255895D01*
X-546431928Y544477715D01*
X-546431928Y545060000D01*
X-546447071Y545213745D01*
X-546491916Y545361582D01*
X-546564742Y545497829D01*
X-546662749Y545617251D01*
X-546782171Y545715258D01*
X-546918418Y545788084D01*
X-547066255Y545832929D01*
X-547220000Y545848072D01*
X-547520000Y545848072D01*
X-547673745Y545832929D01*
X-547821582Y545788084D01*
X-547928800Y545730774D01*
X-547928800Y545811083D01*
X-547925361Y545846001D01*
X-547928800Y545880919D01*
X-547928800Y545880936D01*
X-547939091Y545985420D01*
X-547979758Y546119481D01*
X-548045798Y546243033D01*
X-548089898Y546296769D01*
X-548112403Y546324192D01*
X-548112407Y546324196D01*
X-548134673Y546351327D01*
X-548161805Y546373593D01*
X-548170100Y546381889D01*
X-548170100Y546409744D01*
X-540258803Y546409744D01*
X-540133361Y546227000D01*
X-539242000Y546227000D01*
X-539242000Y547119431D01*
X-538988000Y547119431D01*
X-538988000Y546227000D01*
X-538096639Y546227000D01*
X-537971197Y546409744D01*
X-537991873Y546477923D01*
X-538087183Y546689772D01*
X-538221991Y546878957D01*
X-538391117Y547038207D01*
X-538588061Y547161402D01*
X-538805255Y547243808D01*
X-538988000Y547119431D01*
X-539242000Y547119431D01*
X-539424745Y547243808D01*
X-539641939Y547161402D01*
X-539838883Y547038207D01*
X-540008009Y546878957D01*
X-540142817Y546689772D01*
X-540238127Y546477923D01*
X-540258803Y546409744D01*
X-548170100Y546409744D01*
X-548170100Y546450315D01*
X-548207680Y546639243D01*
X-548281396Y546817210D01*
X-548388415Y546977375D01*
X-548524625Y547113585D01*
X-548684790Y547220604D01*
X-548862757Y547294320D01*
X-549051685Y547331900D01*
X-549244315Y547331900D01*
X-549433243Y547294320D01*
X-549611210Y547220604D01*
X-549771375Y547113585D01*
X-549907585Y546977375D01*
X-549912600Y546969870D01*
X-549912600Y550225533D01*
X-549793377Y550323377D01*
X-549684488Y550456058D01*
X-549603577Y550607433D01*
X-549553752Y550771684D01*
X-549544044Y550870256D01*
X-540258803Y550870256D01*
X-540238127Y550802077D01*
X-540142817Y550590228D01*
X-540008009Y550401043D01*
X-539838883Y550241793D01*
X-539641939Y550118598D01*
X-539424745Y550036192D01*
X-539242000Y550160569D01*
X-539242000Y550870256D01*
X-538988803Y550870256D01*
X-538988000Y550867608D01*
X-538988000Y550160569D01*
X-538805255Y550036192D01*
X-538588061Y550118598D01*
X-538480000Y550186194D01*
X-538371939Y550118598D01*
X-538154745Y550036192D01*
X-537972000Y550160569D01*
X-537972000Y550867608D01*
X-537971197Y550870256D01*
X-537972000Y550871426D01*
X-537972000Y551053000D01*
X-537718000Y551053000D01*
X-537718000Y550160569D01*
X-537535255Y550036192D01*
X-537318061Y550118598D01*
X-537121117Y550241793D01*
X-536951991Y550401043D01*
X-536817183Y550590228D01*
X-536721873Y550802077D01*
X-536701197Y550870256D01*
X-536826639Y551053000D01*
X-537718000Y551053000D01*
X-537972000Y551053000D01*
X-538988000Y551053000D01*
X-538988000Y550871426D01*
X-538988803Y550870256D01*
X-539242000Y550870256D01*
X-539242000Y551053000D01*
X-540133361Y551053000D01*
X-540258803Y550870256D01*
X-549544044Y550870256D01*
X-549536928Y550942500D01*
X-549536928Y551417500D01*
X-549553752Y551588316D01*
X-549603577Y551752567D01*
X-549684488Y551903942D01*
X-549793377Y552036623D01*
X-549926058Y552145512D01*
X-550077433Y552226423D01*
X-550241684Y552276248D01*
X-550412500Y552293072D01*
X-550987500Y552293072D01*
X-551158316Y552276248D01*
X-551322567Y552226423D01*
X-551473942Y552145512D01*
X-551575000Y552062575D01*
X-551676058Y552145512D01*
X-551738800Y552179048D01*
X-551738800Y552398282D01*
X-551651519Y552424758D01*
X-551527967Y552490798D01*
X-551419673Y552579673D01*
X-551397399Y552606814D01*
X-551394213Y552610000D01*
X-550057072Y552610000D01*
X-550044812Y552485518D01*
X-550008502Y552365820D01*
X-549949537Y552255506D01*
X-549870185Y552158815D01*
X-549773494Y552079463D01*
X-549663180Y552020498D01*
X-549543482Y551984188D01*
X-549419000Y551971928D01*
X-549179750Y551975000D01*
X-549021000Y552133750D01*
X-549021000Y552958000D01*
X-549895250Y552958000D01*
X-550054000Y552799250D01*
X-550057072Y552610000D01*
X-551394213Y552610000D01*
X-550193800Y553810412D01*
X-550166674Y553832673D01*
X-550144412Y553859799D01*
X-550144402Y553859809D01*
X-550077798Y553940967D01*
X-550011758Y554064518D01*
X-549971091Y554198580D01*
X-549970090Y554208740D01*
X-549966842Y554241723D01*
X-549898058Y554278488D01*
X-549783000Y554372914D01*
X-549667942Y554278488D01*
X-549602069Y554243279D01*
X-549594909Y554170581D01*
X-549594806Y554170243D01*
X-549663180Y554149502D01*
X-549773494Y554090537D01*
X-549870185Y554011185D01*
X-549949537Y553914494D01*
X-550008502Y553804180D01*
X-550044812Y553684482D01*
X-550057072Y553560000D01*
X-550054000Y553370750D01*
X-549895250Y553212000D01*
X-549021000Y553212000D01*
X-549021000Y553232000D01*
X-548821788Y553232000D01*
X-548747000Y553157212D01*
X-548747000Y552958000D01*
X-548767000Y552958000D01*
X-548767000Y552133750D01*
X-548608250Y551975000D01*
X-548369000Y551971928D01*
X-548244518Y551984188D01*
X-548124820Y552020498D01*
X-548014506Y552079463D01*
X-547941839Y552139099D01*
X-547917942Y552119488D01*
X-547766567Y552038577D01*
X-547602316Y551988752D01*
X-547431500Y551971928D01*
X-546856500Y551971928D01*
X-546685684Y551988752D01*
X-546521433Y552038577D01*
X-546370058Y552119488D01*
X-546237377Y552228377D01*
X-546128488Y552361058D01*
X-546078141Y552455251D01*
X-546011637Y552490798D01*
X-545903343Y552579673D01*
X-545881068Y552606815D01*
X-540189753Y558298128D01*
X-540165134Y558238692D01*
X-540115895Y558165000D01*
X-540165134Y558091308D01*
X-540254461Y557875652D01*
X-540300000Y557646712D01*
X-540300000Y557413288D01*
X-540254461Y557184348D01*
X-540165134Y556968692D01*
X-540115895Y556895000D01*
X-540165134Y556821308D01*
X-540254461Y556605652D01*
X-540300000Y556376712D01*
X-540300000Y556143288D01*
X-540269657Y555990744D01*
X-540379193Y556012532D01*
X-540571823Y556012532D01*
X-540760751Y555974952D01*
X-540938718Y555901236D01*
X-541098883Y555794217D01*
X-541235093Y555658007D01*
X-541342112Y555497842D01*
X-541415828Y555319875D01*
X-541453408Y555130947D01*
X-541453408Y554938317D01*
X-541415828Y554749389D01*
X-541342112Y554571422D01*
X-541235093Y554411257D01*
X-541098883Y554275047D01*
X-540938718Y554168028D01*
X-540760751Y554094312D01*
X-540571823Y554056732D01*
X-540379193Y554056732D01*
X-540247288Y554082969D01*
X-540254461Y554065652D01*
X-540300000Y553836712D01*
X-540300000Y553603288D01*
X-540254461Y553374348D01*
X-540166173Y553161200D01*
X-540217412Y553161200D01*
X-541566100Y554509887D01*
X-541566100Y554578315D01*
X-541603680Y554767243D01*
X-541677396Y554945210D01*
X-541784415Y555105375D01*
X-541920625Y555241585D01*
X-542080790Y555348604D01*
X-542258757Y555422320D01*
X-542447685Y555459900D01*
X-542640315Y555459900D01*
X-542829243Y555422320D01*
X-543007210Y555348604D01*
X-543167375Y555241585D01*
X-543303585Y555105375D01*
X-543410604Y554945210D01*
X-543484320Y554767243D01*
X-543521900Y554578315D01*
X-543521900Y554385685D01*
X-543484320Y554196757D01*
X-543410604Y554018790D01*
X-543303585Y553858625D01*
X-543167375Y553722415D01*
X-543007210Y553615396D01*
X-542829243Y553541680D01*
X-542640315Y553504100D01*
X-542571887Y553504100D01*
X-541039597Y551971809D01*
X-541017327Y551944673D01*
X-540909033Y551855798D01*
X-540785481Y551789758D01*
X-540651420Y551749091D01*
X-540546936Y551738800D01*
X-540546929Y551738800D01*
X-540512000Y551735360D01*
X-540477072Y551738800D01*
X-540156751Y551738800D01*
X-540238127Y551557923D01*
X-540258803Y551489744D01*
X-540133361Y551307000D01*
X-539442860Y551307000D01*
X-539231712Y551265000D01*
X-538998288Y551265000D01*
X-538787140Y551307000D01*
X-538172860Y551307000D01*
X-537961712Y551265000D01*
X-537728288Y551265000D01*
X-537517140Y551307000D01*
X-536826639Y551307000D01*
X-536701197Y551489744D01*
X-536721873Y551557923D01*
X-536817183Y551769772D01*
X-536846673Y551811157D01*
X-536794866Y551888692D01*
X-536705539Y552104348D01*
X-536660000Y552333288D01*
X-536660000Y552566712D01*
X-536705539Y552795652D01*
X-536794866Y553011308D01*
X-536844105Y553085000D01*
X-536794866Y553158692D01*
X-536705539Y553374348D01*
X-536660000Y553603288D01*
X-536660000Y553836712D01*
X-536705539Y554065652D01*
X-536794866Y554281308D01*
X-536844105Y554355000D01*
X-536794866Y554428692D01*
X-536705539Y554644348D01*
X-536660000Y554873288D01*
X-536660000Y555106712D01*
X-536705539Y555335652D01*
X-536794866Y555551308D01*
X-536844105Y555625000D01*
X-536794866Y555698692D01*
X-536705539Y555914348D01*
X-536660000Y556143288D01*
X-536660000Y556242119D01*
X-536530210Y556155396D01*
X-536352243Y556081680D01*
X-536163315Y556044100D01*
X-535970685Y556044100D01*
X-535781757Y556081680D01*
X-535603790Y556155396D01*
X-535443625Y556262415D01*
X-535307415Y556398625D01*
X-535200396Y556558790D01*
X-535126680Y556736757D01*
X-535089100Y556925685D01*
X-535089100Y557118315D01*
X-535126680Y557307243D01*
X-535200396Y557485210D01*
X-535307415Y557645375D01*
X-535443625Y557781585D01*
X-535603790Y557888604D01*
X-535781757Y557962320D01*
X-535970685Y557999900D01*
X-536163315Y557999900D01*
X-536352243Y557962320D01*
X-536530210Y557888604D01*
X-536687244Y557783677D01*
X-536705539Y557875652D01*
X-536794866Y558091308D01*
X-536844105Y558165000D01*
X-536794866Y558238692D01*
X-536705539Y558454348D01*
X-536676888Y558598387D01*
X-536675250Y558598387D01*
X-536626865Y558550002D01*
X-536466700Y558442983D01*
X-536288733Y558369267D01*
X-536099805Y558331687D01*
X-535907175Y558331687D01*
X-535718247Y558369267D01*
X-535540280Y558442983D01*
X-535460043Y558496596D01*
X-535271327Y558459058D01*
X-535078697Y558459058D01*
X-534889769Y558496638D01*
X-534711802Y558570354D01*
X-534551637Y558677373D01*
X-534415427Y558813583D01*
X-534308408Y558973748D01*
X-534234692Y559151715D01*
X-534197112Y559340643D01*
X-534197112Y559533273D01*
X-534234692Y559722201D01*
X-534308408Y559900168D01*
X-534415427Y560060333D01*
X-534551637Y560196543D01*
X-534711802Y560303562D01*
X-534889769Y560377278D01*
X-535078697Y560414858D01*
X-535136253Y560414858D01*
X-536539581Y561818185D01*
X-536561856Y561845327D01*
X-536670150Y561934202D01*
X-536793702Y562000242D01*
X-536821587Y562008701D01*
X-536794866Y562048692D01*
X-536705539Y562264348D01*
X-536660000Y562493288D01*
X-536660000Y562726712D01*
X-536705539Y562955652D01*
X-536794866Y563171308D01*
X-536844105Y563245000D01*
X-536794866Y563318692D01*
X-536705539Y563534348D01*
X-536660000Y563763288D01*
X-536660000Y563996712D01*
X-536705539Y564225652D01*
X-536794866Y564441308D01*
X-536844105Y564515000D01*
X-536794866Y564588692D01*
X-536705539Y564804348D01*
X-536660000Y565033288D01*
X-536660000Y565266712D01*
X-536705539Y565495652D01*
X-536794866Y565711308D01*
X-536844105Y565785000D01*
X-536794866Y565858692D01*
X-536705539Y566074348D01*
X-536660000Y566303288D01*
X-536660000Y566487401D01*
X-531856530Y566487401D01*
X-531824114Y566460798D01*
G37*
X-531824114Y566460798D02*
X-531700562Y566394758D01*
X-531566501Y566354091D01*
X-531540982Y566351578D01*
X-531378475Y566108368D01*
X-531171632Y565901525D01*
X-530997240Y565785000D01*
X-531171632Y565668475D01*
X-531378475Y565461632D01*
X-531540990Y565218411D01*
X-531652932Y564948158D01*
X-531710000Y564661260D01*
X-531710000Y564368740D01*
X-531652932Y564081842D01*
X-531540990Y563811589D01*
X-531378475Y563568368D01*
X-531171632Y563361525D01*
X-530997240Y563245000D01*
X-531171632Y563128475D01*
X-531378475Y562921632D01*
X-531540990Y562678411D01*
X-531652932Y562408158D01*
X-531710000Y562121260D01*
X-531710000Y561828740D01*
X-531652932Y561541842D01*
X-531540990Y561271589D01*
X-531378475Y561028368D01*
X-531171632Y560821525D01*
X-530997240Y560705000D01*
X-531171632Y560588475D01*
X-531378475Y560381632D01*
X-531540990Y560138411D01*
X-531652932Y559868158D01*
X-531710000Y559581260D01*
X-531710000Y559288740D01*
X-531652932Y559001842D01*
X-531540990Y558731589D01*
X-531378475Y558488368D01*
X-531171632Y558281525D01*
X-530997240Y558165000D01*
X-531171632Y558048475D01*
X-531378475Y557841632D01*
X-531540990Y557598411D01*
X-531652932Y557328158D01*
X-531710000Y557041260D01*
X-531710000Y556748740D01*
X-531652932Y556461842D01*
X-531540990Y556191589D01*
X-531378475Y555948368D01*
X-531171632Y555741525D01*
X-530989466Y555619805D01*
X-531106355Y555550178D01*
X-531322588Y555355269D01*
X-531496641Y555121920D01*
X-531621825Y554859099D01*
X-531666476Y554711890D01*
X-531545155Y554482000D01*
X-530352000Y554482000D01*
X-530352000Y554502000D01*
X-530098000Y554502000D01*
X-530098000Y554482000D01*
X-530078000Y554482000D01*
X-530078000Y554228000D01*
X-530098000Y554228000D01*
X-530098000Y554208000D01*
X-530352000Y554208000D01*
X-530352000Y554228000D01*
X-531545155Y554228000D01*
X-531666476Y553998110D01*
X-531621825Y553850901D01*
X-531496641Y553588080D01*
X-531322588Y553354731D01*
X-531106355Y553159822D01*
X-530989466Y553090195D01*
X-531171632Y552968475D01*
X-531378475Y552761632D01*
X-531540990Y552518411D01*
X-531652932Y552248158D01*
X-531710000Y551961260D01*
X-531710000Y551668740D01*
X-531652932Y551381842D01*
X-531540990Y551111589D01*
X-531378475Y550868368D01*
X-531171632Y550661525D01*
X-530997240Y550545000D01*
X-531171632Y550428475D01*
X-531378475Y550221632D01*
X-531535786Y549986200D01*
X-536286065Y549986200D01*
X-536320991Y549989640D01*
X-536355917Y549986200D01*
X-536355926Y549986200D01*
X-536460410Y549975909D01*
X-536594471Y549935242D01*
X-536718023Y549869202D01*
X-536799182Y549802597D01*
X-536799186Y549802593D01*
X-536826317Y549780327D01*
X-536848583Y549753196D01*
X-537455069Y549146709D01*
X-537523496Y549146709D01*
X-537712424Y549109129D01*
X-537890391Y549035413D01*
X-538050556Y548928394D01*
X-538186766Y548792184D01*
X-538293785Y548632019D01*
X-538367501Y548454052D01*
X-538405081Y548265124D01*
X-538405081Y548072494D01*
X-538367501Y547883566D01*
X-538293785Y547705599D01*
X-538186766Y547545434D01*
X-538050556Y547409224D01*
X-537890391Y547302205D01*
X-537712424Y547228489D01*
X-537523496Y547190909D01*
X-537471970Y547190909D01*
X-537466934Y547178752D01*
X-537359915Y547018587D01*
X-537223705Y546882377D01*
X-537063540Y546775358D01*
X-536885573Y546701642D01*
X-536696645Y546664062D01*
X-536563435Y546664062D01*
X-536626320Y546512243D01*
X-536663900Y546323315D01*
X-536663900Y546130685D01*
X-536626320Y545941757D01*
X-536552604Y545763790D01*
X-536445585Y545603625D01*
X-536309375Y545467415D01*
X-536149210Y545360396D01*
X-535971243Y545286680D01*
X-535782315Y545249100D01*
X-535713887Y545249100D01*
X-535260198Y544795411D01*
X-535237928Y544768274D01*
X-535134923Y544683740D01*
X-535129634Y544679399D01*
X-535006083Y544613359D01*
X-534872021Y544572692D01*
X-534767537Y544562401D01*
X-534767530Y544562401D01*
X-534732601Y544558961D01*
X-534697673Y544562401D01*
X-531666012Y544562401D01*
X-531710000Y544341260D01*
X-531710000Y544048740D01*
X-531652932Y543761842D01*
X-531548285Y543509200D01*
X-533236240Y543509200D01*
X-533284625Y543557585D01*
X-533444790Y543664604D01*
X-533622757Y543738320D01*
X-533811685Y543775900D01*
X-534004315Y543775900D01*
X-534193243Y543738320D01*
X-534371210Y543664604D01*
X-534531375Y543557585D01*
X-534667585Y543421375D01*
X-534774604Y543261210D01*
X-534848320Y543083243D01*
X-534885900Y542894315D01*
X-534885900Y542701685D01*
X-534848320Y542512757D01*
X-534774604Y542334790D01*
X-534667585Y542174625D01*
X-534531375Y542038415D01*
X-534371210Y541931396D01*
X-534193243Y541857680D01*
X-534004315Y541820100D01*
X-533811685Y541820100D01*
X-533622757Y541857680D01*
X-533444790Y541931396D01*
X-533284625Y542038415D01*
X-533236240Y542086800D01*
X-531653202Y542086800D01*
X-531710000Y541801260D01*
X-531710000Y541508740D01*
X-531652932Y541221842D01*
X-531540990Y540951589D01*
X-531378475Y540708368D01*
X-531171632Y540501525D01*
X-530997240Y540385000D01*
X-531171632Y540268475D01*
X-531378475Y540061632D01*
X-531540990Y539818411D01*
X-531652932Y539548158D01*
X-531710000Y539261260D01*
X-531710000Y538968740D01*
X-531652932Y538681842D01*
X-531540990Y538411589D01*
X-531378475Y538168368D01*
X-531171632Y537961525D01*
X-530997240Y537845000D01*
X-531171632Y537728475D01*
X-531378475Y537521632D01*
X-531540990Y537278411D01*
X-531652932Y537008158D01*
X-531710000Y536721260D01*
X-531710000Y536428740D01*
X-531652932Y536141842D01*
X-531540990Y535871589D01*
X-531378475Y535628368D01*
X-531171632Y535421525D01*
X-531072070Y535355000D01*
X-548705348Y535355000D01*
X-548642027Y535374208D01*
X-548505238Y535447324D01*
X-548385341Y535545721D01*
X-548360683Y535575767D01*
X-548110573Y535825876D01*
X-548080531Y535850531D01*
X-548043791Y535895299D01*
X-548024494Y535879463D01*
X-547914180Y535820498D01*
X-547794482Y535784188D01*
X-547670000Y535771928D01*
X-547655750Y535775000D01*
X-547497000Y535933750D01*
X-547497000Y537083000D01*
X-547243000Y537083000D01*
X-547243000Y535933750D01*
X-547084250Y535775000D01*
X-547070000Y535771928D01*
X-546945518Y535784188D01*
X-546825820Y535820498D01*
X-546715506Y535879463D01*
X-546618815Y535958815D01*
X-546539463Y536055506D01*
X-546480498Y536165820D01*
X-546444188Y536285518D01*
X-546431928Y536410000D01*
X-546435000Y536924250D01*
X-546593750Y537083000D01*
X-547243000Y537083000D01*
X-547497000Y537083000D01*
X-547517000Y537083000D01*
X-547517000Y537337000D01*
X-547497000Y537337000D01*
X-547497000Y538486250D01*
X-547243000Y538486250D01*
X-547243000Y537337000D01*
X-546593750Y537337000D01*
X-546435000Y537495750D01*
X-546431928Y538010000D01*
X-546444188Y538134482D01*
X-546480498Y538254180D01*
X-546539463Y538364494D01*
X-546618815Y538461185D01*
X-546715506Y538540537D01*
X-546825820Y538599502D01*
X-546945518Y538635812D01*
X-547070000Y538648072D01*
X-547084250Y538645000D01*
X-547243000Y538486250D01*
X-547497000Y538486250D01*
X-547655750Y538645000D01*
X-547670000Y538648072D01*
X-547679293Y538647157D01*
X-547101450Y539225000D01*
X-546578072Y539225000D01*
X-546565812Y539100518D01*
X-546529502Y538980820D01*
X-546470537Y538870506D01*
X-546391185Y538773815D01*
X-546294494Y538694463D01*
X-546184180Y538635498D01*
X-546064482Y538599188D01*
X-545940000Y538586928D01*
X-545750750Y538590000D01*
X-545592000Y538748750D01*
X-545592000Y539623000D01*
X-545338000Y539623000D01*
X-545338000Y538748750D01*
X-545179250Y538590000D01*
X-544990000Y538586928D01*
X-544865518Y538599188D01*
X-544745820Y538635498D01*
X-544635506Y538694463D01*
X-544538815Y538773815D01*
X-544459463Y538870506D01*
X-544400498Y538980820D01*
X-544364188Y539100518D01*
X-544351928Y539225000D01*
X-544355000Y539464250D01*
X-544513750Y539623000D01*
X-545338000Y539623000D01*
X-545592000Y539623000D01*
X-546416250Y539623000D01*
X-546575000Y539464250D01*
X-546578072Y539225000D01*
X-547101450Y539225000D01*
X-546432849Y539893599D01*
X-546416250Y539877000D01*
X-545592000Y539877000D01*
X-545592000Y539897000D01*
X-545338000Y539897000D01*
X-545338000Y539877000D01*
X-544513750Y539877000D01*
X-544355000Y540035750D01*
X-544351928Y540275000D01*
X-544364188Y540399482D01*
X-544400498Y540519180D01*
X-544459463Y540629494D01*
X-544519099Y540702161D01*
X-544512456Y540710256D01*
X-540258803Y540710256D01*
X-540238127Y540642077D01*
X-540142817Y540430228D01*
X-540008009Y540241043D01*
X-539838883Y540081793D01*
X-539641939Y539958598D01*
X-539424745Y539876192D01*
X-539242000Y540000569D01*
X-539242000Y540710256D01*
X-538988803Y540710256D01*
X-538988000Y540707608D01*
X-538988000Y540000569D01*
X-538805255Y539876192D01*
X-538588061Y539958598D01*
X-538480000Y540026194D01*
X-538371939Y539958598D01*
X-538154745Y539876192D01*
X-537972000Y540000569D01*
X-537972000Y540707608D01*
X-537971197Y540710256D01*
X-537972000Y540711426D01*
X-537972000Y540893000D01*
X-537718000Y540893000D01*
X-537718000Y540000569D01*
X-537535255Y539876192D01*
X-537318061Y539958598D01*
X-537121117Y540081793D01*
X-536951991Y540241043D01*
X-536817183Y540430228D01*
X-536721873Y540642077D01*
X-536701197Y540710256D01*
X-536826639Y540893000D01*
X-537718000Y540893000D01*
X-537972000Y540893000D01*
X-538988000Y540893000D01*
X-538988000Y540711426D01*
X-538988803Y540710256D01*
X-539242000Y540710256D01*
X-539242000Y540893000D01*
X-540133361Y540893000D01*
X-540258803Y540710256D01*
X-544512456Y540710256D01*
X-544499488Y540726058D01*
X-544418577Y540877433D01*
X-544368752Y541041684D01*
X-544351928Y541212500D01*
X-544351928Y541787500D01*
X-544368752Y541958316D01*
X-544418577Y542122567D01*
X-544499488Y542273942D01*
X-544608377Y542406623D01*
X-544741058Y542515512D01*
X-544892433Y542596423D01*
X-545056684Y542646248D01*
X-545227500Y542663072D01*
X-545232968Y542663072D01*
X-545213415Y542682625D01*
X-545106396Y542842790D01*
X-545032680Y543020757D01*
X-545008962Y543140000D01*
X-543143072Y543140000D01*
X-543143072Y541440000D01*
X-543130812Y541315518D01*
X-543094502Y541195820D01*
X-543035537Y541085506D01*
X-542956185Y540988815D01*
X-542859494Y540909463D01*
X-542749180Y540850498D01*
X-542629482Y540814188D01*
X-542505000Y540801928D01*
X-540805000Y540801928D01*
X-540680518Y540814188D01*
X-540560820Y540850498D01*
X-540450506Y540909463D01*
X-540353815Y540988815D01*
X-540274463Y541085506D01*
X-540215498Y541195820D01*
X-540200595Y541244947D01*
X-540133361Y541147000D01*
X-539442860Y541147000D01*
X-539231712Y541105000D01*
X-538998288Y541105000D01*
X-538787140Y541147000D01*
X-538156875Y541147000D01*
X-538154745Y541146192D01*
X-538153558Y541147000D01*
X-537972000Y541147000D01*
X-537972000Y541328574D01*
X-537971197Y541329744D01*
X-537972000Y541332392D01*
X-537972000Y541962140D01*
X-537932047Y542163000D01*
X-537718000Y542163000D01*
X-537718000Y541147000D01*
X-537536442Y541147000D01*
X-537535255Y541146192D01*
X-537533125Y541147000D01*
X-536826639Y541147000D01*
X-536701197Y541329744D01*
X-536721873Y541397923D01*
X-536817183Y541609772D01*
X-536849411Y541655000D01*
X-536817183Y541700228D01*
X-536721873Y541912077D01*
X-536701197Y541980256D01*
X-536826639Y542163000D01*
X-537533125Y542163000D01*
X-537535255Y542163808D01*
X-537536442Y542163000D01*
X-537718000Y542163000D01*
X-537932047Y542163000D01*
X-537930000Y542173288D01*
X-537930000Y542375000D01*
X-537728288Y542375000D01*
X-537517140Y542417000D01*
X-536826639Y542417000D01*
X-536701197Y542599744D01*
X-536721873Y542667923D01*
X-536817183Y542879772D01*
X-536846673Y542921157D01*
X-536794866Y542998692D01*
X-536705539Y543214348D01*
X-536660000Y543443288D01*
X-536660000Y543676712D01*
X-536705539Y543905652D01*
X-536794866Y544121308D01*
X-536846673Y544198843D01*
X-536817183Y544240228D01*
X-536721873Y544452077D01*
X-536701197Y544520256D01*
X-536826639Y544703000D01*
X-537517140Y544703000D01*
X-537728288Y544745000D01*
X-537961712Y544745000D01*
X-538172860Y544703000D01*
X-538803125Y544703000D01*
X-538805255Y544703808D01*
X-538806442Y544703000D01*
X-538863361Y544703000D01*
X-538913270Y544630293D01*
X-538988000Y544579431D01*
X-538988000Y544521426D01*
X-538988803Y544520256D01*
X-538988000Y544517608D01*
X-538988000Y543887860D01*
X-539030000Y543676712D01*
X-539030000Y543475000D01*
X-539231712Y543475000D01*
X-539442860Y543433000D01*
X-540133361Y543433000D01*
X-540200595Y543335053D01*
X-540215498Y543384180D01*
X-540274463Y543494494D01*
X-540353815Y543591185D01*
X-540450506Y543670537D01*
X-540560820Y543729502D01*
X-540633380Y543751513D01*
X-540515149Y543869744D01*
X-540258803Y543869744D01*
X-540133361Y543687000D01*
X-539242000Y543687000D01*
X-539242000Y544579431D01*
X-539424745Y544703808D01*
X-539641939Y544621402D01*
X-539838883Y544498207D01*
X-540008009Y544338957D01*
X-540142817Y544149772D01*
X-540238127Y543937923D01*
X-540258803Y543869744D01*
X-540515149Y543869744D01*
X-540501525Y543883368D01*
X-540339010Y544126589D01*
X-540227068Y544396842D01*
X-540170000Y544683740D01*
X-540170000Y544976260D01*
X-540227068Y545263158D01*
X-540339010Y545533411D01*
X-540501525Y545776632D01*
X-540515149Y545790256D01*
X-540258803Y545790256D01*
X-540238127Y545722077D01*
X-540142817Y545510228D01*
X-540008009Y545321043D01*
X-539838883Y545161793D01*
X-539641939Y545038598D01*
X-539424745Y544956192D01*
X-539242000Y545080569D01*
X-539242000Y545139744D01*
X-538988803Y545139744D01*
X-538988000Y545138574D01*
X-538988000Y545080569D01*
X-538913270Y545029707D01*
X-538863361Y544957000D01*
X-538806442Y544957000D01*
X-538805255Y544956192D01*
X-538803125Y544957000D01*
X-537972000Y544957000D01*
X-537972000Y545787608D01*
X-537971197Y545790256D01*
X-537972000Y545791426D01*
X-537972000Y545849431D01*
X-537718000Y545849431D01*
X-537718000Y544957000D01*
X-536826639Y544957000D01*
X-536701197Y545139744D01*
X-536721873Y545207923D01*
X-536817183Y545419772D01*
X-536951991Y545608957D01*
X-537121117Y545768207D01*
X-537318061Y545891402D01*
X-537535255Y545973808D01*
X-537718000Y545849431D01*
X-537972000Y545849431D01*
X-538046730Y545900293D01*
X-538096639Y545973000D01*
X-538153558Y545973000D01*
X-538154745Y545973808D01*
X-538156875Y545973000D01*
X-538988000Y545973000D01*
X-538988000Y545142392D01*
X-538988803Y545139744D01*
X-539242000Y545139744D01*
X-539242000Y545973000D01*
X-540133361Y545973000D01*
X-540258803Y545790256D01*
X-540515149Y545790256D01*
X-540708368Y545983475D01*
X-540951589Y546145990D01*
X-541221842Y546257932D01*
X-541508740Y546315000D01*
X-541801260Y546315000D01*
X-542088158Y546257932D01*
X-542358411Y546145990D01*
X-542601632Y545983475D01*
X-542808475Y545776632D01*
X-542970990Y545533411D01*
X-543082932Y545263158D01*
X-543140000Y544976260D01*
X-543140000Y544683740D01*
X-543082932Y544396842D01*
X-542970990Y544126589D01*
X-542808475Y543883368D01*
X-542676620Y543751513D01*
X-542749180Y543729502D01*
X-542859494Y543670537D01*
X-542956185Y543591185D01*
X-543035537Y543494494D01*
X-543094502Y543384180D01*
X-543130812Y543264482D01*
X-543143072Y543140000D01*
X-545008962Y543140000D01*
X-544995100Y543209685D01*
X-544995100Y543402315D01*
X-545032680Y543591243D01*
X-545106396Y543769210D01*
X-545213415Y543929375D01*
X-545349625Y544065585D01*
X-545509790Y544172604D01*
X-545687757Y544246320D01*
X-545876685Y544283900D01*
X-546069315Y544283900D01*
X-546210107Y544255895D01*
X-546431928Y544477715D01*
X-546431928Y545060000D01*
X-546447071Y545213745D01*
X-546491916Y545361582D01*
X-546564742Y545497829D01*
X-546662749Y545617251D01*
X-546782171Y545715258D01*
X-546918418Y545788084D01*
X-547066255Y545832929D01*
X-547220000Y545848072D01*
X-547520000Y545848072D01*
X-547673745Y545832929D01*
X-547821582Y545788084D01*
X-547928800Y545730774D01*
X-547928800Y545811083D01*
X-547925361Y545846001D01*
X-547928800Y545880919D01*
X-547928800Y545880936D01*
X-547939091Y545985420D01*
X-547979758Y546119481D01*
X-548045798Y546243033D01*
X-548089898Y546296769D01*
X-548112403Y546324192D01*
X-548112407Y546324196D01*
X-548134673Y546351327D01*
X-548161805Y546373593D01*
X-548170100Y546381889D01*
X-548170100Y546409744D01*
X-540258803Y546409744D01*
X-540133361Y546227000D01*
X-539242000Y546227000D01*
X-539242000Y547119431D01*
X-538988000Y547119431D01*
X-538988000Y546227000D01*
X-538096639Y546227000D01*
X-537971197Y546409744D01*
X-537991873Y546477923D01*
X-538087183Y546689772D01*
X-538221991Y546878957D01*
X-538391117Y547038207D01*
X-538588061Y547161402D01*
X-538805255Y547243808D01*
X-538988000Y547119431D01*
X-539242000Y547119431D01*
X-539424745Y547243808D01*
X-539641939Y547161402D01*
X-539838883Y547038207D01*
X-540008009Y546878957D01*
X-540142817Y546689772D01*
X-540238127Y546477923D01*
X-540258803Y546409744D01*
X-548170100Y546409744D01*
X-548170100Y546450315D01*
X-548207680Y546639243D01*
X-548281396Y546817210D01*
X-548388415Y546977375D01*
X-548524625Y547113585D01*
X-548684790Y547220604D01*
X-548862757Y547294320D01*
X-549051685Y547331900D01*
X-549244315Y547331900D01*
X-549433243Y547294320D01*
X-549611210Y547220604D01*
X-549771375Y547113585D01*
X-549907585Y546977375D01*
X-549912600Y546969870D01*
X-549912600Y550225533D01*
X-549793377Y550323377D01*
X-549684488Y550456058D01*
X-549603577Y550607433D01*
X-549553752Y550771684D01*
X-549544044Y550870256D01*
X-540258803Y550870256D01*
X-540238127Y550802077D01*
X-540142817Y550590228D01*
X-540008009Y550401043D01*
X-539838883Y550241793D01*
X-539641939Y550118598D01*
X-539424745Y550036192D01*
X-539242000Y550160569D01*
X-539242000Y550870256D01*
X-538988803Y550870256D01*
X-538988000Y550867608D01*
X-538988000Y550160569D01*
X-538805255Y550036192D01*
X-538588061Y550118598D01*
X-538480000Y550186194D01*
X-538371939Y550118598D01*
X-538154745Y550036192D01*
X-537972000Y550160569D01*
X-537972000Y550867608D01*
X-537971197Y550870256D01*
X-537972000Y550871426D01*
X-537972000Y551053000D01*
X-537718000Y551053000D01*
X-537718000Y550160569D01*
X-537535255Y550036192D01*
X-537318061Y550118598D01*
X-537121117Y550241793D01*
X-536951991Y550401043D01*
X-536817183Y550590228D01*
X-536721873Y550802077D01*
X-536701197Y550870256D01*
X-536826639Y551053000D01*
X-537718000Y551053000D01*
X-537972000Y551053000D01*
X-538988000Y551053000D01*
X-538988000Y550871426D01*
X-538988803Y550870256D01*
X-539242000Y550870256D01*
X-539242000Y551053000D01*
X-540133361Y551053000D01*
X-540258803Y550870256D01*
X-549544044Y550870256D01*
X-549536928Y550942500D01*
X-549536928Y551417500D01*
X-549553752Y551588316D01*
X-549603577Y551752567D01*
X-549684488Y551903942D01*
X-549793377Y552036623D01*
X-549926058Y552145512D01*
X-550077433Y552226423D01*
X-550241684Y552276248D01*
X-550412500Y552293072D01*
X-550987500Y552293072D01*
X-551158316Y552276248D01*
X-551322567Y552226423D01*
X-551473942Y552145512D01*
X-551575000Y552062575D01*
X-551676058Y552145512D01*
X-551738800Y552179048D01*
X-551738800Y552398282D01*
X-551651519Y552424758D01*
X-551527967Y552490798D01*
X-551419673Y552579673D01*
X-551397399Y552606814D01*
X-551394213Y552610000D01*
X-550057072Y552610000D01*
X-550044812Y552485518D01*
X-550008502Y552365820D01*
X-549949537Y552255506D01*
X-549870185Y552158815D01*
X-549773494Y552079463D01*
X-549663180Y552020498D01*
X-549543482Y551984188D01*
X-549419000Y551971928D01*
X-549179750Y551975000D01*
X-549021000Y552133750D01*
X-549021000Y552958000D01*
X-549895250Y552958000D01*
X-550054000Y552799250D01*
X-550057072Y552610000D01*
X-551394213Y552610000D01*
X-550193800Y553810412D01*
X-550166674Y553832673D01*
X-550144412Y553859799D01*
X-550144402Y553859809D01*
X-550077798Y553940967D01*
X-550011758Y554064518D01*
X-549971091Y554198580D01*
X-549970090Y554208740D01*
X-549966842Y554241723D01*
X-549898058Y554278488D01*
X-549783000Y554372914D01*
X-549667942Y554278488D01*
X-549602069Y554243279D01*
X-549594909Y554170581D01*
X-549594806Y554170243D01*
X-549663180Y554149502D01*
X-549773494Y554090537D01*
X-549870185Y554011185D01*
X-549949537Y553914494D01*
X-550008502Y553804180D01*
X-550044812Y553684482D01*
X-550057072Y553560000D01*
X-550054000Y553370750D01*
X-549895250Y553212000D01*
X-549021000Y553212000D01*
X-549021000Y553232000D01*
X-548821788Y553232000D01*
X-548747000Y553157212D01*
X-548747000Y552958000D01*
X-548767000Y552958000D01*
X-548767000Y552133750D01*
X-548608250Y551975000D01*
X-548369000Y551971928D01*
X-548244518Y551984188D01*
X-548124820Y552020498D01*
X-548014506Y552079463D01*
X-547941839Y552139099D01*
X-547917942Y552119488D01*
X-547766567Y552038577D01*
X-547602316Y551988752D01*
X-547431500Y551971928D01*
X-546856500Y551971928D01*
X-546685684Y551988752D01*
X-546521433Y552038577D01*
X-546370058Y552119488D01*
X-546237377Y552228377D01*
X-546128488Y552361058D01*
X-546078141Y552455251D01*
X-546011637Y552490798D01*
X-545903343Y552579673D01*
X-545881068Y552606815D01*
X-540189753Y558298128D01*
X-540165134Y558238692D01*
X-540115895Y558165000D01*
X-540165134Y558091308D01*
X-540254461Y557875652D01*
X-540300000Y557646712D01*
X-540300000Y557413288D01*
X-540254461Y557184348D01*
X-540165134Y556968692D01*
X-540115895Y556895000D01*
X-540165134Y556821308D01*
X-540254461Y556605652D01*
X-540300000Y556376712D01*
X-540300000Y556143288D01*
X-540269657Y555990744D01*
X-540379193Y556012532D01*
X-540571823Y556012532D01*
X-540760751Y555974952D01*
X-540938718Y555901236D01*
X-541098883Y555794217D01*
X-541235093Y555658007D01*
X-541342112Y555497842D01*
X-541415828Y555319875D01*
X-541453408Y555130947D01*
X-541453408Y554938317D01*
X-541415828Y554749389D01*
X-541342112Y554571422D01*
X-541235093Y554411257D01*
X-541098883Y554275047D01*
X-540938718Y554168028D01*
X-540760751Y554094312D01*
X-540571823Y554056732D01*
X-540379193Y554056732D01*
X-540247288Y554082969D01*
X-540254461Y554065652D01*
X-540300000Y553836712D01*
X-540300000Y553603288D01*
X-540254461Y553374348D01*
X-540166173Y553161200D01*
X-540217412Y553161200D01*
X-541566100Y554509887D01*
X-541566100Y554578315D01*
X-541603680Y554767243D01*
X-541677396Y554945210D01*
X-541784415Y555105375D01*
X-541920625Y555241585D01*
X-542080790Y555348604D01*
X-542258757Y555422320D01*
X-542447685Y555459900D01*
X-542640315Y555459900D01*
X-542829243Y555422320D01*
X-543007210Y555348604D01*
X-543167375Y555241585D01*
X-543303585Y555105375D01*
X-543410604Y554945210D01*
X-543484320Y554767243D01*
X-543521900Y554578315D01*
X-543521900Y554385685D01*
X-543484320Y554196757D01*
X-543410604Y554018790D01*
X-543303585Y553858625D01*
X-543167375Y553722415D01*
X-543007210Y553615396D01*
X-542829243Y553541680D01*
X-542640315Y553504100D01*
X-542571887Y553504100D01*
X-541039597Y551971809D01*
X-541017327Y551944673D01*
X-540909033Y551855798D01*
X-540785481Y551789758D01*
X-540651420Y551749091D01*
X-540546936Y551738800D01*
X-540546929Y551738800D01*
X-540512000Y551735360D01*
X-540477072Y551738800D01*
X-540156751Y551738800D01*
X-540238127Y551557923D01*
X-540258803Y551489744D01*
X-540133361Y551307000D01*
X-539442860Y551307000D01*
X-539231712Y551265000D01*
X-538998288Y551265000D01*
X-538787140Y551307000D01*
X-538172860Y551307000D01*
X-537961712Y551265000D01*
X-537728288Y551265000D01*
X-537517140Y551307000D01*
X-536826639Y551307000D01*
X-536701197Y551489744D01*
X-536721873Y551557923D01*
X-536817183Y551769772D01*
X-536846673Y551811157D01*
X-536794866Y551888692D01*
X-536705539Y552104348D01*
X-536660000Y552333288D01*
X-536660000Y552566712D01*
X-536705539Y552795652D01*
X-536794866Y553011308D01*
X-536844105Y553085000D01*
X-536794866Y553158692D01*
X-536705539Y553374348D01*
X-536660000Y553603288D01*
X-536660000Y553836712D01*
X-536705539Y554065652D01*
X-536794866Y554281308D01*
X-536844105Y554355000D01*
X-536794866Y554428692D01*
X-536705539Y554644348D01*
X-536660000Y554873288D01*
X-536660000Y555106712D01*
X-536705539Y555335652D01*
X-536794866Y555551308D01*
X-536844105Y555625000D01*
X-536794866Y555698692D01*
X-536705539Y555914348D01*
X-536660000Y556143288D01*
X-536660000Y556242119D01*
X-536530210Y556155396D01*
X-536352243Y556081680D01*
X-536163315Y556044100D01*
X-535970685Y556044100D01*
X-535781757Y556081680D01*
X-535603790Y556155396D01*
X-535443625Y556262415D01*
X-535307415Y556398625D01*
X-535200396Y556558790D01*
X-535126680Y556736757D01*
X-535089100Y556925685D01*
X-535089100Y557118315D01*
X-535126680Y557307243D01*
X-535200396Y557485210D01*
X-535307415Y557645375D01*
X-535443625Y557781585D01*
X-535603790Y557888604D01*
X-535781757Y557962320D01*
X-535970685Y557999900D01*
X-536163315Y557999900D01*
X-536352243Y557962320D01*
X-536530210Y557888604D01*
X-536687244Y557783677D01*
X-536705539Y557875652D01*
X-536794866Y558091308D01*
X-536844105Y558165000D01*
X-536794866Y558238692D01*
X-536705539Y558454348D01*
X-536676888Y558598387D01*
X-536675250Y558598387D01*
X-536626865Y558550002D01*
X-536466700Y558442983D01*
X-536288733Y558369267D01*
X-536099805Y558331687D01*
X-535907175Y558331687D01*
X-535718247Y558369267D01*
X-535540280Y558442983D01*
X-535460043Y558496596D01*
X-535271327Y558459058D01*
X-535078697Y558459058D01*
X-534889769Y558496638D01*
X-534711802Y558570354D01*
X-534551637Y558677373D01*
X-534415427Y558813583D01*
X-534308408Y558973748D01*
X-534234692Y559151715D01*
X-534197112Y559340643D01*
X-534197112Y559533273D01*
X-534234692Y559722201D01*
X-534308408Y559900168D01*
X-534415427Y560060333D01*
X-534551637Y560196543D01*
X-534711802Y560303562D01*
X-534889769Y560377278D01*
X-535078697Y560414858D01*
X-535136253Y560414858D01*
X-536539581Y561818185D01*
X-536561856Y561845327D01*
X-536670150Y561934202D01*
X-536793702Y562000242D01*
X-536821587Y562008701D01*
X-536794866Y562048692D01*
X-536705539Y562264348D01*
X-536660000Y562493288D01*
X-536660000Y562726712D01*
X-536705539Y562955652D01*
X-536794866Y563171308D01*
X-536844105Y563245000D01*
X-536794866Y563318692D01*
X-536705539Y563534348D01*
X-536660000Y563763288D01*
X-536660000Y563996712D01*
X-536705539Y564225652D01*
X-536794866Y564441308D01*
X-536844105Y564515000D01*
X-536794866Y564588692D01*
X-536705539Y564804348D01*
X-536660000Y565033288D01*
X-536660000Y565266712D01*
X-536705539Y565495652D01*
X-536794866Y565711308D01*
X-536844105Y565785000D01*
X-536794866Y565858692D01*
X-536705539Y566074348D01*
X-536660000Y566303288D01*
X-536660000Y566487401D01*
X-531856530Y566487401D01*
X-531824114Y566460798D01*
G36*
X-555843072Y558585000D02*
G01*
X-555830812Y558460518D01*
X-555794502Y558340820D01*
X-555735537Y558230506D01*
X-555656185Y558133815D01*
X-555559494Y558054463D01*
X-555449180Y557995498D01*
X-555329482Y557959188D01*
X-555205000Y557946928D01*
X-555066199Y557946928D01*
X-555066200Y556686926D01*
X-555069640Y556652000D01*
X-555066200Y556617074D01*
X-555066200Y556617065D01*
X-555055909Y556512581D01*
X-555015242Y556378520D01*
X-554949202Y556254968D01*
X-554860327Y556146674D01*
X-554833190Y556124403D01*
X-553570845Y554862057D01*
X-553568248Y554835684D01*
X-553518423Y554671433D01*
X-553437512Y554520058D01*
X-553328623Y554387377D01*
X-553195942Y554278488D01*
X-553044567Y554197577D01*
X-552880316Y554147752D01*
X-552709500Y554130928D01*
X-552134500Y554130928D01*
X-551963684Y554147752D01*
X-551826388Y554189400D01*
X-552219587Y553796200D01*
X-552415064Y553796200D01*
X-552450000Y553799641D01*
X-552484936Y553796200D01*
X-552589420Y553785909D01*
X-552723481Y553745242D01*
X-552847033Y553679202D01*
X-552955327Y553590327D01*
X-553044202Y553482033D01*
X-553110242Y553358481D01*
X-553150909Y553224420D01*
X-553164641Y553085000D01*
X-553161199Y553050054D01*
X-553161199Y552179048D01*
X-553223942Y552145512D01*
X-553356623Y552036623D01*
X-553465512Y551903942D01*
X-553546423Y551752567D01*
X-553596248Y551588316D01*
X-553613072Y551417500D01*
X-553613072Y550942500D01*
X-553596248Y550771684D01*
X-553546423Y550607433D01*
X-553465512Y550456058D01*
X-553356623Y550323377D01*
X-553223942Y550214488D01*
X-553072567Y550133577D01*
X-552908316Y550083752D01*
X-552737500Y550066928D01*
X-552162500Y550066928D01*
X-551991684Y550083752D01*
X-551827433Y550133577D01*
X-551676058Y550214488D01*
X-551575000Y550297425D01*
X-551487399Y550225532D01*
X-551487400Y545831820D01*
X-551631582Y545788084D01*
X-551767829Y545715258D01*
X-551887251Y545617251D01*
X-551985258Y545497829D01*
X-552058084Y545361582D01*
X-552102929Y545213745D01*
X-552118072Y545060000D01*
X-552118072Y543760000D01*
X-552102929Y543606255D01*
X-552058084Y543458418D01*
X-551985258Y543322171D01*
X-551887251Y543202749D01*
X-551767829Y543104742D01*
X-551631582Y543031916D01*
X-551483745Y542987071D01*
X-551330000Y542971928D01*
X-551030000Y542971928D01*
X-550876255Y542987071D01*
X-550728418Y543031916D01*
X-550592171Y543104742D01*
X-550545435Y543143097D01*
X-550469469Y543050531D01*
X-550439423Y543025872D01*
X-548384119Y540970567D01*
X-548359469Y540940531D01*
X-548329433Y540915881D01*
X-548329430Y540915878D01*
X-548249764Y540850498D01*
X-548239572Y540842134D01*
X-548102783Y540769018D01*
X-547954357Y540723994D01*
X-547840747Y540712804D01*
X-549169427Y539384123D01*
X-549199468Y539359469D01*
X-549234451Y539316842D01*
X-549297865Y539239572D01*
X-549370982Y539102782D01*
X-549416005Y538954357D01*
X-549431208Y538800000D01*
X-549427399Y538761327D01*
X-549427399Y538571504D01*
X-549458418Y538588084D01*
X-549606255Y538632929D01*
X-549727410Y538644862D01*
X-549727410Y539481693D01*
X-549723971Y539516611D01*
X-549727410Y539551529D01*
X-549727410Y539551546D01*
X-549737701Y539656030D01*
X-549778368Y539790091D01*
X-549821100Y539870037D01*
X-549821100Y539973315D01*
X-549858680Y540162243D01*
X-549932396Y540340210D01*
X-550039415Y540500375D01*
X-550175625Y540636585D01*
X-550335790Y540743604D01*
X-550513757Y540817320D01*
X-550702685Y540854900D01*
X-550895315Y540854900D01*
X-551084243Y540817320D01*
X-551262210Y540743604D01*
X-551422375Y540636585D01*
X-551558585Y540500375D01*
X-551665604Y540340210D01*
X-551739320Y540162243D01*
X-551776900Y539973315D01*
X-551776900Y539942113D01*
X-551846243Y539928320D01*
X-552024210Y539854604D01*
X-552184375Y539747585D01*
X-552320585Y539611375D01*
X-552427604Y539451210D01*
X-552501320Y539273243D01*
X-552538900Y539084315D01*
X-552538900Y538891685D01*
X-552501320Y538702757D01*
X-552427604Y538524790D01*
X-552320585Y538364625D01*
X-552184375Y538228415D01*
X-552062511Y538146988D01*
X-552102929Y538013745D01*
X-552118072Y537860000D01*
X-552118072Y536892590D01*
X-552924038Y536892590D01*
X-555447362Y539415912D01*
X-555410000Y539603740D01*
X-555410000Y539896260D01*
X-555467068Y540183158D01*
X-555579010Y540453411D01*
X-555741525Y540696632D01*
X-555948368Y540903475D01*
X-556122760Y541020000D01*
X-555948368Y541136525D01*
X-555741525Y541343368D01*
X-555579010Y541586589D01*
X-555467068Y541856842D01*
X-555410000Y542143740D01*
X-555410000Y542436260D01*
X-555467068Y542723158D01*
X-555579010Y542993411D01*
X-555741525Y543236632D01*
X-555948368Y543443475D01*
X-556191589Y543605990D01*
X-556461842Y543717932D01*
X-556748740Y543775000D01*
X-557041260Y543775000D01*
X-557328158Y543717932D01*
X-557598411Y543605990D01*
X-557841632Y543443475D01*
X-558048475Y543236632D01*
X-558115000Y543137070D01*
X-558115000Y545887930D01*
X-558048475Y545788368D01*
X-557841632Y545581525D01*
X-557598411Y545419010D01*
X-557328158Y545307068D01*
X-557041260Y545250000D01*
X-556748740Y545250000D01*
X-556461842Y545307068D01*
X-556191589Y545419010D01*
X-555948368Y545581525D01*
X-555741525Y545788368D01*
X-555579010Y546031589D01*
X-555467068Y546301842D01*
X-555410000Y546588740D01*
X-555410000Y546881260D01*
X-555467068Y547168158D01*
X-555579010Y547438411D01*
X-555741525Y547681632D01*
X-555948368Y547888475D01*
X-556130534Y548010195D01*
X-556013645Y548079822D01*
X-555797412Y548274731D01*
X-555623359Y548508080D01*
X-555498175Y548770901D01*
X-555453524Y548918110D01*
X-555574845Y549148000D01*
X-556768000Y549148000D01*
X-556768000Y549128000D01*
X-557022000Y549128000D01*
X-557022000Y549148000D01*
X-557042000Y549148000D01*
X-557042000Y549402000D01*
X-557022000Y549402000D01*
X-557022000Y549422000D01*
X-556768000Y549422000D01*
X-556768000Y549402000D01*
X-555574845Y549402000D01*
X-555453524Y549631890D01*
X-555498175Y549779099D01*
X-555623359Y550041920D01*
X-555797412Y550275269D01*
X-555881466Y550351034D01*
X-555800820Y550375498D01*
X-555690506Y550434463D01*
X-555593815Y550513815D01*
X-555514463Y550610506D01*
X-555455498Y550720820D01*
X-555419188Y550840518D01*
X-555406928Y550965000D01*
X-555406928Y552665000D01*
X-555419188Y552789482D01*
X-555455498Y552909180D01*
X-555514463Y553019494D01*
X-555593815Y553116185D01*
X-555690506Y553195537D01*
X-555800820Y553254502D01*
X-555920518Y553290812D01*
X-556045000Y553303072D01*
X-557634000Y553303072D01*
X-557634000Y557585843D01*
X-555843072Y559376770D01*
X-555843072Y558585000D01*
G37*
X-555843072Y558585000D02*
X-555830812Y558460518D01*
X-555794502Y558340820D01*
X-555735537Y558230506D01*
X-555656185Y558133815D01*
X-555559494Y558054463D01*
X-555449180Y557995498D01*
X-555329482Y557959188D01*
X-555205000Y557946928D01*
X-555066199Y557946928D01*
X-555066200Y556686926D01*
X-555069640Y556652000D01*
X-555066200Y556617074D01*
X-555066200Y556617065D01*
X-555055909Y556512581D01*
X-555015242Y556378520D01*
X-554949202Y556254968D01*
X-554860327Y556146674D01*
X-554833190Y556124403D01*
X-553570845Y554862057D01*
X-553568248Y554835684D01*
X-553518423Y554671433D01*
X-553437512Y554520058D01*
X-553328623Y554387377D01*
X-553195942Y554278488D01*
X-553044567Y554197577D01*
X-552880316Y554147752D01*
X-552709500Y554130928D01*
X-552134500Y554130928D01*
X-551963684Y554147752D01*
X-551826388Y554189400D01*
X-552219587Y553796200D01*
X-552415064Y553796200D01*
X-552450000Y553799641D01*
X-552484936Y553796200D01*
X-552589420Y553785909D01*
X-552723481Y553745242D01*
X-552847033Y553679202D01*
X-552955327Y553590327D01*
X-553044202Y553482033D01*
X-553110242Y553358481D01*
X-553150909Y553224420D01*
X-553164641Y553085000D01*
X-553161199Y553050054D01*
X-553161199Y552179048D01*
X-553223942Y552145512D01*
X-553356623Y552036623D01*
X-553465512Y551903942D01*
X-553546423Y551752567D01*
X-553596248Y551588316D01*
X-553613072Y551417500D01*
X-553613072Y550942500D01*
X-553596248Y550771684D01*
X-553546423Y550607433D01*
X-553465512Y550456058D01*
X-553356623Y550323377D01*
X-553223942Y550214488D01*
X-553072567Y550133577D01*
X-552908316Y550083752D01*
X-552737500Y550066928D01*
X-552162500Y550066928D01*
X-551991684Y550083752D01*
X-551827433Y550133577D01*
X-551676058Y550214488D01*
X-551575000Y550297425D01*
X-551487399Y550225532D01*
X-551487400Y545831820D01*
X-551631582Y545788084D01*
X-551767829Y545715258D01*
X-551887251Y545617251D01*
X-551985258Y545497829D01*
X-552058084Y545361582D01*
X-552102929Y545213745D01*
X-552118072Y545060000D01*
X-552118072Y543760000D01*
X-552102929Y543606255D01*
X-552058084Y543458418D01*
X-551985258Y543322171D01*
X-551887251Y543202749D01*
X-551767829Y543104742D01*
X-551631582Y543031916D01*
X-551483745Y542987071D01*
X-551330000Y542971928D01*
X-551030000Y542971928D01*
X-550876255Y542987071D01*
X-550728418Y543031916D01*
X-550592171Y543104742D01*
X-550545435Y543143097D01*
X-550469469Y543050531D01*
X-550439423Y543025872D01*
X-548384119Y540970567D01*
X-548359469Y540940531D01*
X-548329433Y540915881D01*
X-548329430Y540915878D01*
X-548249764Y540850498D01*
X-548239572Y540842134D01*
X-548102783Y540769018D01*
X-547954357Y540723994D01*
X-547840747Y540712804D01*
X-549169427Y539384123D01*
X-549199468Y539359469D01*
X-549234451Y539316842D01*
X-549297865Y539239572D01*
X-549370982Y539102782D01*
X-549416005Y538954357D01*
X-549431208Y538800000D01*
X-549427399Y538761327D01*
X-549427399Y538571504D01*
X-549458418Y538588084D01*
X-549606255Y538632929D01*
X-549727410Y538644862D01*
X-549727410Y539481693D01*
X-549723971Y539516611D01*
X-549727410Y539551529D01*
X-549727410Y539551546D01*
X-549737701Y539656030D01*
X-549778368Y539790091D01*
X-549821100Y539870037D01*
X-549821100Y539973315D01*
X-549858680Y540162243D01*
X-549932396Y540340210D01*
X-550039415Y540500375D01*
X-550175625Y540636585D01*
X-550335790Y540743604D01*
X-550513757Y540817320D01*
X-550702685Y540854900D01*
X-550895315Y540854900D01*
X-551084243Y540817320D01*
X-551262210Y540743604D01*
X-551422375Y540636585D01*
X-551558585Y540500375D01*
X-551665604Y540340210D01*
X-551739320Y540162243D01*
X-551776900Y539973315D01*
X-551776900Y539942113D01*
X-551846243Y539928320D01*
X-552024210Y539854604D01*
X-552184375Y539747585D01*
X-552320585Y539611375D01*
X-552427604Y539451210D01*
X-552501320Y539273243D01*
X-552538900Y539084315D01*
X-552538900Y538891685D01*
X-552501320Y538702757D01*
X-552427604Y538524790D01*
X-552320585Y538364625D01*
X-552184375Y538228415D01*
X-552062511Y538146988D01*
X-552102929Y538013745D01*
X-552118072Y537860000D01*
X-552118072Y536892590D01*
X-552924038Y536892590D01*
X-555447362Y539415912D01*
X-555410000Y539603740D01*
X-555410000Y539896260D01*
X-555467068Y540183158D01*
X-555579010Y540453411D01*
X-555741525Y540696632D01*
X-555948368Y540903475D01*
X-556122760Y541020000D01*
X-555948368Y541136525D01*
X-555741525Y541343368D01*
X-555579010Y541586589D01*
X-555467068Y541856842D01*
X-555410000Y542143740D01*
X-555410000Y542436260D01*
X-555467068Y542723158D01*
X-555579010Y542993411D01*
X-555741525Y543236632D01*
X-555948368Y543443475D01*
X-556191589Y543605990D01*
X-556461842Y543717932D01*
X-556748740Y543775000D01*
X-557041260Y543775000D01*
X-557328158Y543717932D01*
X-557598411Y543605990D01*
X-557841632Y543443475D01*
X-558048475Y543236632D01*
X-558115000Y543137070D01*
X-558115000Y545887930D01*
X-558048475Y545788368D01*
X-557841632Y545581525D01*
X-557598411Y545419010D01*
X-557328158Y545307068D01*
X-557041260Y545250000D01*
X-556748740Y545250000D01*
X-556461842Y545307068D01*
X-556191589Y545419010D01*
X-555948368Y545581525D01*
X-555741525Y545788368D01*
X-555579010Y546031589D01*
X-555467068Y546301842D01*
X-555410000Y546588740D01*
X-555410000Y546881260D01*
X-555467068Y547168158D01*
X-555579010Y547438411D01*
X-555741525Y547681632D01*
X-555948368Y547888475D01*
X-556130534Y548010195D01*
X-556013645Y548079822D01*
X-555797412Y548274731D01*
X-555623359Y548508080D01*
X-555498175Y548770901D01*
X-555453524Y548918110D01*
X-555574845Y549148000D01*
X-556768000Y549148000D01*
X-556768000Y549128000D01*
X-557022000Y549128000D01*
X-557022000Y549148000D01*
X-557042000Y549148000D01*
X-557042000Y549402000D01*
X-557022000Y549402000D01*
X-557022000Y549422000D01*
X-556768000Y549422000D01*
X-556768000Y549402000D01*
X-555574845Y549402000D01*
X-555453524Y549631890D01*
X-555498175Y549779099D01*
X-555623359Y550041920D01*
X-555797412Y550275269D01*
X-555881466Y550351034D01*
X-555800820Y550375498D01*
X-555690506Y550434463D01*
X-555593815Y550513815D01*
X-555514463Y550610506D01*
X-555455498Y550720820D01*
X-555419188Y550840518D01*
X-555406928Y550965000D01*
X-555406928Y552665000D01*
X-555419188Y552789482D01*
X-555455498Y552909180D01*
X-555514463Y553019494D01*
X-555593815Y553116185D01*
X-555690506Y553195537D01*
X-555800820Y553254502D01*
X-555920518Y553290812D01*
X-556045000Y553303072D01*
X-557634000Y553303072D01*
X-557634000Y557585843D01*
X-555843072Y559376770D01*
X-555843072Y558585000D01*
G36*
X-528838475Y555948368D02*
G01*
X-528631632Y555741525D01*
X-528457240Y555625000D01*
X-528631632Y555508475D01*
X-528838475Y555301632D01*
X-528956100Y555125594D01*
X-529127412Y555355269D01*
X-529343645Y555550178D01*
X-529460534Y555619805D01*
X-529278368Y555741525D01*
X-529071525Y555948368D01*
X-528955000Y556122760D01*
X-528838475Y555948368D01*
G37*
X-528838475Y555948368D02*
X-528631632Y555741525D01*
X-528457240Y555625000D01*
X-528631632Y555508475D01*
X-528838475Y555301632D01*
X-528956100Y555125594D01*
X-529127412Y555355269D01*
X-529343645Y555550178D01*
X-529460534Y555619805D01*
X-529278368Y555741525D01*
X-529071525Y555948368D01*
X-528955000Y556122760D01*
X-528838475Y555948368D01*
G36*
X-531171632Y585988475D02*
G01*
X-531378475Y585781632D01*
X-531540990Y585538411D01*
X-531652932Y585268158D01*
X-531710000Y584981260D01*
X-531710000Y584688740D01*
X-531652932Y584401842D01*
X-531540990Y584131589D01*
X-531378475Y583888368D01*
X-531171632Y583681525D01*
X-530989466Y583559805D01*
X-531106355Y583490178D01*
X-531322588Y583295269D01*
X-531496641Y583061920D01*
X-531621825Y582799099D01*
X-531666476Y582651890D01*
X-531545155Y582422000D01*
X-530352000Y582422000D01*
X-530352000Y582442000D01*
X-530098000Y582442000D01*
X-530098000Y582422000D01*
X-527812000Y582422000D01*
X-527812000Y582442000D01*
X-527558000Y582442000D01*
X-527558000Y582422000D01*
X-527538000Y582422000D01*
X-527538000Y582168000D01*
X-527558000Y582168000D01*
X-527558000Y582148000D01*
X-527812000Y582148000D01*
X-527812000Y582168000D01*
X-530098000Y582168000D01*
X-530098000Y582148000D01*
X-530352000Y582148000D01*
X-530352000Y582168000D01*
X-531545155Y582168000D01*
X-531666476Y581938110D01*
X-531621825Y581790901D01*
X-531496641Y581528080D01*
X-531322588Y581294731D01*
X-531106355Y581099822D01*
X-530989466Y581030195D01*
X-531171632Y580908475D01*
X-531378475Y580701632D01*
X-531540990Y580458411D01*
X-531652932Y580188158D01*
X-531710000Y579901260D01*
X-531710000Y579608740D01*
X-531652932Y579321842D01*
X-531540990Y579051589D01*
X-531378475Y578808368D01*
X-531171632Y578601525D01*
X-530997240Y578485000D01*
X-531171632Y578368475D01*
X-531378475Y578161632D01*
X-531540990Y577918411D01*
X-531652932Y577648158D01*
X-531710000Y577361260D01*
X-531710000Y577068740D01*
X-531652932Y576781842D01*
X-531540990Y576511589D01*
X-531378475Y576268368D01*
X-531171632Y576061525D01*
X-530997240Y575945000D01*
X-531171632Y575828475D01*
X-531378475Y575621632D01*
X-531540990Y575378411D01*
X-531652932Y575108158D01*
X-531710000Y574821260D01*
X-531710000Y574528740D01*
X-531652932Y574241842D01*
X-531540990Y573971589D01*
X-531378475Y573728368D01*
X-531171632Y573521525D01*
X-530997240Y573405000D01*
X-531171632Y573288475D01*
X-531378475Y573081632D01*
X-531540990Y572838411D01*
X-531652932Y572568158D01*
X-531710000Y572281260D01*
X-531710000Y571988740D01*
X-531652932Y571701842D01*
X-531540990Y571431589D01*
X-531378475Y571188368D01*
X-531171632Y570981525D01*
X-530997240Y570865000D01*
X-531171632Y570748475D01*
X-531378475Y570541632D01*
X-531540990Y570298411D01*
X-531652932Y570028158D01*
X-531710000Y569741260D01*
X-531710000Y569448740D01*
X-531652932Y569161842D01*
X-531574482Y568972446D01*
X-531798917Y568748011D01*
X-531867345Y568748011D01*
X-532056273Y568710431D01*
X-532234240Y568636715D01*
X-532394405Y568529696D01*
X-532530615Y568393486D01*
X-532637634Y568233321D01*
X-532711350Y568055354D01*
X-532740302Y567909801D01*
X-538007081Y567909801D01*
X-537366800Y568550081D01*
X-537339674Y568572343D01*
X-537317412Y568599469D01*
X-537317403Y568599478D01*
X-537250798Y568680637D01*
X-537203781Y568768600D01*
X-537184758Y568804189D01*
X-537144091Y568938250D01*
X-537133800Y569042734D01*
X-537133800Y569042743D01*
X-537130360Y569077669D01*
X-537133800Y569112595D01*
X-537133800Y569280021D01*
X-537089606Y569309550D01*
X-536924550Y569474606D01*
X-536794866Y569668692D01*
X-536705539Y569884348D01*
X-536660000Y570113288D01*
X-536660000Y570346712D01*
X-536705539Y570575652D01*
X-536794866Y570791308D01*
X-536844105Y570865000D01*
X-536794866Y570938692D01*
X-536705539Y571154348D01*
X-536660000Y571383288D01*
X-536660000Y571616712D01*
X-536705539Y571845652D01*
X-536794866Y572061308D01*
X-536844105Y572135000D01*
X-536794866Y572208692D01*
X-536705539Y572424348D01*
X-536660000Y572653288D01*
X-536660000Y572886712D01*
X-536705539Y573115652D01*
X-536794866Y573331308D01*
X-536924550Y573525394D01*
X-537089606Y573690450D01*
X-537283692Y573820134D01*
X-537499348Y573909461D01*
X-537728288Y573955000D01*
X-537930000Y573955000D01*
X-537930000Y574125000D01*
X-537728288Y574125000D01*
X-537499348Y574170539D01*
X-537283692Y574259866D01*
X-537089606Y574389550D01*
X-536924550Y574554606D01*
X-536794866Y574748692D01*
X-536705539Y574964348D01*
X-536660000Y575193288D01*
X-536660000Y575426712D01*
X-536705539Y575655652D01*
X-536794866Y575871308D01*
X-536924550Y576065394D01*
X-537089606Y576230450D01*
X-537283692Y576360134D01*
X-537499348Y576449461D01*
X-537728288Y576495000D01*
X-537930000Y576495000D01*
X-537930000Y576665000D01*
X-537728288Y576665000D01*
X-537499348Y576710539D01*
X-537283692Y576799866D01*
X-537089606Y576929550D01*
X-536924550Y577094606D01*
X-536794866Y577288692D01*
X-536705539Y577504348D01*
X-536660000Y577733288D01*
X-536660000Y577966712D01*
X-536705539Y578195652D01*
X-536794866Y578411308D01*
X-536924550Y578605394D01*
X-537089606Y578770450D01*
X-537283692Y578900134D01*
X-537499348Y578989461D01*
X-537728288Y579035000D01*
X-537930000Y579035000D01*
X-537930000Y579205000D01*
X-537728288Y579205000D01*
X-537499348Y579250539D01*
X-537283692Y579339866D01*
X-537089606Y579469550D01*
X-536924550Y579634606D01*
X-536794866Y579828692D01*
X-536705539Y580044348D01*
X-536660000Y580273288D01*
X-536660000Y580506712D01*
X-536705539Y580735652D01*
X-536794866Y580951308D01*
X-536924550Y581145394D01*
X-537089606Y581310450D01*
X-537283692Y581440134D01*
X-537499348Y581529461D01*
X-537728288Y581575000D01*
X-537961712Y581575000D01*
X-538190652Y581529461D01*
X-538406308Y581440134D01*
X-538485479Y581387234D01*
X-538588061Y581451402D01*
X-538805255Y581533808D01*
X-538988000Y581409431D01*
X-538988000Y580717860D01*
X-539030000Y580506712D01*
X-539030000Y580305000D01*
X-539231712Y580305000D01*
X-539442860Y580263000D01*
X-540133361Y580263000D01*
X-540258803Y580080256D01*
X-540238127Y580012077D01*
X-540142817Y579800228D01*
X-540113327Y579758843D01*
X-540165134Y579681308D01*
X-540254461Y579465652D01*
X-540300000Y579236712D01*
X-540300000Y579003288D01*
X-540254461Y578774348D01*
X-540165134Y578558692D01*
X-540113327Y578481157D01*
X-540142817Y578439772D01*
X-540222840Y578261902D01*
X-540227068Y578283158D01*
X-540339010Y578553411D01*
X-540501525Y578796632D01*
X-540708368Y579003475D01*
X-540951589Y579165990D01*
X-541221842Y579277932D01*
X-541508740Y579335000D01*
X-541801260Y579335000D01*
X-542088158Y579277932D01*
X-542358411Y579165990D01*
X-542601632Y579003475D01*
X-542808475Y578796632D01*
X-542970990Y578553411D01*
X-543082932Y578283158D01*
X-543140000Y577996260D01*
X-543140000Y577703740D01*
X-543082932Y577416842D01*
X-542970990Y577146589D01*
X-542808475Y576903368D01*
X-542601632Y576696525D01*
X-542419466Y576574805D01*
X-542536355Y576505178D01*
X-542752588Y576310269D01*
X-542926641Y576076920D01*
X-543051825Y575814099D01*
X-543096476Y575666890D01*
X-542975155Y575437000D01*
X-541782000Y575437000D01*
X-541782000Y575457000D01*
X-541528000Y575457000D01*
X-541528000Y575437000D01*
X-540334845Y575437000D01*
X-540247271Y575602944D01*
X-540133361Y575437000D01*
X-539442860Y575437000D01*
X-539231712Y575395000D01*
X-539030000Y575395000D01*
X-539030000Y575225000D01*
X-539231712Y575225000D01*
X-539442860Y575183000D01*
X-540133361Y575183000D01*
X-540247271Y575017056D01*
X-540334845Y575183000D01*
X-541528000Y575183000D01*
X-541528000Y575163000D01*
X-541782000Y575163000D01*
X-541782000Y575183000D01*
X-542975155Y575183000D01*
X-543096476Y574953110D01*
X-543051825Y574805901D01*
X-542926641Y574543080D01*
X-542752588Y574309731D01*
X-542536355Y574114822D01*
X-542419466Y574045195D01*
X-542601632Y573923475D01*
X-542808475Y573716632D01*
X-542970990Y573473411D01*
X-543082932Y573203158D01*
X-543140000Y572916260D01*
X-543140000Y572623740D01*
X-543082932Y572336842D01*
X-542970990Y572066589D01*
X-542808475Y571823368D01*
X-542601632Y571616525D01*
X-542419466Y571494805D01*
X-542536355Y571425178D01*
X-542752588Y571230269D01*
X-542926641Y570996920D01*
X-542951912Y570943864D01*
X-542990506Y570975537D01*
X-543100820Y571034502D01*
X-543220518Y571070812D01*
X-543345000Y571083072D01*
X-543407600Y571083072D01*
X-543407600Y571450338D01*
X-543403792Y571489001D01*
X-543407600Y571527664D01*
X-543407600Y571527673D01*
X-543418994Y571643357D01*
X-543464018Y571791783D01*
X-543537134Y571928572D01*
X-543635531Y572048469D01*
X-543665573Y572073123D01*
X-544383322Y572790872D01*
X-544396577Y572834567D01*
X-544477488Y572985942D01*
X-544586377Y573118623D01*
X-544719058Y573227512D01*
X-544870433Y573308423D01*
X-545034684Y573358248D01*
X-545205500Y573375072D01*
X-545780500Y573375072D01*
X-545951316Y573358248D01*
X-546115567Y573308423D01*
X-546266942Y573227512D01*
X-546290839Y573207901D01*
X-546363506Y573267537D01*
X-546473820Y573326502D01*
X-546593518Y573362812D01*
X-546718000Y573375072D01*
X-546957250Y573372000D01*
X-547116000Y573213250D01*
X-547116000Y572389000D01*
X-547096000Y572389000D01*
X-547096000Y572135000D01*
X-547116000Y572135000D01*
X-547116000Y571310750D01*
X-546957250Y571152000D01*
X-546718000Y571148928D01*
X-546593518Y571161188D01*
X-546473820Y571197498D01*
X-546363506Y571256463D01*
X-546290839Y571316099D01*
X-546266942Y571296488D01*
X-546115567Y571215577D01*
X-545951316Y571165752D01*
X-545780500Y571148928D01*
X-545205500Y571148928D01*
X-545034684Y571165752D01*
X-544996796Y571177245D01*
X-544982399Y571162848D01*
X-544982399Y571083072D01*
X-545045000Y571083072D01*
X-545169482Y571070812D01*
X-545289180Y571034502D01*
X-545399494Y570975537D01*
X-545496185Y570896185D01*
X-545575537Y570799494D01*
X-545634502Y570689180D01*
X-545656513Y570616620D01*
X-545788368Y570748475D01*
X-546031589Y570910990D01*
X-546301842Y571022932D01*
X-546588740Y571080000D01*
X-546881260Y571080000D01*
X-547168158Y571022932D01*
X-547438411Y570910990D01*
X-547681632Y570748475D01*
X-547888475Y570541632D01*
X-548005000Y570367240D01*
X-548121525Y570541632D01*
X-548328368Y570748475D01*
X-548571589Y570910990D01*
X-548841842Y571022932D01*
X-549128740Y571080000D01*
X-549421260Y571080000D01*
X-549708158Y571022932D01*
X-549978411Y570910990D01*
X-550221632Y570748475D01*
X-550428475Y570541632D01*
X-550545000Y570367240D01*
X-550661525Y570541632D01*
X-550868368Y570748475D01*
X-551111589Y570910990D01*
X-551381842Y571022932D01*
X-551668740Y571080000D01*
X-551961260Y571080000D01*
X-552248158Y571022932D01*
X-552518411Y570910990D01*
X-552761632Y570748475D01*
X-552968475Y570541632D01*
X-553085000Y570367240D01*
X-553201525Y570541632D01*
X-553408368Y570748475D01*
X-553651589Y570910990D01*
X-553921842Y571022932D01*
X-554208740Y571080000D01*
X-554501260Y571080000D01*
X-554788158Y571022932D01*
X-555058411Y570910990D01*
X-555301632Y570748475D01*
X-555508475Y570541632D01*
X-555630195Y570359466D01*
X-555699822Y570476355D01*
X-555894731Y570692588D01*
X-556128080Y570866641D01*
X-556390901Y570991825D01*
X-556538110Y571036476D01*
X-556768000Y570915155D01*
X-556768000Y569722000D01*
X-556748000Y569722000D01*
X-556748000Y569468000D01*
X-556768000Y569468000D01*
X-556768000Y568274845D01*
X-556538110Y568153524D01*
X-556390901Y568198175D01*
X-556128080Y568323359D01*
X-555894731Y568497412D01*
X-555699822Y568713645D01*
X-555630195Y568830534D01*
X-555508475Y568648368D01*
X-555301632Y568441525D01*
X-555058411Y568279010D01*
X-554788158Y568167068D01*
X-554501260Y568110000D01*
X-554208740Y568110000D01*
X-553921842Y568167068D01*
X-553651589Y568279010D01*
X-553408368Y568441525D01*
X-553201525Y568648368D01*
X-553085000Y568822760D01*
X-552968475Y568648368D01*
X-552761632Y568441525D01*
X-552518411Y568279010D01*
X-552248158Y568167068D01*
X-551961260Y568110000D01*
X-551668740Y568110000D01*
X-551391029Y568165241D01*
X-551263997Y568038209D01*
X-551241726Y568011072D01*
X-551133432Y567922197D01*
X-551009880Y567856157D01*
X-550875819Y567815490D01*
X-550771335Y567805199D01*
X-550771326Y567805199D01*
X-550736400Y567801759D01*
X-550701474Y567805199D01*
X-543197045Y567805199D01*
X-543162119Y567801759D01*
X-543140000Y567803938D01*
X-543140000Y567543740D01*
X-543102639Y567355913D01*
X-544405951Y566052599D01*
X-555406928Y566052599D01*
X-555406928Y567270000D01*
X-555419188Y567394482D01*
X-555455498Y567514180D01*
X-555514463Y567624494D01*
X-555593815Y567721185D01*
X-555690506Y567800537D01*
X-555800820Y567859502D01*
X-555920518Y567895812D01*
X-556045000Y567908072D01*
X-557745000Y567908072D01*
X-557869482Y567895812D01*
X-557989180Y567859502D01*
X-558099494Y567800537D01*
X-558115000Y567787812D01*
X-558115000Y568755316D01*
X-558090178Y568713645D01*
X-557895269Y568497412D01*
X-557661920Y568323359D01*
X-557399099Y568198175D01*
X-557251890Y568153524D01*
X-557022000Y568274845D01*
X-557022000Y569468000D01*
X-557042000Y569468000D01*
X-557042000Y569722000D01*
X-557022000Y569722000D01*
X-557022000Y570915155D01*
X-557251890Y571036476D01*
X-557399099Y570991825D01*
X-557661920Y570866641D01*
X-557895269Y570692588D01*
X-558090178Y570476355D01*
X-558115000Y570434684D01*
X-558115000Y572413110D01*
X-557701476Y572413110D01*
X-557656825Y572265901D01*
X-557531641Y572003080D01*
X-557357588Y571769731D01*
X-557141355Y571574822D01*
X-556891252Y571425843D01*
X-556616891Y571328519D01*
X-556387000Y571449186D01*
X-556387000Y572643000D01*
X-557580155Y572643000D01*
X-557701476Y572413110D01*
X-558115000Y572413110D01*
X-558115000Y580536260D01*
X-557745000Y580536260D01*
X-557745000Y580243740D01*
X-557687932Y579956842D01*
X-557575990Y579686589D01*
X-557413475Y579443368D01*
X-557206632Y579236525D01*
X-557032240Y579120000D01*
X-557206632Y579003475D01*
X-557413475Y578796632D01*
X-557575990Y578553411D01*
X-557687932Y578283158D01*
X-557745000Y577996260D01*
X-557745000Y577703740D01*
X-557687932Y577416842D01*
X-557575990Y577146589D01*
X-557413475Y576903368D01*
X-557206632Y576696525D01*
X-557032240Y576580000D01*
X-557206632Y576463475D01*
X-557413475Y576256632D01*
X-557575990Y576013411D01*
X-557687932Y575743158D01*
X-557745000Y575456260D01*
X-557745000Y575163740D01*
X-557687932Y574876842D01*
X-557575990Y574606589D01*
X-557413475Y574363368D01*
X-557206632Y574156525D01*
X-557024466Y574034805D01*
X-557141355Y573965178D01*
X-557357588Y573770269D01*
X-557531641Y573536920D01*
X-557656825Y573274099D01*
X-557701476Y573126890D01*
X-557580155Y572897000D01*
X-556387000Y572897000D01*
X-556387000Y572917000D01*
X-556133000Y572917000D01*
X-556133000Y572897000D01*
X-556113000Y572897000D01*
X-556113000Y572643000D01*
X-556133000Y572643000D01*
X-556133000Y571449186D01*
X-555903109Y571328519D01*
X-555628748Y571425843D01*
X-555378645Y571574822D01*
X-555182498Y571751626D01*
X-555159502Y571675820D01*
X-555100537Y571565506D01*
X-555021185Y571468815D01*
X-554924494Y571389463D01*
X-554814180Y571330498D01*
X-554694482Y571294188D01*
X-554570000Y571281928D01*
X-552870000Y571281928D01*
X-552745518Y571294188D01*
X-552625820Y571330498D01*
X-552515506Y571389463D01*
X-552418815Y571468815D01*
X-552339463Y571565506D01*
X-552280498Y571675820D01*
X-552246772Y571787000D01*
X-548406072Y571787000D01*
X-548393812Y571662518D01*
X-548357502Y571542820D01*
X-548298537Y571432506D01*
X-548219185Y571335815D01*
X-548122494Y571256463D01*
X-548012180Y571197498D01*
X-547892482Y571161188D01*
X-547768000Y571148928D01*
X-547528750Y571152000D01*
X-547370000Y571310750D01*
X-547370000Y572135000D01*
X-548244250Y572135000D01*
X-548403000Y571976250D01*
X-548406072Y571787000D01*
X-552246772Y571787000D01*
X-552244188Y571795518D01*
X-552231928Y571920000D01*
X-552231928Y572737000D01*
X-548406072Y572737000D01*
X-548403000Y572547750D01*
X-548244250Y572389000D01*
X-547370000Y572389000D01*
X-547370000Y573213250D01*
X-547528750Y573372000D01*
X-547768000Y573375072D01*
X-547892482Y573362812D01*
X-548012180Y573326502D01*
X-548122494Y573267537D01*
X-548219185Y573188185D01*
X-548298537Y573091494D01*
X-548357502Y572981180D01*
X-548393812Y572861482D01*
X-548406072Y572737000D01*
X-552231928Y572737000D01*
X-552231928Y573620000D01*
X-552244188Y573744482D01*
X-552280498Y573864180D01*
X-552339463Y573974494D01*
X-552418815Y574071185D01*
X-552515506Y574150537D01*
X-552625820Y574209502D01*
X-552698380Y574231513D01*
X-552566525Y574363368D01*
X-552404010Y574606589D01*
X-552292068Y574876842D01*
X-552235000Y575163740D01*
X-552235000Y575456260D01*
X-552292068Y575743158D01*
X-552404010Y576013411D01*
X-552566525Y576256632D01*
X-552773368Y576463475D01*
X-552947760Y576580000D01*
X-552773368Y576696525D01*
X-552566525Y576903368D01*
X-552404010Y577146589D01*
X-552292068Y577416842D01*
X-552235000Y577703740D01*
X-552235000Y577996260D01*
X-552292068Y578283158D01*
X-552404010Y578553411D01*
X-552566525Y578796632D01*
X-552773368Y579003475D01*
X-552947760Y579120000D01*
X-552773368Y579236525D01*
X-552566525Y579443368D01*
X-552404010Y579686589D01*
X-552292068Y579956842D01*
X-552235000Y580243740D01*
X-552235000Y580536260D01*
X-552267519Y580699744D01*
X-540258803Y580699744D01*
X-540133361Y580517000D01*
X-539242000Y580517000D01*
X-539242000Y581409431D01*
X-539424745Y581533808D01*
X-539641939Y581451402D01*
X-539838883Y581328207D01*
X-540008009Y581168957D01*
X-540142817Y580979772D01*
X-540238127Y580767923D01*
X-540258803Y580699744D01*
X-552267519Y580699744D01*
X-552292068Y580823158D01*
X-552404010Y581093411D01*
X-552566525Y581336632D01*
X-552773368Y581543475D01*
X-552947760Y581660000D01*
X-552773368Y581776525D01*
X-552566525Y581983368D01*
X-552404010Y582226589D01*
X-552292068Y582496842D01*
X-552235000Y582783740D01*
X-552235000Y583076260D01*
X-552292068Y583363158D01*
X-552404010Y583633411D01*
X-552566525Y583876632D01*
X-552773368Y584083475D01*
X-553016589Y584245990D01*
X-553286842Y584357932D01*
X-553573740Y584415000D01*
X-553866260Y584415000D01*
X-554153158Y584357932D01*
X-554423411Y584245990D01*
X-554666632Y584083475D01*
X-554873475Y583876632D01*
X-554991100Y583700594D01*
X-555162412Y583930269D01*
X-555378645Y584125178D01*
X-555628748Y584274157D01*
X-555903109Y584371481D01*
X-556133000Y584250814D01*
X-556133000Y583057000D01*
X-556113000Y583057000D01*
X-556113000Y582803000D01*
X-556133000Y582803000D01*
X-556133000Y582783000D01*
X-556387000Y582783000D01*
X-556387000Y582803000D01*
X-557580155Y582803000D01*
X-557701476Y582573110D01*
X-557656825Y582425901D01*
X-557531641Y582163080D01*
X-557357588Y581929731D01*
X-557141355Y581734822D01*
X-557024466Y581665195D01*
X-557206632Y581543475D01*
X-557413475Y581336632D01*
X-557575990Y581093411D01*
X-557687932Y580823158D01*
X-557745000Y580536260D01*
X-558115000Y580536260D01*
X-558115000Y583286890D01*
X-557701476Y583286890D01*
X-557580155Y583057000D01*
X-556387000Y583057000D01*
X-556387000Y584250814D01*
X-556616891Y584371481D01*
X-556891252Y584274157D01*
X-557141355Y584125178D01*
X-557357588Y583930269D01*
X-557531641Y583696920D01*
X-557656825Y583434099D01*
X-557701476Y583286890D01*
X-558115000Y583286890D01*
X-558115000Y586055000D01*
X-531072070Y586055000D01*
X-531171632Y585988475D01*
G37*
X-531171632Y585988475D02*
X-531378475Y585781632D01*
X-531540990Y585538411D01*
X-531652932Y585268158D01*
X-531710000Y584981260D01*
X-531710000Y584688740D01*
X-531652932Y584401842D01*
X-531540990Y584131589D01*
X-531378475Y583888368D01*
X-531171632Y583681525D01*
X-530989466Y583559805D01*
X-531106355Y583490178D01*
X-531322588Y583295269D01*
X-531496641Y583061920D01*
X-531621825Y582799099D01*
X-531666476Y582651890D01*
X-531545155Y582422000D01*
X-530352000Y582422000D01*
X-530352000Y582442000D01*
X-530098000Y582442000D01*
X-530098000Y582422000D01*
X-527812000Y582422000D01*
X-527812000Y582442000D01*
X-527558000Y582442000D01*
X-527558000Y582422000D01*
X-527538000Y582422000D01*
X-527538000Y582168000D01*
X-527558000Y582168000D01*
X-527558000Y582148000D01*
X-527812000Y582148000D01*
X-527812000Y582168000D01*
X-530098000Y582168000D01*
X-530098000Y582148000D01*
X-530352000Y582148000D01*
X-530352000Y582168000D01*
X-531545155Y582168000D01*
X-531666476Y581938110D01*
X-531621825Y581790901D01*
X-531496641Y581528080D01*
X-531322588Y581294731D01*
X-531106355Y581099822D01*
X-530989466Y581030195D01*
X-531171632Y580908475D01*
X-531378475Y580701632D01*
X-531540990Y580458411D01*
X-531652932Y580188158D01*
X-531710000Y579901260D01*
X-531710000Y579608740D01*
X-531652932Y579321842D01*
X-531540990Y579051589D01*
X-531378475Y578808368D01*
X-531171632Y578601525D01*
X-530997240Y578485000D01*
X-531171632Y578368475D01*
X-531378475Y578161632D01*
X-531540990Y577918411D01*
X-531652932Y577648158D01*
X-531710000Y577361260D01*
X-531710000Y577068740D01*
X-531652932Y576781842D01*
X-531540990Y576511589D01*
X-531378475Y576268368D01*
X-531171632Y576061525D01*
X-530997240Y575945000D01*
X-531171632Y575828475D01*
X-531378475Y575621632D01*
X-531540990Y575378411D01*
X-531652932Y575108158D01*
X-531710000Y574821260D01*
X-531710000Y574528740D01*
X-531652932Y574241842D01*
X-531540990Y573971589D01*
X-531378475Y573728368D01*
X-531171632Y573521525D01*
X-530997240Y573405000D01*
X-531171632Y573288475D01*
X-531378475Y573081632D01*
X-531540990Y572838411D01*
X-531652932Y572568158D01*
X-531710000Y572281260D01*
X-531710000Y571988740D01*
X-531652932Y571701842D01*
X-531540990Y571431589D01*
X-531378475Y571188368D01*
X-531171632Y570981525D01*
X-530997240Y570865000D01*
X-531171632Y570748475D01*
X-531378475Y570541632D01*
X-531540990Y570298411D01*
X-531652932Y570028158D01*
X-531710000Y569741260D01*
X-531710000Y569448740D01*
X-531652932Y569161842D01*
X-531574482Y568972446D01*
X-531798917Y568748011D01*
X-531867345Y568748011D01*
X-532056273Y568710431D01*
X-532234240Y568636715D01*
X-532394405Y568529696D01*
X-532530615Y568393486D01*
X-532637634Y568233321D01*
X-532711350Y568055354D01*
X-532740302Y567909801D01*
X-538007081Y567909801D01*
X-537366800Y568550081D01*
X-537339674Y568572343D01*
X-537317412Y568599469D01*
X-537317403Y568599478D01*
X-537250798Y568680637D01*
X-537203781Y568768600D01*
X-537184758Y568804189D01*
X-537144091Y568938250D01*
X-537133800Y569042734D01*
X-537133800Y569042743D01*
X-537130360Y569077669D01*
X-537133800Y569112595D01*
X-537133800Y569280021D01*
X-537089606Y569309550D01*
X-536924550Y569474606D01*
X-536794866Y569668692D01*
X-536705539Y569884348D01*
X-536660000Y570113288D01*
X-536660000Y570346712D01*
X-536705539Y570575652D01*
X-536794866Y570791308D01*
X-536844105Y570865000D01*
X-536794866Y570938692D01*
X-536705539Y571154348D01*
X-536660000Y571383288D01*
X-536660000Y571616712D01*
X-536705539Y571845652D01*
X-536794866Y572061308D01*
X-536844105Y572135000D01*
X-536794866Y572208692D01*
X-536705539Y572424348D01*
X-536660000Y572653288D01*
X-536660000Y572886712D01*
X-536705539Y573115652D01*
X-536794866Y573331308D01*
X-536924550Y573525394D01*
X-537089606Y573690450D01*
X-537283692Y573820134D01*
X-537499348Y573909461D01*
X-537728288Y573955000D01*
X-537930000Y573955000D01*
X-537930000Y574125000D01*
X-537728288Y574125000D01*
X-537499348Y574170539D01*
X-537283692Y574259866D01*
X-537089606Y574389550D01*
X-536924550Y574554606D01*
X-536794866Y574748692D01*
X-536705539Y574964348D01*
X-536660000Y575193288D01*
X-536660000Y575426712D01*
X-536705539Y575655652D01*
X-536794866Y575871308D01*
X-536924550Y576065394D01*
X-537089606Y576230450D01*
X-537283692Y576360134D01*
X-537499348Y576449461D01*
X-537728288Y576495000D01*
X-537930000Y576495000D01*
X-537930000Y576665000D01*
X-537728288Y576665000D01*
X-537499348Y576710539D01*
X-537283692Y576799866D01*
X-537089606Y576929550D01*
X-536924550Y577094606D01*
X-536794866Y577288692D01*
X-536705539Y577504348D01*
X-536660000Y577733288D01*
X-536660000Y577966712D01*
X-536705539Y578195652D01*
X-536794866Y578411308D01*
X-536924550Y578605394D01*
X-537089606Y578770450D01*
X-537283692Y578900134D01*
X-537499348Y578989461D01*
X-537728288Y579035000D01*
X-537930000Y579035000D01*
X-537930000Y579205000D01*
X-537728288Y579205000D01*
X-537499348Y579250539D01*
X-537283692Y579339866D01*
X-537089606Y579469550D01*
X-536924550Y579634606D01*
X-536794866Y579828692D01*
X-536705539Y580044348D01*
X-536660000Y580273288D01*
X-536660000Y580506712D01*
X-536705539Y580735652D01*
X-536794866Y580951308D01*
X-536924550Y581145394D01*
X-537089606Y581310450D01*
X-537283692Y581440134D01*
X-537499348Y581529461D01*
X-537728288Y581575000D01*
X-537961712Y581575000D01*
X-538190652Y581529461D01*
X-538406308Y581440134D01*
X-538485479Y581387234D01*
X-538588061Y581451402D01*
X-538805255Y581533808D01*
X-538988000Y581409431D01*
X-538988000Y580717860D01*
X-539030000Y580506712D01*
X-539030000Y580305000D01*
X-539231712Y580305000D01*
X-539442860Y580263000D01*
X-540133361Y580263000D01*
X-540258803Y580080256D01*
X-540238127Y580012077D01*
X-540142817Y579800228D01*
X-540113327Y579758843D01*
X-540165134Y579681308D01*
X-540254461Y579465652D01*
X-540300000Y579236712D01*
X-540300000Y579003288D01*
X-540254461Y578774348D01*
X-540165134Y578558692D01*
X-540113327Y578481157D01*
X-540142817Y578439772D01*
X-540222840Y578261902D01*
X-540227068Y578283158D01*
X-540339010Y578553411D01*
X-540501525Y578796632D01*
X-540708368Y579003475D01*
X-540951589Y579165990D01*
X-541221842Y579277932D01*
X-541508740Y579335000D01*
X-541801260Y579335000D01*
X-542088158Y579277932D01*
X-542358411Y579165990D01*
X-542601632Y579003475D01*
X-542808475Y578796632D01*
X-542970990Y578553411D01*
X-543082932Y578283158D01*
X-543140000Y577996260D01*
X-543140000Y577703740D01*
X-543082932Y577416842D01*
X-542970990Y577146589D01*
X-542808475Y576903368D01*
X-542601632Y576696525D01*
X-542419466Y576574805D01*
X-542536355Y576505178D01*
X-542752588Y576310269D01*
X-542926641Y576076920D01*
X-543051825Y575814099D01*
X-543096476Y575666890D01*
X-542975155Y575437000D01*
X-541782000Y575437000D01*
X-541782000Y575457000D01*
X-541528000Y575457000D01*
X-541528000Y575437000D01*
X-540334845Y575437000D01*
X-540247271Y575602944D01*
X-540133361Y575437000D01*
X-539442860Y575437000D01*
X-539231712Y575395000D01*
X-539030000Y575395000D01*
X-539030000Y575225000D01*
X-539231712Y575225000D01*
X-539442860Y575183000D01*
X-540133361Y575183000D01*
X-540247271Y575017056D01*
X-540334845Y575183000D01*
X-541528000Y575183000D01*
X-541528000Y575163000D01*
X-541782000Y575163000D01*
X-541782000Y575183000D01*
X-542975155Y575183000D01*
X-543096476Y574953110D01*
X-543051825Y574805901D01*
X-542926641Y574543080D01*
X-542752588Y574309731D01*
X-542536355Y574114822D01*
X-542419466Y574045195D01*
X-542601632Y573923475D01*
X-542808475Y573716632D01*
X-542970990Y573473411D01*
X-543082932Y573203158D01*
X-543140000Y572916260D01*
X-543140000Y572623740D01*
X-543082932Y572336842D01*
X-542970990Y572066589D01*
X-542808475Y571823368D01*
X-542601632Y571616525D01*
X-542419466Y571494805D01*
X-542536355Y571425178D01*
X-542752588Y571230269D01*
X-542926641Y570996920D01*
X-542951912Y570943864D01*
X-542990506Y570975537D01*
X-543100820Y571034502D01*
X-543220518Y571070812D01*
X-543345000Y571083072D01*
X-543407600Y571083072D01*
X-543407600Y571450338D01*
X-543403792Y571489001D01*
X-543407600Y571527664D01*
X-543407600Y571527673D01*
X-543418994Y571643357D01*
X-543464018Y571791783D01*
X-543537134Y571928572D01*
X-543635531Y572048469D01*
X-543665573Y572073123D01*
X-544383322Y572790872D01*
X-544396577Y572834567D01*
X-544477488Y572985942D01*
X-544586377Y573118623D01*
X-544719058Y573227512D01*
X-544870433Y573308423D01*
X-545034684Y573358248D01*
X-545205500Y573375072D01*
X-545780500Y573375072D01*
X-545951316Y573358248D01*
X-546115567Y573308423D01*
X-546266942Y573227512D01*
X-546290839Y573207901D01*
X-546363506Y573267537D01*
X-546473820Y573326502D01*
X-546593518Y573362812D01*
X-546718000Y573375072D01*
X-546957250Y573372000D01*
X-547116000Y573213250D01*
X-547116000Y572389000D01*
X-547096000Y572389000D01*
X-547096000Y572135000D01*
X-547116000Y572135000D01*
X-547116000Y571310750D01*
X-546957250Y571152000D01*
X-546718000Y571148928D01*
X-546593518Y571161188D01*
X-546473820Y571197498D01*
X-546363506Y571256463D01*
X-546290839Y571316099D01*
X-546266942Y571296488D01*
X-546115567Y571215577D01*
X-545951316Y571165752D01*
X-545780500Y571148928D01*
X-545205500Y571148928D01*
X-545034684Y571165752D01*
X-544996796Y571177245D01*
X-544982399Y571162848D01*
X-544982399Y571083072D01*
X-545045000Y571083072D01*
X-545169482Y571070812D01*
X-545289180Y571034502D01*
X-545399494Y570975537D01*
X-545496185Y570896185D01*
X-545575537Y570799494D01*
X-545634502Y570689180D01*
X-545656513Y570616620D01*
X-545788368Y570748475D01*
X-546031589Y570910990D01*
X-546301842Y571022932D01*
X-546588740Y571080000D01*
X-546881260Y571080000D01*
X-547168158Y571022932D01*
X-547438411Y570910990D01*
X-547681632Y570748475D01*
X-547888475Y570541632D01*
X-548005000Y570367240D01*
X-548121525Y570541632D01*
X-548328368Y570748475D01*
X-548571589Y570910990D01*
X-548841842Y571022932D01*
X-549128740Y571080000D01*
X-549421260Y571080000D01*
X-549708158Y571022932D01*
X-549978411Y570910990D01*
X-550221632Y570748475D01*
X-550428475Y570541632D01*
X-550545000Y570367240D01*
X-550661525Y570541632D01*
X-550868368Y570748475D01*
X-551111589Y570910990D01*
X-551381842Y571022932D01*
X-551668740Y571080000D01*
X-551961260Y571080000D01*
X-552248158Y571022932D01*
X-552518411Y570910990D01*
X-552761632Y570748475D01*
X-552968475Y570541632D01*
X-553085000Y570367240D01*
X-553201525Y570541632D01*
X-553408368Y570748475D01*
X-553651589Y570910990D01*
X-553921842Y571022932D01*
X-554208740Y571080000D01*
X-554501260Y571080000D01*
X-554788158Y571022932D01*
X-555058411Y570910990D01*
X-555301632Y570748475D01*
X-555508475Y570541632D01*
X-555630195Y570359466D01*
X-555699822Y570476355D01*
X-555894731Y570692588D01*
X-556128080Y570866641D01*
X-556390901Y570991825D01*
X-556538110Y571036476D01*
X-556768000Y570915155D01*
X-556768000Y569722000D01*
X-556748000Y569722000D01*
X-556748000Y569468000D01*
X-556768000Y569468000D01*
X-556768000Y568274845D01*
X-556538110Y568153524D01*
X-556390901Y568198175D01*
X-556128080Y568323359D01*
X-555894731Y568497412D01*
X-555699822Y568713645D01*
X-555630195Y568830534D01*
X-555508475Y568648368D01*
X-555301632Y568441525D01*
X-555058411Y568279010D01*
X-554788158Y568167068D01*
X-554501260Y568110000D01*
X-554208740Y568110000D01*
X-553921842Y568167068D01*
X-553651589Y568279010D01*
X-553408368Y568441525D01*
X-553201525Y568648368D01*
X-553085000Y568822760D01*
X-552968475Y568648368D01*
X-552761632Y568441525D01*
X-552518411Y568279010D01*
X-552248158Y568167068D01*
X-551961260Y568110000D01*
X-551668740Y568110000D01*
X-551391029Y568165241D01*
X-551263997Y568038209D01*
X-551241726Y568011072D01*
X-551133432Y567922197D01*
X-551009880Y567856157D01*
X-550875819Y567815490D01*
X-550771335Y567805199D01*
X-550771326Y567805199D01*
X-550736400Y567801759D01*
X-550701474Y567805199D01*
X-543197045Y567805199D01*
X-543162119Y567801759D01*
X-543140000Y567803938D01*
X-543140000Y567543740D01*
X-543102639Y567355913D01*
X-544405951Y566052599D01*
X-555406928Y566052599D01*
X-555406928Y567270000D01*
X-555419188Y567394482D01*
X-555455498Y567514180D01*
X-555514463Y567624494D01*
X-555593815Y567721185D01*
X-555690506Y567800537D01*
X-555800820Y567859502D01*
X-555920518Y567895812D01*
X-556045000Y567908072D01*
X-557745000Y567908072D01*
X-557869482Y567895812D01*
X-557989180Y567859502D01*
X-558099494Y567800537D01*
X-558115000Y567787812D01*
X-558115000Y568755316D01*
X-558090178Y568713645D01*
X-557895269Y568497412D01*
X-557661920Y568323359D01*
X-557399099Y568198175D01*
X-557251890Y568153524D01*
X-557022000Y568274845D01*
X-557022000Y569468000D01*
X-557042000Y569468000D01*
X-557042000Y569722000D01*
X-557022000Y569722000D01*
X-557022000Y570915155D01*
X-557251890Y571036476D01*
X-557399099Y570991825D01*
X-557661920Y570866641D01*
X-557895269Y570692588D01*
X-558090178Y570476355D01*
X-558115000Y570434684D01*
X-558115000Y572413110D01*
X-557701476Y572413110D01*
X-557656825Y572265901D01*
X-557531641Y572003080D01*
X-557357588Y571769731D01*
X-557141355Y571574822D01*
X-556891252Y571425843D01*
X-556616891Y571328519D01*
X-556387000Y571449186D01*
X-556387000Y572643000D01*
X-557580155Y572643000D01*
X-557701476Y572413110D01*
X-558115000Y572413110D01*
X-558115000Y580536260D01*
X-557745000Y580536260D01*
X-557745000Y580243740D01*
X-557687932Y579956842D01*
X-557575990Y579686589D01*
X-557413475Y579443368D01*
X-557206632Y579236525D01*
X-557032240Y579120000D01*
X-557206632Y579003475D01*
X-557413475Y578796632D01*
X-557575990Y578553411D01*
X-557687932Y578283158D01*
X-557745000Y577996260D01*
X-557745000Y577703740D01*
X-557687932Y577416842D01*
X-557575990Y577146589D01*
X-557413475Y576903368D01*
X-557206632Y576696525D01*
X-557032240Y576580000D01*
X-557206632Y576463475D01*
X-557413475Y576256632D01*
X-557575990Y576013411D01*
X-557687932Y575743158D01*
X-557745000Y575456260D01*
X-557745000Y575163740D01*
X-557687932Y574876842D01*
X-557575990Y574606589D01*
X-557413475Y574363368D01*
X-557206632Y574156525D01*
X-557024466Y574034805D01*
X-557141355Y573965178D01*
X-557357588Y573770269D01*
X-557531641Y573536920D01*
X-557656825Y573274099D01*
X-557701476Y573126890D01*
X-557580155Y572897000D01*
X-556387000Y572897000D01*
X-556387000Y572917000D01*
X-556133000Y572917000D01*
X-556133000Y572897000D01*
X-556113000Y572897000D01*
X-556113000Y572643000D01*
X-556133000Y572643000D01*
X-556133000Y571449186D01*
X-555903109Y571328519D01*
X-555628748Y571425843D01*
X-555378645Y571574822D01*
X-555182498Y571751626D01*
X-555159502Y571675820D01*
X-555100537Y571565506D01*
X-555021185Y571468815D01*
X-554924494Y571389463D01*
X-554814180Y571330498D01*
X-554694482Y571294188D01*
X-554570000Y571281928D01*
X-552870000Y571281928D01*
X-552745518Y571294188D01*
X-552625820Y571330498D01*
X-552515506Y571389463D01*
X-552418815Y571468815D01*
X-552339463Y571565506D01*
X-552280498Y571675820D01*
X-552246772Y571787000D01*
X-548406072Y571787000D01*
X-548393812Y571662518D01*
X-548357502Y571542820D01*
X-548298537Y571432506D01*
X-548219185Y571335815D01*
X-548122494Y571256463D01*
X-548012180Y571197498D01*
X-547892482Y571161188D01*
X-547768000Y571148928D01*
X-547528750Y571152000D01*
X-547370000Y571310750D01*
X-547370000Y572135000D01*
X-548244250Y572135000D01*
X-548403000Y571976250D01*
X-548406072Y571787000D01*
X-552246772Y571787000D01*
X-552244188Y571795518D01*
X-552231928Y571920000D01*
X-552231928Y572737000D01*
X-548406072Y572737000D01*
X-548403000Y572547750D01*
X-548244250Y572389000D01*
X-547370000Y572389000D01*
X-547370000Y573213250D01*
X-547528750Y573372000D01*
X-547768000Y573375072D01*
X-547892482Y573362812D01*
X-548012180Y573326502D01*
X-548122494Y573267537D01*
X-548219185Y573188185D01*
X-548298537Y573091494D01*
X-548357502Y572981180D01*
X-548393812Y572861482D01*
X-548406072Y572737000D01*
X-552231928Y572737000D01*
X-552231928Y573620000D01*
X-552244188Y573744482D01*
X-552280498Y573864180D01*
X-552339463Y573974494D01*
X-552418815Y574071185D01*
X-552515506Y574150537D01*
X-552625820Y574209502D01*
X-552698380Y574231513D01*
X-552566525Y574363368D01*
X-552404010Y574606589D01*
X-552292068Y574876842D01*
X-552235000Y575163740D01*
X-552235000Y575456260D01*
X-552292068Y575743158D01*
X-552404010Y576013411D01*
X-552566525Y576256632D01*
X-552773368Y576463475D01*
X-552947760Y576580000D01*
X-552773368Y576696525D01*
X-552566525Y576903368D01*
X-552404010Y577146589D01*
X-552292068Y577416842D01*
X-552235000Y577703740D01*
X-552235000Y577996260D01*
X-552292068Y578283158D01*
X-552404010Y578553411D01*
X-552566525Y578796632D01*
X-552773368Y579003475D01*
X-552947760Y579120000D01*
X-552773368Y579236525D01*
X-552566525Y579443368D01*
X-552404010Y579686589D01*
X-552292068Y579956842D01*
X-552235000Y580243740D01*
X-552235000Y580536260D01*
X-552267519Y580699744D01*
X-540258803Y580699744D01*
X-540133361Y580517000D01*
X-539242000Y580517000D01*
X-539242000Y581409431D01*
X-539424745Y581533808D01*
X-539641939Y581451402D01*
X-539838883Y581328207D01*
X-540008009Y581168957D01*
X-540142817Y580979772D01*
X-540238127Y580767923D01*
X-540258803Y580699744D01*
X-552267519Y580699744D01*
X-552292068Y580823158D01*
X-552404010Y581093411D01*
X-552566525Y581336632D01*
X-552773368Y581543475D01*
X-552947760Y581660000D01*
X-552773368Y581776525D01*
X-552566525Y581983368D01*
X-552404010Y582226589D01*
X-552292068Y582496842D01*
X-552235000Y582783740D01*
X-552235000Y583076260D01*
X-552292068Y583363158D01*
X-552404010Y583633411D01*
X-552566525Y583876632D01*
X-552773368Y584083475D01*
X-553016589Y584245990D01*
X-553286842Y584357932D01*
X-553573740Y584415000D01*
X-553866260Y584415000D01*
X-554153158Y584357932D01*
X-554423411Y584245990D01*
X-554666632Y584083475D01*
X-554873475Y583876632D01*
X-554991100Y583700594D01*
X-555162412Y583930269D01*
X-555378645Y584125178D01*
X-555628748Y584274157D01*
X-555903109Y584371481D01*
X-556133000Y584250814D01*
X-556133000Y583057000D01*
X-556113000Y583057000D01*
X-556113000Y582803000D01*
X-556133000Y582803000D01*
X-556133000Y582783000D01*
X-556387000Y582783000D01*
X-556387000Y582803000D01*
X-557580155Y582803000D01*
X-557701476Y582573110D01*
X-557656825Y582425901D01*
X-557531641Y582163080D01*
X-557357588Y581929731D01*
X-557141355Y581734822D01*
X-557024466Y581665195D01*
X-557206632Y581543475D01*
X-557413475Y581336632D01*
X-557575990Y581093411D01*
X-557687932Y580823158D01*
X-557745000Y580536260D01*
X-558115000Y580536260D01*
X-558115000Y583286890D01*
X-557701476Y583286890D01*
X-557580155Y583057000D01*
X-556387000Y583057000D01*
X-556387000Y584250814D01*
X-556616891Y584371481D01*
X-556891252Y584274157D01*
X-557141355Y584125178D01*
X-557357588Y583930269D01*
X-557531641Y583696920D01*
X-557656825Y583434099D01*
X-557701476Y583286890D01*
X-558115000Y583286890D01*
X-558115000Y586055000D01*
X-531072070Y586055000D01*
X-531171632Y585988475D01*
G36*
X-554873475Y574363368D02*
G01*
X-554741620Y574231513D01*
X-554814180Y574209502D01*
X-554924494Y574150537D01*
X-555021185Y574071185D01*
X-555100537Y573974494D01*
X-555159502Y573864180D01*
X-555182498Y573788374D01*
X-555378645Y573965178D01*
X-555495534Y574034805D01*
X-555313368Y574156525D01*
X-555106525Y574363368D01*
X-554990000Y574537760D01*
X-554873475Y574363368D01*
G37*
X-554873475Y574363368D02*
X-554741620Y574231513D01*
X-554814180Y574209502D01*
X-554924494Y574150537D01*
X-555021185Y574071185D01*
X-555100537Y573974494D01*
X-555159502Y573864180D01*
X-555182498Y573788374D01*
X-555378645Y573965178D01*
X-555495534Y574034805D01*
X-555313368Y574156525D01*
X-555106525Y574363368D01*
X-554990000Y574537760D01*
X-554873475Y574363368D01*
G36*
X-554873475Y581983368D02*
G01*
X-554666632Y581776525D01*
X-554492240Y581660000D01*
X-554666632Y581543475D01*
X-554873475Y581336632D01*
X-554990000Y581162240D01*
X-555106525Y581336632D01*
X-555313368Y581543475D01*
X-555495534Y581665195D01*
X-555378645Y581734822D01*
X-555162412Y581929731D01*
X-554991100Y582159406D01*
X-554873475Y581983368D01*
G37*
X-554873475Y581983368D02*
X-554666632Y581776525D01*
X-554492240Y581660000D01*
X-554666632Y581543475D01*
X-554873475Y581336632D01*
X-554990000Y581162240D01*
X-555106525Y581336632D01*
X-555313368Y581543475D01*
X-555495534Y581665195D01*
X-555378645Y581734822D01*
X-555162412Y581929731D01*
X-554991100Y582159406D01*
X-554873475Y581983368D01*
G36*
X-538968000Y568960458D02*
G01*
X-539082758Y568845699D01*
X-539262000Y568845699D01*
X-539262000Y569051025D01*
X-539231712Y569045000D01*
X-538998288Y569045000D01*
X-538968000Y569051025D01*
X-538968000Y568960458D01*
G37*
X-538968000Y568960458D02*
X-539082758Y568845699D01*
X-539262000Y568845699D01*
X-539262000Y569051025D01*
X-539231712Y569045000D01*
X-538998288Y569045000D01*
X-538968000Y569051025D01*
X-538968000Y568960458D01*
G36*
X-541528000Y570357000D02*
G01*
X-541508000Y570357000D01*
X-541508000Y570103000D01*
X-541528000Y570103000D01*
X-541528000Y570083000D01*
X-541782000Y570083000D01*
X-541782000Y570103000D01*
X-541802000Y570103000D01*
X-541802000Y570357000D01*
X-541782000Y570357000D01*
X-541782000Y570377000D01*
X-541528000Y570377000D01*
X-541528000Y570357000D01*
G37*
X-541528000Y570357000D02*
X-541508000Y570357000D01*
X-541508000Y570103000D01*
X-541528000Y570103000D01*
X-541528000Y570083000D01*
X-541782000Y570083000D01*
X-541782000Y570103000D01*
X-541802000Y570103000D01*
X-541802000Y570357000D01*
X-541782000Y570357000D01*
X-541782000Y570377000D01*
X-541528000Y570377000D01*
X-541528000Y570357000D01*
G36*
X-540142817Y574720228D02*
G01*
X-540113327Y574678843D01*
X-540165134Y574601308D01*
X-540254461Y574385652D01*
X-540300000Y574156712D01*
X-540300000Y573923288D01*
X-540254461Y573694348D01*
X-540165134Y573478692D01*
X-540115895Y573405000D01*
X-540165134Y573331308D01*
X-540224196Y573188719D01*
X-540227068Y573203158D01*
X-540339010Y573473411D01*
X-540501525Y573716632D01*
X-540708368Y573923475D01*
X-540890534Y574045195D01*
X-540773645Y574114822D01*
X-540557412Y574309731D01*
X-540383359Y574543080D01*
X-540258175Y574805901D01*
X-540227242Y574907883D01*
X-540142817Y574720228D01*
G37*
X-540142817Y574720228D02*
X-540113327Y574678843D01*
X-540165134Y574601308D01*
X-540254461Y574385652D01*
X-540300000Y574156712D01*
X-540300000Y573923288D01*
X-540254461Y573694348D01*
X-540165134Y573478692D01*
X-540115895Y573405000D01*
X-540165134Y573331308D01*
X-540224196Y573188719D01*
X-540227068Y573203158D01*
X-540339010Y573473411D01*
X-540501525Y573716632D01*
X-540708368Y573923475D01*
X-540890534Y574045195D01*
X-540773645Y574114822D01*
X-540557412Y574309731D01*
X-540383359Y574543080D01*
X-540258175Y574805901D01*
X-540227242Y574907883D01*
X-540142817Y574720228D01*
G36*
X-539231712Y577935000D02*
G01*
X-539030000Y577935000D01*
X-539030000Y577765000D01*
X-539231712Y577765000D01*
X-539262000Y577758975D01*
X-539262000Y577941025D01*
X-539231712Y577935000D01*
G37*
X-539231712Y577935000D02*
X-539030000Y577935000D01*
X-539030000Y577765000D01*
X-539231712Y577765000D01*
X-539262000Y577758975D01*
X-539262000Y577941025D01*
X-539231712Y577935000D01*
G36*
X-526465000Y580602070D02*
G01*
X-526531525Y580701632D01*
X-526738368Y580908475D01*
X-526920534Y581030195D01*
X-526803645Y581099822D01*
X-526587412Y581294731D01*
X-526465000Y581458846D01*
X-526465000Y580602070D01*
G37*
X-526465000Y580602070D02*
X-526531525Y580701632D01*
X-526738368Y580908475D01*
X-526920534Y581030195D01*
X-526803645Y581099822D01*
X-526587412Y581294731D01*
X-526465000Y581458846D01*
X-526465000Y580602070D01*
M02*
