G04 #@! TF.GenerationSoftware,KiCad,Pcbnew,(5.1.5-0)*
G04 #@! TF.CreationDate,2019-12-08T13:08:37-08:00*
G04 #@! TF.ProjectId,cisco_hwic_dev_board,63697363-6f5f-4687-9769-635f6465765f,rev?*
G04 #@! TF.SameCoordinates,Original*
G04 #@! TF.FileFunction,Soldermask,Bot*
G04 #@! TF.FilePolarity,Negative*
%FSLAX46Y46*%
G04 Gerber Fmt 4.6, Leading zero omitted, Abs format (unit mm)*
G04 Created by KiCad (PCBNEW (5.1.5-0)) date 2019-12-08 13:08:37*
%MOMM*%
%LPD*%
G04 APERTURE LIST*
%ADD10C,0.150000*%
G04 APERTURE END LIST*
D10*
G36*
X-532778488Y537344073D02*
G01*
X-532629188Y537314376D01*
X-532465216Y537246456D01*
X-532317646Y537147853D01*
X-532192147Y537022354D01*
X-532093544Y536874784D01*
X-532025624Y536710812D01*
X-531991000Y536536741D01*
X-531991000Y536359259D01*
X-532025624Y536185188D01*
X-532093544Y536021216D01*
X-532192147Y535873646D01*
X-532317646Y535748147D01*
X-532465216Y535649544D01*
X-532629188Y535581624D01*
X-532778488Y535551927D01*
X-532803258Y535547000D01*
X-532980742Y535547000D01*
X-533005512Y535551927D01*
X-533154812Y535581624D01*
X-533318784Y535649544D01*
X-533466354Y535748147D01*
X-533591853Y535873646D01*
X-533690456Y536021216D01*
X-533758376Y536185188D01*
X-533793000Y536359259D01*
X-533793000Y536536741D01*
X-533758376Y536710812D01*
X-533690456Y536874784D01*
X-533591853Y537022354D01*
X-533466354Y537147853D01*
X-533318784Y537246456D01*
X-533154812Y537314376D01*
X-533005512Y537344073D01*
X-532980742Y537349000D01*
X-532803258Y537349000D01*
X-532778488Y537344073D01*
G37*
G36*
X-535318488Y537344073D02*
G01*
X-535169188Y537314376D01*
X-535005216Y537246456D01*
X-534857646Y537147853D01*
X-534732147Y537022354D01*
X-534633544Y536874784D01*
X-534565624Y536710812D01*
X-534531000Y536536741D01*
X-534531000Y536359259D01*
X-534565624Y536185188D01*
X-534633544Y536021216D01*
X-534732147Y535873646D01*
X-534857646Y535748147D01*
X-535005216Y535649544D01*
X-535169188Y535581624D01*
X-535318488Y535551927D01*
X-535343258Y535547000D01*
X-535520742Y535547000D01*
X-535545512Y535551927D01*
X-535694812Y535581624D01*
X-535858784Y535649544D01*
X-536006354Y535748147D01*
X-536131853Y535873646D01*
X-536230456Y536021216D01*
X-536298376Y536185188D01*
X-536333000Y536359259D01*
X-536333000Y536536741D01*
X-536298376Y536710812D01*
X-536230456Y536874784D01*
X-536131853Y537022354D01*
X-536006354Y537147853D01*
X-535858784Y537246456D01*
X-535694812Y537314376D01*
X-535545512Y537344073D01*
X-535520742Y537349000D01*
X-535343258Y537349000D01*
X-535318488Y537344073D01*
G37*
G36*
X-541668488Y537344073D02*
G01*
X-541519188Y537314376D01*
X-541355216Y537246456D01*
X-541207646Y537147853D01*
X-541082147Y537022354D01*
X-540983544Y536874784D01*
X-540915624Y536710812D01*
X-540881000Y536536741D01*
X-540881000Y536359259D01*
X-540915624Y536185188D01*
X-540983544Y536021216D01*
X-541082147Y535873646D01*
X-541207646Y535748147D01*
X-541355216Y535649544D01*
X-541519188Y535581624D01*
X-541668488Y535551927D01*
X-541693258Y535547000D01*
X-541870742Y535547000D01*
X-541895512Y535551927D01*
X-542044812Y535581624D01*
X-542208784Y535649544D01*
X-542356354Y535748147D01*
X-542481853Y535873646D01*
X-542580456Y536021216D01*
X-542648376Y536185188D01*
X-542683000Y536359259D01*
X-542683000Y536536741D01*
X-542648376Y536710812D01*
X-542580456Y536874784D01*
X-542481853Y537022354D01*
X-542356354Y537147853D01*
X-542208784Y537246456D01*
X-542044812Y537314376D01*
X-541895512Y537344073D01*
X-541870742Y537349000D01*
X-541693258Y537349000D01*
X-541668488Y537344073D01*
G37*
G36*
X-544208488Y537344073D02*
G01*
X-544059188Y537314376D01*
X-543895216Y537246456D01*
X-543747646Y537147853D01*
X-543622147Y537022354D01*
X-543523544Y536874784D01*
X-543455624Y536710812D01*
X-543421000Y536536741D01*
X-543421000Y536359259D01*
X-543455624Y536185188D01*
X-543523544Y536021216D01*
X-543622147Y535873646D01*
X-543747646Y535748147D01*
X-543895216Y535649544D01*
X-544059188Y535581624D01*
X-544208488Y535551927D01*
X-544233258Y535547000D01*
X-544410742Y535547000D01*
X-544435512Y535551927D01*
X-544584812Y535581624D01*
X-544748784Y535649544D01*
X-544896354Y535748147D01*
X-545021853Y535873646D01*
X-545120456Y536021216D01*
X-545188376Y536185188D01*
X-545223000Y536359259D01*
X-545223000Y536536741D01*
X-545188376Y536710812D01*
X-545120456Y536874784D01*
X-545021853Y537022354D01*
X-544896354Y537147853D01*
X-544748784Y537246456D01*
X-544584812Y537314376D01*
X-544435512Y537344073D01*
X-544410742Y537349000D01*
X-544233258Y537349000D01*
X-544208488Y537344073D01*
G37*
G36*
X-546748488Y537344073D02*
G01*
X-546599188Y537314376D01*
X-546435216Y537246456D01*
X-546287646Y537147853D01*
X-546162147Y537022354D01*
X-546063544Y536874784D01*
X-545995624Y536710812D01*
X-545961000Y536536741D01*
X-545961000Y536359259D01*
X-545995624Y536185188D01*
X-546063544Y536021216D01*
X-546162147Y535873646D01*
X-546287646Y535748147D01*
X-546435216Y535649544D01*
X-546599188Y535581624D01*
X-546748488Y535551927D01*
X-546773258Y535547000D01*
X-546950742Y535547000D01*
X-546975512Y535551927D01*
X-547124812Y535581624D01*
X-547288784Y535649544D01*
X-547436354Y535748147D01*
X-547561853Y535873646D01*
X-547660456Y536021216D01*
X-547728376Y536185188D01*
X-547763000Y536359259D01*
X-547763000Y536536741D01*
X-547728376Y536710812D01*
X-547660456Y536874784D01*
X-547561853Y537022354D01*
X-547436354Y537147853D01*
X-547288784Y537246456D01*
X-547124812Y537314376D01*
X-546975512Y537344073D01*
X-546950742Y537349000D01*
X-546773258Y537349000D01*
X-546748488Y537344073D01*
G37*
G36*
X-549288488Y537344073D02*
G01*
X-549139188Y537314376D01*
X-548975216Y537246456D01*
X-548827646Y537147853D01*
X-548702147Y537022354D01*
X-548603544Y536874784D01*
X-548535624Y536710812D01*
X-548501000Y536536741D01*
X-548501000Y536359259D01*
X-548535624Y536185188D01*
X-548603544Y536021216D01*
X-548702147Y535873646D01*
X-548827646Y535748147D01*
X-548975216Y535649544D01*
X-549139188Y535581624D01*
X-549288488Y535551927D01*
X-549313258Y535547000D01*
X-549490742Y535547000D01*
X-549515512Y535551927D01*
X-549664812Y535581624D01*
X-549828784Y535649544D01*
X-549976354Y535748147D01*
X-550101853Y535873646D01*
X-550200456Y536021216D01*
X-550268376Y536185188D01*
X-550303000Y536359259D01*
X-550303000Y536536741D01*
X-550268376Y536710812D01*
X-550200456Y536874784D01*
X-550101853Y537022354D01*
X-549976354Y537147853D01*
X-549828784Y537246456D01*
X-549664812Y537314376D01*
X-549515512Y537344073D01*
X-549490742Y537349000D01*
X-549313258Y537349000D01*
X-549288488Y537344073D01*
G37*
G36*
X-551828488Y537344073D02*
G01*
X-551679188Y537314376D01*
X-551515216Y537246456D01*
X-551367646Y537147853D01*
X-551242147Y537022354D01*
X-551143544Y536874784D01*
X-551075624Y536710812D01*
X-551041000Y536536741D01*
X-551041000Y536359259D01*
X-551075624Y536185188D01*
X-551143544Y536021216D01*
X-551242147Y535873646D01*
X-551367646Y535748147D01*
X-551515216Y535649544D01*
X-551679188Y535581624D01*
X-551828488Y535551927D01*
X-551853258Y535547000D01*
X-552030742Y535547000D01*
X-552055512Y535551927D01*
X-552204812Y535581624D01*
X-552368784Y535649544D01*
X-552516354Y535748147D01*
X-552641853Y535873646D01*
X-552740456Y536021216D01*
X-552808376Y536185188D01*
X-552843000Y536359259D01*
X-552843000Y536536741D01*
X-552808376Y536710812D01*
X-552740456Y536874784D01*
X-552641853Y537022354D01*
X-552516354Y537147853D01*
X-552368784Y537246456D01*
X-552204812Y537314376D01*
X-552055512Y537344073D01*
X-552030742Y537349000D01*
X-551853258Y537349000D01*
X-551828488Y537344073D01*
G37*
G36*
X-553581000Y535547000D02*
G01*
X-555383000Y535547000D01*
X-555383000Y537349000D01*
X-553581000Y537349000D01*
X-553581000Y535547000D01*
G37*
G36*
X-532778488Y539884073D02*
G01*
X-532629188Y539854376D01*
X-532465216Y539786456D01*
X-532317646Y539687853D01*
X-532192147Y539562354D01*
X-532093544Y539414784D01*
X-532025624Y539250812D01*
X-531991000Y539076741D01*
X-531991000Y538899259D01*
X-532025624Y538725188D01*
X-532093544Y538561216D01*
X-532192147Y538413646D01*
X-532317646Y538288147D01*
X-532465216Y538189544D01*
X-532629188Y538121624D01*
X-532778488Y538091927D01*
X-532803258Y538087000D01*
X-532980742Y538087000D01*
X-533005512Y538091927D01*
X-533154812Y538121624D01*
X-533318784Y538189544D01*
X-533466354Y538288147D01*
X-533591853Y538413646D01*
X-533690456Y538561216D01*
X-533758376Y538725188D01*
X-533793000Y538899259D01*
X-533793000Y539076741D01*
X-533758376Y539250812D01*
X-533690456Y539414784D01*
X-533591853Y539562354D01*
X-533466354Y539687853D01*
X-533318784Y539786456D01*
X-533154812Y539854376D01*
X-533005512Y539884073D01*
X-532980742Y539889000D01*
X-532803258Y539889000D01*
X-532778488Y539884073D01*
G37*
G36*
X-535318488Y539884073D02*
G01*
X-535169188Y539854376D01*
X-535005216Y539786456D01*
X-534857646Y539687853D01*
X-534732147Y539562354D01*
X-534633544Y539414784D01*
X-534565624Y539250812D01*
X-534531000Y539076741D01*
X-534531000Y538899259D01*
X-534565624Y538725188D01*
X-534633544Y538561216D01*
X-534732147Y538413646D01*
X-534857646Y538288147D01*
X-535005216Y538189544D01*
X-535169188Y538121624D01*
X-535318488Y538091927D01*
X-535343258Y538087000D01*
X-535520742Y538087000D01*
X-535545512Y538091927D01*
X-535694812Y538121624D01*
X-535858784Y538189544D01*
X-536006354Y538288147D01*
X-536131853Y538413646D01*
X-536230456Y538561216D01*
X-536298376Y538725188D01*
X-536333000Y538899259D01*
X-536333000Y539076741D01*
X-536298376Y539250812D01*
X-536230456Y539414784D01*
X-536131853Y539562354D01*
X-536006354Y539687853D01*
X-535858784Y539786456D01*
X-535694812Y539854376D01*
X-535545512Y539884073D01*
X-535520742Y539889000D01*
X-535343258Y539889000D01*
X-535318488Y539884073D01*
G37*
G36*
X-540605279Y551709826D02*
G01*
X-540505005Y551668291D01*
X-540505004Y551668290D01*
X-540414758Y551607990D01*
X-540338010Y551531242D01*
X-540338009Y551531240D01*
X-540277709Y551440995D01*
X-540236174Y551340721D01*
X-540215000Y551234270D01*
X-540215000Y551125730D01*
X-540236174Y551019279D01*
X-540277709Y550919005D01*
X-540278923Y550917188D01*
X-540338010Y550828758D01*
X-540414758Y550752010D01*
X-540460188Y550721655D01*
X-540505005Y550691709D01*
X-540580389Y550660484D01*
X-540602000Y550648933D01*
X-540620941Y550633388D01*
X-540636487Y550614446D01*
X-540648038Y550592835D01*
X-540655151Y550569386D01*
X-540657553Y550545000D01*
X-540655151Y550520614D01*
X-540648038Y550497165D01*
X-540636487Y550475554D01*
X-540620942Y550456613D01*
X-540602000Y550441067D01*
X-540580389Y550429516D01*
X-540505005Y550398291D01*
X-540460188Y550368345D01*
X-540414758Y550337990D01*
X-540338010Y550261242D01*
X-540338009Y550261240D01*
X-540277709Y550170995D01*
X-540246484Y550095611D01*
X-540234933Y550074000D01*
X-540219388Y550055059D01*
X-540200446Y550039513D01*
X-540178835Y550027962D01*
X-540155386Y550020849D01*
X-540131000Y550018447D01*
X-540106614Y550020849D01*
X-540083165Y550027962D01*
X-540061554Y550039513D01*
X-540042613Y550055058D01*
X-540027067Y550074000D01*
X-540015516Y550095611D01*
X-539984291Y550170995D01*
X-539923991Y550261240D01*
X-539923990Y550261242D01*
X-539847242Y550337990D01*
X-539801812Y550368345D01*
X-539756995Y550398291D01*
X-539656721Y550439826D01*
X-539550270Y550461000D01*
X-539441730Y550461000D01*
X-539335279Y550439826D01*
X-539235005Y550398291D01*
X-539190188Y550368345D01*
X-539144758Y550337990D01*
X-539068010Y550261242D01*
X-539068009Y550261240D01*
X-539007709Y550170995D01*
X-538966174Y550070721D01*
X-538945000Y549964270D01*
X-538945000Y549855730D01*
X-538966174Y549749279D01*
X-539007709Y549649005D01*
X-539007710Y549649004D01*
X-539068010Y549558758D01*
X-539144758Y549482010D01*
X-539190188Y549451655D01*
X-539235005Y549421709D01*
X-539310389Y549390484D01*
X-539332000Y549378933D01*
X-539350941Y549363388D01*
X-539366487Y549344446D01*
X-539378038Y549322835D01*
X-539385151Y549299386D01*
X-539387553Y549275000D01*
X-539385151Y549250614D01*
X-539378038Y549227165D01*
X-539366487Y549205554D01*
X-539350942Y549186613D01*
X-539332000Y549171067D01*
X-539310389Y549159516D01*
X-539235005Y549128291D01*
X-539235004Y549128290D01*
X-539144758Y549067990D01*
X-539068010Y548991242D01*
X-539068009Y548991240D01*
X-539007709Y548900995D01*
X-538966174Y548800721D01*
X-538945000Y548694270D01*
X-538945000Y548585730D01*
X-538966174Y548479279D01*
X-539007709Y548379005D01*
X-539008923Y548377188D01*
X-539068010Y548288758D01*
X-539144758Y548212010D01*
X-539190188Y548181655D01*
X-539235005Y548151709D01*
X-539310389Y548120484D01*
X-539332000Y548108933D01*
X-539350941Y548093388D01*
X-539366487Y548074446D01*
X-539378038Y548052835D01*
X-539385151Y548029386D01*
X-539387553Y548005000D01*
X-539385151Y547980614D01*
X-539378038Y547957165D01*
X-539366487Y547935554D01*
X-539350942Y547916613D01*
X-539332000Y547901067D01*
X-539310389Y547889516D01*
X-539235005Y547858291D01*
X-539190188Y547828345D01*
X-539144758Y547797990D01*
X-539068010Y547721242D01*
X-539068009Y547721240D01*
X-539007709Y547630995D01*
X-538966174Y547530721D01*
X-538945000Y547424270D01*
X-538945000Y547315730D01*
X-538966174Y547209279D01*
X-539007709Y547109005D01*
X-539007710Y547109004D01*
X-539068010Y547018758D01*
X-539144758Y546942010D01*
X-539190188Y546911655D01*
X-539235005Y546881709D01*
X-539335279Y546840174D01*
X-539441730Y546819000D01*
X-539550270Y546819000D01*
X-539656721Y546840174D01*
X-539756995Y546881709D01*
X-539801812Y546911655D01*
X-539847242Y546942010D01*
X-539923990Y547018758D01*
X-539984290Y547109004D01*
X-539984291Y547109005D01*
X-540015516Y547184389D01*
X-540027067Y547206000D01*
X-540042612Y547224941D01*
X-540061554Y547240487D01*
X-540083165Y547252038D01*
X-540106614Y547259151D01*
X-540131000Y547261553D01*
X-540155386Y547259151D01*
X-540178835Y547252038D01*
X-540200446Y547240487D01*
X-540219387Y547224942D01*
X-540234933Y547206000D01*
X-540246484Y547184389D01*
X-540277709Y547109005D01*
X-540277710Y547109004D01*
X-540338010Y547018758D01*
X-540414758Y546942010D01*
X-540460188Y546911655D01*
X-540505005Y546881709D01*
X-540580389Y546850484D01*
X-540602000Y546838933D01*
X-540620941Y546823388D01*
X-540636487Y546804446D01*
X-540648038Y546782835D01*
X-540655151Y546759386D01*
X-540657553Y546735000D01*
X-540655151Y546710614D01*
X-540648038Y546687165D01*
X-540636487Y546665554D01*
X-540620942Y546646613D01*
X-540602000Y546631067D01*
X-540580389Y546619516D01*
X-540505005Y546588291D01*
X-540505004Y546588290D01*
X-540414758Y546527990D01*
X-540338010Y546451242D01*
X-540338009Y546451240D01*
X-540277709Y546360995D01*
X-540236174Y546260721D01*
X-540215000Y546154270D01*
X-540215000Y546045730D01*
X-540236174Y545939279D01*
X-540277709Y545839005D01*
X-540278923Y545837188D01*
X-540338010Y545748758D01*
X-540414758Y545672010D01*
X-540460188Y545641655D01*
X-540505005Y545611709D01*
X-540580389Y545580484D01*
X-540602000Y545568933D01*
X-540620941Y545553388D01*
X-540636487Y545534446D01*
X-540648038Y545512835D01*
X-540655151Y545489386D01*
X-540657553Y545465000D01*
X-540655151Y545440614D01*
X-540648038Y545417165D01*
X-540636487Y545395554D01*
X-540620942Y545376613D01*
X-540602000Y545361067D01*
X-540580389Y545349516D01*
X-540505005Y545318291D01*
X-540460188Y545288345D01*
X-540414758Y545257990D01*
X-540338010Y545181242D01*
X-540338009Y545181240D01*
X-540277709Y545090995D01*
X-540246484Y545015611D01*
X-540234933Y544994000D01*
X-540219388Y544975059D01*
X-540200446Y544959513D01*
X-540178835Y544947962D01*
X-540155386Y544940849D01*
X-540131000Y544938447D01*
X-540106614Y544940849D01*
X-540083165Y544947962D01*
X-540061554Y544959513D01*
X-540042613Y544975058D01*
X-540027067Y544994000D01*
X-540015516Y545015611D01*
X-539984291Y545090995D01*
X-539923991Y545181240D01*
X-539923990Y545181242D01*
X-539847242Y545257990D01*
X-539801812Y545288345D01*
X-539756995Y545318291D01*
X-539656721Y545359826D01*
X-539550270Y545381000D01*
X-539441730Y545381000D01*
X-539335279Y545359826D01*
X-539235005Y545318291D01*
X-539190188Y545288345D01*
X-539144758Y545257990D01*
X-539068010Y545181242D01*
X-539068009Y545181240D01*
X-539007709Y545090995D01*
X-538966174Y544990721D01*
X-538945000Y544884270D01*
X-538945000Y544775730D01*
X-538966174Y544669279D01*
X-539007709Y544569005D01*
X-539007710Y544569004D01*
X-539068010Y544478758D01*
X-539144758Y544402010D01*
X-539190188Y544371655D01*
X-539235005Y544341709D01*
X-539335279Y544300174D01*
X-539441730Y544279000D01*
X-539550270Y544279000D01*
X-539656721Y544300174D01*
X-539756995Y544341709D01*
X-539801812Y544371655D01*
X-539847242Y544402010D01*
X-539923990Y544478758D01*
X-539984290Y544569004D01*
X-539984291Y544569005D01*
X-540015516Y544644389D01*
X-540027067Y544666000D01*
X-540042612Y544684941D01*
X-540061554Y544700487D01*
X-540083165Y544712038D01*
X-540106614Y544719151D01*
X-540131000Y544721553D01*
X-540155386Y544719151D01*
X-540178835Y544712038D01*
X-540200446Y544700487D01*
X-540219387Y544684942D01*
X-540234933Y544666000D01*
X-540246484Y544644389D01*
X-540277709Y544569005D01*
X-540277710Y544569004D01*
X-540338010Y544478758D01*
X-540414758Y544402010D01*
X-540460188Y544371655D01*
X-540505005Y544341709D01*
X-540580389Y544310484D01*
X-540602000Y544298933D01*
X-540620941Y544283388D01*
X-540636487Y544264446D01*
X-540648038Y544242835D01*
X-540655151Y544219386D01*
X-540657553Y544195000D01*
X-540655151Y544170614D01*
X-540648038Y544147165D01*
X-540636487Y544125554D01*
X-540620942Y544106613D01*
X-540602000Y544091067D01*
X-540580389Y544079516D01*
X-540505005Y544048291D01*
X-540505004Y544048290D01*
X-540414758Y543987990D01*
X-540338010Y543911242D01*
X-540338009Y543911240D01*
X-540277709Y543820995D01*
X-540236174Y543720721D01*
X-540215000Y543614270D01*
X-540215000Y543505730D01*
X-540236174Y543399279D01*
X-540277709Y543299005D01*
X-540278923Y543297188D01*
X-540338010Y543208758D01*
X-540414758Y543132010D01*
X-540460188Y543101655D01*
X-540505005Y543071709D01*
X-540580389Y543040484D01*
X-540602000Y543028933D01*
X-540620941Y543013388D01*
X-540636487Y542994446D01*
X-540648038Y542972835D01*
X-540655151Y542949386D01*
X-540657553Y542925000D01*
X-540655151Y542900614D01*
X-540648038Y542877165D01*
X-540636487Y542855554D01*
X-540620942Y542836613D01*
X-540602000Y542821067D01*
X-540580389Y542809516D01*
X-540505005Y542778291D01*
X-540460188Y542748345D01*
X-540414758Y542717990D01*
X-540338010Y542641242D01*
X-540338009Y542641240D01*
X-540277709Y542550995D01*
X-540246484Y542475611D01*
X-540234933Y542454000D01*
X-540219388Y542435059D01*
X-540200446Y542419513D01*
X-540178835Y542407962D01*
X-540155386Y542400849D01*
X-540131000Y542398447D01*
X-540106614Y542400849D01*
X-540083165Y542407962D01*
X-540061554Y542419513D01*
X-540042613Y542435058D01*
X-540027067Y542454000D01*
X-540015516Y542475611D01*
X-539984291Y542550995D01*
X-539923991Y542641240D01*
X-539923990Y542641242D01*
X-539847242Y542717990D01*
X-539801812Y542748345D01*
X-539756995Y542778291D01*
X-539656721Y542819826D01*
X-539550270Y542841000D01*
X-539441730Y542841000D01*
X-539335279Y542819826D01*
X-539235005Y542778291D01*
X-539190188Y542748345D01*
X-539144758Y542717990D01*
X-539068010Y542641242D01*
X-539068009Y542641240D01*
X-539007709Y542550995D01*
X-538966174Y542450721D01*
X-538945000Y542344270D01*
X-538945000Y542235730D01*
X-538966174Y542129279D01*
X-539007709Y542029005D01*
X-539007710Y542029004D01*
X-539068010Y541938758D01*
X-539144758Y541862010D01*
X-539190188Y541831655D01*
X-539235005Y541801709D01*
X-539335279Y541760174D01*
X-539441730Y541739000D01*
X-539550270Y541739000D01*
X-539656721Y541760174D01*
X-539756995Y541801709D01*
X-539801812Y541831655D01*
X-539847242Y541862010D01*
X-539923990Y541938758D01*
X-539984290Y542029004D01*
X-539984291Y542029005D01*
X-540015516Y542104389D01*
X-540027067Y542126000D01*
X-540042612Y542144941D01*
X-540061554Y542160487D01*
X-540083165Y542172038D01*
X-540106614Y542179151D01*
X-540131000Y542181553D01*
X-540155386Y542179151D01*
X-540178835Y542172038D01*
X-540200446Y542160487D01*
X-540219387Y542144942D01*
X-540234933Y542126000D01*
X-540246484Y542104389D01*
X-540277709Y542029005D01*
X-540277710Y542029004D01*
X-540338010Y541938758D01*
X-540414758Y541862010D01*
X-540460188Y541831655D01*
X-540505005Y541801709D01*
X-540580389Y541770484D01*
X-540602000Y541758933D01*
X-540620941Y541743388D01*
X-540636487Y541724446D01*
X-540648038Y541702835D01*
X-540655151Y541679386D01*
X-540657553Y541655000D01*
X-540655151Y541630614D01*
X-540648038Y541607165D01*
X-540636487Y541585554D01*
X-540620942Y541566613D01*
X-540602000Y541551067D01*
X-540580389Y541539516D01*
X-540505005Y541508291D01*
X-540505004Y541508290D01*
X-540414758Y541447990D01*
X-540338010Y541371242D01*
X-540338009Y541371240D01*
X-540277709Y541280995D01*
X-540236174Y541180721D01*
X-540215000Y541074270D01*
X-540215000Y540965730D01*
X-540236174Y540859279D01*
X-540277709Y540759005D01*
X-540278923Y540757188D01*
X-540338010Y540668758D01*
X-540414758Y540592010D01*
X-540460188Y540561655D01*
X-540505005Y540531709D01*
X-540580389Y540500484D01*
X-540602000Y540488933D01*
X-540620941Y540473388D01*
X-540636487Y540454446D01*
X-540648038Y540432835D01*
X-540655151Y540409386D01*
X-540657553Y540385000D01*
X-540655151Y540360614D01*
X-540648038Y540337165D01*
X-540636487Y540315554D01*
X-540620942Y540296613D01*
X-540602000Y540281067D01*
X-540580389Y540269516D01*
X-540505005Y540238291D01*
X-540460188Y540208345D01*
X-540414758Y540177990D01*
X-540338010Y540101242D01*
X-540338009Y540101240D01*
X-540277709Y540010995D01*
X-540246484Y539935611D01*
X-540234933Y539914000D01*
X-540219388Y539895059D01*
X-540200446Y539879513D01*
X-540178835Y539867962D01*
X-540155386Y539860849D01*
X-540131000Y539858447D01*
X-540106614Y539860849D01*
X-540083165Y539867962D01*
X-540061554Y539879513D01*
X-540042613Y539895058D01*
X-540027067Y539914000D01*
X-540015516Y539935611D01*
X-539984291Y540010995D01*
X-539923991Y540101240D01*
X-539923990Y540101242D01*
X-539847242Y540177990D01*
X-539801812Y540208345D01*
X-539756995Y540238291D01*
X-539656721Y540279826D01*
X-539550270Y540301000D01*
X-539441730Y540301000D01*
X-539335279Y540279826D01*
X-539235005Y540238291D01*
X-539190188Y540208345D01*
X-539144758Y540177990D01*
X-539068010Y540101242D01*
X-539068009Y540101240D01*
X-539007709Y540010995D01*
X-538966174Y539910721D01*
X-538945000Y539804270D01*
X-538945000Y539695730D01*
X-538966174Y539589279D01*
X-539007709Y539489005D01*
X-539007710Y539489004D01*
X-539068010Y539398758D01*
X-539144758Y539322010D01*
X-539190188Y539291655D01*
X-539235005Y539261709D01*
X-539335279Y539220174D01*
X-539441730Y539199000D01*
X-539550270Y539199000D01*
X-539656721Y539220174D01*
X-539756995Y539261709D01*
X-539801812Y539291655D01*
X-539847242Y539322010D01*
X-539923990Y539398758D01*
X-539984290Y539489004D01*
X-539984291Y539489005D01*
X-540015516Y539564389D01*
X-540027067Y539586000D01*
X-540042612Y539604941D01*
X-540061554Y539620487D01*
X-540083165Y539632038D01*
X-540106614Y539639151D01*
X-540131000Y539641553D01*
X-540155386Y539639151D01*
X-540178835Y539632038D01*
X-540200446Y539620487D01*
X-540219387Y539604942D01*
X-540234933Y539586000D01*
X-540246484Y539564389D01*
X-540277709Y539489005D01*
X-540277710Y539489004D01*
X-540338010Y539398758D01*
X-540414758Y539322010D01*
X-540460188Y539291655D01*
X-540505005Y539261709D01*
X-540605279Y539220174D01*
X-540711730Y539199000D01*
X-540820270Y539199000D01*
X-540926721Y539220174D01*
X-541026995Y539261709D01*
X-541071812Y539291655D01*
X-541117242Y539322010D01*
X-541193990Y539398758D01*
X-541254290Y539489004D01*
X-541254291Y539489005D01*
X-541295826Y539589279D01*
X-541317000Y539695730D01*
X-541317000Y539804270D01*
X-541295826Y539910721D01*
X-541254291Y540010995D01*
X-541193991Y540101240D01*
X-541193990Y540101242D01*
X-541117242Y540177990D01*
X-541071812Y540208345D01*
X-541026995Y540238291D01*
X-540951611Y540269516D01*
X-540930000Y540281067D01*
X-540911059Y540296612D01*
X-540895513Y540315554D01*
X-540883962Y540337165D01*
X-540876849Y540360614D01*
X-540874447Y540385000D01*
X-540876849Y540409386D01*
X-540883962Y540432835D01*
X-540895513Y540454446D01*
X-540911058Y540473387D01*
X-540930000Y540488933D01*
X-540951611Y540500484D01*
X-541026995Y540531709D01*
X-541071812Y540561655D01*
X-541117242Y540592010D01*
X-541193990Y540668758D01*
X-541253077Y540757188D01*
X-541254291Y540759005D01*
X-541295826Y540859279D01*
X-541317000Y540965730D01*
X-541317000Y541074270D01*
X-541295826Y541180721D01*
X-541254291Y541280995D01*
X-541193991Y541371240D01*
X-541193990Y541371242D01*
X-541117242Y541447990D01*
X-541026996Y541508290D01*
X-541026995Y541508291D01*
X-540951611Y541539516D01*
X-540930000Y541551067D01*
X-540911059Y541566612D01*
X-540895513Y541585554D01*
X-540883962Y541607165D01*
X-540876849Y541630614D01*
X-540874447Y541655000D01*
X-540876849Y541679386D01*
X-540883962Y541702835D01*
X-540895513Y541724446D01*
X-540911058Y541743387D01*
X-540930000Y541758933D01*
X-540951611Y541770484D01*
X-541026995Y541801709D01*
X-541071812Y541831655D01*
X-541117242Y541862010D01*
X-541193990Y541938758D01*
X-541254290Y542029004D01*
X-541254291Y542029005D01*
X-541295826Y542129279D01*
X-541317000Y542235730D01*
X-541317000Y542344270D01*
X-541295826Y542450721D01*
X-541254291Y542550995D01*
X-541193991Y542641240D01*
X-541193990Y542641242D01*
X-541117242Y542717990D01*
X-541071812Y542748345D01*
X-541026995Y542778291D01*
X-540951611Y542809516D01*
X-540930000Y542821067D01*
X-540911059Y542836612D01*
X-540895513Y542855554D01*
X-540883962Y542877165D01*
X-540876849Y542900614D01*
X-540874447Y542925000D01*
X-540876849Y542949386D01*
X-540883962Y542972835D01*
X-540895513Y542994446D01*
X-540911058Y543013387D01*
X-540930000Y543028933D01*
X-540951611Y543040484D01*
X-541026995Y543071709D01*
X-541071812Y543101655D01*
X-541117242Y543132010D01*
X-541193990Y543208758D01*
X-541253077Y543297188D01*
X-541254291Y543299005D01*
X-541295826Y543399279D01*
X-541317000Y543505730D01*
X-541317000Y543614270D01*
X-541295826Y543720721D01*
X-541254291Y543820995D01*
X-541193991Y543911240D01*
X-541193990Y543911242D01*
X-541117242Y543987990D01*
X-541026996Y544048290D01*
X-541026995Y544048291D01*
X-540951611Y544079516D01*
X-540930000Y544091067D01*
X-540911059Y544106612D01*
X-540895513Y544125554D01*
X-540883962Y544147165D01*
X-540876849Y544170614D01*
X-540874447Y544195000D01*
X-540876849Y544219386D01*
X-540883962Y544242835D01*
X-540895513Y544264446D01*
X-540911058Y544283387D01*
X-540930000Y544298933D01*
X-540951611Y544310484D01*
X-541026995Y544341709D01*
X-541071812Y544371655D01*
X-541117242Y544402010D01*
X-541193990Y544478758D01*
X-541254290Y544569004D01*
X-541254291Y544569005D01*
X-541295826Y544669279D01*
X-541317000Y544775730D01*
X-541317000Y544884270D01*
X-541295826Y544990721D01*
X-541254291Y545090995D01*
X-541193991Y545181240D01*
X-541193990Y545181242D01*
X-541117242Y545257990D01*
X-541071812Y545288345D01*
X-541026995Y545318291D01*
X-540951611Y545349516D01*
X-540930000Y545361067D01*
X-540911059Y545376612D01*
X-540895513Y545395554D01*
X-540883962Y545417165D01*
X-540876849Y545440614D01*
X-540874447Y545465000D01*
X-540876849Y545489386D01*
X-540883962Y545512835D01*
X-540895513Y545534446D01*
X-540911058Y545553387D01*
X-540930000Y545568933D01*
X-540951611Y545580484D01*
X-541026995Y545611709D01*
X-541071812Y545641655D01*
X-541117242Y545672010D01*
X-541193990Y545748758D01*
X-541253077Y545837188D01*
X-541254291Y545839005D01*
X-541295826Y545939279D01*
X-541317000Y546045730D01*
X-541317000Y546154270D01*
X-541295826Y546260721D01*
X-541254291Y546360995D01*
X-541193991Y546451240D01*
X-541193990Y546451242D01*
X-541117242Y546527990D01*
X-541026996Y546588290D01*
X-541026995Y546588291D01*
X-540951611Y546619516D01*
X-540930000Y546631067D01*
X-540911059Y546646612D01*
X-540895513Y546665554D01*
X-540883962Y546687165D01*
X-540876849Y546710614D01*
X-540874447Y546735000D01*
X-540876849Y546759386D01*
X-540883962Y546782835D01*
X-540895513Y546804446D01*
X-540911058Y546823387D01*
X-540930000Y546838933D01*
X-540951611Y546850484D01*
X-541026995Y546881709D01*
X-541071812Y546911655D01*
X-541117242Y546942010D01*
X-541193990Y547018758D01*
X-541254290Y547109004D01*
X-541254291Y547109005D01*
X-541295826Y547209279D01*
X-541317000Y547315730D01*
X-541317000Y547424270D01*
X-541295826Y547530721D01*
X-541254291Y547630995D01*
X-541193991Y547721240D01*
X-541193990Y547721242D01*
X-541117242Y547797990D01*
X-541071812Y547828345D01*
X-541026995Y547858291D01*
X-540951611Y547889516D01*
X-540930000Y547901067D01*
X-540911059Y547916612D01*
X-540895513Y547935554D01*
X-540883962Y547957165D01*
X-540876849Y547980614D01*
X-540874447Y548005000D01*
X-540657553Y548005000D01*
X-540655151Y547980614D01*
X-540648038Y547957165D01*
X-540636487Y547935554D01*
X-540620942Y547916613D01*
X-540602000Y547901067D01*
X-540580389Y547889516D01*
X-540505005Y547858291D01*
X-540460188Y547828345D01*
X-540414758Y547797990D01*
X-540338010Y547721242D01*
X-540338009Y547721240D01*
X-540277709Y547630995D01*
X-540246484Y547555611D01*
X-540234933Y547534000D01*
X-540219388Y547515059D01*
X-540200446Y547499513D01*
X-540178835Y547487962D01*
X-540155386Y547480849D01*
X-540131000Y547478447D01*
X-540106614Y547480849D01*
X-540083165Y547487962D01*
X-540061554Y547499513D01*
X-540042613Y547515058D01*
X-540027067Y547534000D01*
X-540015516Y547555611D01*
X-539984291Y547630995D01*
X-539923991Y547721240D01*
X-539923990Y547721242D01*
X-539847242Y547797990D01*
X-539801812Y547828345D01*
X-539756995Y547858291D01*
X-539681611Y547889516D01*
X-539660000Y547901067D01*
X-539641059Y547916612D01*
X-539625513Y547935554D01*
X-539613962Y547957165D01*
X-539606849Y547980614D01*
X-539604447Y548005000D01*
X-539606849Y548029386D01*
X-539613962Y548052835D01*
X-539625513Y548074446D01*
X-539641058Y548093387D01*
X-539660000Y548108933D01*
X-539681611Y548120484D01*
X-539756995Y548151709D01*
X-539801812Y548181655D01*
X-539847242Y548212010D01*
X-539923990Y548288758D01*
X-539983077Y548377188D01*
X-539984291Y548379005D01*
X-540015516Y548454389D01*
X-540027067Y548476000D01*
X-540042612Y548494941D01*
X-540061554Y548510487D01*
X-540083165Y548522038D01*
X-540106614Y548529151D01*
X-540131000Y548531553D01*
X-540155386Y548529151D01*
X-540178835Y548522038D01*
X-540200446Y548510487D01*
X-540219387Y548494942D01*
X-540234933Y548476000D01*
X-540246484Y548454389D01*
X-540277709Y548379005D01*
X-540278923Y548377188D01*
X-540338010Y548288758D01*
X-540414758Y548212010D01*
X-540460188Y548181655D01*
X-540505005Y548151709D01*
X-540580389Y548120484D01*
X-540602000Y548108933D01*
X-540620941Y548093388D01*
X-540636487Y548074446D01*
X-540648038Y548052835D01*
X-540655151Y548029386D01*
X-540657553Y548005000D01*
X-540874447Y548005000D01*
X-540876849Y548029386D01*
X-540883962Y548052835D01*
X-540895513Y548074446D01*
X-540911058Y548093387D01*
X-540930000Y548108933D01*
X-540951611Y548120484D01*
X-541026995Y548151709D01*
X-541071812Y548181655D01*
X-541117242Y548212010D01*
X-541193990Y548288758D01*
X-541253077Y548377188D01*
X-541254291Y548379005D01*
X-541295826Y548479279D01*
X-541317000Y548585730D01*
X-541317000Y548694270D01*
X-541295826Y548800721D01*
X-541254291Y548900995D01*
X-541193991Y548991240D01*
X-541193990Y548991242D01*
X-541117242Y549067990D01*
X-541026996Y549128290D01*
X-541026995Y549128291D01*
X-540951611Y549159516D01*
X-540930000Y549171067D01*
X-540911059Y549186612D01*
X-540895513Y549205554D01*
X-540883962Y549227165D01*
X-540876849Y549250614D01*
X-540874447Y549275000D01*
X-540657553Y549275000D01*
X-540655151Y549250614D01*
X-540648038Y549227165D01*
X-540636487Y549205554D01*
X-540620942Y549186613D01*
X-540602000Y549171067D01*
X-540580389Y549159516D01*
X-540505005Y549128291D01*
X-540505004Y549128290D01*
X-540414758Y549067990D01*
X-540338010Y548991242D01*
X-540338009Y548991240D01*
X-540277709Y548900995D01*
X-540246484Y548825611D01*
X-540234933Y548804000D01*
X-540219388Y548785059D01*
X-540200446Y548769513D01*
X-540178835Y548757962D01*
X-540155386Y548750849D01*
X-540131000Y548748447D01*
X-540106614Y548750849D01*
X-540083165Y548757962D01*
X-540061554Y548769513D01*
X-540042613Y548785058D01*
X-540027067Y548804000D01*
X-540015516Y548825611D01*
X-539984291Y548900995D01*
X-539923991Y548991240D01*
X-539923990Y548991242D01*
X-539847242Y549067990D01*
X-539756996Y549128290D01*
X-539756995Y549128291D01*
X-539681611Y549159516D01*
X-539660000Y549171067D01*
X-539641059Y549186612D01*
X-539625513Y549205554D01*
X-539613962Y549227165D01*
X-539606849Y549250614D01*
X-539604447Y549275000D01*
X-539606849Y549299386D01*
X-539613962Y549322835D01*
X-539625513Y549344446D01*
X-539641058Y549363387D01*
X-539660000Y549378933D01*
X-539681611Y549390484D01*
X-539756995Y549421709D01*
X-539801812Y549451655D01*
X-539847242Y549482010D01*
X-539923990Y549558758D01*
X-539984290Y549649004D01*
X-539984291Y549649005D01*
X-540015516Y549724389D01*
X-540027067Y549746000D01*
X-540042612Y549764941D01*
X-540061554Y549780487D01*
X-540083165Y549792038D01*
X-540106614Y549799151D01*
X-540131000Y549801553D01*
X-540155386Y549799151D01*
X-540178835Y549792038D01*
X-540200446Y549780487D01*
X-540219387Y549764942D01*
X-540234933Y549746000D01*
X-540246484Y549724389D01*
X-540277709Y549649005D01*
X-540277710Y549649004D01*
X-540338010Y549558758D01*
X-540414758Y549482010D01*
X-540460188Y549451655D01*
X-540505005Y549421709D01*
X-540580389Y549390484D01*
X-540602000Y549378933D01*
X-540620941Y549363388D01*
X-540636487Y549344446D01*
X-540648038Y549322835D01*
X-540655151Y549299386D01*
X-540657553Y549275000D01*
X-540874447Y549275000D01*
X-540876849Y549299386D01*
X-540883962Y549322835D01*
X-540895513Y549344446D01*
X-540911058Y549363387D01*
X-540930000Y549378933D01*
X-540951611Y549390484D01*
X-541026995Y549421709D01*
X-541071812Y549451655D01*
X-541117242Y549482010D01*
X-541193990Y549558758D01*
X-541254290Y549649004D01*
X-541254291Y549649005D01*
X-541295826Y549749279D01*
X-541317000Y549855730D01*
X-541317000Y549964270D01*
X-541295826Y550070721D01*
X-541254291Y550170995D01*
X-541193991Y550261240D01*
X-541193990Y550261242D01*
X-541117242Y550337990D01*
X-541071812Y550368345D01*
X-541026995Y550398291D01*
X-540951611Y550429516D01*
X-540930000Y550441067D01*
X-540911059Y550456612D01*
X-540895513Y550475554D01*
X-540883962Y550497165D01*
X-540876849Y550520614D01*
X-540874447Y550545000D01*
X-540876849Y550569386D01*
X-540883962Y550592835D01*
X-540895513Y550614446D01*
X-540911058Y550633387D01*
X-540930000Y550648933D01*
X-540951611Y550660484D01*
X-541026995Y550691709D01*
X-541071812Y550721655D01*
X-541117242Y550752010D01*
X-541193990Y550828758D01*
X-541253077Y550917188D01*
X-541254291Y550919005D01*
X-541295826Y551019279D01*
X-541317000Y551125730D01*
X-541317000Y551234270D01*
X-541295826Y551340721D01*
X-541254291Y551440995D01*
X-541193991Y551531240D01*
X-541193990Y551531242D01*
X-541117242Y551607990D01*
X-541026996Y551668290D01*
X-541026995Y551668291D01*
X-540926721Y551709826D01*
X-540820270Y551731000D01*
X-540711730Y551731000D01*
X-540605279Y551709826D01*
G37*
G36*
X-554368488Y541408073D02*
G01*
X-554219188Y541378376D01*
X-554055216Y541310456D01*
X-553907646Y541211853D01*
X-553782147Y541086354D01*
X-553683544Y540938784D01*
X-553615624Y540774812D01*
X-553581000Y540600741D01*
X-553581000Y540423259D01*
X-553615624Y540249188D01*
X-553683544Y540085216D01*
X-553782147Y539937646D01*
X-553907646Y539812147D01*
X-554055216Y539713544D01*
X-554219188Y539645624D01*
X-554368488Y539615927D01*
X-554393258Y539611000D01*
X-554570742Y539611000D01*
X-554595512Y539615927D01*
X-554744812Y539645624D01*
X-554908784Y539713544D01*
X-555056354Y539812147D01*
X-555181853Y539937646D01*
X-555280456Y540085216D01*
X-555348376Y540249188D01*
X-555383000Y540423259D01*
X-555383000Y540600741D01*
X-555348376Y540774812D01*
X-555280456Y540938784D01*
X-555181853Y541086354D01*
X-555056354Y541211853D01*
X-554908784Y541310456D01*
X-554744812Y541378376D01*
X-554595512Y541408073D01*
X-554570742Y541413000D01*
X-554393258Y541413000D01*
X-554368488Y541408073D01*
G37*
G36*
X-551828488Y541408073D02*
G01*
X-551679188Y541378376D01*
X-551515216Y541310456D01*
X-551367646Y541211853D01*
X-551242147Y541086354D01*
X-551143544Y540938784D01*
X-551075624Y540774812D01*
X-551041000Y540600741D01*
X-551041000Y540423259D01*
X-551075624Y540249188D01*
X-551143544Y540085216D01*
X-551242147Y539937646D01*
X-551367646Y539812147D01*
X-551515216Y539713544D01*
X-551679188Y539645624D01*
X-551828488Y539615927D01*
X-551853258Y539611000D01*
X-552030742Y539611000D01*
X-552055512Y539615927D01*
X-552204812Y539645624D01*
X-552368784Y539713544D01*
X-552516354Y539812147D01*
X-552641853Y539937646D01*
X-552740456Y540085216D01*
X-552808376Y540249188D01*
X-552843000Y540423259D01*
X-552843000Y540600741D01*
X-552808376Y540774812D01*
X-552740456Y540938784D01*
X-552641853Y541086354D01*
X-552516354Y541211853D01*
X-552368784Y541310456D01*
X-552204812Y541378376D01*
X-552055512Y541408073D01*
X-552030742Y541413000D01*
X-551853258Y541413000D01*
X-551828488Y541408073D01*
G37*
G36*
X-542938488Y541916073D02*
G01*
X-542789188Y541886376D01*
X-542625216Y541818456D01*
X-542477646Y541719853D01*
X-542352147Y541594354D01*
X-542253544Y541446784D01*
X-542185624Y541282812D01*
X-542151000Y541108741D01*
X-542151000Y540931259D01*
X-542185624Y540757188D01*
X-542253544Y540593216D01*
X-542352147Y540445646D01*
X-542477646Y540320147D01*
X-542625216Y540221544D01*
X-542789188Y540153624D01*
X-542938488Y540123927D01*
X-542963258Y540119000D01*
X-543140742Y540119000D01*
X-543165512Y540123927D01*
X-543314812Y540153624D01*
X-543478784Y540221544D01*
X-543626354Y540320147D01*
X-543751853Y540445646D01*
X-543850456Y540593216D01*
X-543918376Y540757188D01*
X-543953000Y540931259D01*
X-543953000Y541108741D01*
X-543918376Y541282812D01*
X-543850456Y541446784D01*
X-543751853Y541594354D01*
X-543626354Y541719853D01*
X-543478784Y541818456D01*
X-543314812Y541886376D01*
X-543165512Y541916073D01*
X-543140742Y541921000D01*
X-542963258Y541921000D01*
X-542938488Y541916073D01*
G37*
G36*
X-532778488Y542424073D02*
G01*
X-532629188Y542394376D01*
X-532465216Y542326456D01*
X-532317646Y542227853D01*
X-532192147Y542102354D01*
X-532093544Y541954784D01*
X-532025624Y541790812D01*
X-531991000Y541616741D01*
X-531991000Y541439259D01*
X-532025624Y541265188D01*
X-532093544Y541101216D01*
X-532192147Y540953646D01*
X-532317646Y540828147D01*
X-532465216Y540729544D01*
X-532629188Y540661624D01*
X-532778488Y540631927D01*
X-532803258Y540627000D01*
X-532980742Y540627000D01*
X-533005512Y540631927D01*
X-533154812Y540661624D01*
X-533318784Y540729544D01*
X-533466354Y540828147D01*
X-533591853Y540953646D01*
X-533690456Y541101216D01*
X-533758376Y541265188D01*
X-533793000Y541439259D01*
X-533793000Y541616741D01*
X-533758376Y541790812D01*
X-533690456Y541954784D01*
X-533591853Y542102354D01*
X-533466354Y542227853D01*
X-533318784Y542326456D01*
X-533154812Y542394376D01*
X-533005512Y542424073D01*
X-532980742Y542429000D01*
X-532803258Y542429000D01*
X-532778488Y542424073D01*
G37*
G36*
X-535318488Y542424073D02*
G01*
X-535169188Y542394376D01*
X-535005216Y542326456D01*
X-534857646Y542227853D01*
X-534732147Y542102354D01*
X-534633544Y541954784D01*
X-534565624Y541790812D01*
X-534531000Y541616741D01*
X-534531000Y541439259D01*
X-534565624Y541265188D01*
X-534633544Y541101216D01*
X-534732147Y540953646D01*
X-534857646Y540828147D01*
X-535005216Y540729544D01*
X-535169188Y540661624D01*
X-535318488Y540631927D01*
X-535343258Y540627000D01*
X-535520742Y540627000D01*
X-535545512Y540631927D01*
X-535694812Y540661624D01*
X-535858784Y540729544D01*
X-536006354Y540828147D01*
X-536131853Y540953646D01*
X-536230456Y541101216D01*
X-536298376Y541265188D01*
X-536333000Y541439259D01*
X-536333000Y541616741D01*
X-536298376Y541790812D01*
X-536230456Y541954784D01*
X-536131853Y542102354D01*
X-536006354Y542227853D01*
X-535858784Y542326456D01*
X-535694812Y542394376D01*
X-535545512Y542424073D01*
X-535520742Y542429000D01*
X-535343258Y542429000D01*
X-535318488Y542424073D01*
G37*
G36*
X-554368488Y543948073D02*
G01*
X-554219188Y543918376D01*
X-554055216Y543850456D01*
X-553907646Y543751853D01*
X-553782147Y543626354D01*
X-553683544Y543478784D01*
X-553615624Y543314812D01*
X-553581000Y543140741D01*
X-553581000Y542963259D01*
X-553615624Y542789188D01*
X-553683544Y542625216D01*
X-553782147Y542477646D01*
X-553907646Y542352147D01*
X-554055216Y542253544D01*
X-554219188Y542185624D01*
X-554368488Y542155927D01*
X-554393258Y542151000D01*
X-554570742Y542151000D01*
X-554595512Y542155927D01*
X-554744812Y542185624D01*
X-554908784Y542253544D01*
X-555056354Y542352147D01*
X-555181853Y542477646D01*
X-555280456Y542625216D01*
X-555348376Y542789188D01*
X-555383000Y542963259D01*
X-555383000Y543140741D01*
X-555348376Y543314812D01*
X-555280456Y543478784D01*
X-555181853Y543626354D01*
X-555056354Y543751853D01*
X-554908784Y543850456D01*
X-554744812Y543918376D01*
X-554595512Y543948073D01*
X-554570742Y543953000D01*
X-554393258Y543953000D01*
X-554368488Y543948073D01*
G37*
G36*
X-551828488Y543948073D02*
G01*
X-551679188Y543918376D01*
X-551515216Y543850456D01*
X-551367646Y543751853D01*
X-551242147Y543626354D01*
X-551143544Y543478784D01*
X-551075624Y543314812D01*
X-551041000Y543140741D01*
X-551041000Y542963259D01*
X-551075624Y542789188D01*
X-551143544Y542625216D01*
X-551242147Y542477646D01*
X-551367646Y542352147D01*
X-551515216Y542253544D01*
X-551679188Y542185624D01*
X-551828488Y542155927D01*
X-551853258Y542151000D01*
X-552030742Y542151000D01*
X-552055512Y542155927D01*
X-552204812Y542185624D01*
X-552368784Y542253544D01*
X-552516354Y542352147D01*
X-552641853Y542477646D01*
X-552740456Y542625216D01*
X-552808376Y542789188D01*
X-552843000Y542963259D01*
X-552843000Y543140741D01*
X-552808376Y543314812D01*
X-552740456Y543478784D01*
X-552641853Y543626354D01*
X-552516354Y543751853D01*
X-552368784Y543850456D01*
X-552204812Y543918376D01*
X-552055512Y543948073D01*
X-552030742Y543953000D01*
X-551853258Y543953000D01*
X-551828488Y543948073D01*
G37*
G36*
X-542938488Y544456073D02*
G01*
X-542789188Y544426376D01*
X-542625216Y544358456D01*
X-542477646Y544259853D01*
X-542352147Y544134354D01*
X-542253544Y543986784D01*
X-542185624Y543822812D01*
X-542151000Y543648741D01*
X-542151000Y543471259D01*
X-542185624Y543297188D01*
X-542253544Y543133216D01*
X-542352147Y542985646D01*
X-542477646Y542860147D01*
X-542625216Y542761544D01*
X-542789188Y542693624D01*
X-542938488Y542663927D01*
X-542963258Y542659000D01*
X-543140742Y542659000D01*
X-543165512Y542663927D01*
X-543314812Y542693624D01*
X-543478784Y542761544D01*
X-543626354Y542860147D01*
X-543751853Y542985646D01*
X-543850456Y543133216D01*
X-543918376Y543297188D01*
X-543953000Y543471259D01*
X-543953000Y543648741D01*
X-543918376Y543822812D01*
X-543850456Y543986784D01*
X-543751853Y544134354D01*
X-543626354Y544259853D01*
X-543478784Y544358456D01*
X-543314812Y544426376D01*
X-543165512Y544456073D01*
X-543140742Y544461000D01*
X-542963258Y544461000D01*
X-542938488Y544456073D01*
G37*
G36*
X-535318488Y544964073D02*
G01*
X-535169188Y544934376D01*
X-535005216Y544866456D01*
X-534857646Y544767853D01*
X-534732147Y544642354D01*
X-534633544Y544494784D01*
X-534565624Y544330812D01*
X-534531000Y544156741D01*
X-534531000Y543979259D01*
X-534565624Y543805188D01*
X-534633544Y543641216D01*
X-534732147Y543493646D01*
X-534857646Y543368147D01*
X-535005216Y543269544D01*
X-535169188Y543201624D01*
X-535318488Y543171927D01*
X-535343258Y543167000D01*
X-535520742Y543167000D01*
X-535545512Y543171927D01*
X-535694812Y543201624D01*
X-535858784Y543269544D01*
X-536006354Y543368147D01*
X-536131853Y543493646D01*
X-536230456Y543641216D01*
X-536298376Y543805188D01*
X-536333000Y543979259D01*
X-536333000Y544156741D01*
X-536298376Y544330812D01*
X-536230456Y544494784D01*
X-536131853Y544642354D01*
X-536006354Y544767853D01*
X-535858784Y544866456D01*
X-535694812Y544934376D01*
X-535545512Y544964073D01*
X-535520742Y544969000D01*
X-535343258Y544969000D01*
X-535318488Y544964073D01*
G37*
G36*
X-532778488Y544964073D02*
G01*
X-532629188Y544934376D01*
X-532465216Y544866456D01*
X-532317646Y544767853D01*
X-532192147Y544642354D01*
X-532093544Y544494784D01*
X-532025624Y544330812D01*
X-531991000Y544156741D01*
X-531991000Y543979259D01*
X-532025624Y543805188D01*
X-532093544Y543641216D01*
X-532192147Y543493646D01*
X-532317646Y543368147D01*
X-532465216Y543269544D01*
X-532629188Y543201624D01*
X-532778488Y543171927D01*
X-532803258Y543167000D01*
X-532980742Y543167000D01*
X-533005512Y543171927D01*
X-533154812Y543201624D01*
X-533318784Y543269544D01*
X-533466354Y543368147D01*
X-533591853Y543493646D01*
X-533690456Y543641216D01*
X-533758376Y543805188D01*
X-533793000Y543979259D01*
X-533793000Y544156741D01*
X-533758376Y544330812D01*
X-533690456Y544494784D01*
X-533591853Y544642354D01*
X-533466354Y544767853D01*
X-533318784Y544866456D01*
X-533154812Y544934376D01*
X-533005512Y544964073D01*
X-532980742Y544969000D01*
X-532803258Y544969000D01*
X-532778488Y544964073D01*
G37*
G36*
X-554368488Y546488073D02*
G01*
X-554219188Y546458376D01*
X-554055216Y546390456D01*
X-553907646Y546291853D01*
X-553782147Y546166354D01*
X-553683544Y546018784D01*
X-553615624Y545854812D01*
X-553581000Y545680741D01*
X-553581000Y545503259D01*
X-553615624Y545329188D01*
X-553683544Y545165216D01*
X-553782147Y545017646D01*
X-553907646Y544892147D01*
X-554055216Y544793544D01*
X-554219188Y544725624D01*
X-554368488Y544695927D01*
X-554393258Y544691000D01*
X-554570742Y544691000D01*
X-554595512Y544695927D01*
X-554744812Y544725624D01*
X-554908784Y544793544D01*
X-555056354Y544892147D01*
X-555181853Y545017646D01*
X-555280456Y545165216D01*
X-555348376Y545329188D01*
X-555383000Y545503259D01*
X-555383000Y545680741D01*
X-555348376Y545854812D01*
X-555280456Y546018784D01*
X-555181853Y546166354D01*
X-555056354Y546291853D01*
X-554908784Y546390456D01*
X-554744812Y546458376D01*
X-554595512Y546488073D01*
X-554570742Y546493000D01*
X-554393258Y546493000D01*
X-554368488Y546488073D01*
G37*
G36*
X-551828488Y546488073D02*
G01*
X-551679188Y546458376D01*
X-551515216Y546390456D01*
X-551367646Y546291853D01*
X-551242147Y546166354D01*
X-551143544Y546018784D01*
X-551075624Y545854812D01*
X-551041000Y545680741D01*
X-551041000Y545503259D01*
X-551075624Y545329188D01*
X-551143544Y545165216D01*
X-551242147Y545017646D01*
X-551367646Y544892147D01*
X-551515216Y544793544D01*
X-551679188Y544725624D01*
X-551828488Y544695927D01*
X-551853258Y544691000D01*
X-552030742Y544691000D01*
X-552055512Y544695927D01*
X-552204812Y544725624D01*
X-552368784Y544793544D01*
X-552516354Y544892147D01*
X-552641853Y545017646D01*
X-552740456Y545165216D01*
X-552808376Y545329188D01*
X-552843000Y545503259D01*
X-552843000Y545680741D01*
X-552808376Y545854812D01*
X-552740456Y546018784D01*
X-552641853Y546166354D01*
X-552516354Y546291853D01*
X-552368784Y546390456D01*
X-552204812Y546458376D01*
X-552055512Y546488073D01*
X-552030742Y546493000D01*
X-551853258Y546493000D01*
X-551828488Y546488073D01*
G37*
G36*
X-542938488Y546996073D02*
G01*
X-542789188Y546966376D01*
X-542625216Y546898456D01*
X-542477646Y546799853D01*
X-542352147Y546674354D01*
X-542253544Y546526784D01*
X-542185624Y546362812D01*
X-542151000Y546188741D01*
X-542151000Y546011259D01*
X-542185624Y545837188D01*
X-542253544Y545673216D01*
X-542352147Y545525646D01*
X-542477646Y545400147D01*
X-542625216Y545301544D01*
X-542789188Y545233624D01*
X-542938488Y545203927D01*
X-542963258Y545199000D01*
X-543140742Y545199000D01*
X-543165512Y545203927D01*
X-543314812Y545233624D01*
X-543478784Y545301544D01*
X-543626354Y545400147D01*
X-543751853Y545525646D01*
X-543850456Y545673216D01*
X-543918376Y545837188D01*
X-543953000Y546011259D01*
X-543953000Y546188741D01*
X-543918376Y546362812D01*
X-543850456Y546526784D01*
X-543751853Y546674354D01*
X-543626354Y546799853D01*
X-543478784Y546898456D01*
X-543314812Y546966376D01*
X-543165512Y546996073D01*
X-543140742Y547001000D01*
X-542963258Y547001000D01*
X-542938488Y546996073D01*
G37*
G36*
X-535318488Y547504073D02*
G01*
X-535169188Y547474376D01*
X-535005216Y547406456D01*
X-534857646Y547307853D01*
X-534732147Y547182354D01*
X-534633544Y547034784D01*
X-534565624Y546870812D01*
X-534531000Y546696741D01*
X-534531000Y546519259D01*
X-534565624Y546345188D01*
X-534633544Y546181216D01*
X-534732147Y546033646D01*
X-534857646Y545908147D01*
X-535005216Y545809544D01*
X-535169188Y545741624D01*
X-535318488Y545711927D01*
X-535343258Y545707000D01*
X-535520742Y545707000D01*
X-535545512Y545711927D01*
X-535694812Y545741624D01*
X-535858784Y545809544D01*
X-536006354Y545908147D01*
X-536131853Y546033646D01*
X-536230456Y546181216D01*
X-536298376Y546345188D01*
X-536333000Y546519259D01*
X-536333000Y546696741D01*
X-536298376Y546870812D01*
X-536230456Y547034784D01*
X-536131853Y547182354D01*
X-536006354Y547307853D01*
X-535858784Y547406456D01*
X-535694812Y547474376D01*
X-535545512Y547504073D01*
X-535520742Y547509000D01*
X-535343258Y547509000D01*
X-535318488Y547504073D01*
G37*
G36*
X-532778488Y547504073D02*
G01*
X-532629188Y547474376D01*
X-532465216Y547406456D01*
X-532317646Y547307853D01*
X-532192147Y547182354D01*
X-532093544Y547034784D01*
X-532025624Y546870812D01*
X-531991000Y546696741D01*
X-531991000Y546519259D01*
X-532025624Y546345188D01*
X-532093544Y546181216D01*
X-532192147Y546033646D01*
X-532317646Y545908147D01*
X-532465216Y545809544D01*
X-532629188Y545741624D01*
X-532778488Y545711927D01*
X-532803258Y545707000D01*
X-532980742Y545707000D01*
X-533005512Y545711927D01*
X-533154812Y545741624D01*
X-533318784Y545809544D01*
X-533466354Y545908147D01*
X-533591853Y546033646D01*
X-533690456Y546181216D01*
X-533758376Y546345188D01*
X-533793000Y546519259D01*
X-533793000Y546696741D01*
X-533758376Y546870812D01*
X-533690456Y547034784D01*
X-533591853Y547182354D01*
X-533466354Y547307853D01*
X-533318784Y547406456D01*
X-533154812Y547474376D01*
X-533005512Y547504073D01*
X-532980742Y547509000D01*
X-532803258Y547509000D01*
X-532778488Y547504073D01*
G37*
G36*
X-554368488Y549028073D02*
G01*
X-554219188Y548998376D01*
X-554055216Y548930456D01*
X-553907646Y548831853D01*
X-553782147Y548706354D01*
X-553683544Y548558784D01*
X-553615624Y548394812D01*
X-553581000Y548220741D01*
X-553581000Y548043259D01*
X-553615624Y547869188D01*
X-553683544Y547705216D01*
X-553782147Y547557646D01*
X-553907646Y547432147D01*
X-554055216Y547333544D01*
X-554219188Y547265624D01*
X-554368488Y547235927D01*
X-554393258Y547231000D01*
X-554570742Y547231000D01*
X-554595512Y547235927D01*
X-554744812Y547265624D01*
X-554908784Y547333544D01*
X-555056354Y547432147D01*
X-555181853Y547557646D01*
X-555280456Y547705216D01*
X-555348376Y547869188D01*
X-555383000Y548043259D01*
X-555383000Y548220741D01*
X-555348376Y548394812D01*
X-555280456Y548558784D01*
X-555181853Y548706354D01*
X-555056354Y548831853D01*
X-554908784Y548930456D01*
X-554744812Y548998376D01*
X-554595512Y549028073D01*
X-554570742Y549033000D01*
X-554393258Y549033000D01*
X-554368488Y549028073D01*
G37*
G36*
X-551828488Y549028073D02*
G01*
X-551679188Y548998376D01*
X-551515216Y548930456D01*
X-551367646Y548831853D01*
X-551242147Y548706354D01*
X-551143544Y548558784D01*
X-551075624Y548394812D01*
X-551041000Y548220741D01*
X-551041000Y548043259D01*
X-551075624Y547869188D01*
X-551143544Y547705216D01*
X-551242147Y547557646D01*
X-551367646Y547432147D01*
X-551515216Y547333544D01*
X-551679188Y547265624D01*
X-551828488Y547235927D01*
X-551853258Y547231000D01*
X-552030742Y547231000D01*
X-552055512Y547235927D01*
X-552204812Y547265624D01*
X-552368784Y547333544D01*
X-552516354Y547432147D01*
X-552641853Y547557646D01*
X-552740456Y547705216D01*
X-552808376Y547869188D01*
X-552843000Y548043259D01*
X-552843000Y548220741D01*
X-552808376Y548394812D01*
X-552740456Y548558784D01*
X-552641853Y548706354D01*
X-552516354Y548831853D01*
X-552368784Y548930456D01*
X-552204812Y548998376D01*
X-552055512Y549028073D01*
X-552030742Y549033000D01*
X-551853258Y549033000D01*
X-551828488Y549028073D01*
G37*
G36*
X-542938488Y549536073D02*
G01*
X-542789188Y549506376D01*
X-542625216Y549438456D01*
X-542477646Y549339853D01*
X-542352147Y549214354D01*
X-542253544Y549066784D01*
X-542185624Y548902812D01*
X-542151000Y548728741D01*
X-542151000Y548551259D01*
X-542185624Y548377188D01*
X-542253544Y548213216D01*
X-542352147Y548065646D01*
X-542477646Y547940147D01*
X-542625216Y547841544D01*
X-542789188Y547773624D01*
X-542938488Y547743927D01*
X-542963258Y547739000D01*
X-543140742Y547739000D01*
X-543165512Y547743927D01*
X-543314812Y547773624D01*
X-543478784Y547841544D01*
X-543626354Y547940147D01*
X-543751853Y548065646D01*
X-543850456Y548213216D01*
X-543918376Y548377188D01*
X-543953000Y548551259D01*
X-543953000Y548728741D01*
X-543918376Y548902812D01*
X-543850456Y549066784D01*
X-543751853Y549214354D01*
X-543626354Y549339853D01*
X-543478784Y549438456D01*
X-543314812Y549506376D01*
X-543165512Y549536073D01*
X-543140742Y549541000D01*
X-542963258Y549541000D01*
X-542938488Y549536073D01*
G37*
G36*
X-532778488Y550044073D02*
G01*
X-532629188Y550014376D01*
X-532465216Y549946456D01*
X-532317646Y549847853D01*
X-532192147Y549722354D01*
X-532093544Y549574784D01*
X-532025624Y549410812D01*
X-531991000Y549236741D01*
X-531991000Y549059259D01*
X-532025624Y548885188D01*
X-532093544Y548721216D01*
X-532192147Y548573646D01*
X-532317646Y548448147D01*
X-532465216Y548349544D01*
X-532629188Y548281624D01*
X-532778488Y548251927D01*
X-532803258Y548247000D01*
X-532980742Y548247000D01*
X-533005512Y548251927D01*
X-533154812Y548281624D01*
X-533318784Y548349544D01*
X-533466354Y548448147D01*
X-533591853Y548573646D01*
X-533690456Y548721216D01*
X-533758376Y548885188D01*
X-533793000Y549059259D01*
X-533793000Y549236741D01*
X-533758376Y549410812D01*
X-533690456Y549574784D01*
X-533591853Y549722354D01*
X-533466354Y549847853D01*
X-533318784Y549946456D01*
X-533154812Y550014376D01*
X-533005512Y550044073D01*
X-532980742Y550049000D01*
X-532803258Y550049000D01*
X-532778488Y550044073D01*
G37*
G36*
X-535318488Y550044073D02*
G01*
X-535169188Y550014376D01*
X-535005216Y549946456D01*
X-534857646Y549847853D01*
X-534732147Y549722354D01*
X-534633544Y549574784D01*
X-534565624Y549410812D01*
X-534531000Y549236741D01*
X-534531000Y549059259D01*
X-534565624Y548885188D01*
X-534633544Y548721216D01*
X-534732147Y548573646D01*
X-534857646Y548448147D01*
X-535005216Y548349544D01*
X-535169188Y548281624D01*
X-535318488Y548251927D01*
X-535343258Y548247000D01*
X-535520742Y548247000D01*
X-535545512Y548251927D01*
X-535694812Y548281624D01*
X-535858784Y548349544D01*
X-536006354Y548448147D01*
X-536131853Y548573646D01*
X-536230456Y548721216D01*
X-536298376Y548885188D01*
X-536333000Y549059259D01*
X-536333000Y549236741D01*
X-536298376Y549410812D01*
X-536230456Y549574784D01*
X-536131853Y549722354D01*
X-536006354Y549847853D01*
X-535858784Y549946456D01*
X-535694812Y550014376D01*
X-535545512Y550044073D01*
X-535520742Y550049000D01*
X-535343258Y550049000D01*
X-535318488Y550044073D01*
G37*
G36*
X-551041000Y549771000D02*
G01*
X-552843000Y549771000D01*
X-552843000Y551573000D01*
X-551041000Y551573000D01*
X-551041000Y549771000D01*
G37*
G36*
X-554368488Y551568073D02*
G01*
X-554219188Y551538376D01*
X-554055216Y551470456D01*
X-553907646Y551371853D01*
X-553782147Y551246354D01*
X-553683544Y551098784D01*
X-553615624Y550934812D01*
X-553581000Y550760741D01*
X-553581000Y550583259D01*
X-553615624Y550409188D01*
X-553683544Y550245216D01*
X-553782147Y550097646D01*
X-553907646Y549972147D01*
X-554055216Y549873544D01*
X-554219188Y549805624D01*
X-554368488Y549775927D01*
X-554393258Y549771000D01*
X-554570742Y549771000D01*
X-554595512Y549775927D01*
X-554744812Y549805624D01*
X-554908784Y549873544D01*
X-555056354Y549972147D01*
X-555181853Y550097646D01*
X-555280456Y550245216D01*
X-555348376Y550409188D01*
X-555383000Y550583259D01*
X-555383000Y550760741D01*
X-555348376Y550934812D01*
X-555280456Y551098784D01*
X-555181853Y551246354D01*
X-555056354Y551371853D01*
X-554908784Y551470456D01*
X-554744812Y551538376D01*
X-554595512Y551568073D01*
X-554570742Y551573000D01*
X-554393258Y551573000D01*
X-554368488Y551568073D01*
G37*
G36*
X-542938488Y552076073D02*
G01*
X-542789188Y552046376D01*
X-542625216Y551978456D01*
X-542477646Y551879853D01*
X-542352147Y551754354D01*
X-542253544Y551606784D01*
X-542185624Y551442812D01*
X-542151000Y551268741D01*
X-542151000Y551091259D01*
X-542185624Y550917188D01*
X-542253544Y550753216D01*
X-542352147Y550605646D01*
X-542477646Y550480147D01*
X-542625216Y550381544D01*
X-542789188Y550313624D01*
X-542938488Y550283927D01*
X-542963258Y550279000D01*
X-543140742Y550279000D01*
X-543165512Y550283927D01*
X-543314812Y550313624D01*
X-543478784Y550381544D01*
X-543626354Y550480147D01*
X-543751853Y550605646D01*
X-543850456Y550753216D01*
X-543918376Y550917188D01*
X-543953000Y551091259D01*
X-543953000Y551268741D01*
X-543918376Y551442812D01*
X-543850456Y551606784D01*
X-543751853Y551754354D01*
X-543626354Y551879853D01*
X-543478784Y551978456D01*
X-543314812Y552046376D01*
X-543165512Y552076073D01*
X-543140742Y552081000D01*
X-542963258Y552081000D01*
X-542938488Y552076073D01*
G37*
G36*
X-535318488Y552584073D02*
G01*
X-535169188Y552554376D01*
X-535005216Y552486456D01*
X-534857646Y552387853D01*
X-534732147Y552262354D01*
X-534633544Y552114784D01*
X-534565624Y551950812D01*
X-534531000Y551776741D01*
X-534531000Y551599259D01*
X-534565624Y551425188D01*
X-534633544Y551261216D01*
X-534732147Y551113646D01*
X-534857646Y550988147D01*
X-535005216Y550889544D01*
X-535169188Y550821624D01*
X-535318488Y550791927D01*
X-535343258Y550787000D01*
X-535520742Y550787000D01*
X-535545512Y550791927D01*
X-535694812Y550821624D01*
X-535858784Y550889544D01*
X-536006354Y550988147D01*
X-536131853Y551113646D01*
X-536230456Y551261216D01*
X-536298376Y551425188D01*
X-536333000Y551599259D01*
X-536333000Y551776741D01*
X-536298376Y551950812D01*
X-536230456Y552114784D01*
X-536131853Y552262354D01*
X-536006354Y552387853D01*
X-535858784Y552486456D01*
X-535694812Y552554376D01*
X-535545512Y552584073D01*
X-535520742Y552589000D01*
X-535343258Y552589000D01*
X-535318488Y552584073D01*
G37*
G36*
X-532778488Y552584073D02*
G01*
X-532629188Y552554376D01*
X-532465216Y552486456D01*
X-532317646Y552387853D01*
X-532192147Y552262354D01*
X-532093544Y552114784D01*
X-532025624Y551950812D01*
X-531991000Y551776741D01*
X-531991000Y551599259D01*
X-532025624Y551425188D01*
X-532093544Y551261216D01*
X-532192147Y551113646D01*
X-532317646Y550988147D01*
X-532465216Y550889544D01*
X-532629188Y550821624D01*
X-532778488Y550791927D01*
X-532803258Y550787000D01*
X-532980742Y550787000D01*
X-533005512Y550791927D01*
X-533154812Y550821624D01*
X-533318784Y550889544D01*
X-533466354Y550988147D01*
X-533591853Y551113646D01*
X-533690456Y551261216D01*
X-533758376Y551425188D01*
X-533793000Y551599259D01*
X-533793000Y551776741D01*
X-533758376Y551950812D01*
X-533690456Y552114784D01*
X-533591853Y552262354D01*
X-533466354Y552387853D01*
X-533318784Y552486456D01*
X-533154812Y552554376D01*
X-533005512Y552584073D01*
X-532980742Y552589000D01*
X-532803258Y552589000D01*
X-532778488Y552584073D01*
G37*
G36*
X-540605279Y559329826D02*
G01*
X-540505005Y559288291D01*
X-540505004Y559288290D01*
X-540414758Y559227990D01*
X-540338010Y559151242D01*
X-540338009Y559151240D01*
X-540277709Y559060995D01*
X-540246484Y558985611D01*
X-540234933Y558964000D01*
X-540219388Y558945059D01*
X-540200446Y558929513D01*
X-540178835Y558917962D01*
X-540155386Y558910849D01*
X-540131000Y558908447D01*
X-540106614Y558910849D01*
X-540083165Y558917962D01*
X-540061554Y558929513D01*
X-540042613Y558945058D01*
X-540027067Y558964000D01*
X-540015516Y558985611D01*
X-539984291Y559060995D01*
X-539923991Y559151240D01*
X-539923990Y559151242D01*
X-539847242Y559227990D01*
X-539756996Y559288290D01*
X-539756995Y559288291D01*
X-539656721Y559329826D01*
X-539550270Y559351000D01*
X-539441730Y559351000D01*
X-539335279Y559329826D01*
X-539235005Y559288291D01*
X-539235004Y559288290D01*
X-539144758Y559227990D01*
X-539068010Y559151242D01*
X-539068009Y559151240D01*
X-539007709Y559060995D01*
X-538966174Y558960721D01*
X-538945000Y558854270D01*
X-538945000Y558745730D01*
X-538966174Y558639279D01*
X-539007709Y558539005D01*
X-539007710Y558539004D01*
X-539068010Y558448758D01*
X-539144758Y558372010D01*
X-539190188Y558341655D01*
X-539235005Y558311709D01*
X-539310389Y558280484D01*
X-539332000Y558268933D01*
X-539350941Y558253388D01*
X-539366487Y558234446D01*
X-539378038Y558212835D01*
X-539385151Y558189386D01*
X-539387553Y558165000D01*
X-539385151Y558140614D01*
X-539378038Y558117165D01*
X-539366487Y558095554D01*
X-539350942Y558076613D01*
X-539332000Y558061067D01*
X-539310389Y558049516D01*
X-539235005Y558018291D01*
X-539235004Y558018290D01*
X-539144758Y557957990D01*
X-539068010Y557881242D01*
X-539068009Y557881240D01*
X-539007709Y557790995D01*
X-538966174Y557690721D01*
X-538945000Y557584270D01*
X-538945000Y557475730D01*
X-538966174Y557369279D01*
X-539007709Y557269005D01*
X-539007710Y557269004D01*
X-539068010Y557178758D01*
X-539144758Y557102010D01*
X-539190188Y557071655D01*
X-539235005Y557041709D01*
X-539310389Y557010484D01*
X-539332000Y556998933D01*
X-539350941Y556983388D01*
X-539366487Y556964446D01*
X-539378038Y556942835D01*
X-539385151Y556919386D01*
X-539387553Y556895000D01*
X-539385151Y556870614D01*
X-539378038Y556847165D01*
X-539366487Y556825554D01*
X-539350942Y556806613D01*
X-539332000Y556791067D01*
X-539310389Y556779516D01*
X-539235005Y556748291D01*
X-539235004Y556748290D01*
X-539144758Y556687990D01*
X-539068010Y556611242D01*
X-539068009Y556611240D01*
X-539007709Y556520995D01*
X-538966174Y556420721D01*
X-538945000Y556314270D01*
X-538945000Y556205730D01*
X-538966174Y556099279D01*
X-539007709Y555999005D01*
X-539007710Y555999004D01*
X-539068010Y555908758D01*
X-539144758Y555832010D01*
X-539190188Y555801655D01*
X-539235005Y555771709D01*
X-539310389Y555740484D01*
X-539332000Y555728933D01*
X-539350941Y555713388D01*
X-539366487Y555694446D01*
X-539378038Y555672835D01*
X-539385151Y555649386D01*
X-539387553Y555625000D01*
X-539385151Y555600614D01*
X-539378038Y555577165D01*
X-539366487Y555555554D01*
X-539350942Y555536613D01*
X-539332000Y555521067D01*
X-539310389Y555509516D01*
X-539235005Y555478291D01*
X-539235004Y555478290D01*
X-539144758Y555417990D01*
X-539068010Y555341242D01*
X-539068009Y555341240D01*
X-539007709Y555250995D01*
X-538966174Y555150721D01*
X-538945000Y555044270D01*
X-538945000Y554935730D01*
X-538966174Y554829279D01*
X-539007709Y554729005D01*
X-539007710Y554729004D01*
X-539068010Y554638758D01*
X-539144758Y554562010D01*
X-539190188Y554531655D01*
X-539235005Y554501709D01*
X-539310389Y554470484D01*
X-539332000Y554458933D01*
X-539350941Y554443388D01*
X-539366487Y554424446D01*
X-539378038Y554402835D01*
X-539385151Y554379386D01*
X-539387553Y554355000D01*
X-539385151Y554330614D01*
X-539378038Y554307165D01*
X-539366487Y554285554D01*
X-539350942Y554266613D01*
X-539332000Y554251067D01*
X-539310389Y554239516D01*
X-539235005Y554208291D01*
X-539235004Y554208290D01*
X-539144758Y554147990D01*
X-539068010Y554071242D01*
X-539068009Y554071240D01*
X-539007709Y553980995D01*
X-538966174Y553880721D01*
X-538945000Y553774270D01*
X-538945000Y553665730D01*
X-538966174Y553559279D01*
X-539007709Y553459005D01*
X-539007710Y553459004D01*
X-539068010Y553368758D01*
X-539144758Y553292010D01*
X-539190188Y553261655D01*
X-539235005Y553231709D01*
X-539335279Y553190174D01*
X-539441730Y553169000D01*
X-539550270Y553169000D01*
X-539656721Y553190174D01*
X-539756995Y553231709D01*
X-539801812Y553261655D01*
X-539847242Y553292010D01*
X-539923990Y553368758D01*
X-539984290Y553459004D01*
X-539984291Y553459005D01*
X-540025826Y553559279D01*
X-540047000Y553665730D01*
X-540047000Y553774270D01*
X-540025826Y553880721D01*
X-539984291Y553980995D01*
X-539923991Y554071240D01*
X-539923990Y554071242D01*
X-539847242Y554147990D01*
X-539756996Y554208290D01*
X-539756995Y554208291D01*
X-539681611Y554239516D01*
X-539660000Y554251067D01*
X-539641059Y554266612D01*
X-539625513Y554285554D01*
X-539613962Y554307165D01*
X-539606849Y554330614D01*
X-539604447Y554355000D01*
X-539606849Y554379386D01*
X-539613962Y554402835D01*
X-539625513Y554424446D01*
X-539641058Y554443387D01*
X-539660000Y554458933D01*
X-539681611Y554470484D01*
X-539756995Y554501709D01*
X-539801812Y554531655D01*
X-539847242Y554562010D01*
X-539923990Y554638758D01*
X-539984290Y554729004D01*
X-539984291Y554729005D01*
X-540015516Y554804389D01*
X-540027067Y554826000D01*
X-540042612Y554844941D01*
X-540061554Y554860487D01*
X-540083165Y554872038D01*
X-540106614Y554879151D01*
X-540131000Y554881553D01*
X-540155386Y554879151D01*
X-540178835Y554872038D01*
X-540200446Y554860487D01*
X-540219387Y554844942D01*
X-540234933Y554826000D01*
X-540246484Y554804389D01*
X-540277709Y554729005D01*
X-540277710Y554729004D01*
X-540338010Y554638758D01*
X-540414758Y554562010D01*
X-540460188Y554531655D01*
X-540505005Y554501709D01*
X-540605279Y554460174D01*
X-540711730Y554439000D01*
X-540820270Y554439000D01*
X-540926721Y554460174D01*
X-541026995Y554501709D01*
X-541071812Y554531655D01*
X-541117242Y554562010D01*
X-541193990Y554638758D01*
X-541254290Y554729004D01*
X-541254291Y554729005D01*
X-541295826Y554829279D01*
X-541317000Y554935730D01*
X-541317000Y555044270D01*
X-541295826Y555150721D01*
X-541254291Y555250995D01*
X-541193991Y555341240D01*
X-541193990Y555341242D01*
X-541117242Y555417990D01*
X-541026996Y555478290D01*
X-541026995Y555478291D01*
X-540951611Y555509516D01*
X-540930000Y555521067D01*
X-540911059Y555536612D01*
X-540895513Y555555554D01*
X-540883962Y555577165D01*
X-540876849Y555600614D01*
X-540874447Y555625000D01*
X-540657553Y555625000D01*
X-540655151Y555600614D01*
X-540648038Y555577165D01*
X-540636487Y555555554D01*
X-540620942Y555536613D01*
X-540602000Y555521067D01*
X-540580389Y555509516D01*
X-540505005Y555478291D01*
X-540505004Y555478290D01*
X-540414758Y555417990D01*
X-540338010Y555341242D01*
X-540338009Y555341240D01*
X-540277709Y555250995D01*
X-540246484Y555175611D01*
X-540234933Y555154000D01*
X-540219388Y555135059D01*
X-540200446Y555119513D01*
X-540178835Y555107962D01*
X-540155386Y555100849D01*
X-540131000Y555098447D01*
X-540106614Y555100849D01*
X-540083165Y555107962D01*
X-540061554Y555119513D01*
X-540042613Y555135058D01*
X-540027067Y555154000D01*
X-540015516Y555175611D01*
X-539984291Y555250995D01*
X-539923991Y555341240D01*
X-539923990Y555341242D01*
X-539847242Y555417990D01*
X-539756996Y555478290D01*
X-539756995Y555478291D01*
X-539681611Y555509516D01*
X-539660000Y555521067D01*
X-539641059Y555536612D01*
X-539625513Y555555554D01*
X-539613962Y555577165D01*
X-539606849Y555600614D01*
X-539604447Y555625000D01*
X-539606849Y555649386D01*
X-539613962Y555672835D01*
X-539625513Y555694446D01*
X-539641058Y555713387D01*
X-539660000Y555728933D01*
X-539681611Y555740484D01*
X-539756995Y555771709D01*
X-539801812Y555801655D01*
X-539847242Y555832010D01*
X-539923990Y555908758D01*
X-539984290Y555999004D01*
X-539984291Y555999005D01*
X-540015516Y556074389D01*
X-540027067Y556096000D01*
X-540042612Y556114941D01*
X-540061554Y556130487D01*
X-540083165Y556142038D01*
X-540106614Y556149151D01*
X-540131000Y556151553D01*
X-540155386Y556149151D01*
X-540178835Y556142038D01*
X-540200446Y556130487D01*
X-540219387Y556114942D01*
X-540234933Y556096000D01*
X-540246484Y556074389D01*
X-540277709Y555999005D01*
X-540277710Y555999004D01*
X-540338010Y555908758D01*
X-540414758Y555832010D01*
X-540460188Y555801655D01*
X-540505005Y555771709D01*
X-540580389Y555740484D01*
X-540602000Y555728933D01*
X-540620941Y555713388D01*
X-540636487Y555694446D01*
X-540648038Y555672835D01*
X-540655151Y555649386D01*
X-540657553Y555625000D01*
X-540874447Y555625000D01*
X-540876849Y555649386D01*
X-540883962Y555672835D01*
X-540895513Y555694446D01*
X-540911058Y555713387D01*
X-540930000Y555728933D01*
X-540951611Y555740484D01*
X-541026995Y555771709D01*
X-541071812Y555801655D01*
X-541117242Y555832010D01*
X-541193990Y555908758D01*
X-541254290Y555999004D01*
X-541254291Y555999005D01*
X-541295826Y556099279D01*
X-541317000Y556205730D01*
X-541317000Y556314270D01*
X-541295826Y556420721D01*
X-541254291Y556520995D01*
X-541193991Y556611240D01*
X-541193990Y556611242D01*
X-541117242Y556687990D01*
X-541026996Y556748290D01*
X-541026995Y556748291D01*
X-540951611Y556779516D01*
X-540930000Y556791067D01*
X-540911059Y556806612D01*
X-540895513Y556825554D01*
X-540883962Y556847165D01*
X-540876849Y556870614D01*
X-540874447Y556895000D01*
X-540657553Y556895000D01*
X-540655151Y556870614D01*
X-540648038Y556847165D01*
X-540636487Y556825554D01*
X-540620942Y556806613D01*
X-540602000Y556791067D01*
X-540580389Y556779516D01*
X-540505005Y556748291D01*
X-540505004Y556748290D01*
X-540414758Y556687990D01*
X-540338010Y556611242D01*
X-540338009Y556611240D01*
X-540277709Y556520995D01*
X-540246484Y556445611D01*
X-540234933Y556424000D01*
X-540219388Y556405059D01*
X-540200446Y556389513D01*
X-540178835Y556377962D01*
X-540155386Y556370849D01*
X-540131000Y556368447D01*
X-540106614Y556370849D01*
X-540083165Y556377962D01*
X-540061554Y556389513D01*
X-540042613Y556405058D01*
X-540027067Y556424000D01*
X-540015516Y556445611D01*
X-539984291Y556520995D01*
X-539923991Y556611240D01*
X-539923990Y556611242D01*
X-539847242Y556687990D01*
X-539756996Y556748290D01*
X-539756995Y556748291D01*
X-539681611Y556779516D01*
X-539660000Y556791067D01*
X-539641059Y556806612D01*
X-539625513Y556825554D01*
X-539613962Y556847165D01*
X-539606849Y556870614D01*
X-539604447Y556895000D01*
X-539606849Y556919386D01*
X-539613962Y556942835D01*
X-539625513Y556964446D01*
X-539641058Y556983387D01*
X-539660000Y556998933D01*
X-539681611Y557010484D01*
X-539756995Y557041709D01*
X-539801812Y557071655D01*
X-539847242Y557102010D01*
X-539923990Y557178758D01*
X-539984290Y557269004D01*
X-539984291Y557269005D01*
X-540015516Y557344389D01*
X-540027067Y557366000D01*
X-540042612Y557384941D01*
X-540061554Y557400487D01*
X-540083165Y557412038D01*
X-540106614Y557419151D01*
X-540131000Y557421553D01*
X-540155386Y557419151D01*
X-540178835Y557412038D01*
X-540200446Y557400487D01*
X-540219387Y557384942D01*
X-540234933Y557366000D01*
X-540246484Y557344389D01*
X-540277709Y557269005D01*
X-540277710Y557269004D01*
X-540338010Y557178758D01*
X-540414758Y557102010D01*
X-540460188Y557071655D01*
X-540505005Y557041709D01*
X-540580389Y557010484D01*
X-540602000Y556998933D01*
X-540620941Y556983388D01*
X-540636487Y556964446D01*
X-540648038Y556942835D01*
X-540655151Y556919386D01*
X-540657553Y556895000D01*
X-540874447Y556895000D01*
X-540876849Y556919386D01*
X-540883962Y556942835D01*
X-540895513Y556964446D01*
X-540911058Y556983387D01*
X-540930000Y556998933D01*
X-540951611Y557010484D01*
X-541026995Y557041709D01*
X-541071812Y557071655D01*
X-541117242Y557102010D01*
X-541193990Y557178758D01*
X-541254290Y557269004D01*
X-541254291Y557269005D01*
X-541295826Y557369279D01*
X-541317000Y557475730D01*
X-541317000Y557584270D01*
X-541295826Y557690721D01*
X-541254291Y557790995D01*
X-541193991Y557881240D01*
X-541193990Y557881242D01*
X-541117242Y557957990D01*
X-541026996Y558018290D01*
X-541026995Y558018291D01*
X-540951611Y558049516D01*
X-540930000Y558061067D01*
X-540911059Y558076612D01*
X-540895513Y558095554D01*
X-540883962Y558117165D01*
X-540876849Y558140614D01*
X-540874447Y558165000D01*
X-540657553Y558165000D01*
X-540655151Y558140614D01*
X-540648038Y558117165D01*
X-540636487Y558095554D01*
X-540620942Y558076613D01*
X-540602000Y558061067D01*
X-540580389Y558049516D01*
X-540505005Y558018291D01*
X-540505004Y558018290D01*
X-540414758Y557957990D01*
X-540338010Y557881242D01*
X-540338009Y557881240D01*
X-540277709Y557790995D01*
X-540246484Y557715611D01*
X-540234933Y557694000D01*
X-540219388Y557675059D01*
X-540200446Y557659513D01*
X-540178835Y557647962D01*
X-540155386Y557640849D01*
X-540131000Y557638447D01*
X-540106614Y557640849D01*
X-540083165Y557647962D01*
X-540061554Y557659513D01*
X-540042613Y557675058D01*
X-540027067Y557694000D01*
X-540015516Y557715611D01*
X-539984291Y557790995D01*
X-539923991Y557881240D01*
X-539923990Y557881242D01*
X-539847242Y557957990D01*
X-539756996Y558018290D01*
X-539756995Y558018291D01*
X-539681611Y558049516D01*
X-539660000Y558061067D01*
X-539641059Y558076612D01*
X-539625513Y558095554D01*
X-539613962Y558117165D01*
X-539606849Y558140614D01*
X-539604447Y558165000D01*
X-539606849Y558189386D01*
X-539613962Y558212835D01*
X-539625513Y558234446D01*
X-539641058Y558253387D01*
X-539660000Y558268933D01*
X-539681611Y558280484D01*
X-539756995Y558311709D01*
X-539801812Y558341655D01*
X-539847242Y558372010D01*
X-539923990Y558448758D01*
X-539984290Y558539004D01*
X-539984291Y558539005D01*
X-540015516Y558614389D01*
X-540027067Y558636000D01*
X-540042612Y558654941D01*
X-540061554Y558670487D01*
X-540083165Y558682038D01*
X-540106614Y558689151D01*
X-540131000Y558691553D01*
X-540155386Y558689151D01*
X-540178835Y558682038D01*
X-540200446Y558670487D01*
X-540219387Y558654942D01*
X-540234933Y558636000D01*
X-540246484Y558614389D01*
X-540277709Y558539005D01*
X-540277710Y558539004D01*
X-540338010Y558448758D01*
X-540414758Y558372010D01*
X-540460188Y558341655D01*
X-540505005Y558311709D01*
X-540580389Y558280484D01*
X-540602000Y558268933D01*
X-540620941Y558253388D01*
X-540636487Y558234446D01*
X-540648038Y558212835D01*
X-540655151Y558189386D01*
X-540657553Y558165000D01*
X-540874447Y558165000D01*
X-540876849Y558189386D01*
X-540883962Y558212835D01*
X-540895513Y558234446D01*
X-540911058Y558253387D01*
X-540930000Y558268933D01*
X-540951611Y558280484D01*
X-541026995Y558311709D01*
X-541071812Y558341655D01*
X-541117242Y558372010D01*
X-541193990Y558448758D01*
X-541254290Y558539004D01*
X-541254291Y558539005D01*
X-541295826Y558639279D01*
X-541317000Y558745730D01*
X-541317000Y558854270D01*
X-541295826Y558960721D01*
X-541254291Y559060995D01*
X-541193991Y559151240D01*
X-541193990Y559151242D01*
X-541117242Y559227990D01*
X-541026996Y559288290D01*
X-541026995Y559288291D01*
X-540926721Y559329826D01*
X-540820270Y559351000D01*
X-540711730Y559351000D01*
X-540605279Y559329826D01*
G37*
G36*
X-532778488Y555124073D02*
G01*
X-532629188Y555094376D01*
X-532465216Y555026456D01*
X-532317646Y554927853D01*
X-532192147Y554802354D01*
X-532093544Y554654784D01*
X-532025624Y554490812D01*
X-531991000Y554316741D01*
X-531991000Y554139259D01*
X-532025624Y553965188D01*
X-532093544Y553801216D01*
X-532192147Y553653646D01*
X-532317646Y553528147D01*
X-532465216Y553429544D01*
X-532629188Y553361624D01*
X-532778488Y553331927D01*
X-532803258Y553327000D01*
X-532980742Y553327000D01*
X-533005512Y553331927D01*
X-533154812Y553361624D01*
X-533318784Y553429544D01*
X-533466354Y553528147D01*
X-533591853Y553653646D01*
X-533690456Y553801216D01*
X-533758376Y553965188D01*
X-533793000Y554139259D01*
X-533793000Y554316741D01*
X-533758376Y554490812D01*
X-533690456Y554654784D01*
X-533591853Y554802354D01*
X-533466354Y554927853D01*
X-533318784Y555026456D01*
X-533154812Y555094376D01*
X-533005512Y555124073D01*
X-532980742Y555129000D01*
X-532803258Y555129000D01*
X-532778488Y555124073D01*
G37*
G36*
X-535318488Y555124073D02*
G01*
X-535169188Y555094376D01*
X-535005216Y555026456D01*
X-534857646Y554927853D01*
X-534732147Y554802354D01*
X-534633544Y554654784D01*
X-534565624Y554490812D01*
X-534531000Y554316741D01*
X-534531000Y554139259D01*
X-534565624Y553965188D01*
X-534633544Y553801216D01*
X-534732147Y553653646D01*
X-534857646Y553528147D01*
X-535005216Y553429544D01*
X-535169188Y553361624D01*
X-535318488Y553331927D01*
X-535343258Y553327000D01*
X-535520742Y553327000D01*
X-535545512Y553331927D01*
X-535694812Y553361624D01*
X-535858784Y553429544D01*
X-536006354Y553528147D01*
X-536131853Y553653646D01*
X-536230456Y553801216D01*
X-536298376Y553965188D01*
X-536333000Y554139259D01*
X-536333000Y554316741D01*
X-536298376Y554490812D01*
X-536230456Y554654784D01*
X-536131853Y554802354D01*
X-536006354Y554927853D01*
X-535858784Y555026456D01*
X-535694812Y555094376D01*
X-535545512Y555124073D01*
X-535520742Y555129000D01*
X-535343258Y555129000D01*
X-535318488Y555124073D01*
G37*
G36*
X-553327000Y554851000D02*
G01*
X-555129000Y554851000D01*
X-555129000Y556653000D01*
X-553327000Y556653000D01*
X-553327000Y554851000D01*
G37*
G36*
X-549034488Y556648073D02*
G01*
X-548885188Y556618376D01*
X-548721216Y556550456D01*
X-548573646Y556451853D01*
X-548448147Y556326354D01*
X-548349544Y556178784D01*
X-548281624Y556014812D01*
X-548247000Y555840741D01*
X-548247000Y555663259D01*
X-548281624Y555489188D01*
X-548349544Y555325216D01*
X-548448147Y555177646D01*
X-548573646Y555052147D01*
X-548721216Y554953544D01*
X-548885188Y554885624D01*
X-549034488Y554855927D01*
X-549059258Y554851000D01*
X-549236742Y554851000D01*
X-549261512Y554855927D01*
X-549410812Y554885624D01*
X-549574784Y554953544D01*
X-549722354Y555052147D01*
X-549847853Y555177646D01*
X-549946456Y555325216D01*
X-550014376Y555489188D01*
X-550049000Y555663259D01*
X-550049000Y555840741D01*
X-550014376Y556014812D01*
X-549946456Y556178784D01*
X-549847853Y556326354D01*
X-549722354Y556451853D01*
X-549574784Y556550456D01*
X-549410812Y556618376D01*
X-549261512Y556648073D01*
X-549236742Y556653000D01*
X-549059258Y556653000D01*
X-549034488Y556648073D01*
G37*
G36*
X-551574488Y556648073D02*
G01*
X-551425188Y556618376D01*
X-551261216Y556550456D01*
X-551113646Y556451853D01*
X-550988147Y556326354D01*
X-550889544Y556178784D01*
X-550821624Y556014812D01*
X-550787000Y555840741D01*
X-550787000Y555663259D01*
X-550821624Y555489188D01*
X-550889544Y555325216D01*
X-550988147Y555177646D01*
X-551113646Y555052147D01*
X-551261216Y554953544D01*
X-551425188Y554885624D01*
X-551574488Y554855927D01*
X-551599258Y554851000D01*
X-551776742Y554851000D01*
X-551801512Y554855927D01*
X-551950812Y554885624D01*
X-552114784Y554953544D01*
X-552262354Y555052147D01*
X-552387853Y555177646D01*
X-552486456Y555325216D01*
X-552554376Y555489188D01*
X-552589000Y555663259D01*
X-552589000Y555840741D01*
X-552554376Y556014812D01*
X-552486456Y556178784D01*
X-552387853Y556326354D01*
X-552262354Y556451853D01*
X-552114784Y556550456D01*
X-551950812Y556618376D01*
X-551801512Y556648073D01*
X-551776742Y556653000D01*
X-551599258Y556653000D01*
X-551574488Y556648073D01*
G37*
G36*
X-532778488Y557664073D02*
G01*
X-532629188Y557634376D01*
X-532465216Y557566456D01*
X-532317646Y557467853D01*
X-532192147Y557342354D01*
X-532093544Y557194784D01*
X-532025624Y557030812D01*
X-531991000Y556856741D01*
X-531991000Y556679259D01*
X-532025624Y556505188D01*
X-532093544Y556341216D01*
X-532192147Y556193646D01*
X-532317646Y556068147D01*
X-532465216Y555969544D01*
X-532629188Y555901624D01*
X-532778488Y555871927D01*
X-532803258Y555867000D01*
X-532980742Y555867000D01*
X-533005512Y555871927D01*
X-533154812Y555901624D01*
X-533318784Y555969544D01*
X-533466354Y556068147D01*
X-533591853Y556193646D01*
X-533690456Y556341216D01*
X-533758376Y556505188D01*
X-533793000Y556679259D01*
X-533793000Y556856741D01*
X-533758376Y557030812D01*
X-533690456Y557194784D01*
X-533591853Y557342354D01*
X-533466354Y557467853D01*
X-533318784Y557566456D01*
X-533154812Y557634376D01*
X-533005512Y557664073D01*
X-532980742Y557669000D01*
X-532803258Y557669000D01*
X-532778488Y557664073D01*
G37*
G36*
X-535318488Y557664073D02*
G01*
X-535169188Y557634376D01*
X-535005216Y557566456D01*
X-534857646Y557467853D01*
X-534732147Y557342354D01*
X-534633544Y557194784D01*
X-534565624Y557030812D01*
X-534531000Y556856741D01*
X-534531000Y556679259D01*
X-534565624Y556505188D01*
X-534633544Y556341216D01*
X-534732147Y556193646D01*
X-534857646Y556068147D01*
X-535005216Y555969544D01*
X-535169188Y555901624D01*
X-535318488Y555871927D01*
X-535343258Y555867000D01*
X-535520742Y555867000D01*
X-535545512Y555871927D01*
X-535694812Y555901624D01*
X-535858784Y555969544D01*
X-536006354Y556068147D01*
X-536131853Y556193646D01*
X-536230456Y556341216D01*
X-536298376Y556505188D01*
X-536333000Y556679259D01*
X-536333000Y556856741D01*
X-536298376Y557030812D01*
X-536230456Y557194784D01*
X-536131853Y557342354D01*
X-536006354Y557467853D01*
X-535858784Y557566456D01*
X-535694812Y557634376D01*
X-535545512Y557664073D01*
X-535520742Y557669000D01*
X-535343258Y557669000D01*
X-535318488Y557664073D01*
G37*
G36*
X-535318488Y560204073D02*
G01*
X-535169188Y560174376D01*
X-535005216Y560106456D01*
X-534857646Y560007853D01*
X-534732147Y559882354D01*
X-534633544Y559734784D01*
X-534565624Y559570812D01*
X-534531000Y559396741D01*
X-534531000Y559219259D01*
X-534565624Y559045188D01*
X-534633544Y558881216D01*
X-534732147Y558733646D01*
X-534857646Y558608147D01*
X-535005216Y558509544D01*
X-535169188Y558441624D01*
X-535318488Y558411927D01*
X-535343258Y558407000D01*
X-535520742Y558407000D01*
X-535545512Y558411927D01*
X-535694812Y558441624D01*
X-535858784Y558509544D01*
X-536006354Y558608147D01*
X-536131853Y558733646D01*
X-536230456Y558881216D01*
X-536298376Y559045188D01*
X-536333000Y559219259D01*
X-536333000Y559396741D01*
X-536298376Y559570812D01*
X-536230456Y559734784D01*
X-536131853Y559882354D01*
X-536006354Y560007853D01*
X-535858784Y560106456D01*
X-535694812Y560174376D01*
X-535545512Y560204073D01*
X-535520742Y560209000D01*
X-535343258Y560209000D01*
X-535318488Y560204073D01*
G37*
G36*
X-532778488Y560204073D02*
G01*
X-532629188Y560174376D01*
X-532465216Y560106456D01*
X-532317646Y560007853D01*
X-532192147Y559882354D01*
X-532093544Y559734784D01*
X-532025624Y559570812D01*
X-531991000Y559396741D01*
X-531991000Y559219259D01*
X-532025624Y559045188D01*
X-532093544Y558881216D01*
X-532192147Y558733646D01*
X-532317646Y558608147D01*
X-532465216Y558509544D01*
X-532629188Y558441624D01*
X-532778488Y558411927D01*
X-532803258Y558407000D01*
X-532980742Y558407000D01*
X-533005512Y558411927D01*
X-533154812Y558441624D01*
X-533318784Y558509544D01*
X-533466354Y558608147D01*
X-533591853Y558733646D01*
X-533690456Y558881216D01*
X-533758376Y559045188D01*
X-533793000Y559219259D01*
X-533793000Y559396741D01*
X-533758376Y559570812D01*
X-533690456Y559734784D01*
X-533591853Y559882354D01*
X-533466354Y560007853D01*
X-533318784Y560106456D01*
X-533154812Y560174376D01*
X-533005512Y560204073D01*
X-532980742Y560209000D01*
X-532803258Y560209000D01*
X-532778488Y560204073D01*
G37*
G36*
X-554368488Y560204073D02*
G01*
X-554219188Y560174376D01*
X-554055216Y560106456D01*
X-553907646Y560007853D01*
X-553782147Y559882354D01*
X-553683544Y559734784D01*
X-553615624Y559570812D01*
X-553581000Y559396741D01*
X-553581000Y559219259D01*
X-553615624Y559045188D01*
X-553683544Y558881216D01*
X-553782147Y558733646D01*
X-553907646Y558608147D01*
X-554055216Y558509544D01*
X-554219188Y558441624D01*
X-554368488Y558411927D01*
X-554393258Y558407000D01*
X-554570742Y558407000D01*
X-554595512Y558411927D01*
X-554744812Y558441624D01*
X-554908784Y558509544D01*
X-555056354Y558608147D01*
X-555181853Y558733646D01*
X-555280456Y558881216D01*
X-555348376Y559045188D01*
X-555383000Y559219259D01*
X-555383000Y559396741D01*
X-555348376Y559570812D01*
X-555280456Y559734784D01*
X-555181853Y559882354D01*
X-555056354Y560007853D01*
X-554908784Y560106456D01*
X-554744812Y560174376D01*
X-554595512Y560204073D01*
X-554570742Y560209000D01*
X-554393258Y560209000D01*
X-554368488Y560204073D01*
G37*
G36*
X-540605279Y569489826D02*
G01*
X-540505005Y569448291D01*
X-540505004Y569448290D01*
X-540414758Y569387990D01*
X-540338010Y569311242D01*
X-540338009Y569311240D01*
X-540277709Y569220995D01*
X-540246484Y569145611D01*
X-540234933Y569124000D01*
X-540219388Y569105059D01*
X-540200446Y569089513D01*
X-540178835Y569077962D01*
X-540155386Y569070849D01*
X-540131000Y569068447D01*
X-540106614Y569070849D01*
X-540083165Y569077962D01*
X-540061554Y569089513D01*
X-540042613Y569105058D01*
X-540027067Y569124000D01*
X-540015516Y569145611D01*
X-539984291Y569220995D01*
X-539923991Y569311240D01*
X-539923990Y569311242D01*
X-539847242Y569387990D01*
X-539756996Y569448290D01*
X-539756995Y569448291D01*
X-539656721Y569489826D01*
X-539550270Y569511000D01*
X-539441730Y569511000D01*
X-539335279Y569489826D01*
X-539235005Y569448291D01*
X-539235004Y569448290D01*
X-539144758Y569387990D01*
X-539068010Y569311242D01*
X-539068009Y569311240D01*
X-539007709Y569220995D01*
X-538966174Y569120721D01*
X-538945000Y569014270D01*
X-538945000Y568905730D01*
X-538966174Y568799279D01*
X-539007709Y568699005D01*
X-539007710Y568699004D01*
X-539068010Y568608758D01*
X-539144758Y568532010D01*
X-539190188Y568501655D01*
X-539235005Y568471709D01*
X-539310389Y568440484D01*
X-539332000Y568428933D01*
X-539350941Y568413388D01*
X-539366487Y568394446D01*
X-539378038Y568372835D01*
X-539385151Y568349386D01*
X-539387553Y568325000D01*
X-539385151Y568300614D01*
X-539378038Y568277165D01*
X-539366487Y568255554D01*
X-539350942Y568236613D01*
X-539332000Y568221067D01*
X-539310389Y568209516D01*
X-539235005Y568178291D01*
X-539235004Y568178290D01*
X-539144758Y568117990D01*
X-539068010Y568041242D01*
X-539068009Y568041240D01*
X-539007709Y567950995D01*
X-538966174Y567850721D01*
X-538945000Y567744270D01*
X-538945000Y567635730D01*
X-538966174Y567529279D01*
X-539007709Y567429005D01*
X-539007710Y567429004D01*
X-539068010Y567338758D01*
X-539144758Y567262010D01*
X-539190188Y567231655D01*
X-539235005Y567201709D01*
X-539310389Y567170484D01*
X-539332000Y567158933D01*
X-539350941Y567143388D01*
X-539366487Y567124446D01*
X-539378038Y567102835D01*
X-539385151Y567079386D01*
X-539387553Y567055000D01*
X-539385151Y567030614D01*
X-539378038Y567007165D01*
X-539366487Y566985554D01*
X-539350942Y566966613D01*
X-539332000Y566951067D01*
X-539310389Y566939516D01*
X-539235005Y566908291D01*
X-539235004Y566908290D01*
X-539144758Y566847990D01*
X-539068010Y566771242D01*
X-539068009Y566771240D01*
X-539007709Y566680995D01*
X-538966174Y566580721D01*
X-538945000Y566474270D01*
X-538945000Y566365730D01*
X-538966174Y566259279D01*
X-539007709Y566159005D01*
X-539007710Y566159004D01*
X-539068010Y566068758D01*
X-539144758Y565992010D01*
X-539190188Y565961655D01*
X-539235005Y565931709D01*
X-539310389Y565900484D01*
X-539332000Y565888933D01*
X-539350941Y565873388D01*
X-539366487Y565854446D01*
X-539378038Y565832835D01*
X-539385151Y565809386D01*
X-539387553Y565785000D01*
X-539385151Y565760614D01*
X-539378038Y565737165D01*
X-539366487Y565715554D01*
X-539350942Y565696613D01*
X-539332000Y565681067D01*
X-539310389Y565669516D01*
X-539235005Y565638291D01*
X-539235004Y565638290D01*
X-539144758Y565577990D01*
X-539068010Y565501242D01*
X-539068009Y565501240D01*
X-539007709Y565410995D01*
X-538966174Y565310721D01*
X-538945000Y565204270D01*
X-538945000Y565095730D01*
X-538966174Y564989279D01*
X-539007709Y564889005D01*
X-539007710Y564889004D01*
X-539068010Y564798758D01*
X-539144758Y564722010D01*
X-539190188Y564691655D01*
X-539235005Y564661709D01*
X-539310389Y564630484D01*
X-539332000Y564618933D01*
X-539350941Y564603388D01*
X-539366487Y564584446D01*
X-539378038Y564562835D01*
X-539385151Y564539386D01*
X-539387553Y564515000D01*
X-539385151Y564490614D01*
X-539378038Y564467165D01*
X-539366487Y564445554D01*
X-539350942Y564426613D01*
X-539332000Y564411067D01*
X-539310389Y564399516D01*
X-539235005Y564368291D01*
X-539235004Y564368290D01*
X-539144758Y564307990D01*
X-539068010Y564231242D01*
X-539068009Y564231240D01*
X-539007709Y564140995D01*
X-538966174Y564040721D01*
X-538945000Y563934270D01*
X-538945000Y563825730D01*
X-538966174Y563719279D01*
X-539007709Y563619005D01*
X-539007710Y563619004D01*
X-539068010Y563528758D01*
X-539144758Y563452010D01*
X-539190188Y563421655D01*
X-539235005Y563391709D01*
X-539310389Y563360484D01*
X-539332000Y563348933D01*
X-539350941Y563333388D01*
X-539366487Y563314446D01*
X-539378038Y563292835D01*
X-539385151Y563269386D01*
X-539387553Y563245000D01*
X-539385151Y563220614D01*
X-539378038Y563197165D01*
X-539366487Y563175554D01*
X-539350942Y563156613D01*
X-539332000Y563141067D01*
X-539310389Y563129516D01*
X-539235005Y563098291D01*
X-539235004Y563098290D01*
X-539144758Y563037990D01*
X-539068010Y562961242D01*
X-539068009Y562961240D01*
X-539007709Y562870995D01*
X-538966174Y562770721D01*
X-538945000Y562664270D01*
X-538945000Y562555730D01*
X-538966174Y562449279D01*
X-539007709Y562349005D01*
X-539007710Y562349004D01*
X-539068010Y562258758D01*
X-539144758Y562182010D01*
X-539190188Y562151655D01*
X-539235005Y562121709D01*
X-539310389Y562090484D01*
X-539332000Y562078933D01*
X-539350941Y562063388D01*
X-539366487Y562044446D01*
X-539378038Y562022835D01*
X-539385151Y561999386D01*
X-539387553Y561975000D01*
X-539385151Y561950614D01*
X-539378038Y561927165D01*
X-539366487Y561905554D01*
X-539350942Y561886613D01*
X-539332000Y561871067D01*
X-539310389Y561859516D01*
X-539235005Y561828291D01*
X-539235004Y561828290D01*
X-539144758Y561767990D01*
X-539068010Y561691242D01*
X-539068009Y561691240D01*
X-539007709Y561600995D01*
X-538966174Y561500721D01*
X-538945000Y561394270D01*
X-538945000Y561285730D01*
X-538966174Y561179279D01*
X-539007709Y561079005D01*
X-539007710Y561079004D01*
X-539068010Y560988758D01*
X-539144758Y560912010D01*
X-539190188Y560881655D01*
X-539235005Y560851709D01*
X-539335279Y560810174D01*
X-539441730Y560789000D01*
X-539550270Y560789000D01*
X-539656721Y560810174D01*
X-539756995Y560851709D01*
X-539801812Y560881655D01*
X-539847242Y560912010D01*
X-539923990Y560988758D01*
X-539984290Y561079004D01*
X-539984291Y561079005D01*
X-540015516Y561154389D01*
X-540027067Y561176000D01*
X-540042612Y561194941D01*
X-540061554Y561210487D01*
X-540083165Y561222038D01*
X-540106614Y561229151D01*
X-540131000Y561231553D01*
X-540155386Y561229151D01*
X-540178835Y561222038D01*
X-540200446Y561210487D01*
X-540219387Y561194942D01*
X-540234933Y561176000D01*
X-540246484Y561154389D01*
X-540277709Y561079005D01*
X-540277710Y561079004D01*
X-540338010Y560988758D01*
X-540414758Y560912010D01*
X-540460188Y560881655D01*
X-540505005Y560851709D01*
X-540605279Y560810174D01*
X-540711730Y560789000D01*
X-540820270Y560789000D01*
X-540926721Y560810174D01*
X-541026995Y560851709D01*
X-541071812Y560881655D01*
X-541117242Y560912010D01*
X-541193990Y560988758D01*
X-541254290Y561079004D01*
X-541254291Y561079005D01*
X-541295826Y561179279D01*
X-541317000Y561285730D01*
X-541317000Y561394270D01*
X-541295826Y561500721D01*
X-541254291Y561600995D01*
X-541193991Y561691240D01*
X-541193990Y561691242D01*
X-541117242Y561767990D01*
X-541026996Y561828290D01*
X-541026995Y561828291D01*
X-540951611Y561859516D01*
X-540930000Y561871067D01*
X-540911059Y561886612D01*
X-540895513Y561905554D01*
X-540883962Y561927165D01*
X-540876849Y561950614D01*
X-540874447Y561975000D01*
X-540657553Y561975000D01*
X-540655151Y561950614D01*
X-540648038Y561927165D01*
X-540636487Y561905554D01*
X-540620942Y561886613D01*
X-540602000Y561871067D01*
X-540580389Y561859516D01*
X-540505005Y561828291D01*
X-540505004Y561828290D01*
X-540414758Y561767990D01*
X-540338010Y561691242D01*
X-540338009Y561691240D01*
X-540277709Y561600995D01*
X-540246484Y561525611D01*
X-540234933Y561504000D01*
X-540219388Y561485059D01*
X-540200446Y561469513D01*
X-540178835Y561457962D01*
X-540155386Y561450849D01*
X-540131000Y561448447D01*
X-540106614Y561450849D01*
X-540083165Y561457962D01*
X-540061554Y561469513D01*
X-540042613Y561485058D01*
X-540027067Y561504000D01*
X-540015516Y561525611D01*
X-539984291Y561600995D01*
X-539923991Y561691240D01*
X-539923990Y561691242D01*
X-539847242Y561767990D01*
X-539756996Y561828290D01*
X-539756995Y561828291D01*
X-539681611Y561859516D01*
X-539660000Y561871067D01*
X-539641059Y561886612D01*
X-539625513Y561905554D01*
X-539613962Y561927165D01*
X-539606849Y561950614D01*
X-539604447Y561975000D01*
X-539606849Y561999386D01*
X-539613962Y562022835D01*
X-539625513Y562044446D01*
X-539641058Y562063387D01*
X-539660000Y562078933D01*
X-539681611Y562090484D01*
X-539756995Y562121709D01*
X-539801812Y562151655D01*
X-539847242Y562182010D01*
X-539923990Y562258758D01*
X-539984290Y562349004D01*
X-539984291Y562349005D01*
X-540015516Y562424389D01*
X-540027067Y562446000D01*
X-540042612Y562464941D01*
X-540061554Y562480487D01*
X-540083165Y562492038D01*
X-540106614Y562499151D01*
X-540131000Y562501553D01*
X-540155386Y562499151D01*
X-540178835Y562492038D01*
X-540200446Y562480487D01*
X-540219387Y562464942D01*
X-540234933Y562446000D01*
X-540246484Y562424389D01*
X-540277709Y562349005D01*
X-540277710Y562349004D01*
X-540338010Y562258758D01*
X-540414758Y562182010D01*
X-540460188Y562151655D01*
X-540505005Y562121709D01*
X-540580389Y562090484D01*
X-540602000Y562078933D01*
X-540620941Y562063388D01*
X-540636487Y562044446D01*
X-540648038Y562022835D01*
X-540655151Y561999386D01*
X-540657553Y561975000D01*
X-540874447Y561975000D01*
X-540876849Y561999386D01*
X-540883962Y562022835D01*
X-540895513Y562044446D01*
X-540911058Y562063387D01*
X-540930000Y562078933D01*
X-540951611Y562090484D01*
X-541026995Y562121709D01*
X-541071812Y562151655D01*
X-541117242Y562182010D01*
X-541193990Y562258758D01*
X-541254290Y562349004D01*
X-541254291Y562349005D01*
X-541295826Y562449279D01*
X-541317000Y562555730D01*
X-541317000Y562664270D01*
X-541295826Y562770721D01*
X-541254291Y562870995D01*
X-541193991Y562961240D01*
X-541193990Y562961242D01*
X-541117242Y563037990D01*
X-541026996Y563098290D01*
X-541026995Y563098291D01*
X-540951611Y563129516D01*
X-540930000Y563141067D01*
X-540911059Y563156612D01*
X-540895513Y563175554D01*
X-540883962Y563197165D01*
X-540876849Y563220614D01*
X-540874447Y563245000D01*
X-540657553Y563245000D01*
X-540655151Y563220614D01*
X-540648038Y563197165D01*
X-540636487Y563175554D01*
X-540620942Y563156613D01*
X-540602000Y563141067D01*
X-540580389Y563129516D01*
X-540505005Y563098291D01*
X-540505004Y563098290D01*
X-540414758Y563037990D01*
X-540338010Y562961242D01*
X-540338009Y562961240D01*
X-540277709Y562870995D01*
X-540246484Y562795611D01*
X-540234933Y562774000D01*
X-540219388Y562755059D01*
X-540200446Y562739513D01*
X-540178835Y562727962D01*
X-540155386Y562720849D01*
X-540131000Y562718447D01*
X-540106614Y562720849D01*
X-540083165Y562727962D01*
X-540061554Y562739513D01*
X-540042613Y562755058D01*
X-540027067Y562774000D01*
X-540015516Y562795611D01*
X-539984291Y562870995D01*
X-539923991Y562961240D01*
X-539923990Y562961242D01*
X-539847242Y563037990D01*
X-539756996Y563098290D01*
X-539756995Y563098291D01*
X-539681611Y563129516D01*
X-539660000Y563141067D01*
X-539641059Y563156612D01*
X-539625513Y563175554D01*
X-539613962Y563197165D01*
X-539606849Y563220614D01*
X-539604447Y563245000D01*
X-539606849Y563269386D01*
X-539613962Y563292835D01*
X-539625513Y563314446D01*
X-539641058Y563333387D01*
X-539660000Y563348933D01*
X-539681611Y563360484D01*
X-539756995Y563391709D01*
X-539801812Y563421655D01*
X-539847242Y563452010D01*
X-539923990Y563528758D01*
X-539984290Y563619004D01*
X-539984291Y563619005D01*
X-540015516Y563694389D01*
X-540027067Y563716000D01*
X-540042612Y563734941D01*
X-540061554Y563750487D01*
X-540083165Y563762038D01*
X-540106614Y563769151D01*
X-540131000Y563771553D01*
X-540155386Y563769151D01*
X-540178835Y563762038D01*
X-540200446Y563750487D01*
X-540219387Y563734942D01*
X-540234933Y563716000D01*
X-540246484Y563694389D01*
X-540277709Y563619005D01*
X-540277710Y563619004D01*
X-540338010Y563528758D01*
X-540414758Y563452010D01*
X-540460188Y563421655D01*
X-540505005Y563391709D01*
X-540580389Y563360484D01*
X-540602000Y563348933D01*
X-540620941Y563333388D01*
X-540636487Y563314446D01*
X-540648038Y563292835D01*
X-540655151Y563269386D01*
X-540657553Y563245000D01*
X-540874447Y563245000D01*
X-540876849Y563269386D01*
X-540883962Y563292835D01*
X-540895513Y563314446D01*
X-540911058Y563333387D01*
X-540930000Y563348933D01*
X-540951611Y563360484D01*
X-541026995Y563391709D01*
X-541071812Y563421655D01*
X-541117242Y563452010D01*
X-541193990Y563528758D01*
X-541254290Y563619004D01*
X-541254291Y563619005D01*
X-541295826Y563719279D01*
X-541317000Y563825730D01*
X-541317000Y563934270D01*
X-541295826Y564040721D01*
X-541254291Y564140995D01*
X-541193991Y564231240D01*
X-541193990Y564231242D01*
X-541117242Y564307990D01*
X-541026996Y564368290D01*
X-541026995Y564368291D01*
X-540951611Y564399516D01*
X-540930000Y564411067D01*
X-540911059Y564426612D01*
X-540895513Y564445554D01*
X-540883962Y564467165D01*
X-540876849Y564490614D01*
X-540874447Y564515000D01*
X-540657553Y564515000D01*
X-540655151Y564490614D01*
X-540648038Y564467165D01*
X-540636487Y564445554D01*
X-540620942Y564426613D01*
X-540602000Y564411067D01*
X-540580389Y564399516D01*
X-540505005Y564368291D01*
X-540505004Y564368290D01*
X-540414758Y564307990D01*
X-540338010Y564231242D01*
X-540338009Y564231240D01*
X-540277709Y564140995D01*
X-540246484Y564065611D01*
X-540234933Y564044000D01*
X-540219388Y564025059D01*
X-540200446Y564009513D01*
X-540178835Y563997962D01*
X-540155386Y563990849D01*
X-540131000Y563988447D01*
X-540106614Y563990849D01*
X-540083165Y563997962D01*
X-540061554Y564009513D01*
X-540042613Y564025058D01*
X-540027067Y564044000D01*
X-540015516Y564065611D01*
X-539984291Y564140995D01*
X-539923991Y564231240D01*
X-539923990Y564231242D01*
X-539847242Y564307990D01*
X-539756996Y564368290D01*
X-539756995Y564368291D01*
X-539681611Y564399516D01*
X-539660000Y564411067D01*
X-539641059Y564426612D01*
X-539625513Y564445554D01*
X-539613962Y564467165D01*
X-539606849Y564490614D01*
X-539604447Y564515000D01*
X-539606849Y564539386D01*
X-539613962Y564562835D01*
X-539625513Y564584446D01*
X-539641058Y564603387D01*
X-539660000Y564618933D01*
X-539681611Y564630484D01*
X-539756995Y564661709D01*
X-539801812Y564691655D01*
X-539847242Y564722010D01*
X-539923990Y564798758D01*
X-539984290Y564889004D01*
X-539984291Y564889005D01*
X-540015516Y564964389D01*
X-540027067Y564986000D01*
X-540042612Y565004941D01*
X-540061554Y565020487D01*
X-540083165Y565032038D01*
X-540106614Y565039151D01*
X-540131000Y565041553D01*
X-540155386Y565039151D01*
X-540178835Y565032038D01*
X-540200446Y565020487D01*
X-540219387Y565004942D01*
X-540234933Y564986000D01*
X-540246484Y564964389D01*
X-540277709Y564889005D01*
X-540277710Y564889004D01*
X-540338010Y564798758D01*
X-540414758Y564722010D01*
X-540460188Y564691655D01*
X-540505005Y564661709D01*
X-540580389Y564630484D01*
X-540602000Y564618933D01*
X-540620941Y564603388D01*
X-540636487Y564584446D01*
X-540648038Y564562835D01*
X-540655151Y564539386D01*
X-540657553Y564515000D01*
X-540874447Y564515000D01*
X-540876849Y564539386D01*
X-540883962Y564562835D01*
X-540895513Y564584446D01*
X-540911058Y564603387D01*
X-540930000Y564618933D01*
X-540951611Y564630484D01*
X-541026995Y564661709D01*
X-541071812Y564691655D01*
X-541117242Y564722010D01*
X-541193990Y564798758D01*
X-541254290Y564889004D01*
X-541254291Y564889005D01*
X-541295826Y564989279D01*
X-541317000Y565095730D01*
X-541317000Y565204270D01*
X-541295826Y565310721D01*
X-541254291Y565410995D01*
X-541193991Y565501240D01*
X-541193990Y565501242D01*
X-541117242Y565577990D01*
X-541026996Y565638290D01*
X-541026995Y565638291D01*
X-540951611Y565669516D01*
X-540930000Y565681067D01*
X-540911059Y565696612D01*
X-540895513Y565715554D01*
X-540883962Y565737165D01*
X-540876849Y565760614D01*
X-540874447Y565785000D01*
X-540657553Y565785000D01*
X-540655151Y565760614D01*
X-540648038Y565737165D01*
X-540636487Y565715554D01*
X-540620942Y565696613D01*
X-540602000Y565681067D01*
X-540580389Y565669516D01*
X-540505005Y565638291D01*
X-540505004Y565638290D01*
X-540414758Y565577990D01*
X-540338010Y565501242D01*
X-540338009Y565501240D01*
X-540277709Y565410995D01*
X-540246484Y565335611D01*
X-540234933Y565314000D01*
X-540219388Y565295059D01*
X-540200446Y565279513D01*
X-540178835Y565267962D01*
X-540155386Y565260849D01*
X-540131000Y565258447D01*
X-540106614Y565260849D01*
X-540083165Y565267962D01*
X-540061554Y565279513D01*
X-540042613Y565295058D01*
X-540027067Y565314000D01*
X-540015516Y565335611D01*
X-539984291Y565410995D01*
X-539923991Y565501240D01*
X-539923990Y565501242D01*
X-539847242Y565577990D01*
X-539756996Y565638290D01*
X-539756995Y565638291D01*
X-539681611Y565669516D01*
X-539660000Y565681067D01*
X-539641059Y565696612D01*
X-539625513Y565715554D01*
X-539613962Y565737165D01*
X-539606849Y565760614D01*
X-539604447Y565785000D01*
X-539606849Y565809386D01*
X-539613962Y565832835D01*
X-539625513Y565854446D01*
X-539641058Y565873387D01*
X-539660000Y565888933D01*
X-539681611Y565900484D01*
X-539756995Y565931709D01*
X-539801812Y565961655D01*
X-539847242Y565992010D01*
X-539923990Y566068758D01*
X-539984290Y566159004D01*
X-539984291Y566159005D01*
X-540015516Y566234389D01*
X-540027067Y566256000D01*
X-540042612Y566274941D01*
X-540061554Y566290487D01*
X-540083165Y566302038D01*
X-540106614Y566309151D01*
X-540131000Y566311553D01*
X-540155386Y566309151D01*
X-540178835Y566302038D01*
X-540200446Y566290487D01*
X-540219387Y566274942D01*
X-540234933Y566256000D01*
X-540246484Y566234389D01*
X-540277709Y566159005D01*
X-540277710Y566159004D01*
X-540338010Y566068758D01*
X-540414758Y565992010D01*
X-540460188Y565961655D01*
X-540505005Y565931709D01*
X-540580389Y565900484D01*
X-540602000Y565888933D01*
X-540620941Y565873388D01*
X-540636487Y565854446D01*
X-540648038Y565832835D01*
X-540655151Y565809386D01*
X-540657553Y565785000D01*
X-540874447Y565785000D01*
X-540876849Y565809386D01*
X-540883962Y565832835D01*
X-540895513Y565854446D01*
X-540911058Y565873387D01*
X-540930000Y565888933D01*
X-540951611Y565900484D01*
X-541026995Y565931709D01*
X-541071812Y565961655D01*
X-541117242Y565992010D01*
X-541193990Y566068758D01*
X-541254290Y566159004D01*
X-541254291Y566159005D01*
X-541295826Y566259279D01*
X-541317000Y566365730D01*
X-541317000Y566474270D01*
X-541295826Y566580721D01*
X-541254291Y566680995D01*
X-541193991Y566771240D01*
X-541193990Y566771242D01*
X-541117242Y566847990D01*
X-541026996Y566908290D01*
X-541026995Y566908291D01*
X-540951611Y566939516D01*
X-540930000Y566951067D01*
X-540911059Y566966612D01*
X-540895513Y566985554D01*
X-540883962Y567007165D01*
X-540876849Y567030614D01*
X-540874447Y567055000D01*
X-540657553Y567055000D01*
X-540655151Y567030614D01*
X-540648038Y567007165D01*
X-540636487Y566985554D01*
X-540620942Y566966613D01*
X-540602000Y566951067D01*
X-540580389Y566939516D01*
X-540505005Y566908291D01*
X-540505004Y566908290D01*
X-540414758Y566847990D01*
X-540338010Y566771242D01*
X-540338009Y566771240D01*
X-540277709Y566680995D01*
X-540246484Y566605611D01*
X-540234933Y566584000D01*
X-540219388Y566565059D01*
X-540200446Y566549513D01*
X-540178835Y566537962D01*
X-540155386Y566530849D01*
X-540131000Y566528447D01*
X-540106614Y566530849D01*
X-540083165Y566537962D01*
X-540061554Y566549513D01*
X-540042613Y566565058D01*
X-540027067Y566584000D01*
X-540015516Y566605611D01*
X-539984291Y566680995D01*
X-539923991Y566771240D01*
X-539923990Y566771242D01*
X-539847242Y566847990D01*
X-539756996Y566908290D01*
X-539756995Y566908291D01*
X-539681611Y566939516D01*
X-539660000Y566951067D01*
X-539641059Y566966612D01*
X-539625513Y566985554D01*
X-539613962Y567007165D01*
X-539606849Y567030614D01*
X-539604447Y567055000D01*
X-539606849Y567079386D01*
X-539613962Y567102835D01*
X-539625513Y567124446D01*
X-539641058Y567143387D01*
X-539660000Y567158933D01*
X-539681611Y567170484D01*
X-539756995Y567201709D01*
X-539801812Y567231655D01*
X-539847242Y567262010D01*
X-539923990Y567338758D01*
X-539984290Y567429004D01*
X-539984291Y567429005D01*
X-540015516Y567504389D01*
X-540027067Y567526000D01*
X-540042612Y567544941D01*
X-540061554Y567560487D01*
X-540083165Y567572038D01*
X-540106614Y567579151D01*
X-540131000Y567581553D01*
X-540155386Y567579151D01*
X-540178835Y567572038D01*
X-540200446Y567560487D01*
X-540219387Y567544942D01*
X-540234933Y567526000D01*
X-540246484Y567504389D01*
X-540277709Y567429005D01*
X-540277710Y567429004D01*
X-540338010Y567338758D01*
X-540414758Y567262010D01*
X-540460188Y567231655D01*
X-540505005Y567201709D01*
X-540580389Y567170484D01*
X-540602000Y567158933D01*
X-540620941Y567143388D01*
X-540636487Y567124446D01*
X-540648038Y567102835D01*
X-540655151Y567079386D01*
X-540657553Y567055000D01*
X-540874447Y567055000D01*
X-540876849Y567079386D01*
X-540883962Y567102835D01*
X-540895513Y567124446D01*
X-540911058Y567143387D01*
X-540930000Y567158933D01*
X-540951611Y567170484D01*
X-541026995Y567201709D01*
X-541071812Y567231655D01*
X-541117242Y567262010D01*
X-541193990Y567338758D01*
X-541254290Y567429004D01*
X-541254291Y567429005D01*
X-541295826Y567529279D01*
X-541317000Y567635730D01*
X-541317000Y567744270D01*
X-541295826Y567850721D01*
X-541254291Y567950995D01*
X-541193991Y568041240D01*
X-541193990Y568041242D01*
X-541117242Y568117990D01*
X-541026996Y568178290D01*
X-541026995Y568178291D01*
X-540951611Y568209516D01*
X-540930000Y568221067D01*
X-540911059Y568236612D01*
X-540895513Y568255554D01*
X-540883962Y568277165D01*
X-540876849Y568300614D01*
X-540874447Y568325000D01*
X-540657553Y568325000D01*
X-540655151Y568300614D01*
X-540648038Y568277165D01*
X-540636487Y568255554D01*
X-540620942Y568236613D01*
X-540602000Y568221067D01*
X-540580389Y568209516D01*
X-540505005Y568178291D01*
X-540505004Y568178290D01*
X-540414758Y568117990D01*
X-540338010Y568041242D01*
X-540338009Y568041240D01*
X-540277709Y567950995D01*
X-540246484Y567875611D01*
X-540234933Y567854000D01*
X-540219388Y567835059D01*
X-540200446Y567819513D01*
X-540178835Y567807962D01*
X-540155386Y567800849D01*
X-540131000Y567798447D01*
X-540106614Y567800849D01*
X-540083165Y567807962D01*
X-540061554Y567819513D01*
X-540042613Y567835058D01*
X-540027067Y567854000D01*
X-540015516Y567875611D01*
X-539984291Y567950995D01*
X-539923991Y568041240D01*
X-539923990Y568041242D01*
X-539847242Y568117990D01*
X-539756996Y568178290D01*
X-539756995Y568178291D01*
X-539681611Y568209516D01*
X-539660000Y568221067D01*
X-539641059Y568236612D01*
X-539625513Y568255554D01*
X-539613962Y568277165D01*
X-539606849Y568300614D01*
X-539604447Y568325000D01*
X-539606849Y568349386D01*
X-539613962Y568372835D01*
X-539625513Y568394446D01*
X-539641058Y568413387D01*
X-539660000Y568428933D01*
X-539681611Y568440484D01*
X-539756995Y568471709D01*
X-539801812Y568501655D01*
X-539847242Y568532010D01*
X-539923990Y568608758D01*
X-539984290Y568699004D01*
X-539984291Y568699005D01*
X-540015516Y568774389D01*
X-540027067Y568796000D01*
X-540042612Y568814941D01*
X-540061554Y568830487D01*
X-540083165Y568842038D01*
X-540106614Y568849151D01*
X-540131000Y568851553D01*
X-540155386Y568849151D01*
X-540178835Y568842038D01*
X-540200446Y568830487D01*
X-540219387Y568814942D01*
X-540234933Y568796000D01*
X-540246484Y568774389D01*
X-540277709Y568699005D01*
X-540277710Y568699004D01*
X-540338010Y568608758D01*
X-540414758Y568532010D01*
X-540460188Y568501655D01*
X-540505005Y568471709D01*
X-540580389Y568440484D01*
X-540602000Y568428933D01*
X-540620941Y568413388D01*
X-540636487Y568394446D01*
X-540648038Y568372835D01*
X-540655151Y568349386D01*
X-540657553Y568325000D01*
X-540874447Y568325000D01*
X-540876849Y568349386D01*
X-540883962Y568372835D01*
X-540895513Y568394446D01*
X-540911058Y568413387D01*
X-540930000Y568428933D01*
X-540951611Y568440484D01*
X-541026995Y568471709D01*
X-541071812Y568501655D01*
X-541117242Y568532010D01*
X-541193990Y568608758D01*
X-541254290Y568699004D01*
X-541254291Y568699005D01*
X-541295826Y568799279D01*
X-541317000Y568905730D01*
X-541317000Y569014270D01*
X-541295826Y569120721D01*
X-541254291Y569220995D01*
X-541193991Y569311240D01*
X-541193990Y569311242D01*
X-541117242Y569387990D01*
X-541026996Y569448290D01*
X-541026995Y569448291D01*
X-540926721Y569489826D01*
X-540820270Y569511000D01*
X-540711730Y569511000D01*
X-540605279Y569489826D01*
G37*
G36*
X-532778488Y562744073D02*
G01*
X-532629188Y562714376D01*
X-532465216Y562646456D01*
X-532317646Y562547853D01*
X-532192147Y562422354D01*
X-532093544Y562274784D01*
X-532025624Y562110812D01*
X-531991000Y561936741D01*
X-531991000Y561759259D01*
X-532025624Y561585188D01*
X-532093544Y561421216D01*
X-532192147Y561273646D01*
X-532317646Y561148147D01*
X-532465216Y561049544D01*
X-532629188Y560981624D01*
X-532778488Y560951927D01*
X-532803258Y560947000D01*
X-532980742Y560947000D01*
X-533005512Y560951927D01*
X-533154812Y560981624D01*
X-533318784Y561049544D01*
X-533466354Y561148147D01*
X-533591853Y561273646D01*
X-533690456Y561421216D01*
X-533758376Y561585188D01*
X-533793000Y561759259D01*
X-533793000Y561936741D01*
X-533758376Y562110812D01*
X-533690456Y562274784D01*
X-533591853Y562422354D01*
X-533466354Y562547853D01*
X-533318784Y562646456D01*
X-533154812Y562714376D01*
X-533005512Y562744073D01*
X-532980742Y562749000D01*
X-532803258Y562749000D01*
X-532778488Y562744073D01*
G37*
G36*
X-535318488Y562744073D02*
G01*
X-535169188Y562714376D01*
X-535005216Y562646456D01*
X-534857646Y562547853D01*
X-534732147Y562422354D01*
X-534633544Y562274784D01*
X-534565624Y562110812D01*
X-534531000Y561936741D01*
X-534531000Y561759259D01*
X-534565624Y561585188D01*
X-534633544Y561421216D01*
X-534732147Y561273646D01*
X-534857646Y561148147D01*
X-535005216Y561049544D01*
X-535169188Y560981624D01*
X-535318488Y560951927D01*
X-535343258Y560947000D01*
X-535520742Y560947000D01*
X-535545512Y560951927D01*
X-535694812Y560981624D01*
X-535858784Y561049544D01*
X-536006354Y561148147D01*
X-536131853Y561273646D01*
X-536230456Y561421216D01*
X-536298376Y561585188D01*
X-536333000Y561759259D01*
X-536333000Y561936741D01*
X-536298376Y562110812D01*
X-536230456Y562274784D01*
X-536131853Y562422354D01*
X-536006354Y562547853D01*
X-535858784Y562646456D01*
X-535694812Y562714376D01*
X-535545512Y562744073D01*
X-535520742Y562749000D01*
X-535343258Y562749000D01*
X-535318488Y562744073D01*
G37*
G36*
X-553581000Y560947000D02*
G01*
X-555383000Y560947000D01*
X-555383000Y562749000D01*
X-553581000Y562749000D01*
X-553581000Y560947000D01*
G37*
G36*
X-532778488Y565284073D02*
G01*
X-532629188Y565254376D01*
X-532465216Y565186456D01*
X-532317646Y565087853D01*
X-532192147Y564962354D01*
X-532093544Y564814784D01*
X-532025624Y564650812D01*
X-531991000Y564476741D01*
X-531991000Y564299259D01*
X-532025624Y564125188D01*
X-532093544Y563961216D01*
X-532192147Y563813646D01*
X-532317646Y563688147D01*
X-532465216Y563589544D01*
X-532629188Y563521624D01*
X-532778488Y563491927D01*
X-532803258Y563487000D01*
X-532980742Y563487000D01*
X-533005512Y563491927D01*
X-533154812Y563521624D01*
X-533318784Y563589544D01*
X-533466354Y563688147D01*
X-533591853Y563813646D01*
X-533690456Y563961216D01*
X-533758376Y564125188D01*
X-533793000Y564299259D01*
X-533793000Y564476741D01*
X-533758376Y564650812D01*
X-533690456Y564814784D01*
X-533591853Y564962354D01*
X-533466354Y565087853D01*
X-533318784Y565186456D01*
X-533154812Y565254376D01*
X-533005512Y565284073D01*
X-532980742Y565289000D01*
X-532803258Y565289000D01*
X-532778488Y565284073D01*
G37*
G36*
X-535318488Y565284073D02*
G01*
X-535169188Y565254376D01*
X-535005216Y565186456D01*
X-534857646Y565087853D01*
X-534732147Y564962354D01*
X-534633544Y564814784D01*
X-534565624Y564650812D01*
X-534531000Y564476741D01*
X-534531000Y564299259D01*
X-534565624Y564125188D01*
X-534633544Y563961216D01*
X-534732147Y563813646D01*
X-534857646Y563688147D01*
X-535005216Y563589544D01*
X-535169188Y563521624D01*
X-535318488Y563491927D01*
X-535343258Y563487000D01*
X-535520742Y563487000D01*
X-535545512Y563491927D01*
X-535694812Y563521624D01*
X-535858784Y563589544D01*
X-536006354Y563688147D01*
X-536131853Y563813646D01*
X-536230456Y563961216D01*
X-536298376Y564125188D01*
X-536333000Y564299259D01*
X-536333000Y564476741D01*
X-536298376Y564650812D01*
X-536230456Y564814784D01*
X-536131853Y564962354D01*
X-536006354Y565087853D01*
X-535858784Y565186456D01*
X-535694812Y565254376D01*
X-535545512Y565284073D01*
X-535520742Y565289000D01*
X-535343258Y565289000D01*
X-535318488Y565284073D01*
G37*
G36*
X-553581000Y565265000D02*
G01*
X-555383000Y565265000D01*
X-555383000Y567067000D01*
X-553581000Y567067000D01*
X-553581000Y565265000D01*
G37*
G36*
X-532778488Y567824073D02*
G01*
X-532629188Y567794376D01*
X-532465216Y567726456D01*
X-532317646Y567627853D01*
X-532192147Y567502354D01*
X-532093544Y567354784D01*
X-532025624Y567190812D01*
X-531991000Y567016741D01*
X-531991000Y566839259D01*
X-532025624Y566665188D01*
X-532093544Y566501216D01*
X-532192147Y566353646D01*
X-532317646Y566228147D01*
X-532465216Y566129544D01*
X-532629188Y566061624D01*
X-532778488Y566031927D01*
X-532803258Y566027000D01*
X-532980742Y566027000D01*
X-533005512Y566031927D01*
X-533154812Y566061624D01*
X-533318784Y566129544D01*
X-533466354Y566228147D01*
X-533591853Y566353646D01*
X-533690456Y566501216D01*
X-533758376Y566665188D01*
X-533793000Y566839259D01*
X-533793000Y567016741D01*
X-533758376Y567190812D01*
X-533690456Y567354784D01*
X-533591853Y567502354D01*
X-533466354Y567627853D01*
X-533318784Y567726456D01*
X-533154812Y567794376D01*
X-533005512Y567824073D01*
X-532980742Y567829000D01*
X-532803258Y567829000D01*
X-532778488Y567824073D01*
G37*
G36*
X-535318488Y567824073D02*
G01*
X-535169188Y567794376D01*
X-535005216Y567726456D01*
X-534857646Y567627853D01*
X-534732147Y567502354D01*
X-534633544Y567354784D01*
X-534565624Y567190812D01*
X-534531000Y567016741D01*
X-534531000Y566839259D01*
X-534565624Y566665188D01*
X-534633544Y566501216D01*
X-534732147Y566353646D01*
X-534857646Y566228147D01*
X-535005216Y566129544D01*
X-535169188Y566061624D01*
X-535318488Y566031927D01*
X-535343258Y566027000D01*
X-535520742Y566027000D01*
X-535545512Y566031927D01*
X-535694812Y566061624D01*
X-535858784Y566129544D01*
X-536006354Y566228147D01*
X-536131853Y566353646D01*
X-536230456Y566501216D01*
X-536298376Y566665188D01*
X-536333000Y566839259D01*
X-536333000Y567016741D01*
X-536298376Y567190812D01*
X-536230456Y567354784D01*
X-536131853Y567502354D01*
X-536006354Y567627853D01*
X-535858784Y567726456D01*
X-535694812Y567794376D01*
X-535545512Y567824073D01*
X-535520742Y567829000D01*
X-535343258Y567829000D01*
X-535318488Y567824073D01*
G37*
G36*
X-535318488Y570364073D02*
G01*
X-535169188Y570334376D01*
X-535005216Y570266456D01*
X-534857646Y570167853D01*
X-534732147Y570042354D01*
X-534633544Y569894784D01*
X-534565624Y569730812D01*
X-534531000Y569556741D01*
X-534531000Y569379259D01*
X-534565624Y569205188D01*
X-534633544Y569041216D01*
X-534732147Y568893646D01*
X-534857646Y568768147D01*
X-535005216Y568669544D01*
X-535169188Y568601624D01*
X-535318488Y568571927D01*
X-535343258Y568567000D01*
X-535520742Y568567000D01*
X-535545512Y568571927D01*
X-535694812Y568601624D01*
X-535858784Y568669544D01*
X-536006354Y568768147D01*
X-536131853Y568893646D01*
X-536230456Y569041216D01*
X-536298376Y569205188D01*
X-536333000Y569379259D01*
X-536333000Y569556741D01*
X-536298376Y569730812D01*
X-536230456Y569894784D01*
X-536131853Y570042354D01*
X-536006354Y570167853D01*
X-535858784Y570266456D01*
X-535694812Y570334376D01*
X-535545512Y570364073D01*
X-535520742Y570369000D01*
X-535343258Y570369000D01*
X-535318488Y570364073D01*
G37*
G36*
X-532778488Y570364073D02*
G01*
X-532629188Y570334376D01*
X-532465216Y570266456D01*
X-532317646Y570167853D01*
X-532192147Y570042354D01*
X-532093544Y569894784D01*
X-532025624Y569730812D01*
X-531991000Y569556741D01*
X-531991000Y569379259D01*
X-532025624Y569205188D01*
X-532093544Y569041216D01*
X-532192147Y568893646D01*
X-532317646Y568768147D01*
X-532465216Y568669544D01*
X-532629188Y568601624D01*
X-532778488Y568571927D01*
X-532803258Y568567000D01*
X-532980742Y568567000D01*
X-533005512Y568571927D01*
X-533154812Y568601624D01*
X-533318784Y568669544D01*
X-533466354Y568768147D01*
X-533591853Y568893646D01*
X-533690456Y569041216D01*
X-533758376Y569205188D01*
X-533793000Y569379259D01*
X-533793000Y569556741D01*
X-533758376Y569730812D01*
X-533690456Y569894784D01*
X-533591853Y570042354D01*
X-533466354Y570167853D01*
X-533318784Y570266456D01*
X-533154812Y570334376D01*
X-533005512Y570364073D01*
X-532980742Y570369000D01*
X-532803258Y570369000D01*
X-532778488Y570364073D01*
G37*
G36*
X-532778488Y572904073D02*
G01*
X-532629188Y572874376D01*
X-532465216Y572806456D01*
X-532317646Y572707853D01*
X-532192147Y572582354D01*
X-532093544Y572434784D01*
X-532025624Y572270812D01*
X-531991000Y572096741D01*
X-531991000Y571919259D01*
X-532025624Y571745188D01*
X-532093544Y571581216D01*
X-532192147Y571433646D01*
X-532317646Y571308147D01*
X-532465216Y571209544D01*
X-532629188Y571141624D01*
X-532778488Y571111927D01*
X-532803258Y571107000D01*
X-532980742Y571107000D01*
X-533005512Y571111927D01*
X-533154812Y571141624D01*
X-533318784Y571209544D01*
X-533466354Y571308147D01*
X-533591853Y571433646D01*
X-533690456Y571581216D01*
X-533758376Y571745188D01*
X-533793000Y571919259D01*
X-533793000Y572096741D01*
X-533758376Y572270812D01*
X-533690456Y572434784D01*
X-533591853Y572582354D01*
X-533466354Y572707853D01*
X-533318784Y572806456D01*
X-533154812Y572874376D01*
X-533005512Y572904073D01*
X-532980742Y572909000D01*
X-532803258Y572909000D01*
X-532778488Y572904073D01*
G37*
G36*
X-535318488Y572904073D02*
G01*
X-535169188Y572874376D01*
X-535005216Y572806456D01*
X-534857646Y572707853D01*
X-534732147Y572582354D01*
X-534633544Y572434784D01*
X-534565624Y572270812D01*
X-534531000Y572096741D01*
X-534531000Y571919259D01*
X-534565624Y571745188D01*
X-534633544Y571581216D01*
X-534732147Y571433646D01*
X-534857646Y571308147D01*
X-535005216Y571209544D01*
X-535169188Y571141624D01*
X-535318488Y571111927D01*
X-535343258Y571107000D01*
X-535520742Y571107000D01*
X-535545512Y571111927D01*
X-535694812Y571141624D01*
X-535858784Y571209544D01*
X-536006354Y571308147D01*
X-536131853Y571433646D01*
X-536230456Y571581216D01*
X-536298376Y571745188D01*
X-536333000Y571919259D01*
X-536333000Y572096741D01*
X-536298376Y572270812D01*
X-536230456Y572434784D01*
X-536131853Y572582354D01*
X-536006354Y572707853D01*
X-535858784Y572806456D01*
X-535694812Y572874376D01*
X-535545512Y572904073D01*
X-535520742Y572909000D01*
X-535343258Y572909000D01*
X-535318488Y572904073D01*
G37*
G36*
X-554114488Y572904073D02*
G01*
X-553965188Y572874376D01*
X-553801216Y572806456D01*
X-553653646Y572707853D01*
X-553528147Y572582354D01*
X-553429544Y572434784D01*
X-553361624Y572270812D01*
X-553327000Y572096741D01*
X-553327000Y571919259D01*
X-553361624Y571745188D01*
X-553429544Y571581216D01*
X-553528147Y571433646D01*
X-553653646Y571308147D01*
X-553801216Y571209544D01*
X-553965188Y571141624D01*
X-554114488Y571111927D01*
X-554139258Y571107000D01*
X-554316742Y571107000D01*
X-554341512Y571111927D01*
X-554490812Y571141624D01*
X-554654784Y571209544D01*
X-554802354Y571308147D01*
X-554927853Y571433646D01*
X-555026456Y571581216D01*
X-555094376Y571745188D01*
X-555129000Y571919259D01*
X-555129000Y572096741D01*
X-555094376Y572270812D01*
X-555026456Y572434784D01*
X-554927853Y572582354D01*
X-554802354Y572707853D01*
X-554654784Y572806456D01*
X-554490812Y572874376D01*
X-554341512Y572904073D01*
X-554316742Y572909000D01*
X-554139258Y572909000D01*
X-554114488Y572904073D01*
G37*
G36*
X-542938488Y574936073D02*
G01*
X-542789188Y574906376D01*
X-542625216Y574838456D01*
X-542477646Y574739853D01*
X-542352147Y574614354D01*
X-542253544Y574466784D01*
X-542185624Y574302812D01*
X-542151000Y574128741D01*
X-542151000Y573951259D01*
X-542185624Y573777188D01*
X-542253544Y573613216D01*
X-542352147Y573465646D01*
X-542477646Y573340147D01*
X-542625216Y573241544D01*
X-542789188Y573173624D01*
X-542938488Y573143927D01*
X-542963258Y573139000D01*
X-543140742Y573139000D01*
X-543165512Y573143927D01*
X-543314812Y573173624D01*
X-543478784Y573241544D01*
X-543626354Y573340147D01*
X-543751853Y573465646D01*
X-543850456Y573613216D01*
X-543918376Y573777188D01*
X-543953000Y573951259D01*
X-543953000Y574128741D01*
X-543918376Y574302812D01*
X-543850456Y574466784D01*
X-543751853Y574614354D01*
X-543626354Y574739853D01*
X-543478784Y574838456D01*
X-543314812Y574906376D01*
X-543165512Y574936073D01*
X-543140742Y574941000D01*
X-542963258Y574941000D01*
X-542938488Y574936073D01*
G37*
G36*
X-540605279Y574569826D02*
G01*
X-540505005Y574528291D01*
X-540505004Y574528290D01*
X-540414758Y574467990D01*
X-540338010Y574391242D01*
X-540338009Y574391240D01*
X-540277709Y574300995D01*
X-540236174Y574200721D01*
X-540215000Y574094270D01*
X-540215000Y573985730D01*
X-540236174Y573879279D01*
X-540277709Y573779005D01*
X-540278923Y573777188D01*
X-540338010Y573688758D01*
X-540414758Y573612010D01*
X-540460188Y573581655D01*
X-540505005Y573551709D01*
X-540605279Y573510174D01*
X-540711730Y573489000D01*
X-540820270Y573489000D01*
X-540926721Y573510174D01*
X-541026995Y573551709D01*
X-541071812Y573581655D01*
X-541117242Y573612010D01*
X-541193990Y573688758D01*
X-541253077Y573777188D01*
X-541254291Y573779005D01*
X-541295826Y573879279D01*
X-541317000Y573985730D01*
X-541317000Y574094270D01*
X-541295826Y574200721D01*
X-541254291Y574300995D01*
X-541193991Y574391240D01*
X-541193990Y574391242D01*
X-541117242Y574467990D01*
X-541026996Y574528290D01*
X-541026995Y574528291D01*
X-540926721Y574569826D01*
X-540820270Y574591000D01*
X-540711730Y574591000D01*
X-540605279Y574569826D01*
G37*
G36*
X-535318488Y575444073D02*
G01*
X-535169188Y575414376D01*
X-535005216Y575346456D01*
X-534857646Y575247853D01*
X-534732147Y575122354D01*
X-534633544Y574974784D01*
X-534565624Y574810812D01*
X-534531000Y574636741D01*
X-534531000Y574459259D01*
X-534565624Y574285188D01*
X-534633544Y574121216D01*
X-534732147Y573973646D01*
X-534857646Y573848147D01*
X-535005216Y573749544D01*
X-535169188Y573681624D01*
X-535318488Y573651927D01*
X-535343258Y573647000D01*
X-535520742Y573647000D01*
X-535545512Y573651927D01*
X-535694812Y573681624D01*
X-535858784Y573749544D01*
X-536006354Y573848147D01*
X-536131853Y573973646D01*
X-536230456Y574121216D01*
X-536298376Y574285188D01*
X-536333000Y574459259D01*
X-536333000Y574636741D01*
X-536298376Y574810812D01*
X-536230456Y574974784D01*
X-536131853Y575122354D01*
X-536006354Y575247853D01*
X-535858784Y575346456D01*
X-535694812Y575414376D01*
X-535545512Y575444073D01*
X-535520742Y575449000D01*
X-535343258Y575449000D01*
X-535318488Y575444073D01*
G37*
G36*
X-554114488Y575444073D02*
G01*
X-553965188Y575414376D01*
X-553801216Y575346456D01*
X-553653646Y575247853D01*
X-553528147Y575122354D01*
X-553429544Y574974784D01*
X-553361624Y574810812D01*
X-553327000Y574636741D01*
X-553327000Y574459259D01*
X-553361624Y574285188D01*
X-553429544Y574121216D01*
X-553528147Y573973646D01*
X-553653646Y573848147D01*
X-553801216Y573749544D01*
X-553965188Y573681624D01*
X-554114488Y573651927D01*
X-554139258Y573647000D01*
X-554316742Y573647000D01*
X-554341512Y573651927D01*
X-554490812Y573681624D01*
X-554654784Y573749544D01*
X-554802354Y573848147D01*
X-554927853Y573973646D01*
X-555026456Y574121216D01*
X-555094376Y574285188D01*
X-555129000Y574459259D01*
X-555129000Y574636741D01*
X-555094376Y574810812D01*
X-555026456Y574974784D01*
X-554927853Y575122354D01*
X-554802354Y575247853D01*
X-554654784Y575346456D01*
X-554490812Y575414376D01*
X-554341512Y575444073D01*
X-554316742Y575449000D01*
X-554139258Y575449000D01*
X-554114488Y575444073D01*
G37*
G36*
X-532778488Y575444073D02*
G01*
X-532629188Y575414376D01*
X-532465216Y575346456D01*
X-532317646Y575247853D01*
X-532192147Y575122354D01*
X-532093544Y574974784D01*
X-532025624Y574810812D01*
X-531991000Y574636741D01*
X-531991000Y574459259D01*
X-532025624Y574285188D01*
X-532093544Y574121216D01*
X-532192147Y573973646D01*
X-532317646Y573848147D01*
X-532465216Y573749544D01*
X-532629188Y573681624D01*
X-532778488Y573651927D01*
X-532803258Y573647000D01*
X-532980742Y573647000D01*
X-533005512Y573651927D01*
X-533154812Y573681624D01*
X-533318784Y573749544D01*
X-533466354Y573848147D01*
X-533591853Y573973646D01*
X-533690456Y574121216D01*
X-533758376Y574285188D01*
X-533793000Y574459259D01*
X-533793000Y574636741D01*
X-533758376Y574810812D01*
X-533690456Y574974784D01*
X-533591853Y575122354D01*
X-533466354Y575247853D01*
X-533318784Y575346456D01*
X-533154812Y575414376D01*
X-533005512Y575444073D01*
X-532980742Y575449000D01*
X-532803258Y575449000D01*
X-532778488Y575444073D01*
G37*
G36*
X-540605279Y579649826D02*
G01*
X-540505005Y579608291D01*
X-540505004Y579608290D01*
X-540414758Y579547990D01*
X-540338010Y579471242D01*
X-540338009Y579471240D01*
X-540277709Y579380995D01*
X-540246484Y579305611D01*
X-540234933Y579284000D01*
X-540219388Y579265059D01*
X-540200446Y579249513D01*
X-540178835Y579237962D01*
X-540155386Y579230849D01*
X-540131000Y579228447D01*
X-540106614Y579230849D01*
X-540083165Y579237962D01*
X-540061554Y579249513D01*
X-540042613Y579265058D01*
X-540027067Y579284000D01*
X-540015516Y579305611D01*
X-539984291Y579380995D01*
X-539923991Y579471240D01*
X-539923990Y579471242D01*
X-539847242Y579547990D01*
X-539756996Y579608290D01*
X-539756995Y579608291D01*
X-539656721Y579649826D01*
X-539550270Y579671000D01*
X-539441730Y579671000D01*
X-539335279Y579649826D01*
X-539235005Y579608291D01*
X-539235004Y579608290D01*
X-539144758Y579547990D01*
X-539068010Y579471242D01*
X-539068009Y579471240D01*
X-539007709Y579380995D01*
X-538966174Y579280721D01*
X-538945000Y579174270D01*
X-538945000Y579065730D01*
X-538966174Y578959279D01*
X-539007709Y578859005D01*
X-539007710Y578859004D01*
X-539068010Y578768758D01*
X-539144758Y578692010D01*
X-539190188Y578661655D01*
X-539235005Y578631709D01*
X-539310389Y578600484D01*
X-539332000Y578588933D01*
X-539350941Y578573388D01*
X-539366487Y578554446D01*
X-539378038Y578532835D01*
X-539385151Y578509386D01*
X-539387553Y578485000D01*
X-539385151Y578460614D01*
X-539378038Y578437165D01*
X-539366487Y578415554D01*
X-539350942Y578396613D01*
X-539332000Y578381067D01*
X-539310389Y578369516D01*
X-539235005Y578338291D01*
X-539235004Y578338290D01*
X-539144758Y578277990D01*
X-539068010Y578201242D01*
X-539068009Y578201240D01*
X-539007709Y578110995D01*
X-538966174Y578010721D01*
X-538945000Y577904270D01*
X-538945000Y577795730D01*
X-538966174Y577689279D01*
X-539007709Y577589005D01*
X-539007710Y577589004D01*
X-539068010Y577498758D01*
X-539144758Y577422010D01*
X-539190188Y577391655D01*
X-539235005Y577361709D01*
X-539310389Y577330484D01*
X-539332000Y577318933D01*
X-539350941Y577303388D01*
X-539366487Y577284446D01*
X-539378038Y577262835D01*
X-539385151Y577239386D01*
X-539387553Y577215000D01*
X-539385151Y577190614D01*
X-539378038Y577167165D01*
X-539366487Y577145554D01*
X-539350942Y577126613D01*
X-539332000Y577111067D01*
X-539310389Y577099516D01*
X-539235005Y577068291D01*
X-539235004Y577068290D01*
X-539144758Y577007990D01*
X-539068010Y576931242D01*
X-539068009Y576931240D01*
X-539007709Y576840995D01*
X-538966174Y576740721D01*
X-538945000Y576634270D01*
X-538945000Y576525730D01*
X-538966174Y576419279D01*
X-539007709Y576319005D01*
X-539007710Y576319004D01*
X-539068010Y576228758D01*
X-539144758Y576152010D01*
X-539190188Y576121655D01*
X-539235005Y576091709D01*
X-539310389Y576060484D01*
X-539332000Y576048933D01*
X-539350941Y576033388D01*
X-539366487Y576014446D01*
X-539378038Y575992835D01*
X-539385151Y575969386D01*
X-539387553Y575945000D01*
X-539385151Y575920614D01*
X-539378038Y575897165D01*
X-539366487Y575875554D01*
X-539350942Y575856613D01*
X-539332000Y575841067D01*
X-539310389Y575829516D01*
X-539235005Y575798291D01*
X-539235004Y575798290D01*
X-539144758Y575737990D01*
X-539068010Y575661242D01*
X-539068009Y575661240D01*
X-539007709Y575570995D01*
X-538966174Y575470721D01*
X-538945000Y575364270D01*
X-538945000Y575255730D01*
X-538966174Y575149279D01*
X-539007709Y575049005D01*
X-539007710Y575049004D01*
X-539068010Y574958758D01*
X-539144758Y574882010D01*
X-539190188Y574851655D01*
X-539235005Y574821709D01*
X-539335279Y574780174D01*
X-539441730Y574759000D01*
X-539550270Y574759000D01*
X-539656721Y574780174D01*
X-539756995Y574821709D01*
X-539801812Y574851655D01*
X-539847242Y574882010D01*
X-539923990Y574958758D01*
X-539984290Y575049004D01*
X-539984291Y575049005D01*
X-540025826Y575149279D01*
X-540047000Y575255730D01*
X-540047000Y575364270D01*
X-540025826Y575470721D01*
X-539984291Y575570995D01*
X-539923991Y575661240D01*
X-539923990Y575661242D01*
X-539847242Y575737990D01*
X-539756996Y575798290D01*
X-539756995Y575798291D01*
X-539681611Y575829516D01*
X-539660000Y575841067D01*
X-539641059Y575856612D01*
X-539625513Y575875554D01*
X-539613962Y575897165D01*
X-539606849Y575920614D01*
X-539604447Y575945000D01*
X-539606849Y575969386D01*
X-539613962Y575992835D01*
X-539625513Y576014446D01*
X-539641058Y576033387D01*
X-539660000Y576048933D01*
X-539681611Y576060484D01*
X-539756995Y576091709D01*
X-539801812Y576121655D01*
X-539847242Y576152010D01*
X-539923990Y576228758D01*
X-539984290Y576319004D01*
X-539984291Y576319005D01*
X-540015516Y576394389D01*
X-540027067Y576416000D01*
X-540042612Y576434941D01*
X-540061554Y576450487D01*
X-540083165Y576462038D01*
X-540106614Y576469151D01*
X-540131000Y576471553D01*
X-540155386Y576469151D01*
X-540178835Y576462038D01*
X-540200446Y576450487D01*
X-540219387Y576434942D01*
X-540234933Y576416000D01*
X-540246484Y576394389D01*
X-540277709Y576319005D01*
X-540277710Y576319004D01*
X-540338010Y576228758D01*
X-540414758Y576152010D01*
X-540460188Y576121655D01*
X-540505005Y576091709D01*
X-540605279Y576050174D01*
X-540711730Y576029000D01*
X-540820270Y576029000D01*
X-540926721Y576050174D01*
X-541026995Y576091709D01*
X-541071812Y576121655D01*
X-541117242Y576152010D01*
X-541193990Y576228758D01*
X-541254290Y576319004D01*
X-541254291Y576319005D01*
X-541295826Y576419279D01*
X-541317000Y576525730D01*
X-541317000Y576634270D01*
X-541295826Y576740721D01*
X-541254291Y576840995D01*
X-541193991Y576931240D01*
X-541193990Y576931242D01*
X-541117242Y577007990D01*
X-541026996Y577068290D01*
X-541026995Y577068291D01*
X-540951611Y577099516D01*
X-540930000Y577111067D01*
X-540911059Y577126612D01*
X-540895513Y577145554D01*
X-540883962Y577167165D01*
X-540876849Y577190614D01*
X-540874447Y577215000D01*
X-540657553Y577215000D01*
X-540655151Y577190614D01*
X-540648038Y577167165D01*
X-540636487Y577145554D01*
X-540620942Y577126613D01*
X-540602000Y577111067D01*
X-540580389Y577099516D01*
X-540505005Y577068291D01*
X-540505004Y577068290D01*
X-540414758Y577007990D01*
X-540338010Y576931242D01*
X-540338009Y576931240D01*
X-540277709Y576840995D01*
X-540246484Y576765611D01*
X-540234933Y576744000D01*
X-540219388Y576725059D01*
X-540200446Y576709513D01*
X-540178835Y576697962D01*
X-540155386Y576690849D01*
X-540131000Y576688447D01*
X-540106614Y576690849D01*
X-540083165Y576697962D01*
X-540061554Y576709513D01*
X-540042613Y576725058D01*
X-540027067Y576744000D01*
X-540015516Y576765611D01*
X-539984291Y576840995D01*
X-539923991Y576931240D01*
X-539923990Y576931242D01*
X-539847242Y577007990D01*
X-539756996Y577068290D01*
X-539756995Y577068291D01*
X-539681611Y577099516D01*
X-539660000Y577111067D01*
X-539641059Y577126612D01*
X-539625513Y577145554D01*
X-539613962Y577167165D01*
X-539606849Y577190614D01*
X-539604447Y577215000D01*
X-539606849Y577239386D01*
X-539613962Y577262835D01*
X-539625513Y577284446D01*
X-539641058Y577303387D01*
X-539660000Y577318933D01*
X-539681611Y577330484D01*
X-539756995Y577361709D01*
X-539801812Y577391655D01*
X-539847242Y577422010D01*
X-539923990Y577498758D01*
X-539984290Y577589004D01*
X-539984291Y577589005D01*
X-540015516Y577664389D01*
X-540027067Y577686000D01*
X-540042612Y577704941D01*
X-540061554Y577720487D01*
X-540083165Y577732038D01*
X-540106614Y577739151D01*
X-540131000Y577741553D01*
X-540155386Y577739151D01*
X-540178835Y577732038D01*
X-540200446Y577720487D01*
X-540219387Y577704942D01*
X-540234933Y577686000D01*
X-540246484Y577664389D01*
X-540277709Y577589005D01*
X-540277710Y577589004D01*
X-540338010Y577498758D01*
X-540414758Y577422010D01*
X-540460188Y577391655D01*
X-540505005Y577361709D01*
X-540580389Y577330484D01*
X-540602000Y577318933D01*
X-540620941Y577303388D01*
X-540636487Y577284446D01*
X-540648038Y577262835D01*
X-540655151Y577239386D01*
X-540657553Y577215000D01*
X-540874447Y577215000D01*
X-540876849Y577239386D01*
X-540883962Y577262835D01*
X-540895513Y577284446D01*
X-540911058Y577303387D01*
X-540930000Y577318933D01*
X-540951611Y577330484D01*
X-541026995Y577361709D01*
X-541071812Y577391655D01*
X-541117242Y577422010D01*
X-541193990Y577498758D01*
X-541254290Y577589004D01*
X-541254291Y577589005D01*
X-541295826Y577689279D01*
X-541317000Y577795730D01*
X-541317000Y577904270D01*
X-541295826Y578010721D01*
X-541254291Y578110995D01*
X-541193991Y578201240D01*
X-541193990Y578201242D01*
X-541117242Y578277990D01*
X-541026996Y578338290D01*
X-541026995Y578338291D01*
X-540951611Y578369516D01*
X-540930000Y578381067D01*
X-540911059Y578396612D01*
X-540895513Y578415554D01*
X-540883962Y578437165D01*
X-540876849Y578460614D01*
X-540874447Y578485000D01*
X-540657553Y578485000D01*
X-540655151Y578460614D01*
X-540648038Y578437165D01*
X-540636487Y578415554D01*
X-540620942Y578396613D01*
X-540602000Y578381067D01*
X-540580389Y578369516D01*
X-540505005Y578338291D01*
X-540505004Y578338290D01*
X-540414758Y578277990D01*
X-540338010Y578201242D01*
X-540338009Y578201240D01*
X-540277709Y578110995D01*
X-540246484Y578035611D01*
X-540234933Y578014000D01*
X-540219388Y577995059D01*
X-540200446Y577979513D01*
X-540178835Y577967962D01*
X-540155386Y577960849D01*
X-540131000Y577958447D01*
X-540106614Y577960849D01*
X-540083165Y577967962D01*
X-540061554Y577979513D01*
X-540042613Y577995058D01*
X-540027067Y578014000D01*
X-540015516Y578035611D01*
X-539984291Y578110995D01*
X-539923991Y578201240D01*
X-539923990Y578201242D01*
X-539847242Y578277990D01*
X-539756996Y578338290D01*
X-539756995Y578338291D01*
X-539681611Y578369516D01*
X-539660000Y578381067D01*
X-539641059Y578396612D01*
X-539625513Y578415554D01*
X-539613962Y578437165D01*
X-539606849Y578460614D01*
X-539604447Y578485000D01*
X-539606849Y578509386D01*
X-539613962Y578532835D01*
X-539625513Y578554446D01*
X-539641058Y578573387D01*
X-539660000Y578588933D01*
X-539681611Y578600484D01*
X-539756995Y578631709D01*
X-539801812Y578661655D01*
X-539847242Y578692010D01*
X-539923990Y578768758D01*
X-539984290Y578859004D01*
X-539984291Y578859005D01*
X-540015516Y578934389D01*
X-540027067Y578956000D01*
X-540042612Y578974941D01*
X-540061554Y578990487D01*
X-540083165Y579002038D01*
X-540106614Y579009151D01*
X-540131000Y579011553D01*
X-540155386Y579009151D01*
X-540178835Y579002038D01*
X-540200446Y578990487D01*
X-540219387Y578974942D01*
X-540234933Y578956000D01*
X-540246484Y578934389D01*
X-540277709Y578859005D01*
X-540277710Y578859004D01*
X-540338010Y578768758D01*
X-540414758Y578692010D01*
X-540460188Y578661655D01*
X-540505005Y578631709D01*
X-540580389Y578600484D01*
X-540602000Y578588933D01*
X-540620941Y578573388D01*
X-540636487Y578554446D01*
X-540648038Y578532835D01*
X-540655151Y578509386D01*
X-540657553Y578485000D01*
X-540874447Y578485000D01*
X-540876849Y578509386D01*
X-540883962Y578532835D01*
X-540895513Y578554446D01*
X-540911058Y578573387D01*
X-540930000Y578588933D01*
X-540951611Y578600484D01*
X-541026995Y578631709D01*
X-541071812Y578661655D01*
X-541117242Y578692010D01*
X-541193990Y578768758D01*
X-541254290Y578859004D01*
X-541254291Y578859005D01*
X-541295826Y578959279D01*
X-541317000Y579065730D01*
X-541317000Y579174270D01*
X-541295826Y579280721D01*
X-541254291Y579380995D01*
X-541193991Y579471240D01*
X-541193990Y579471242D01*
X-541117242Y579547990D01*
X-541026996Y579608290D01*
X-541026995Y579608291D01*
X-540926721Y579649826D01*
X-540820270Y579671000D01*
X-540711730Y579671000D01*
X-540605279Y579649826D01*
G37*
G36*
X-542151000Y575679000D02*
G01*
X-543953000Y575679000D01*
X-543953000Y577481000D01*
X-542151000Y577481000D01*
X-542151000Y575679000D01*
G37*
G36*
X-535318488Y577984073D02*
G01*
X-535169188Y577954376D01*
X-535005216Y577886456D01*
X-534857646Y577787853D01*
X-534732147Y577662354D01*
X-534633544Y577514784D01*
X-534565624Y577350812D01*
X-534531000Y577176741D01*
X-534531000Y576999259D01*
X-534565624Y576825188D01*
X-534633544Y576661216D01*
X-534732147Y576513646D01*
X-534857646Y576388147D01*
X-535005216Y576289544D01*
X-535169188Y576221624D01*
X-535318488Y576191927D01*
X-535343258Y576187000D01*
X-535520742Y576187000D01*
X-535545512Y576191927D01*
X-535694812Y576221624D01*
X-535858784Y576289544D01*
X-536006354Y576388147D01*
X-536131853Y576513646D01*
X-536230456Y576661216D01*
X-536298376Y576825188D01*
X-536333000Y576999259D01*
X-536333000Y577176741D01*
X-536298376Y577350812D01*
X-536230456Y577514784D01*
X-536131853Y577662354D01*
X-536006354Y577787853D01*
X-535858784Y577886456D01*
X-535694812Y577954376D01*
X-535545512Y577984073D01*
X-535520742Y577989000D01*
X-535343258Y577989000D01*
X-535318488Y577984073D01*
G37*
G36*
X-532778488Y577984073D02*
G01*
X-532629188Y577954376D01*
X-532465216Y577886456D01*
X-532317646Y577787853D01*
X-532192147Y577662354D01*
X-532093544Y577514784D01*
X-532025624Y577350812D01*
X-531991000Y577176741D01*
X-531991000Y576999259D01*
X-532025624Y576825188D01*
X-532093544Y576661216D01*
X-532192147Y576513646D01*
X-532317646Y576388147D01*
X-532465216Y576289544D01*
X-532629188Y576221624D01*
X-532778488Y576191927D01*
X-532803258Y576187000D01*
X-532980742Y576187000D01*
X-533005512Y576191927D01*
X-533154812Y576221624D01*
X-533318784Y576289544D01*
X-533466354Y576388147D01*
X-533591853Y576513646D01*
X-533690456Y576661216D01*
X-533758376Y576825188D01*
X-533793000Y576999259D01*
X-533793000Y577176741D01*
X-533758376Y577350812D01*
X-533690456Y577514784D01*
X-533591853Y577662354D01*
X-533466354Y577787853D01*
X-533318784Y577886456D01*
X-533154812Y577954376D01*
X-533005512Y577984073D01*
X-532980742Y577989000D01*
X-532803258Y577989000D01*
X-532778488Y577984073D01*
G37*
G36*
X-553327000Y576187000D02*
G01*
X-555129000Y576187000D01*
X-555129000Y577989000D01*
X-553327000Y577989000D01*
X-553327000Y576187000D01*
G37*
G36*
X-532778488Y580524073D02*
G01*
X-532629188Y580494376D01*
X-532465216Y580426456D01*
X-532317646Y580327853D01*
X-532192147Y580202354D01*
X-532093544Y580054784D01*
X-532025624Y579890812D01*
X-531991000Y579716741D01*
X-531991000Y579539259D01*
X-532025624Y579365188D01*
X-532093544Y579201216D01*
X-532192147Y579053646D01*
X-532317646Y578928147D01*
X-532465216Y578829544D01*
X-532629188Y578761624D01*
X-532778488Y578731927D01*
X-532803258Y578727000D01*
X-532980742Y578727000D01*
X-533005512Y578731927D01*
X-533154812Y578761624D01*
X-533318784Y578829544D01*
X-533466354Y578928147D01*
X-533591853Y579053646D01*
X-533690456Y579201216D01*
X-533758376Y579365188D01*
X-533793000Y579539259D01*
X-533793000Y579716741D01*
X-533758376Y579890812D01*
X-533690456Y580054784D01*
X-533591853Y580202354D01*
X-533466354Y580327853D01*
X-533318784Y580426456D01*
X-533154812Y580494376D01*
X-533005512Y580524073D01*
X-532980742Y580529000D01*
X-532803258Y580529000D01*
X-532778488Y580524073D01*
G37*
G36*
X-535318488Y580524073D02*
G01*
X-535169188Y580494376D01*
X-535005216Y580426456D01*
X-534857646Y580327853D01*
X-534732147Y580202354D01*
X-534633544Y580054784D01*
X-534565624Y579890812D01*
X-534531000Y579716741D01*
X-534531000Y579539259D01*
X-534565624Y579365188D01*
X-534633544Y579201216D01*
X-534732147Y579053646D01*
X-534857646Y578928147D01*
X-535005216Y578829544D01*
X-535169188Y578761624D01*
X-535318488Y578731927D01*
X-535343258Y578727000D01*
X-535520742Y578727000D01*
X-535545512Y578731927D01*
X-535694812Y578761624D01*
X-535858784Y578829544D01*
X-536006354Y578928147D01*
X-536131853Y579053646D01*
X-536230456Y579201216D01*
X-536298376Y579365188D01*
X-536333000Y579539259D01*
X-536333000Y579716741D01*
X-536298376Y579890812D01*
X-536230456Y580054784D01*
X-536131853Y580202354D01*
X-536006354Y580327853D01*
X-535858784Y580426456D01*
X-535694812Y580494376D01*
X-535545512Y580524073D01*
X-535520742Y580529000D01*
X-535343258Y580529000D01*
X-535318488Y580524073D01*
G37*
G36*
X-553327000Y578727000D02*
G01*
X-555129000Y578727000D01*
X-555129000Y580529000D01*
X-553327000Y580529000D01*
X-553327000Y578727000D01*
G37*
G36*
X-532778488Y583064073D02*
G01*
X-532629188Y583034376D01*
X-532465216Y582966456D01*
X-532317646Y582867853D01*
X-532192147Y582742354D01*
X-532093544Y582594784D01*
X-532025624Y582430812D01*
X-531991000Y582256741D01*
X-531991000Y582079259D01*
X-532025624Y581905188D01*
X-532093544Y581741216D01*
X-532192147Y581593646D01*
X-532317646Y581468147D01*
X-532465216Y581369544D01*
X-532629188Y581301624D01*
X-532778488Y581271927D01*
X-532803258Y581267000D01*
X-532980742Y581267000D01*
X-533005512Y581271927D01*
X-533154812Y581301624D01*
X-533318784Y581369544D01*
X-533466354Y581468147D01*
X-533591853Y581593646D01*
X-533690456Y581741216D01*
X-533758376Y581905188D01*
X-533793000Y582079259D01*
X-533793000Y582256741D01*
X-533758376Y582430812D01*
X-533690456Y582594784D01*
X-533591853Y582742354D01*
X-533466354Y582867853D01*
X-533318784Y582966456D01*
X-533154812Y583034376D01*
X-533005512Y583064073D01*
X-532980742Y583069000D01*
X-532803258Y583069000D01*
X-532778488Y583064073D01*
G37*
G36*
X-535318488Y583064073D02*
G01*
X-535169188Y583034376D01*
X-535005216Y582966456D01*
X-534857646Y582867853D01*
X-534732147Y582742354D01*
X-534633544Y582594784D01*
X-534565624Y582430812D01*
X-534531000Y582256741D01*
X-534531000Y582079259D01*
X-534565624Y581905188D01*
X-534633544Y581741216D01*
X-534732147Y581593646D01*
X-534857646Y581468147D01*
X-535005216Y581369544D01*
X-535169188Y581301624D01*
X-535318488Y581271927D01*
X-535343258Y581267000D01*
X-535520742Y581267000D01*
X-535545512Y581271927D01*
X-535694812Y581301624D01*
X-535858784Y581369544D01*
X-536006354Y581468147D01*
X-536131853Y581593646D01*
X-536230456Y581741216D01*
X-536298376Y581905188D01*
X-536333000Y582079259D01*
X-536333000Y582256741D01*
X-536298376Y582430812D01*
X-536230456Y582594784D01*
X-536131853Y582742354D01*
X-536006354Y582867853D01*
X-535858784Y582966456D01*
X-535694812Y583034376D01*
X-535545512Y583064073D01*
X-535520742Y583069000D01*
X-535343258Y583069000D01*
X-535318488Y583064073D01*
G37*
G36*
X-554114488Y583064073D02*
G01*
X-553965188Y583034376D01*
X-553801216Y582966456D01*
X-553653646Y582867853D01*
X-553528147Y582742354D01*
X-553429544Y582594784D01*
X-553361624Y582430812D01*
X-553327000Y582256741D01*
X-553327000Y582079259D01*
X-553361624Y581905188D01*
X-553429544Y581741216D01*
X-553528147Y581593646D01*
X-553653646Y581468147D01*
X-553801216Y581369544D01*
X-553965188Y581301624D01*
X-554114488Y581271927D01*
X-554139258Y581267000D01*
X-554316742Y581267000D01*
X-554341512Y581271927D01*
X-554490812Y581301624D01*
X-554654784Y581369544D01*
X-554802354Y581468147D01*
X-554927853Y581593646D01*
X-555026456Y581741216D01*
X-555094376Y581905188D01*
X-555129000Y582079259D01*
X-555129000Y582256741D01*
X-555094376Y582430812D01*
X-555026456Y582594784D01*
X-554927853Y582742354D01*
X-554802354Y582867853D01*
X-554654784Y582966456D01*
X-554490812Y583034376D01*
X-554341512Y583064073D01*
X-554316742Y583069000D01*
X-554139258Y583069000D01*
X-554114488Y583064073D01*
G37*
G36*
X-541414488Y585604073D02*
G01*
X-541265188Y585574376D01*
X-541101216Y585506456D01*
X-540953646Y585407853D01*
X-540828147Y585282354D01*
X-540729544Y585134784D01*
X-540661624Y584970812D01*
X-540627000Y584796741D01*
X-540627000Y584619259D01*
X-540661624Y584445188D01*
X-540729544Y584281216D01*
X-540828147Y584133646D01*
X-540953646Y584008147D01*
X-541101216Y583909544D01*
X-541265188Y583841624D01*
X-541414488Y583811927D01*
X-541439258Y583807000D01*
X-541616742Y583807000D01*
X-541641512Y583811927D01*
X-541790812Y583841624D01*
X-541954784Y583909544D01*
X-542102354Y584008147D01*
X-542227853Y584133646D01*
X-542326456Y584281216D01*
X-542394376Y584445188D01*
X-542429000Y584619259D01*
X-542429000Y584796741D01*
X-542394376Y584970812D01*
X-542326456Y585134784D01*
X-542227853Y585282354D01*
X-542102354Y585407853D01*
X-541954784Y585506456D01*
X-541790812Y585574376D01*
X-541641512Y585604073D01*
X-541616742Y585609000D01*
X-541439258Y585609000D01*
X-541414488Y585604073D01*
G37*
G36*
X-543954488Y585604073D02*
G01*
X-543805188Y585574376D01*
X-543641216Y585506456D01*
X-543493646Y585407853D01*
X-543368147Y585282354D01*
X-543269544Y585134784D01*
X-543201624Y584970812D01*
X-543167000Y584796741D01*
X-543167000Y584619259D01*
X-543201624Y584445188D01*
X-543269544Y584281216D01*
X-543368147Y584133646D01*
X-543493646Y584008147D01*
X-543641216Y583909544D01*
X-543805188Y583841624D01*
X-543954488Y583811927D01*
X-543979258Y583807000D01*
X-544156742Y583807000D01*
X-544181512Y583811927D01*
X-544330812Y583841624D01*
X-544494784Y583909544D01*
X-544642354Y584008147D01*
X-544767853Y584133646D01*
X-544866456Y584281216D01*
X-544934376Y584445188D01*
X-544969000Y584619259D01*
X-544969000Y584796741D01*
X-544934376Y584970812D01*
X-544866456Y585134784D01*
X-544767853Y585282354D01*
X-544642354Y585407853D01*
X-544494784Y585506456D01*
X-544330812Y585574376D01*
X-544181512Y585604073D01*
X-544156742Y585609000D01*
X-543979258Y585609000D01*
X-543954488Y585604073D01*
G37*
G36*
X-546494488Y585604073D02*
G01*
X-546345188Y585574376D01*
X-546181216Y585506456D01*
X-546033646Y585407853D01*
X-545908147Y585282354D01*
X-545809544Y585134784D01*
X-545741624Y584970812D01*
X-545707000Y584796741D01*
X-545707000Y584619259D01*
X-545741624Y584445188D01*
X-545809544Y584281216D01*
X-545908147Y584133646D01*
X-546033646Y584008147D01*
X-546181216Y583909544D01*
X-546345188Y583841624D01*
X-546494488Y583811927D01*
X-546519258Y583807000D01*
X-546696742Y583807000D01*
X-546721512Y583811927D01*
X-546870812Y583841624D01*
X-547034784Y583909544D01*
X-547182354Y584008147D01*
X-547307853Y584133646D01*
X-547406456Y584281216D01*
X-547474376Y584445188D01*
X-547509000Y584619259D01*
X-547509000Y584796741D01*
X-547474376Y584970812D01*
X-547406456Y585134784D01*
X-547307853Y585282354D01*
X-547182354Y585407853D01*
X-547034784Y585506456D01*
X-546870812Y585574376D01*
X-546721512Y585604073D01*
X-546696742Y585609000D01*
X-546519258Y585609000D01*
X-546494488Y585604073D01*
G37*
G36*
X-549034488Y585604073D02*
G01*
X-548885188Y585574376D01*
X-548721216Y585506456D01*
X-548573646Y585407853D01*
X-548448147Y585282354D01*
X-548349544Y585134784D01*
X-548281624Y584970812D01*
X-548247000Y584796741D01*
X-548247000Y584619259D01*
X-548281624Y584445188D01*
X-548349544Y584281216D01*
X-548448147Y584133646D01*
X-548573646Y584008147D01*
X-548721216Y583909544D01*
X-548885188Y583841624D01*
X-549034488Y583811927D01*
X-549059258Y583807000D01*
X-549236742Y583807000D01*
X-549261512Y583811927D01*
X-549410812Y583841624D01*
X-549574784Y583909544D01*
X-549722354Y584008147D01*
X-549847853Y584133646D01*
X-549946456Y584281216D01*
X-550014376Y584445188D01*
X-550049000Y584619259D01*
X-550049000Y584796741D01*
X-550014376Y584970812D01*
X-549946456Y585134784D01*
X-549847853Y585282354D01*
X-549722354Y585407853D01*
X-549574784Y585506456D01*
X-549410812Y585574376D01*
X-549261512Y585604073D01*
X-549236742Y585609000D01*
X-549059258Y585609000D01*
X-549034488Y585604073D01*
G37*
G36*
X-534531000Y583807000D02*
G01*
X-536333000Y583807000D01*
X-536333000Y585609000D01*
X-534531000Y585609000D01*
X-534531000Y583807000D01*
G37*
G36*
X-532778488Y585604073D02*
G01*
X-532629188Y585574376D01*
X-532465216Y585506456D01*
X-532317646Y585407853D01*
X-532192147Y585282354D01*
X-532093544Y585134784D01*
X-532025624Y584970812D01*
X-531991000Y584796741D01*
X-531991000Y584619259D01*
X-532025624Y584445188D01*
X-532093544Y584281216D01*
X-532192147Y584133646D01*
X-532317646Y584008147D01*
X-532465216Y583909544D01*
X-532629188Y583841624D01*
X-532778488Y583811927D01*
X-532803258Y583807000D01*
X-532980742Y583807000D01*
X-533005512Y583811927D01*
X-533154812Y583841624D01*
X-533318784Y583909544D01*
X-533466354Y584008147D01*
X-533591853Y584133646D01*
X-533690456Y584281216D01*
X-533758376Y584445188D01*
X-533793000Y584619259D01*
X-533793000Y584796741D01*
X-533758376Y584970812D01*
X-533690456Y585134784D01*
X-533591853Y585282354D01*
X-533466354Y585407853D01*
X-533318784Y585506456D01*
X-533154812Y585574376D01*
X-533005512Y585604073D01*
X-532980742Y585609000D01*
X-532803258Y585609000D01*
X-532778488Y585604073D01*
G37*
G36*
X-538874488Y585604073D02*
G01*
X-538725188Y585574376D01*
X-538561216Y585506456D01*
X-538413646Y585407853D01*
X-538288147Y585282354D01*
X-538189544Y585134784D01*
X-538121624Y584970812D01*
X-538087000Y584796741D01*
X-538087000Y584619259D01*
X-538121624Y584445188D01*
X-538189544Y584281216D01*
X-538288147Y584133646D01*
X-538413646Y584008147D01*
X-538561216Y583909544D01*
X-538725188Y583841624D01*
X-538874488Y583811927D01*
X-538899258Y583807000D01*
X-539076742Y583807000D01*
X-539101512Y583811927D01*
X-539250812Y583841624D01*
X-539414784Y583909544D01*
X-539562354Y584008147D01*
X-539687853Y584133646D01*
X-539786456Y584281216D01*
X-539854376Y584445188D01*
X-539889000Y584619259D01*
X-539889000Y584796741D01*
X-539854376Y584970812D01*
X-539786456Y585134784D01*
X-539687853Y585282354D01*
X-539562354Y585407853D01*
X-539414784Y585506456D01*
X-539250812Y585574376D01*
X-539101512Y585604073D01*
X-539076742Y585609000D01*
X-538899258Y585609000D01*
X-538874488Y585604073D01*
G37*
G36*
X-550787000Y583807000D02*
G01*
X-552589000Y583807000D01*
X-552589000Y585609000D01*
X-550787000Y585609000D01*
X-550787000Y583807000D01*
G37*
G36*
X-554114488Y585604073D02*
G01*
X-553965188Y585574376D01*
X-553801216Y585506456D01*
X-553653646Y585407853D01*
X-553528147Y585282354D01*
X-553429544Y585134784D01*
X-553361624Y584970812D01*
X-553327000Y584796741D01*
X-553327000Y584619259D01*
X-553361624Y584445188D01*
X-553429544Y584281216D01*
X-553528147Y584133646D01*
X-553653646Y584008147D01*
X-553801216Y583909544D01*
X-553965188Y583841624D01*
X-554114488Y583811927D01*
X-554139258Y583807000D01*
X-554316742Y583807000D01*
X-554341512Y583811927D01*
X-554490812Y583841624D01*
X-554654784Y583909544D01*
X-554802354Y584008147D01*
X-554927853Y584133646D01*
X-555026456Y584281216D01*
X-555094376Y584445188D01*
X-555129000Y584619259D01*
X-555129000Y584796741D01*
X-555094376Y584970812D01*
X-555026456Y585134784D01*
X-554927853Y585282354D01*
X-554802354Y585407853D01*
X-554654784Y585506456D01*
X-554490812Y585574376D01*
X-554341512Y585604073D01*
X-554316742Y585609000D01*
X-554139258Y585609000D01*
X-554114488Y585604073D01*
G37*
M02*
