G04 #@! TF.GenerationSoftware,KiCad,Pcbnew,(5.1.5-0)*
G04 #@! TF.CreationDate,2019-12-08T13:08:37-08:00*
G04 #@! TF.ProjectId,cisco_hwic_dev_board,63697363-6f5f-4687-9769-635f6465765f,rev?*
G04 #@! TF.SameCoordinates,Original*
G04 #@! TF.FileFunction,Legend,Bot*
G04 #@! TF.FilePolarity,Positive*
%FSLAX46Y46*%
G04 Gerber Fmt 4.6, Leading zero omitted, Abs format (unit mm)*
G04 Created by KiCad (PCBNEW (5.1.5-0)) date 2019-12-08 13:08:37*
%MOMM*%
%LPD*%
G04 APERTURE LIST*
%ADD10C,0.120000*%
%ADD11C,0.150000*%
G04 APERTURE END LIST*
D10*
X-555558000Y557082000D02*
X-555558000Y555752000D01*
X-554228000Y557082000D02*
X-555558000Y557082000D01*
X-552958000Y557082000D02*
X-552958000Y554422000D01*
X-552958000Y554422000D02*
X-547818000Y554422000D01*
X-552958000Y557082000D02*
X-547818000Y557082000D01*
X-547818000Y557082000D02*
X-547818000Y554422000D01*
X-550612000Y552002000D02*
X-551942000Y552002000D01*
X-550612000Y550672000D02*
X-550612000Y552002000D01*
X-553212000Y552002000D02*
X-555812000Y552002000D01*
X-553212000Y549402000D02*
X-553212000Y552002000D01*
X-550612000Y549402000D02*
X-553212000Y549402000D01*
X-555812000Y552002000D02*
X-555812000Y539182000D01*
X-550612000Y549402000D02*
X-550612000Y539182000D01*
X-550612000Y539182000D02*
X-555812000Y539182000D01*
X-555812000Y537778000D02*
X-555812000Y536448000D01*
X-554482000Y537778000D02*
X-555812000Y537778000D01*
X-553212000Y537778000D02*
X-553212000Y535118000D01*
X-553212000Y535118000D02*
X-540452000Y535118000D01*
X-553212000Y537778000D02*
X-540452000Y537778000D01*
X-540452000Y537778000D02*
X-540452000Y535118000D01*
X-537210000Y586486000D02*
X-556006000Y586486000D01*
X-537210000Y569214000D02*
X-537210000Y586486000D01*
X-540766000Y569214000D02*
X-537210000Y569214000D01*
X-540766000Y560070000D02*
X-540766000Y569214000D01*
X-552450000Y560070000D02*
X-540766000Y560070000D01*
X-552450000Y569214000D02*
X-552450000Y560070000D01*
X-556006000Y569214000D02*
X-552450000Y569214000D01*
X-556006000Y586486000D02*
X-556006000Y569214000D01*
X-555812000Y563178000D02*
X-555812000Y561848000D01*
X-554482000Y563178000D02*
X-555812000Y563178000D01*
X-555812000Y560578000D02*
X-555812000Y557978000D01*
X-553212000Y560578000D02*
X-555812000Y560578000D01*
X-553212000Y563178000D02*
X-553212000Y560578000D01*
X-555812000Y557978000D02*
X-553152000Y557978000D01*
X-553212000Y563178000D02*
X-553152000Y563178000D01*
X-553152000Y563178000D02*
X-553152000Y557978000D01*
X-555812000Y564836000D02*
X-554482000Y564836000D01*
X-555812000Y566166000D02*
X-555812000Y564836000D01*
X-555812000Y567436000D02*
X-553152000Y567436000D01*
X-553152000Y567436000D02*
X-553152000Y567496000D01*
X-555812000Y567436000D02*
X-555812000Y567496000D01*
X-555812000Y567496000D02*
X-553152000Y567496000D01*
X-535432000Y586038000D02*
X-536542000Y586038000D01*
X-536542000Y586038000D02*
X-536542000Y584708000D01*
X-522802000Y586038000D02*
X-522802000Y535118000D01*
X-522802000Y535118000D02*
X-531432000Y535118000D01*
X-531432000Y586038000D02*
X-531432000Y535118000D01*
X-522802000Y586038000D02*
X-531432000Y586038000D01*
X-522802000Y537718000D02*
X-531432000Y537718000D01*
X-522802000Y540258000D02*
X-531432000Y540258000D01*
X-522802000Y542798000D02*
X-531432000Y542798000D01*
X-522802000Y545338000D02*
X-531432000Y545338000D01*
X-522802000Y547878000D02*
X-531432000Y547878000D01*
X-522802000Y550418000D02*
X-531432000Y550418000D01*
X-522802000Y552958000D02*
X-531432000Y552958000D01*
X-522802000Y555498000D02*
X-531432000Y555498000D01*
X-522802000Y558038000D02*
X-531432000Y558038000D01*
X-522802000Y560578000D02*
X-531432000Y560578000D01*
X-522802000Y563118000D02*
X-531432000Y563118000D01*
X-522802000Y565658000D02*
X-531432000Y565658000D01*
X-522802000Y568198000D02*
X-531432000Y568198000D01*
X-522802000Y570738000D02*
X-531432000Y570738000D01*
X-522802000Y573278000D02*
X-531432000Y573278000D01*
X-522802000Y575818000D02*
X-531432000Y575818000D01*
X-522802000Y578358000D02*
X-531432000Y578358000D01*
X-522802000Y580898000D02*
X-531432000Y580898000D01*
X-522802000Y583438000D02*
X-531432000Y583438000D01*
X-533942000Y536088000D02*
X-534382000Y536088000D01*
X-531432000Y536088000D02*
X-531842000Y536088000D01*
X-533942000Y536808000D02*
X-534382000Y536808000D01*
X-531432000Y536808000D02*
X-531842000Y536808000D01*
X-533942000Y538628000D02*
X-534382000Y538628000D01*
X-531432000Y538628000D02*
X-531842000Y538628000D01*
X-533942000Y539348000D02*
X-534382000Y539348000D01*
X-531432000Y539348000D02*
X-531842000Y539348000D01*
X-533942000Y541168000D02*
X-534382000Y541168000D01*
X-531432000Y541168000D02*
X-531842000Y541168000D01*
X-533942000Y541888000D02*
X-534382000Y541888000D01*
X-531432000Y541888000D02*
X-531842000Y541888000D01*
X-533942000Y543708000D02*
X-534382000Y543708000D01*
X-531432000Y543708000D02*
X-531842000Y543708000D01*
X-533942000Y544428000D02*
X-534382000Y544428000D01*
X-531432000Y544428000D02*
X-531842000Y544428000D01*
X-533942000Y546248000D02*
X-534382000Y546248000D01*
X-531432000Y546248000D02*
X-531842000Y546248000D01*
X-533942000Y546968000D02*
X-534382000Y546968000D01*
X-531432000Y546968000D02*
X-531842000Y546968000D01*
X-533942000Y548788000D02*
X-534382000Y548788000D01*
X-531432000Y548788000D02*
X-531842000Y548788000D01*
X-533942000Y549508000D02*
X-534382000Y549508000D01*
X-531432000Y549508000D02*
X-531842000Y549508000D01*
X-533942000Y551328000D02*
X-534382000Y551328000D01*
X-531432000Y551328000D02*
X-531842000Y551328000D01*
X-533942000Y552048000D02*
X-534382000Y552048000D01*
X-531432000Y552048000D02*
X-531842000Y552048000D01*
X-533942000Y553868000D02*
X-534382000Y553868000D01*
X-531432000Y553868000D02*
X-531842000Y553868000D01*
X-533942000Y554588000D02*
X-534382000Y554588000D01*
X-531432000Y554588000D02*
X-531842000Y554588000D01*
X-533942000Y556408000D02*
X-534382000Y556408000D01*
X-531432000Y556408000D02*
X-531842000Y556408000D01*
X-533942000Y557128000D02*
X-534382000Y557128000D01*
X-531432000Y557128000D02*
X-531842000Y557128000D01*
X-533942000Y558948000D02*
X-534382000Y558948000D01*
X-531432000Y558948000D02*
X-531842000Y558948000D01*
X-533942000Y559668000D02*
X-534382000Y559668000D01*
X-531432000Y559668000D02*
X-531842000Y559668000D01*
X-533942000Y561488000D02*
X-534382000Y561488000D01*
X-531432000Y561488000D02*
X-531842000Y561488000D01*
X-533942000Y562208000D02*
X-534382000Y562208000D01*
X-531432000Y562208000D02*
X-531842000Y562208000D01*
X-533942000Y564028000D02*
X-534382000Y564028000D01*
X-531432000Y564028000D02*
X-531842000Y564028000D01*
X-533942000Y564748000D02*
X-534382000Y564748000D01*
X-531432000Y564748000D02*
X-531842000Y564748000D01*
X-533942000Y566568000D02*
X-534382000Y566568000D01*
X-531432000Y566568000D02*
X-531842000Y566568000D01*
X-533942000Y567288000D02*
X-534382000Y567288000D01*
X-531432000Y567288000D02*
X-531842000Y567288000D01*
X-533942000Y569108000D02*
X-534382000Y569108000D01*
X-531432000Y569108000D02*
X-531842000Y569108000D01*
X-533942000Y569828000D02*
X-534382000Y569828000D01*
X-531432000Y569828000D02*
X-531842000Y569828000D01*
X-533942000Y571648000D02*
X-534382000Y571648000D01*
X-531432000Y571648000D02*
X-531842000Y571648000D01*
X-533942000Y572368000D02*
X-534382000Y572368000D01*
X-531432000Y572368000D02*
X-531842000Y572368000D01*
X-533942000Y574188000D02*
X-534382000Y574188000D01*
X-531432000Y574188000D02*
X-531842000Y574188000D01*
X-533942000Y574908000D02*
X-534382000Y574908000D01*
X-531432000Y574908000D02*
X-531842000Y574908000D01*
X-533942000Y576728000D02*
X-534382000Y576728000D01*
X-531432000Y576728000D02*
X-531842000Y576728000D01*
X-533942000Y577448000D02*
X-534382000Y577448000D01*
X-531432000Y577448000D02*
X-531842000Y577448000D01*
X-533942000Y579268000D02*
X-534382000Y579268000D01*
X-531432000Y579268000D02*
X-531842000Y579268000D01*
X-533942000Y579988000D02*
X-534382000Y579988000D01*
X-531432000Y579988000D02*
X-531842000Y579988000D01*
X-533942000Y581808000D02*
X-534382000Y581808000D01*
X-531432000Y581808000D02*
X-531842000Y581808000D01*
X-533942000Y582528000D02*
X-534382000Y582528000D01*
X-531432000Y582528000D02*
X-531842000Y582528000D01*
X-533942000Y584348000D02*
X-534322000Y584348000D01*
X-531432000Y584348000D02*
X-531842000Y584348000D01*
X-533942000Y585068000D02*
X-534322000Y585068000D01*
X-531432000Y585068000D02*
X-531842000Y585068000D01*
X-522802000Y583556100D02*
X-531432000Y583556100D01*
X-522802000Y583674195D02*
X-531432000Y583674195D01*
X-522802000Y583792290D02*
X-531432000Y583792290D01*
X-522802000Y583910385D02*
X-531432000Y583910385D01*
X-522802000Y584028480D02*
X-531432000Y584028480D01*
X-522802000Y584146575D02*
X-531432000Y584146575D01*
X-522802000Y584264670D02*
X-531432000Y584264670D01*
X-522802000Y584382765D02*
X-531432000Y584382765D01*
X-522802000Y584500860D02*
X-531432000Y584500860D01*
X-522802000Y584618955D02*
X-531432000Y584618955D01*
X-522802000Y584737050D02*
X-531432000Y584737050D01*
X-522802000Y584855145D02*
X-531432000Y584855145D01*
X-522802000Y584973240D02*
X-531432000Y584973240D01*
X-522802000Y585091335D02*
X-531432000Y585091335D01*
X-522802000Y585209430D02*
X-531432000Y585209430D01*
X-522802000Y585327525D02*
X-531432000Y585327525D01*
X-522802000Y585445620D02*
X-531432000Y585445620D01*
X-522802000Y585563715D02*
X-531432000Y585563715D01*
X-522802000Y585681810D02*
X-531432000Y585681810D01*
X-522802000Y585799905D02*
X-531432000Y585799905D01*
X-522802000Y585918000D02*
X-531432000Y585918000D01*
D11*
X-545520666Y556299619D02*
X-545520666Y555585333D01*
X-545473047Y555442476D01*
X-545377809Y555347238D01*
X-545234952Y555299619D01*
X-545139714Y555299619D01*
X-545996857Y555299619D02*
X-545996857Y556299619D01*
X-546377809Y556299619D01*
X-546473047Y556252000D01*
X-546520666Y556204380D01*
X-546568285Y556109142D01*
X-546568285Y555966285D01*
X-546520666Y555871047D01*
X-546473047Y555823428D01*
X-546377809Y555775809D01*
X-545996857Y555775809D01*
X-546949238Y556204380D02*
X-546996857Y556252000D01*
X-547092095Y556299619D01*
X-547330190Y556299619D01*
X-547425428Y556252000D01*
X-547473047Y556204380D01*
X-547520666Y556109142D01*
X-547520666Y556013904D01*
X-547473047Y555871047D01*
X-546901619Y555299619D01*
X-547520666Y555299619D01*
X-549322666Y551981619D02*
X-549322666Y551267333D01*
X-549275047Y551124476D01*
X-549179809Y551029238D01*
X-549036952Y550981619D01*
X-548941714Y550981619D01*
X-550227428Y551648285D02*
X-550227428Y550981619D01*
X-549989333Y552029238D02*
X-549751238Y551314952D01*
X-550370285Y551314952D01*
X-538908666Y536995619D02*
X-538908666Y536281333D01*
X-538861047Y536138476D01*
X-538765809Y536043238D01*
X-538622952Y535995619D01*
X-538527714Y535995619D01*
X-539813428Y536995619D02*
X-539622952Y536995619D01*
X-539527714Y536948000D01*
X-539480095Y536900380D01*
X-539384857Y536757523D01*
X-539337238Y536567047D01*
X-539337238Y536186095D01*
X-539384857Y536090857D01*
X-539432476Y536043238D01*
X-539527714Y535995619D01*
X-539718190Y535995619D01*
X-539813428Y536043238D01*
X-539861047Y536090857D01*
X-539908666Y536186095D01*
X-539908666Y536424190D01*
X-539861047Y536519428D01*
X-539813428Y536567047D01*
X-539718190Y536614666D01*
X-539527714Y536614666D01*
X-539432476Y536567047D01*
X-539384857Y536519428D01*
X-539337238Y536424190D01*
X-553212095Y585255619D02*
X-553212095Y584446095D01*
X-553259714Y584350857D01*
X-553307333Y584303238D01*
X-553402571Y584255619D01*
X-553593047Y584255619D01*
X-553688285Y584303238D01*
X-553735904Y584350857D01*
X-553783523Y584446095D01*
X-553783523Y585255619D01*
X-554212095Y585160380D02*
X-554259714Y585208000D01*
X-554354952Y585255619D01*
X-554593047Y585255619D01*
X-554688285Y585208000D01*
X-554735904Y585160380D01*
X-554783523Y585065142D01*
X-554783523Y584969904D01*
X-554735904Y584827047D01*
X-554164476Y584255619D01*
X-554783523Y584255619D01*
X-550854666Y559347619D02*
X-550854666Y558633333D01*
X-550807047Y558490476D01*
X-550711809Y558395238D01*
X-550568952Y558347619D01*
X-550473714Y558347619D01*
X-551330857Y558347619D02*
X-551330857Y559347619D01*
X-551711809Y559347619D01*
X-551807047Y559300000D01*
X-551854666Y559252380D01*
X-551902285Y559157142D01*
X-551902285Y559014285D01*
X-551854666Y558919047D01*
X-551807047Y558871428D01*
X-551711809Y558823809D01*
X-551330857Y558823809D01*
X-552854666Y558347619D02*
X-552283238Y558347619D01*
X-552568952Y558347619D02*
X-552568952Y559347619D01*
X-552473714Y559204761D01*
X-552378476Y559109523D01*
X-552283238Y559061904D01*
X-553132666Y564935619D02*
X-553132666Y564221333D01*
X-553085047Y564078476D01*
X-552989809Y563983238D01*
X-552846952Y563935619D01*
X-552751714Y563935619D01*
X-554085047Y564935619D02*
X-553608857Y564935619D01*
X-553561238Y564459428D01*
X-553608857Y564507047D01*
X-553704095Y564554666D01*
X-553942190Y564554666D01*
X-554037428Y564507047D01*
X-554085047Y564459428D01*
X-554132666Y564364190D01*
X-554132666Y564126095D01*
X-554085047Y564030857D01*
X-554037428Y563983238D01*
X-553942190Y563935619D01*
X-553704095Y563935619D01*
X-553608857Y563983238D01*
X-553561238Y564030857D01*
X-536622666Y583731619D02*
X-536622666Y583017333D01*
X-536575047Y582874476D01*
X-536479809Y582779238D01*
X-536336952Y582731619D01*
X-536241714Y582731619D01*
X-537622666Y582731619D02*
X-537051238Y582731619D01*
X-537336952Y582731619D02*
X-537336952Y583731619D01*
X-537241714Y583588761D01*
X-537146476Y583493523D01*
X-537051238Y583445904D01*
M02*
