G04 #@! TF.GenerationSoftware,KiCad,Pcbnew,(5.1.5-0)*
G04 #@! TF.CreationDate,2020-01-01T00:13:39-08:00*
G04 #@! TF.ProjectId,cisco_hwic_dev_board,63697363-6f5f-4687-9769-635f6465765f,rev?*
G04 #@! TF.SameCoordinates,Original*
G04 #@! TF.FileFunction,Legend,Top*
G04 #@! TF.FilePolarity,Positive*
%FSLAX46Y46*%
G04 Gerber Fmt 4.6, Leading zero omitted, Abs format (unit mm)*
G04 Created by KiCad (PCBNEW (5.1.5-0)) date 2020-01-01 00:13:39*
%MOMM*%
%LPD*%
G04 APERTURE LIST*
%ADD10C,0.120000*%
%ADD11C,0.150000*%
G04 APERTURE END LIST*
D10*
X-551180000Y535813000D02*
G75*
G03X-551180000Y535813000I-254000J0D01*
G01*
D11*
X-550221190Y564648428D02*
X-550183095Y564762714D01*
X-550183095Y564953190D01*
X-550221190Y565029380D01*
X-550259285Y565067476D01*
X-550335476Y565105571D01*
X-550411666Y565105571D01*
X-550487857Y565067476D01*
X-550525952Y565029380D01*
X-550564047Y564953190D01*
X-550602142Y564800809D01*
X-550640238Y564724619D01*
X-550678333Y564686523D01*
X-550754523Y564648428D01*
X-550830714Y564648428D01*
X-550906904Y564686523D01*
X-550945000Y564724619D01*
X-550983095Y564800809D01*
X-550983095Y564991285D01*
X-550945000Y565105571D01*
X-550183095Y565448428D02*
X-550983095Y565448428D01*
X-550983095Y565638904D01*
X-550945000Y565753190D01*
X-550868809Y565829380D01*
X-550792619Y565867476D01*
X-550640238Y565905571D01*
X-550525952Y565905571D01*
X-550373571Y565867476D01*
X-550297380Y565829380D01*
X-550221190Y565753190D01*
X-550183095Y565638904D01*
X-550183095Y565448428D01*
X-552761190Y564584952D02*
X-552723095Y564699238D01*
X-552723095Y564889714D01*
X-552761190Y564965904D01*
X-552799285Y565004000D01*
X-552875476Y565042095D01*
X-552951666Y565042095D01*
X-553027857Y565004000D01*
X-553065952Y564965904D01*
X-553104047Y564889714D01*
X-553142142Y564737333D01*
X-553180238Y564661142D01*
X-553218333Y564623047D01*
X-553294523Y564584952D01*
X-553370714Y564584952D01*
X-553446904Y564623047D01*
X-553485000Y564661142D01*
X-553523095Y564737333D01*
X-553523095Y564927809D01*
X-553485000Y565042095D01*
X-552723095Y565384952D02*
X-553523095Y565384952D01*
X-553523095Y565689714D01*
X-553485000Y565765904D01*
X-553446904Y565804000D01*
X-553370714Y565842095D01*
X-553256428Y565842095D01*
X-553180238Y565804000D01*
X-553142142Y565765904D01*
X-553104047Y565689714D01*
X-553104047Y565384952D01*
X-552723095Y566184952D02*
X-553523095Y566184952D01*
X-554545523Y542728095D02*
X-554926476Y542728095D01*
X-554964571Y542347142D01*
X-554926476Y542385238D01*
X-554850285Y542423333D01*
X-554659809Y542423333D01*
X-554583619Y542385238D01*
X-554545523Y542347142D01*
X-554507428Y542270952D01*
X-554507428Y542080476D01*
X-554545523Y542004285D01*
X-554583619Y541966190D01*
X-554659809Y541928095D01*
X-554850285Y541928095D01*
X-554926476Y541966190D01*
X-554964571Y542004285D01*
X-554939095Y540188095D02*
X-554443857Y540188095D01*
X-554710523Y539883333D01*
X-554596238Y539883333D01*
X-554520047Y539845238D01*
X-554481952Y539807142D01*
X-554443857Y539730952D01*
X-554443857Y539540476D01*
X-554481952Y539464285D01*
X-554520047Y539426190D01*
X-554596238Y539388095D01*
X-554824809Y539388095D01*
X-554901000Y539426190D01*
X-554939095Y539464285D01*
X-554101000Y539464285D02*
X-554062904Y539426190D01*
X-554101000Y539388095D01*
X-554139095Y539426190D01*
X-554101000Y539464285D01*
X-554101000Y539388095D01*
X-553796238Y540188095D02*
X-553301000Y540188095D01*
X-553567666Y539883333D01*
X-553453380Y539883333D01*
X-553377190Y539845238D01*
X-553339095Y539807142D01*
X-553301000Y539730952D01*
X-553301000Y539540476D01*
X-553339095Y539464285D01*
X-553377190Y539426190D01*
X-553453380Y539388095D01*
X-553681952Y539388095D01*
X-553758142Y539426190D01*
X-553796238Y539464285D01*
X-554456523Y537610000D02*
X-554532714Y537648095D01*
X-554647000Y537648095D01*
X-554761285Y537610000D01*
X-554837476Y537533809D01*
X-554875571Y537457619D01*
X-554913666Y537305238D01*
X-554913666Y537190952D01*
X-554875571Y537038571D01*
X-554837476Y536962380D01*
X-554761285Y536886190D01*
X-554647000Y536848095D01*
X-554570809Y536848095D01*
X-554456523Y536886190D01*
X-554418428Y536924285D01*
X-554418428Y537190952D01*
X-554570809Y537190952D01*
X-554075571Y536848095D02*
X-554075571Y537648095D01*
X-553618428Y536848095D01*
X-553618428Y537648095D01*
X-553237476Y536848095D02*
X-553237476Y537648095D01*
X-553047000Y537648095D01*
X-552932714Y537610000D01*
X-552856523Y537533809D01*
X-552818428Y537457619D01*
X-552780333Y537305238D01*
X-552780333Y537190952D01*
X-552818428Y537038571D01*
X-552856523Y536962380D01*
X-552932714Y536886190D01*
X-553047000Y536848095D01*
X-553237476Y536848095D01*
X-546171428Y575730857D02*
X-546171428Y575397523D01*
X-545647619Y575397523D02*
X-546647619Y575397523D01*
X-546647619Y575873714D01*
X-545647619Y576254666D02*
X-546314285Y576254666D01*
X-546123809Y576254666D02*
X-546219047Y576302285D01*
X-546266666Y576349904D01*
X-546314285Y576445142D01*
X-546314285Y576540380D01*
X-545647619Y577016571D02*
X-545695238Y576921333D01*
X-545742857Y576873714D01*
X-545838095Y576826095D01*
X-546123809Y576826095D01*
X-546219047Y576873714D01*
X-546266666Y576921333D01*
X-546314285Y577016571D01*
X-546314285Y577159428D01*
X-546266666Y577254666D01*
X-546219047Y577302285D01*
X-546123809Y577349904D01*
X-545838095Y577349904D01*
X-545742857Y577302285D01*
X-545695238Y577254666D01*
X-545647619Y577159428D01*
X-545647619Y577016571D01*
X-546314285Y577778476D02*
X-545647619Y577778476D01*
X-546219047Y577778476D02*
X-546266666Y577826095D01*
X-546314285Y577921333D01*
X-546314285Y578064190D01*
X-546266666Y578159428D01*
X-546171428Y578207047D01*
X-545647619Y578207047D01*
X-546314285Y578540380D02*
X-546314285Y578921333D01*
X-546647619Y578683238D02*
X-545790476Y578683238D01*
X-545695238Y578730857D01*
X-545647619Y578826095D01*
X-545647619Y578921333D01*
X-551802142Y582568095D02*
X-551802142Y583368095D01*
X-551535476Y582796666D01*
X-551268809Y583368095D01*
X-551268809Y582568095D01*
X-550735476Y583368095D02*
X-550583095Y583368095D01*
X-550506904Y583330000D01*
X-550430714Y583253809D01*
X-550392619Y583101428D01*
X-550392619Y582834761D01*
X-550430714Y582682380D01*
X-550506904Y582606190D01*
X-550583095Y582568095D01*
X-550735476Y582568095D01*
X-550811666Y582606190D01*
X-550887857Y582682380D01*
X-550925952Y582834761D01*
X-550925952Y583101428D01*
X-550887857Y583253809D01*
X-550811666Y583330000D01*
X-550735476Y583368095D01*
X-550087857Y582606190D02*
X-549973571Y582568095D01*
X-549783095Y582568095D01*
X-549706904Y582606190D01*
X-549668809Y582644285D01*
X-549630714Y582720476D01*
X-549630714Y582796666D01*
X-549668809Y582872857D01*
X-549706904Y582910952D01*
X-549783095Y582949047D01*
X-549935476Y582987142D01*
X-550011666Y583025238D01*
X-550049761Y583063333D01*
X-550087857Y583139523D01*
X-550087857Y583215714D01*
X-550049761Y583291904D01*
X-550011666Y583330000D01*
X-549935476Y583368095D01*
X-549745000Y583368095D01*
X-549630714Y583330000D01*
X-549287857Y582568095D02*
X-549287857Y583368095D01*
X-551802142Y580028095D02*
X-551802142Y580828095D01*
X-551535476Y580256666D01*
X-551268809Y580828095D01*
X-551268809Y580028095D01*
X-550887857Y580028095D02*
X-550887857Y580828095D01*
X-550545000Y580066190D02*
X-550430714Y580028095D01*
X-550240238Y580028095D01*
X-550164047Y580066190D01*
X-550125952Y580104285D01*
X-550087857Y580180476D01*
X-550087857Y580256666D01*
X-550125952Y580332857D01*
X-550164047Y580370952D01*
X-550240238Y580409047D01*
X-550392619Y580447142D01*
X-550468809Y580485238D01*
X-550506904Y580523333D01*
X-550545000Y580599523D01*
X-550545000Y580675714D01*
X-550506904Y580751904D01*
X-550468809Y580790000D01*
X-550392619Y580828095D01*
X-550202142Y580828095D01*
X-550087857Y580790000D01*
X-549592619Y580828095D02*
X-549440238Y580828095D01*
X-549364047Y580790000D01*
X-549287857Y580713809D01*
X-549249761Y580561428D01*
X-549249761Y580294761D01*
X-549287857Y580142380D01*
X-549364047Y580066190D01*
X-549440238Y580028095D01*
X-549592619Y580028095D01*
X-549668809Y580066190D01*
X-549745000Y580142380D01*
X-549783095Y580294761D01*
X-549783095Y580561428D01*
X-549745000Y580713809D01*
X-549668809Y580790000D01*
X-549592619Y580828095D01*
X-551878333Y572408095D02*
X-551878333Y573208095D01*
X-551687857Y573208095D01*
X-551573571Y573170000D01*
X-551497380Y573093809D01*
X-551459285Y573017619D01*
X-551421190Y572865238D01*
X-551421190Y572750952D01*
X-551459285Y572598571D01*
X-551497380Y572522380D01*
X-551573571Y572446190D01*
X-551687857Y572408095D01*
X-551878333Y572408095D01*
X-550621190Y572484285D02*
X-550659285Y572446190D01*
X-550773571Y572408095D01*
X-550849761Y572408095D01*
X-550964047Y572446190D01*
X-551040238Y572522380D01*
X-551078333Y572598571D01*
X-551116428Y572750952D01*
X-551116428Y572865238D01*
X-551078333Y573017619D01*
X-551040238Y573093809D01*
X-550964047Y573170000D01*
X-550849761Y573208095D01*
X-550773571Y573208095D01*
X-550659285Y573170000D01*
X-550621190Y573131904D01*
X-549897380Y572408095D02*
X-550278333Y572408095D01*
X-550278333Y573208095D01*
X-549630714Y572408095D02*
X-549630714Y573208095D01*
X-549173571Y572408095D02*
X-549516428Y572865238D01*
X-549173571Y573208095D02*
X-549630714Y572750952D01*
D10*
X-536879800Y546760400D02*
X-536727400Y546760400D01*
X-537083000Y553059600D02*
X-536727400Y553059600D01*
X-536879800Y559511200D02*
X-536727400Y559511200D01*
X-537083000Y565759600D02*
X-536727400Y565759600D01*
X-536879800Y572109600D02*
X-536727400Y572109600D01*
X-537083000Y578510400D02*
X-536727400Y578510400D01*
X-540080200Y577240400D02*
X-539927800Y577240400D01*
X-540232600Y577240400D02*
X-539877000Y577240400D01*
X-540232600Y570890400D02*
X-540080200Y570890400D01*
X-540181800Y564540400D02*
X-539826200Y564540400D01*
X-540232600Y558139600D02*
X-540080200Y558139600D01*
X-540232600Y551789600D02*
X-539877000Y551789600D01*
X-540232600Y545388800D02*
X-540080200Y545388800D01*
D11*
X-538607000Y540258000D02*
X-538607000Y539242000D01*
X-539623000Y540258000D02*
X-538607000Y540258000D01*
X-539623000Y539242000D02*
X-539623000Y540258000D01*
X-538607000Y539242000D02*
X-539623000Y539242000D01*
X-538734000Y581660000D02*
G75*
G03X-538734000Y581660000I-381000J0D01*
G01*
X-537464000Y581660000D02*
G75*
G03X-537464000Y581660000I-381000J0D01*
G01*
X-538734000Y579120000D02*
G75*
G03X-538734000Y579120000I-381000J0D01*
G01*
X-538734000Y576580000D02*
G75*
G03X-538734000Y576580000I-381000J0D01*
G01*
X-538734000Y574040000D02*
G75*
G03X-538734000Y574040000I-381000J0D01*
G01*
X-538734000Y568960000D02*
G75*
G03X-538734000Y568960000I-381000J0D01*
G01*
X-538734000Y567690000D02*
G75*
G03X-538734000Y567690000I-381000J0D01*
G01*
X-537464000Y567690000D02*
G75*
G03X-537464000Y567690000I-381000J0D01*
G01*
X-537464000Y566420000D02*
G75*
G03X-537464000Y566420000I-381000J0D01*
G01*
X-538734000Y560070000D02*
G75*
G03X-538734000Y560070000I-381000J0D01*
G01*
X-537464000Y560070000D02*
G75*
G03X-537464000Y560070000I-381000J0D01*
G01*
X-537464000Y547370000D02*
G75*
G03X-537464000Y547370000I-381000J0D01*
G01*
X-537464000Y548640000D02*
G75*
G03X-537464000Y548640000I-381000J0D01*
G01*
X-537464000Y549910000D02*
G75*
G03X-537464000Y549910000I-381000J0D01*
G01*
X-538734000Y549910000D02*
G75*
G03X-538734000Y549910000I-381000J0D01*
G01*
X-538734000Y548640000D02*
G75*
G03X-538734000Y548640000I-381000J0D01*
G01*
X-538734000Y547370000D02*
G75*
G03X-538734000Y547370000I-381000J0D01*
G01*
X-538734000Y546100000D02*
G75*
G03X-538734000Y546100000I-381000J0D01*
G01*
X-537464000Y544830000D02*
G75*
G03X-537464000Y544830000I-381000J0D01*
G01*
X-538734000Y539750000D02*
G75*
G03X-538734000Y539750000I-381000J0D01*
G01*
X-537464000Y539750000D02*
G75*
G03X-537464000Y539750000I-381000J0D01*
G01*
D10*
X-539128000Y539064200D02*
X-540258000Y539064200D01*
X-540258000Y539826200D02*
X-540258000Y539066200D01*
X-536717730Y539064200D02*
X-537540200Y539064200D01*
X-538277530Y539055000D02*
X-538480000Y539055000D01*
X-538480000Y539186529D02*
X-538480000Y539055000D01*
X-538480000Y540512000D02*
X-538480000Y540368942D01*
X-538336942Y540512000D02*
X-538480000Y540512000D01*
X-539666071Y540510000D02*
X-540232600Y540510000D01*
X-540245000Y540512000D02*
X-540245000Y582355000D01*
X-536715000Y539064200D02*
X-536715000Y582355000D01*
X-538152530Y582355000D02*
X-538807470Y582355000D01*
X-539422530Y582355000D02*
X-540245000Y582355000D01*
X-536715000Y582355000D02*
X-537537470Y582355000D01*
X-526355000Y535245000D02*
X-527685000Y535245000D01*
X-526355000Y536575000D02*
X-526355000Y535245000D01*
X-528955000Y535245000D02*
X-531555000Y535245000D01*
X-528955000Y537845000D02*
X-528955000Y535245000D01*
X-526355000Y537845000D02*
X-528955000Y537845000D01*
X-531555000Y535245000D02*
X-531555000Y586165000D01*
X-526355000Y537845000D02*
X-526355000Y586165000D01*
X-526355000Y586165000D02*
X-531555000Y586165000D01*
X-546196733Y572772000D02*
X-546539267Y572772000D01*
X-546196733Y571752000D02*
X-546539267Y571752000D01*
X-552390000Y571440000D02*
X-553720000Y571440000D01*
X-552390000Y572770000D02*
X-552390000Y571440000D01*
X-554990000Y571440000D02*
X-557590000Y571440000D01*
X-554990000Y574040000D02*
X-554990000Y571440000D01*
X-552390000Y574040000D02*
X-554990000Y574040000D01*
X-557590000Y571440000D02*
X-557590000Y584260000D01*
X-552390000Y574040000D02*
X-552390000Y584260000D01*
X-552390000Y584260000D02*
X-557590000Y584260000D01*
X-540325000Y540960000D02*
X-541655000Y540960000D01*
X-540325000Y542290000D02*
X-540325000Y540960000D01*
X-540325000Y543560000D02*
X-542985000Y543560000D01*
X-542985000Y543560000D02*
X-542985000Y579180000D01*
X-540325000Y543560000D02*
X-540325000Y579180000D01*
X-540325000Y579180000D02*
X-542985000Y579180000D01*
X-545975000Y540796267D02*
X-545975000Y540453733D01*
X-544955000Y540796267D02*
X-544955000Y540453733D01*
X-551740000Y538062500D02*
X-551740000Y536410000D01*
X-552022500Y538062500D02*
X-551740000Y538062500D01*
X-552022500Y540810000D02*
X-552022500Y538062500D01*
X-552022500Y543557500D02*
X-551740000Y543557500D01*
X-552022500Y540810000D02*
X-552022500Y543557500D01*
X-546527500Y538062500D02*
X-546810000Y538062500D01*
X-546527500Y540810000D02*
X-546527500Y538062500D01*
X-546527500Y543557500D02*
X-546810000Y543557500D01*
X-546527500Y540810000D02*
X-546527500Y543557500D01*
X-555625000Y535940000D02*
X-556895000Y535940000D01*
X-555625000Y537210000D02*
X-555625000Y535940000D01*
X-557937929Y542670000D02*
X-558335000Y542670000D01*
X-557937929Y541910000D02*
X-558335000Y541910000D01*
X-566995000Y542670000D02*
X-560995000Y542670000D01*
X-566995000Y541910000D02*
X-566995000Y542670000D01*
X-560995000Y541910000D02*
X-566995000Y541910000D01*
X-558335000Y541020000D02*
X-560995000Y541020000D01*
X-557937929Y540130000D02*
X-558335000Y540130000D01*
X-557937929Y539370000D02*
X-558335000Y539370000D01*
X-566995000Y540130000D02*
X-560995000Y540130000D01*
X-566995000Y539370000D02*
X-566995000Y540130000D01*
X-560995000Y539370000D02*
X-566995000Y539370000D01*
X-558335000Y538480000D02*
X-560995000Y538480000D01*
X-558005000Y537590000D02*
X-558335000Y537590000D01*
X-558005000Y536830000D02*
X-558335000Y536830000D01*
X-560995000Y537490000D02*
X-566995000Y537490000D01*
X-560995000Y537370000D02*
X-566995000Y537370000D01*
X-560995000Y537250000D02*
X-566995000Y537250000D01*
X-560995000Y537130000D02*
X-566995000Y537130000D01*
X-560995000Y537010000D02*
X-566995000Y537010000D01*
X-560995000Y536890000D02*
X-566995000Y536890000D01*
X-566995000Y537590000D02*
X-560995000Y537590000D01*
X-566995000Y536830000D02*
X-566995000Y537590000D01*
X-560995000Y536830000D02*
X-566995000Y536830000D01*
X-560995000Y535880000D02*
X-558335000Y535880000D01*
X-560995000Y543620000D02*
X-560995000Y535880000D01*
X-558335000Y543620000D02*
X-560995000Y543620000D01*
X-558335000Y535880000D02*
X-558335000Y543620000D01*
X-548190267Y554734000D02*
X-547847733Y554734000D01*
X-548190267Y555754000D02*
X-547847733Y555754000D01*
X-551375733Y555754000D02*
X-551718267Y555754000D01*
X-551375733Y554734000D02*
X-551718267Y554734000D01*
X-548190267Y552575000D02*
X-547847733Y552575000D01*
X-548190267Y553595000D02*
X-547847733Y553595000D01*
X-551403733Y551690000D02*
X-551746267Y551690000D01*
X-551403733Y550670000D02*
X-551746267Y550670000D01*
D11*
X-540083333Y538900619D02*
X-540083333Y538186333D01*
X-540130952Y538043476D01*
X-540226190Y537948238D01*
X-540369047Y537900619D01*
X-540464285Y537900619D01*
X-539654761Y538805380D02*
X-539607142Y538853000D01*
X-539511904Y538900619D01*
X-539273809Y538900619D01*
X-539178571Y538853000D01*
X-539130952Y538805380D01*
X-539083333Y538710142D01*
X-539083333Y538614904D01*
X-539130952Y538472047D01*
X-539702380Y537900619D01*
X-539083333Y537900619D01*
X-532931619Y536114666D02*
X-532217333Y536114666D01*
X-532074476Y536067047D01*
X-531979238Y535971809D01*
X-531931619Y535828952D01*
X-531931619Y535733714D01*
X-531931619Y537114666D02*
X-531931619Y536543238D01*
X-531931619Y536828952D02*
X-532931619Y536828952D01*
X-532788761Y536733714D01*
X-532693523Y536638476D01*
X-532645904Y536543238D01*
X-546534666Y570474857D02*
X-546582285Y570427238D01*
X-546725142Y570379619D01*
X-546820380Y570379619D01*
X-546963238Y570427238D01*
X-547058476Y570522476D01*
X-547106095Y570617714D01*
X-547153714Y570808190D01*
X-547153714Y570951047D01*
X-547106095Y571141523D01*
X-547058476Y571236761D01*
X-546963238Y571332000D01*
X-546820380Y571379619D01*
X-546725142Y571379619D01*
X-546582285Y571332000D01*
X-546534666Y571284380D01*
X-546153714Y571284380D02*
X-546106095Y571332000D01*
X-546010857Y571379619D01*
X-545772761Y571379619D01*
X-545677523Y571332000D01*
X-545629904Y571284380D01*
X-545582285Y571189142D01*
X-545582285Y571093904D01*
X-545629904Y570951047D01*
X-546201333Y570379619D01*
X-545582285Y570379619D01*
X-551981619Y576881666D02*
X-551267333Y576881666D01*
X-551124476Y576834047D01*
X-551029238Y576738809D01*
X-550981619Y576595952D01*
X-550981619Y576500714D01*
X-551648285Y577786428D02*
X-550981619Y577786428D01*
X-552029238Y577548333D02*
X-551314952Y577310238D01*
X-551314952Y577929285D01*
X-544361619Y544369666D02*
X-543647333Y544369666D01*
X-543504476Y544322047D01*
X-543409238Y544226809D01*
X-543361619Y544083952D01*
X-543361619Y543988714D01*
X-544361619Y544750619D02*
X-544361619Y545369666D01*
X-543980666Y545036333D01*
X-543980666Y545179190D01*
X-543933047Y545274428D01*
X-543885428Y545322047D01*
X-543790190Y545369666D01*
X-543552095Y545369666D01*
X-543456857Y545322047D01*
X-543409238Y545274428D01*
X-543361619Y545179190D01*
X-543361619Y544893476D01*
X-543409238Y544798238D01*
X-543456857Y544750619D01*
X-543837857Y541488333D02*
X-543790238Y541440714D01*
X-543742619Y541297857D01*
X-543742619Y541202619D01*
X-543790238Y541059761D01*
X-543885476Y540964523D01*
X-543980714Y540916904D01*
X-544171190Y540869285D01*
X-544314047Y540869285D01*
X-544504523Y540916904D01*
X-544599761Y540964523D01*
X-544695000Y541059761D01*
X-544742619Y541202619D01*
X-544742619Y541297857D01*
X-544695000Y541440714D01*
X-544647380Y541488333D01*
X-543742619Y542440714D02*
X-543742619Y541869285D01*
X-543742619Y542155000D02*
X-544742619Y542155000D01*
X-544599761Y542059761D01*
X-544504523Y541964523D01*
X-544456904Y541869285D01*
X-546139619Y535984095D02*
X-545330095Y535984095D01*
X-545234857Y536031714D01*
X-545187238Y536079333D01*
X-545139619Y536174571D01*
X-545139619Y536365047D01*
X-545187238Y536460285D01*
X-545234857Y536507904D01*
X-545330095Y536555523D01*
X-546139619Y536555523D01*
X-545139619Y537555523D02*
X-545139619Y536984095D01*
X-545139619Y537269809D02*
X-546139619Y537269809D01*
X-545996761Y537174571D01*
X-545901523Y537079333D01*
X-545853904Y536984095D01*
X-554815333Y535979619D02*
X-554815333Y535265333D01*
X-554862952Y535122476D01*
X-554958190Y535027238D01*
X-555101047Y534979619D01*
X-555196285Y534979619D01*
X-554434380Y535979619D02*
X-553767714Y535979619D01*
X-554196285Y534979619D01*
X-545631666Y554791619D02*
X-545965000Y555267809D01*
X-546203095Y554791619D02*
X-546203095Y555791619D01*
X-545822142Y555791619D01*
X-545726904Y555744000D01*
X-545679285Y555696380D01*
X-545631666Y555601142D01*
X-545631666Y555458285D01*
X-545679285Y555363047D01*
X-545726904Y555315428D01*
X-545822142Y555267809D01*
X-546203095Y555267809D01*
X-545060238Y555363047D02*
X-545155476Y555410666D01*
X-545203095Y555458285D01*
X-545250714Y555553523D01*
X-545250714Y555601142D01*
X-545203095Y555696380D01*
X-545155476Y555744000D01*
X-545060238Y555791619D01*
X-544869761Y555791619D01*
X-544774523Y555744000D01*
X-544726904Y555696380D01*
X-544679285Y555601142D01*
X-544679285Y555553523D01*
X-544726904Y555458285D01*
X-544774523Y555410666D01*
X-544869761Y555363047D01*
X-545060238Y555363047D01*
X-545155476Y555315428D01*
X-545203095Y555267809D01*
X-545250714Y555172571D01*
X-545250714Y554982095D01*
X-545203095Y554886857D01*
X-545155476Y554839238D01*
X-545060238Y554791619D01*
X-544869761Y554791619D01*
X-544774523Y554839238D01*
X-544726904Y554886857D01*
X-544679285Y554982095D01*
X-544679285Y555172571D01*
X-544726904Y555267809D01*
X-544774523Y555315428D01*
X-544869761Y555363047D01*
X-551445666Y556315619D02*
X-551779000Y556791809D01*
X-552017095Y556315619D02*
X-552017095Y557315619D01*
X-551636142Y557315619D01*
X-551540904Y557268000D01*
X-551493285Y557220380D01*
X-551445666Y557125142D01*
X-551445666Y556982285D01*
X-551493285Y556887047D01*
X-551540904Y556839428D01*
X-551636142Y556791809D01*
X-552017095Y556791809D01*
X-551112333Y557315619D02*
X-550445666Y557315619D01*
X-550874238Y556315619D01*
X-545631666Y552632619D02*
X-545965000Y553108809D01*
X-546203095Y552632619D02*
X-546203095Y553632619D01*
X-545822142Y553632619D01*
X-545726904Y553585000D01*
X-545679285Y553537380D01*
X-545631666Y553442142D01*
X-545631666Y553299285D01*
X-545679285Y553204047D01*
X-545726904Y553156428D01*
X-545822142Y553108809D01*
X-546203095Y553108809D01*
X-544774523Y553632619D02*
X-544965000Y553632619D01*
X-545060238Y553585000D01*
X-545107857Y553537380D01*
X-545203095Y553394523D01*
X-545250714Y553204047D01*
X-545250714Y552823095D01*
X-545203095Y552727857D01*
X-545155476Y552680238D01*
X-545060238Y552632619D01*
X-544869761Y552632619D01*
X-544774523Y552680238D01*
X-544726904Y552727857D01*
X-544679285Y552823095D01*
X-544679285Y553061190D01*
X-544726904Y553156428D01*
X-544774523Y553204047D01*
X-544869761Y553251666D01*
X-545060238Y553251666D01*
X-545155476Y553204047D01*
X-545203095Y553156428D01*
X-545250714Y553061190D01*
X-551741666Y549297619D02*
X-552075000Y549773809D01*
X-552313095Y549297619D02*
X-552313095Y550297619D01*
X-551932142Y550297619D01*
X-551836904Y550250000D01*
X-551789285Y550202380D01*
X-551741666Y550107142D01*
X-551741666Y549964285D01*
X-551789285Y549869047D01*
X-551836904Y549821428D01*
X-551932142Y549773809D01*
X-552313095Y549773809D01*
X-551408333Y550297619D02*
X-550789285Y550297619D01*
X-551122619Y549916666D01*
X-550979761Y549916666D01*
X-550884523Y549869047D01*
X-550836904Y549821428D01*
X-550789285Y549726190D01*
X-550789285Y549488095D01*
X-550836904Y549392857D01*
X-550884523Y549345238D01*
X-550979761Y549297619D01*
X-551265476Y549297619D01*
X-551360714Y549345238D01*
X-551408333Y549392857D01*
M02*
